M48
; DRILL file {KiCad 9.0.7} date 2026-03-09T17:25:30+0900
; FORMAT={-:-/ absolute / inch / decimal}
; #@! TF.CreationDate,2026-03-09T17:25:30+09:00
; #@! TF.GenerationSoftware,Kicad,Pcbnew,9.0.7
; #@! TF.FileFunction,Plated,1,4,PTH
FMAT,2
INCH
; #@! TA.AperFunction,Plated,PTH,ViaDrill
T1C0.0118
; #@! TA.AperFunction,Plated,PTH,ComponentDrill
T2C0.0118
; #@! TA.AperFunction,Plated,PTH,ComponentDrill
T3C0.1063
%
G90
G05
T1
X7.1299Y-1.4941
X7.3465Y-6.0305
T2
X1.9956Y-4.377
X1.9956Y-4.5148
X2.1097Y-4.3337
X2.1097Y-4.4715
X2.1333Y-3.5502
X2.1333Y-3.688
X2.1333Y-3.8258
X2.1333Y-3.9636
X2.1333Y-4.1014
X2.1333Y-4.2392
X2.1333Y-4.377
X2.1333Y-4.5148
X2.1333Y-4.6526
X2.2475Y-3.5069
X2.2475Y-3.6447
X2.2475Y-3.7825
X2.2475Y-3.9203
X2.2475Y-4.0581
X2.2475Y-4.1959
X2.2475Y-4.3337
X2.2475Y-4.4715
X2.2475Y-4.6093
X2.2711Y-3.4124
X2.2711Y-3.5502
X2.2711Y-3.8258
X2.2711Y-3.9636
X2.2711Y-4.1014
X2.2711Y-4.377
X2.2711Y-4.5148
X2.2711Y-3.688
X2.2711Y-4.2392
X2.2711Y-4.6526
X2.3853Y-3.3691
X2.3853Y-3.5069
X2.3853Y-3.7825
X2.3853Y-3.9203
X2.3853Y-4.0581
X2.3853Y-4.3337
X2.3853Y-4.4715
X2.3853Y-3.6447
X2.3853Y-4.1959
X2.3853Y-4.6093
X2.4089Y-3.2746
X2.4089Y-3.4124
X2.4089Y-3.5502
X2.4089Y-3.688
X2.4089Y-3.8258
X2.4089Y-3.9636
X2.4089Y-4.1014
X2.4089Y-4.2392
X2.4089Y-4.377
X2.4089Y-4.5148
X2.4089Y-4.6526
X2.4089Y-4.7904
X2.4089Y-4.9281
X2.4089Y-5.0659
X2.4089Y-5.2037
X2.4089Y-5.3415
X2.4089Y-5.4793
X2.5231Y-3.2313
X2.5231Y-3.3691
X2.5231Y-3.5069
X2.5231Y-3.6447
X2.5231Y-3.7825
X2.5231Y-3.9203
X2.5231Y-4.0581
X2.5231Y-4.1959
X2.5231Y-4.3337
X2.5231Y-4.4715
X2.5231Y-4.6093
X2.5231Y-4.747
X2.5231Y-4.8848
X2.5231Y-5.0226
X2.5231Y-5.1604
X2.5231Y-5.2982
X2.5231Y-5.436
X2.5467Y-3.2746
X2.5467Y-3.5502
X2.5467Y-3.688
X2.5467Y-3.8258
X2.5467Y-4.1014
X2.5467Y-4.2392
X2.5467Y-4.377
X2.5467Y-4.6526
X2.5467Y-4.7904
X2.5467Y-5.2037
X2.5467Y-5.3415
X2.5467Y-5.6171
X2.5467Y-5.7549
X2.5467Y-3.4124
X2.5467Y-3.9636
X2.5467Y-4.5148
X2.5467Y-4.9281
X2.5467Y-5.0659
X2.5467Y-5.4793
X2.6609Y-3.2313
X2.6609Y-3.5069
X2.6609Y-3.6447
X2.6609Y-3.7825
X2.6609Y-4.0581
X2.6609Y-4.1959
X2.6609Y-4.3337
X2.6609Y-4.6093
X2.6609Y-4.747
X2.6609Y-5.1604
X2.6609Y-5.2982
X2.6609Y-5.5738
X2.6609Y-5.7116
X2.6609Y-3.3691
X2.6609Y-3.9203
X2.6609Y-4.4715
X2.6609Y-4.8848
X2.6609Y-5.0226
X2.6609Y-5.436
X2.6845Y-3.4124
X2.6845Y-3.9636
X2.6845Y-4.5148
X2.6845Y-5.4793
X2.6845Y-3.2746
X2.6845Y-3.5502
X2.6845Y-3.688
X2.6845Y-3.8258
X2.6845Y-4.1014
X2.6845Y-4.2392
X2.6845Y-4.377
X2.6845Y-4.6526
X2.6845Y-4.7904
X2.6845Y-4.9281
X2.6845Y-5.0659
X2.6845Y-5.2037
X2.6845Y-5.3415
X2.6845Y-5.6171
X2.6845Y-5.7549
X2.6845Y-5.8927
X2.7987Y-3.3691
X2.7987Y-3.9203
X2.7987Y-4.4715
X2.7987Y-5.436
X2.7987Y-3.2313
X2.7987Y-3.5069
X2.7987Y-3.6447
X2.7987Y-3.7825
X2.7987Y-4.0581
X2.7987Y-4.1959
X2.7987Y-4.3337
X2.7987Y-4.6093
X2.7987Y-4.747
X2.7987Y-4.8848
X2.7987Y-5.0226
X2.7987Y-5.1604
X2.7987Y-5.2982
X2.7987Y-5.5738
X2.7987Y-5.7116
X2.7987Y-5.8494
X2.8223Y-3.2746
X2.8223Y-3.4124
X2.8223Y-3.5502
X2.8223Y-3.8258
X2.8223Y-3.9636
X2.8223Y-4.1014
X2.8223Y-4.377
X2.8223Y-4.5148
X2.8223Y-4.6526
X2.8223Y-4.9281
X2.8223Y-5.0659
X2.8223Y-5.3415
X2.8223Y-5.4793
X2.8223Y-5.6171
X2.8223Y-5.8927
X2.8223Y-3.1368
X2.8223Y-3.688
X2.8223Y-4.2392
X2.8223Y-4.7904
X2.8223Y-5.2037
X2.8223Y-5.7549
X2.9365Y-3.2313
X2.9365Y-3.3691
X2.9365Y-3.5069
X2.9365Y-3.7825
X2.9365Y-3.9203
X2.9365Y-4.0581
X2.9365Y-4.3337
X2.9365Y-4.4715
X2.9365Y-4.6093
X2.9365Y-4.8848
X2.9365Y-5.0226
X2.9365Y-5.2982
X2.9365Y-5.436
X2.9365Y-5.5738
X2.9365Y-5.8494
X2.9365Y-3.0935
X2.9365Y-3.6447
X2.9365Y-4.1959
X2.9365Y-4.747
X2.9365Y-5.1604
X2.9365Y-5.7116
X2.9601Y-3.1368
X2.9601Y-3.688
X2.9601Y-4.2392
X2.9601Y-4.7904
X2.9601Y-5.2037
X2.9601Y-5.7549
X2.9601Y-3.2746
X2.9601Y-3.4124
X2.9601Y-3.5502
X2.9601Y-3.8258
X2.9601Y-3.9636
X2.9601Y-4.1014
X2.9601Y-4.377
X2.9601Y-4.5148
X2.9601Y-4.6526
X2.9601Y-4.9281
X2.9601Y-5.0659
X2.9601Y-5.3415
X2.9601Y-5.4793
X2.9601Y-5.6171
X2.9601Y-5.8927
X2.9601Y-6.0305
X3.0743Y-3.0935
X3.0743Y-3.6447
X3.0743Y-4.1959
X3.0743Y-4.747
X3.0743Y-5.1604
X3.0743Y-5.7116
X3.0743Y-3.2313
X3.0743Y-3.3691
X3.0743Y-3.5069
X3.0743Y-3.7825
X3.0743Y-3.9203
X3.0743Y-4.0581
X3.0743Y-4.3337
X3.0743Y-4.4715
X3.0743Y-4.6093
X3.0743Y-4.8848
X3.0743Y-5.0226
X3.0743Y-5.2982
X3.0743Y-5.436
X3.0743Y-5.5738
X3.0743Y-5.8494
X3.0743Y-5.9872
X3.0979Y-2.999
X3.0979Y-3.1368
X3.0979Y-3.2746
X3.0979Y-3.5502
X3.0979Y-3.688
X3.0979Y-3.8258
X3.0979Y-4.1014
X3.0979Y-4.2392
X3.0979Y-4.377
X3.0979Y-4.6526
X3.0979Y-4.7904
X3.0979Y-4.9281
X3.0979Y-5.0659
X3.0979Y-5.2037
X3.0979Y-5.3415
X3.0979Y-5.6171
X3.0979Y-5.7549
X3.0979Y-5.8927
X3.0979Y-3.4124
X3.0979Y-3.9636
X3.0979Y-4.5148
X3.0979Y-5.4793
X3.0979Y-6.0305
X3.2121Y-2.9557
X3.2121Y-3.0935
X3.2121Y-3.2313
X3.2121Y-3.5069
X3.2121Y-3.6447
X3.2121Y-3.7825
X3.2121Y-4.0581
X3.2121Y-4.1959
X3.2121Y-4.3337
X3.2121Y-4.6093
X3.2121Y-4.747
X3.2121Y-4.8848
X3.2121Y-5.0226
X3.2121Y-5.1604
X3.2121Y-5.2982
X3.2121Y-5.5738
X3.2121Y-5.7116
X3.2121Y-5.8494
X3.2121Y-3.3691
X3.2121Y-3.9203
X3.2121Y-4.4715
X3.2121Y-5.436
X3.2121Y-5.9872
X3.2357Y-3.4124
X3.2357Y-3.9636
X3.2357Y-4.5148
X3.2357Y-4.9281
X3.2357Y-5.0659
X3.2357Y-5.4793
X3.2357Y-6.0305
X3.2357Y-2.999
X3.2357Y-3.1368
X3.2357Y-3.2746
X3.2357Y-3.5502
X3.2357Y-3.688
X3.2357Y-3.8258
X3.2357Y-4.1014
X3.2357Y-4.2392
X3.2357Y-4.377
X3.2357Y-4.6526
X3.2357Y-4.7904
X3.2357Y-5.2037
X3.2357Y-5.3415
X3.2357Y-5.6171
X3.2357Y-5.7549
X3.2357Y-5.8927
X3.3499Y-3.3691
X3.3499Y-3.9203
X3.3499Y-4.4715
X3.3499Y-4.8848
X3.3499Y-5.0226
X3.3499Y-5.436
X3.3499Y-5.9872
X3.3499Y-2.9557
X3.3499Y-3.0935
X3.3499Y-3.2313
X3.3499Y-3.5069
X3.3499Y-3.6447
X3.3499Y-3.7825
X3.3499Y-4.0581
X3.3499Y-4.1959
X3.3499Y-4.3337
X3.3499Y-4.6093
X3.3499Y-4.747
X3.3499Y-5.1604
X3.3499Y-5.2982
X3.3499Y-5.5738
X3.3499Y-5.7116
X3.3499Y-5.8494
X3.3735Y-2.999
X3.3735Y-3.2746
X3.3735Y-3.4124
X3.3735Y-3.5502
X3.3735Y-3.8258
X3.3735Y-3.9636
X3.3735Y-4.1014
X3.3735Y-4.377
X3.3735Y-4.5148
X3.3735Y-4.6526
X3.3735Y-4.7904
X3.3735Y-4.9281
X3.3735Y-5.0659
X3.3735Y-5.2037
X3.3735Y-5.3415
X3.3735Y-5.4793
X3.3735Y-5.6171
X3.3735Y-5.8927
X3.3735Y-6.0305
X3.3735Y-3.1368
X3.3735Y-3.688
X3.3735Y-4.2392
X3.3735Y-5.7549
X3.4877Y-2.9557
X3.4877Y-3.2313
X3.4877Y-3.3691
X3.4877Y-3.5069
X3.4877Y-3.7825
X3.4877Y-3.9203
X3.4877Y-4.0581
X3.4877Y-4.3337
X3.4877Y-4.4715
X3.4877Y-4.6093
X3.4877Y-4.747
X3.4877Y-4.8848
X3.4877Y-5.0226
X3.4877Y-5.1604
X3.4877Y-5.2982
X3.4877Y-5.436
X3.4877Y-5.5738
X3.4877Y-5.8494
X3.4877Y-5.9872
X3.4877Y-3.0935
X3.4877Y-3.6447
X3.4877Y-4.1959
X3.4877Y-5.7116
X3.5113Y-3.1368
X3.5113Y-3.688
X3.5113Y-4.2392
X3.5113Y-4.6526
X3.5113Y-4.7904
X3.5113Y-5.2037
X3.5113Y-5.3415
X3.5113Y-5.7549
X3.5113Y-2.8612
X3.5113Y-2.999
X3.5113Y-3.2746
X3.5113Y-3.4124
X3.5113Y-3.5502
X3.5113Y-3.8258
X3.5113Y-3.9636
X3.5113Y-4.1014
X3.5113Y-4.377
X3.5113Y-4.5148
X3.5113Y-4.9281
X3.5113Y-5.0659
X3.5113Y-5.4793
X3.5113Y-5.6171
X3.5113Y-5.8927
X3.5113Y-6.0305
X3.6255Y-3.0935
X3.6255Y-3.6447
X3.6255Y-4.1959
X3.6255Y-4.6093
X3.6255Y-4.747
X3.6255Y-5.1604
X3.6255Y-5.2982
X3.6255Y-5.7116
X3.6255Y-2.8179
X3.6255Y-2.9557
X3.6255Y-3.2313
X3.6255Y-3.3691
X3.6255Y-3.5069
X3.6255Y-3.7825
X3.6255Y-3.9203
X3.6255Y-4.0581
X3.6255Y-4.3337
X3.6255Y-4.4715
X3.6255Y-4.8848
X3.6255Y-5.0226
X3.6255Y-5.436
X3.6255Y-5.5738
X3.6255Y-5.8494
X3.6255Y-5.9872
X3.6491Y-2.8612
X3.6491Y-2.999
X3.6491Y-3.1368
X3.6491Y-3.2746
X3.6491Y-3.5502
X3.6491Y-3.688
X3.6491Y-3.8258
X3.6491Y-4.1014
X3.6491Y-4.2392
X3.6491Y-4.377
X3.6491Y-4.5148
X3.6491Y-4.6526
X3.6491Y-4.7904
X3.6491Y-4.9281
X3.6491Y-5.0659
X3.6491Y-5.2037
X3.6491Y-5.3415
X3.6491Y-5.4793
X3.6491Y-5.6171
X3.6491Y-5.7549
X3.6491Y-5.8927
X3.6491Y-3.4124
X3.6491Y-3.9636
X3.6491Y-6.0305
X3.7633Y-2.8179
X3.7633Y-2.9557
X3.7633Y-3.0935
X3.7633Y-3.2313
X3.7633Y-3.5069
X3.7633Y-3.6447
X3.7633Y-3.7825
X3.7633Y-4.0581
X3.7633Y-4.1959
X3.7633Y-4.3337
X3.7633Y-4.4715
X3.7633Y-4.6093
X3.7633Y-4.747
X3.7633Y-4.8848
X3.7633Y-5.0226
X3.7633Y-5.1604
X3.7633Y-5.2982
X3.7633Y-5.436
X3.7633Y-5.5738
X3.7633Y-5.7116
X3.7633Y-5.8494
X3.7633Y-3.3691
X3.7633Y-3.9203
X3.7633Y-5.9872
X3.7869Y-2.8612
X3.7869Y-2.999
X3.7869Y-3.4124
X3.7869Y-3.9636
X3.7869Y-4.377
X3.7869Y-4.5148
X3.7869Y-4.9281
X3.7869Y-5.0659
X3.7869Y-5.4793
X3.7869Y-5.6171
X3.7869Y-6.0305
X3.7869Y-3.1368
X3.7869Y-3.2746
X3.7869Y-3.5502
X3.7869Y-3.688
X3.7869Y-3.8258
X3.7869Y-4.1014
X3.7869Y-4.2392
X3.7869Y-4.6526
X3.7869Y-4.7904
X3.7869Y-5.2037
X3.7869Y-5.3415
X3.7869Y-5.7549
X3.7869Y-5.8927
X3.9011Y-2.8179
X3.9011Y-2.9557
X3.9011Y-3.3691
X3.9011Y-3.9203
X3.9011Y-4.3337
X3.9011Y-4.4715
X3.9011Y-4.8848
X3.9011Y-5.0226
X3.9011Y-5.436
X3.9011Y-5.5738
X3.9011Y-5.9872
X3.9011Y-3.0935
X3.9011Y-3.2313
X3.9011Y-3.5069
X3.9011Y-3.6447
X3.9011Y-3.7825
X3.9011Y-4.0581
X3.9011Y-4.1959
X3.9011Y-4.6093
X3.9011Y-4.747
X3.9011Y-5.1604
X3.9011Y-5.2982
X3.9011Y-5.7116
X3.9011Y-5.8494
X3.9247Y-2.7234
X3.9247Y-2.8612
X3.9247Y-2.999
X3.9247Y-3.1368
X3.9247Y-3.2746
X3.9247Y-3.4124
X3.9247Y-3.5502
X3.9247Y-3.8258
X3.9247Y-3.9636
X3.9247Y-4.1014
X3.9247Y-4.2392
X3.9247Y-4.377
X3.9247Y-4.5148
X3.9247Y-4.6526
X3.9247Y-4.7904
X3.9247Y-4.9281
X3.9247Y-5.0659
X3.9247Y-5.2037
X3.9247Y-5.3415
X3.9247Y-5.4793
X3.9247Y-5.6171
X3.9247Y-5.7549
X3.9247Y-5.8927
X3.9247Y-6.0305
X3.9247Y-3.688
X4.0389Y-2.6801
X4.0389Y-2.8179
X4.0389Y-2.9557
X4.0389Y-3.0935
X4.0389Y-3.2313
X4.0389Y-3.3691
X4.0389Y-3.5069
X4.0389Y-3.7825
X4.0389Y-3.9203
X4.0389Y-4.0581
X4.0389Y-4.1959
X4.0389Y-4.3337
X4.0389Y-4.4715
X4.0389Y-4.6093
X4.0389Y-4.747
X4.0389Y-4.8848
X4.0389Y-5.0226
X4.0389Y-5.1604
X4.0389Y-5.2982
X4.0389Y-5.436
X4.0389Y-5.5738
X4.0389Y-5.7116
X4.0389Y-5.8494
X4.0389Y-5.9872
X4.0389Y-3.6447
X4.0625Y-2.7234
X4.0625Y-3.1368
X4.0625Y-3.2746
X4.0625Y-3.688
X4.0625Y-4.1014
X4.0625Y-4.2392
X4.0625Y-4.6526
X4.0625Y-4.7904
X4.0625Y-5.2037
X4.0625Y-5.3415
X4.0625Y-5.7549
X4.0625Y-5.8927
X4.0625Y-2.8612
X4.0625Y-2.999
X4.0625Y-3.4124
X4.0625Y-3.5502
X4.0625Y-3.8258
X4.0625Y-3.9636
X4.0625Y-4.377
X4.0625Y-4.5148
X4.0625Y-4.9281
X4.0625Y-5.0659
X4.0625Y-5.4793
X4.0625Y-5.6171
X4.0625Y-6.0305
X4.1767Y-2.6801
X4.1767Y-3.0935
X4.1767Y-3.2313
X4.1767Y-3.6447
X4.1767Y-4.0581
X4.1767Y-4.1959
X4.1767Y-4.6093
X4.1767Y-4.747
X4.1767Y-5.1604
X4.1767Y-5.2982
X4.1767Y-5.7116
X4.1767Y-5.8494
X4.1767Y-2.8179
X4.1767Y-2.9557
X4.1767Y-3.3691
X4.1767Y-3.5069
X4.1767Y-3.7825
X4.1767Y-3.9203
X4.1767Y-4.3337
X4.1767Y-4.4715
X4.1767Y-4.8848
X4.1767Y-5.0226
X4.1767Y-5.436
X4.1767Y-5.5738
X4.1767Y-5.9872
X4.2003Y-2.5856
X4.2003Y-2.7234
X4.2003Y-2.8612
X4.2003Y-2.999
X4.2003Y-3.1368
X4.2003Y-3.2746
X4.2003Y-3.4124
X4.2003Y-3.5502
X4.2003Y-3.688
X4.2003Y-3.8258
X4.2003Y-3.9636
X4.2003Y-4.1014
X4.2003Y-4.2392
X4.2003Y-4.377
X4.2003Y-4.5148
X4.2003Y-4.6526
X4.2003Y-4.7904
X4.2003Y-4.9281
X4.2003Y-5.0659
X4.2003Y-5.2037
X4.2003Y-5.3415
X4.2003Y-5.4793
X4.2003Y-5.6171
X4.2003Y-5.7549
X4.2003Y-5.8927
X4.2003Y-6.0305
X4.3144Y-2.5423
X4.3144Y-2.6801
X4.3144Y-2.8179
X4.3144Y-2.9557
X4.3144Y-3.0935
X4.3144Y-3.2313
X4.3144Y-3.3691
X4.3144Y-3.5069
X4.3144Y-3.6447
X4.3144Y-3.7825
X4.3144Y-3.9203
X4.3144Y-4.0581
X4.3144Y-4.1959
X4.3144Y-4.3337
X4.3144Y-4.4715
X4.3144Y-4.6093
X4.3144Y-4.747
X4.3144Y-4.8848
X4.3144Y-5.0226
X4.3144Y-5.1604
X4.3144Y-5.2982
X4.3144Y-5.436
X4.3144Y-5.5738
X4.3144Y-5.7116
X4.3144Y-5.8494
X4.3144Y-5.9872
X4.3381Y-2.8612
X4.3381Y-2.999
X4.3381Y-3.4124
X4.3381Y-3.5502
X4.3381Y-3.8258
X4.3381Y-3.9636
X4.3381Y-4.377
X4.3381Y-4.5148
X4.3381Y-4.9281
X4.3381Y-5.0659
X4.3381Y-5.4793
X4.3381Y-5.6171
X4.3381Y-6.0305
X4.3381Y-2.5856
X4.3381Y-2.7234
X4.3381Y-3.1368
X4.3381Y-3.2746
X4.3381Y-3.688
X4.3381Y-4.1014
X4.3381Y-4.2392
X4.3381Y-4.6526
X4.3381Y-4.7904
X4.3381Y-5.2037
X4.3381Y-5.3415
X4.3381Y-5.7549
X4.3381Y-5.8927
X4.4522Y-2.8179
X4.4522Y-2.9557
X4.4522Y-3.3691
X4.4522Y-3.5069
X4.4522Y-3.7825
X4.4522Y-3.9203
X4.4522Y-4.3337
X4.4522Y-4.4715
X4.4522Y-4.8848
X4.4522Y-5.0226
X4.4522Y-5.436
X4.4522Y-5.5738
X4.4522Y-5.9872
X4.4522Y-2.5423
X4.4522Y-2.6801
X4.4522Y-3.0935
X4.4522Y-3.2313
X4.4522Y-3.6447
X4.4522Y-4.0581
X4.4522Y-4.1959
X4.4522Y-4.6093
X4.4522Y-4.747
X4.4522Y-5.1604
X4.4522Y-5.2982
X4.4522Y-5.7116
X4.4522Y-5.8494
X4.4759Y-2.5856
X4.4759Y-2.7234
X4.4759Y-2.8612
X4.4759Y-2.999
X4.4759Y-3.1368
X4.4759Y-3.2746
X4.4759Y-3.4124
X4.4759Y-3.5502
X4.4759Y-3.688
X4.4759Y-3.8258
X4.4759Y-3.9636
X4.4759Y-4.1014
X4.4759Y-4.2392
X4.4759Y-4.377
X4.4759Y-4.5148
X4.4759Y-4.6526
X4.4759Y-4.7904
X4.4759Y-4.9281
X4.4759Y-5.0659
X4.4759Y-5.2037
X4.4759Y-5.3415
X4.4759Y-5.4793
X4.4759Y-5.6171
X4.4759Y-5.7549
X4.4759Y-5.8927
X4.4759Y-6.0305
X4.59Y-2.5423
X4.59Y-2.6801
X4.59Y-2.8179
X4.59Y-2.9557
X4.59Y-3.0935
X4.59Y-3.2313
X4.59Y-3.3691
X4.59Y-3.5069
X4.59Y-3.6447
X4.59Y-3.7825
X4.59Y-3.9203
X4.59Y-4.0581
X4.59Y-4.1959
X4.59Y-4.3337
X4.59Y-4.4715
X4.59Y-4.6093
X4.59Y-4.747
X4.59Y-4.8848
X4.59Y-5.0226
X4.59Y-5.1604
X4.59Y-5.2982
X4.59Y-5.436
X4.59Y-5.5738
X4.59Y-5.7116
X4.59Y-5.8494
X4.59Y-5.9872
X4.6137Y-2.5856
X4.6137Y-2.7234
X4.6137Y-3.1368
X4.6137Y-3.2746
X4.6137Y-3.5502
X4.6137Y-3.688
X4.6137Y-3.8258
X4.6137Y-4.1014
X4.6137Y-4.2392
X4.6137Y-4.6526
X4.6137Y-4.7904
X4.6137Y-5.2037
X4.6137Y-5.3415
X4.6137Y-5.7549
X4.6137Y-5.8927
X4.6137Y-2.4478
X4.6137Y-2.8612
X4.6137Y-2.999
X4.6137Y-3.4124
X4.6137Y-3.9636
X4.6137Y-4.377
X4.6137Y-4.5148
X4.6137Y-4.9281
X4.6137Y-5.0659
X4.6137Y-5.4793
X4.6137Y-5.6171
X4.6137Y-6.0305
X4.7278Y-2.5423
X4.7278Y-2.6801
X4.7278Y-3.0935
X4.7278Y-3.2313
X4.7278Y-3.5069
X4.7278Y-3.6447
X4.7278Y-3.7825
X4.7278Y-4.0581
X4.7278Y-4.1959
X4.7278Y-4.6093
X4.7278Y-4.747
X4.7278Y-5.1604
X4.7278Y-5.2982
X4.7278Y-5.7116
X4.7278Y-5.8494
X4.7278Y-2.4045
X4.7278Y-2.8179
X4.7278Y-2.9557
X4.7278Y-3.3691
X4.7278Y-3.9203
X4.7278Y-4.3337
X4.7278Y-4.4715
X4.7278Y-4.8848
X4.7278Y-5.0226
X4.7278Y-5.436
X4.7278Y-5.5738
X4.7278Y-5.9872
X4.7515Y-2.5856
X4.7515Y-2.7234
X4.7515Y-2.8612
X4.7515Y-2.999
X4.7515Y-3.1368
X4.7515Y-3.2746
X4.7515Y-3.4124
X4.7515Y-3.5502
X4.7515Y-3.688
X4.7515Y-3.8258
X4.7515Y-3.9636
X4.7515Y-4.1014
X4.7515Y-4.2392
X4.7515Y-4.377
X4.7515Y-4.5148
X4.7515Y-4.6526
X4.7515Y-4.7904
X4.7515Y-4.9281
X4.7515Y-5.0659
X4.7515Y-5.2037
X4.7515Y-5.3415
X4.7515Y-5.4793
X4.7515Y-5.6171
X4.7515Y-5.7549
X4.7515Y-5.8927
X4.8656Y-2.5423
X4.8656Y-2.6801
X4.8656Y-2.8179
X4.8656Y-2.9557
X4.8656Y-3.0935
X4.8656Y-3.2313
X4.8656Y-3.3691
X4.8656Y-3.5069
X4.8656Y-3.6447
X4.8656Y-3.7825
X4.8656Y-3.9203
X4.8656Y-4.0581
X4.8656Y-4.1959
X4.8656Y-4.3337
X4.8656Y-4.4715
X4.8656Y-4.6093
X4.8656Y-4.747
X4.8656Y-4.8848
X4.8656Y-5.0226
X4.8656Y-5.1604
X4.8656Y-5.2982
X4.8656Y-5.436
X4.8656Y-5.5738
X4.8656Y-5.7116
X4.8656Y-5.8494
X4.8893Y-2.8612
X4.8893Y-2.999
X4.8893Y-3.2746
X4.8893Y-3.4124
X4.8893Y-3.5502
X4.8893Y-3.8258
X4.8893Y-3.9636
X4.8893Y-4.1014
X4.8893Y-4.377
X4.8893Y-4.5148
X4.8893Y-4.9281
X4.8893Y-5.0659
X4.8893Y-5.4793
X4.8893Y-5.6171
X4.8893Y-5.8927
X4.8893Y-2.5856
X4.8893Y-2.7234
X4.8893Y-3.1368
X4.8893Y-3.688
X4.8893Y-4.2392
X4.8893Y-4.6526
X4.8893Y-4.7904
X4.8893Y-5.2037
X4.8893Y-5.3415
X4.8893Y-5.7549
X5.0034Y-2.8179
X5.0034Y-2.9557
X5.0034Y-3.2313
X5.0034Y-3.3691
X5.0034Y-3.5069
X5.0034Y-3.7825
X5.0034Y-3.9203
X5.0034Y-4.0581
X5.0034Y-4.3337
X5.0034Y-4.4715
X5.0034Y-4.8848
X5.0034Y-5.0226
X5.0034Y-5.436
X5.0034Y-5.5738
X5.0034Y-5.8494
X5.0034Y-2.5423
X5.0034Y-2.6801
X5.0034Y-3.0935
X5.0034Y-3.6447
X5.0034Y-4.1959
X5.0034Y-4.6093
X5.0034Y-4.747
X5.0034Y-5.1604
X5.0034Y-5.2982
X5.0034Y-5.7116
X5.027Y-3.1368
X5.027Y-3.688
X5.027Y-4.2392
X5.027Y-5.7549
X5.027Y-2.5856
X5.027Y-2.7234
X5.027Y-2.8612
X5.027Y-2.999
X5.027Y-3.2746
X5.027Y-3.4124
X5.027Y-3.5502
X5.027Y-3.8258
X5.027Y-3.9636
X5.027Y-4.1014
X5.027Y-4.377
X5.027Y-4.5148
X5.027Y-4.6526
X5.027Y-4.7904
X5.027Y-4.9281
X5.027Y-5.0659
X5.027Y-5.2037
X5.027Y-5.3415
X5.027Y-5.4793
X5.027Y-5.6171
X5.027Y-5.8927
X5.1412Y-3.0935
X5.1412Y-3.6447
X5.1412Y-4.1959
X5.1412Y-5.7116
X5.1412Y-2.5423
X5.1412Y-2.6801
X5.1412Y-2.8179
X5.1412Y-2.9557
X5.1412Y-3.2313
X5.1412Y-3.3691
X5.1412Y-3.5069
X5.1412Y-3.7825
X5.1412Y-3.9203
X5.1412Y-4.0581
X5.1412Y-4.3337
X5.1412Y-4.4715
X5.1412Y-4.6093
X5.1412Y-4.747
X5.1412Y-4.8848
X5.1412Y-5.0226
X5.1412Y-5.1604
X5.1412Y-5.2982
X5.1412Y-5.436
X5.1412Y-5.5738
X5.1412Y-5.8494
X5.1648Y-2.5856
X5.1648Y-2.7234
X5.1648Y-2.999
X5.1648Y-3.1368
X5.1648Y-3.2746
X5.1648Y-3.5502
X5.1648Y-3.688
X5.1648Y-3.8258
X5.1648Y-4.1014
X5.1648Y-4.2392
X5.1648Y-4.377
X5.1648Y-4.6526
X5.1648Y-4.7904
X5.1648Y-5.2037
X5.1648Y-5.3415
X5.1648Y-5.6171
X5.1648Y-5.7549
X5.1648Y-5.8927
X5.1648Y-2.4478
X5.1648Y-2.8612
X5.1648Y-3.4124
X5.1648Y-3.9636
X5.1648Y-4.5148
X5.1648Y-4.9281
X5.1648Y-5.0659
X5.1648Y-5.4793
X5.279Y-2.5423
X5.279Y-2.6801
X5.279Y-2.9557
X5.279Y-3.0935
X5.279Y-3.2313
X5.279Y-3.5069
X5.279Y-3.6447
X5.279Y-3.7825
X5.279Y-4.0581
X5.279Y-4.1959
X5.279Y-4.3337
X5.279Y-4.6093
X5.279Y-4.747
X5.279Y-5.1604
X5.279Y-5.2982
X5.279Y-5.5738
X5.279Y-5.7116
X5.279Y-5.8494
X5.279Y-2.4045
X5.279Y-2.8179
X5.279Y-3.3691
X5.279Y-3.9203
X5.279Y-4.4715
X5.279Y-4.8848
X5.279Y-5.0226
X5.279Y-5.436
X5.3026Y-2.4478
X5.3026Y-2.8612
X5.3026Y-3.4124
X5.3026Y-3.9636
X5.3026Y-4.5148
X5.3026Y-5.4793
X5.3026Y-6.0305
X5.3026Y-2.31
X5.3026Y-2.5856
X5.3026Y-2.7234
X5.3026Y-2.999
X5.3026Y-3.1368
X5.3026Y-3.2746
X5.3026Y-3.5502
X5.3026Y-3.688
X5.3026Y-3.8258
X5.3026Y-4.1014
X5.3026Y-4.2392
X5.3026Y-4.377
X5.3026Y-4.6526
X5.3026Y-4.7904
X5.3026Y-4.9281
X5.3026Y-5.0659
X5.3026Y-5.2037
X5.3026Y-5.3415
X5.3026Y-5.6171
X5.3026Y-5.7549
X5.3026Y-5.8927
X5.4168Y-2.4045
X5.4168Y-2.8179
X5.4168Y-3.3691
X5.4168Y-3.9203
X5.4168Y-4.4715
X5.4168Y-5.436
X5.4168Y-5.9872
X5.4168Y-2.2667
X5.4168Y-2.5423
X5.4168Y-2.6801
X5.4168Y-2.9557
X5.4168Y-3.0935
X5.4168Y-3.2313
X5.4168Y-3.5069
X5.4168Y-3.6447
X5.4168Y-3.7825
X5.4168Y-4.0581
X5.4168Y-4.1959
X5.4168Y-4.3337
X5.4168Y-4.6093
X5.4168Y-4.747
X5.4168Y-4.8848
X5.4168Y-5.0226
X5.4168Y-5.1604
X5.4168Y-5.2982
X5.4168Y-5.5738
X5.4168Y-5.7116
X5.4168Y-5.8494
X5.4404Y-2.31
X5.4404Y-2.4478
X5.4404Y-2.5856
X5.4404Y-2.7234
X5.4404Y-2.8612
X5.4404Y-2.999
X5.4404Y-3.2746
X5.4404Y-3.4124
X5.4404Y-3.5502
X5.4404Y-3.8258
X5.4404Y-3.9636
X5.4404Y-4.1014
X5.4404Y-4.377
X5.4404Y-4.5148
X5.4404Y-4.6526
X5.4404Y-4.9281
X5.4404Y-5.0659
X5.4404Y-5.3415
X5.4404Y-5.4793
X5.4404Y-5.6171
X5.4404Y-5.8927
X5.4404Y-6.0305
X5.4404Y-2.1722
X5.4404Y-3.1368
X5.4404Y-3.688
X5.4404Y-4.2392
X5.4404Y-4.7904
X5.4404Y-5.2037
X5.4404Y-5.7549
X5.5546Y-2.2667
X5.5546Y-2.4045
X5.5546Y-2.5423
X5.5546Y-2.6801
X5.5546Y-2.8179
X5.5546Y-2.9557
X5.5546Y-3.2313
X5.5546Y-3.3691
X5.5546Y-3.5069
X5.5546Y-3.7825
X5.5546Y-3.9203
X5.5546Y-4.0581
X5.5546Y-4.3337
X5.5546Y-4.4715
X5.5546Y-4.6093
X5.5546Y-4.8848
X5.5546Y-5.0226
X5.5546Y-5.2982
X5.5546Y-5.436
X5.5546Y-5.5738
X5.5546Y-5.8494
X5.5546Y-5.9872
X5.5546Y-2.1289
X5.5546Y-3.0935
X5.5546Y-3.6447
X5.5546Y-4.1959
X5.5546Y-4.747
X5.5546Y-5.1604
X5.5546Y-5.7116
X5.5782Y-2.1722
X5.5782Y-2.5856
X5.5782Y-2.7234
X5.5782Y-3.1368
X5.5782Y-3.688
X5.5782Y-4.2392
X5.5782Y-4.7904
X5.5782Y-5.2037
X5.5782Y-5.7549
X5.5782Y-2.31
X5.5782Y-2.4478
X5.5782Y-2.8612
X5.5782Y-2.999
X5.5782Y-3.2746
X5.5782Y-3.4124
X5.5782Y-3.5502
X5.5782Y-3.8258
X5.5782Y-3.9636
X5.5782Y-4.1014
X5.5782Y-4.377
X5.5782Y-4.5148
X5.5782Y-4.6526
X5.5782Y-4.9281
X5.5782Y-5.0659
X5.5782Y-5.3415
X5.5782Y-5.4793
X5.5782Y-5.6171
X5.5782Y-5.8927
X5.5782Y-6.0305
X5.6924Y-2.1289
X5.6924Y-2.5423
X5.6924Y-2.6801
X5.6924Y-3.0935
X5.6924Y-3.6447
X5.6924Y-4.1959
X5.6924Y-4.747
X5.6924Y-5.1604
X5.6924Y-5.7116
X5.6924Y-2.2667
X5.6924Y-2.4045
X5.6924Y-2.8179
X5.6924Y-2.9557
X5.6924Y-3.2313
X5.6924Y-3.3691
X5.6924Y-3.5069
X5.6924Y-3.7825
X5.6924Y-3.9203
X5.6924Y-4.0581
X5.6924Y-4.3337
X5.6924Y-4.4715
X5.6924Y-4.6093
X5.6924Y-4.8848
X5.6924Y-5.0226
X5.6924Y-5.2982
X5.6924Y-5.436
X5.6924Y-5.5738
X5.6924Y-5.8494
X5.6924Y-5.9872
X5.716Y-2.0344
X5.716Y-2.1722
X5.716Y-2.31
X5.716Y-2.4478
X5.716Y-2.5856
X5.716Y-2.7234
X5.716Y-2.8612
X5.716Y-2.999
X5.716Y-3.1368
X5.716Y-3.2746
X5.716Y-3.5502
X5.716Y-3.688
X5.716Y-3.8258
X5.716Y-4.1014
X5.716Y-4.2392
X5.716Y-4.377
X5.716Y-4.6526
X5.716Y-4.7904
X5.716Y-4.9281
X5.716Y-5.0659
X5.716Y-5.2037
X5.716Y-5.3415
X5.716Y-5.6171
X5.716Y-5.7549
X5.716Y-5.8927
X5.716Y-3.4124
X5.716Y-3.9636
X5.716Y-4.5148
X5.716Y-5.4793
X5.716Y-6.0305
X5.8302Y-1.9911
X5.8302Y-2.1289
X5.8302Y-2.2667
X5.8302Y-2.4045
X5.8302Y-2.5423
X5.8302Y-2.6801
X5.8302Y-2.8179
X5.8302Y-2.9557
X5.8302Y-3.0935
X5.8302Y-3.2313
X5.8302Y-3.5069
X5.8302Y-3.6447
X5.8302Y-3.7825
X5.8302Y-4.0581
X5.8302Y-4.1959
X5.8302Y-4.3337
X5.8302Y-4.6093
X5.8302Y-4.747
X5.8302Y-4.8848
X5.8302Y-5.0226
X5.8302Y-5.1604
X5.8302Y-5.2982
X5.8302Y-5.5738
X5.8302Y-5.7116
X5.8302Y-5.8494
X5.8302Y-3.3691
X5.8302Y-3.9203
X5.8302Y-4.4715
X5.8302Y-5.436
X5.8302Y-5.9872
X5.8538Y-2.31
X5.8538Y-2.4478
X5.8538Y-2.8612
X5.8538Y-2.999
X5.8538Y-3.4124
X5.8538Y-3.9636
X5.8538Y-4.5148
X5.8538Y-4.9281
X5.8538Y-5.0659
X5.8538Y-5.4793
X5.8538Y-6.0305
X5.8538Y-2.0344
X5.8538Y-2.1722
X5.8538Y-2.5856
X5.8538Y-2.7234
X5.8538Y-3.1368
X5.8538Y-3.2746
X5.8538Y-3.5502
X5.8538Y-3.688
X5.8538Y-3.8258
X5.8538Y-4.1014
X5.8538Y-4.2392
X5.8538Y-4.377
X5.8538Y-4.6526
X5.8538Y-4.7904
X5.8538Y-5.2037
X5.8538Y-5.3415
X5.8538Y-5.6171
X5.8538Y-5.7549
X5.8538Y-5.8927
X5.968Y-2.2667
X5.968Y-2.4045
X5.968Y-2.8179
X5.968Y-2.9557
X5.968Y-3.3691
X5.968Y-3.9203
X5.968Y-4.4715
X5.968Y-4.8848
X5.968Y-5.0226
X5.968Y-5.436
X5.968Y-5.9872
X5.968Y-1.9911
X5.968Y-2.1289
X5.968Y-2.5423
X5.968Y-2.6801
X5.968Y-3.0935
X5.968Y-3.2313
X5.968Y-3.5069
X5.968Y-3.6447
X5.968Y-3.7825
X5.968Y-4.0581
X5.968Y-4.1959
X5.968Y-4.3337
X5.968Y-4.6093
X5.968Y-4.747
X5.968Y-5.1604
X5.968Y-5.2982
X5.968Y-5.5738
X5.968Y-5.7116
X5.968Y-5.8494
X5.9916Y-2.0344
X5.9916Y-2.1722
X5.9916Y-2.31
X5.9916Y-2.4478
X5.9916Y-2.5856
X5.9916Y-2.7234
X5.9916Y-2.8612
X5.9916Y-2.999
X5.9916Y-3.1368
X5.9916Y-3.2746
X5.9916Y-3.4124
X5.9916Y-3.5502
X5.9916Y-3.8258
X5.9916Y-3.9636
X5.9916Y-4.1014
X5.9916Y-4.377
X5.9916Y-4.5148
X5.9916Y-4.6526
X5.9916Y-4.7904
X5.9916Y-4.9281
X5.9916Y-5.0659
X5.9916Y-5.2037
X5.9916Y-5.3415
X5.9916Y-5.4793
X5.9916Y-5.6171
X5.9916Y-5.8927
X5.9916Y-6.0305
X5.9916Y-3.688
X5.9916Y-4.2392
X5.9916Y-5.7549
X6.1058Y-1.9911
X6.1058Y-2.1289
X6.1058Y-2.2667
X6.1058Y-2.4045
X6.1058Y-2.5423
X6.1058Y-2.6801
X6.1058Y-2.8179
X6.1058Y-2.9557
X6.1058Y-3.0935
X6.1058Y-3.2313
X6.1058Y-3.3691
X6.1058Y-3.5069
X6.1058Y-3.7825
X6.1058Y-3.9203
X6.1058Y-4.0581
X6.1058Y-4.3337
X6.1058Y-4.4715
X6.1058Y-4.6093
X6.1058Y-4.747
X6.1058Y-4.8848
X6.1058Y-5.0226
X6.1058Y-5.1604
X6.1058Y-5.2982
X6.1058Y-5.436
X6.1058Y-5.5738
X6.1058Y-5.8494
X6.1058Y-5.9872
X6.1058Y-3.6447
X6.1058Y-4.1959
X6.1058Y-5.7116
X6.1294Y-2.0344
X6.1294Y-2.1722
X6.1294Y-2.5856
X6.1294Y-2.7234
X6.1294Y-3.1368
X6.1294Y-3.2746
X6.1294Y-3.688
X6.1294Y-4.2392
X6.1294Y-4.6526
X6.1294Y-4.7904
X6.1294Y-5.2037
X6.1294Y-5.3415
X6.1294Y-5.7549
X6.1294Y-1.8967
X6.1294Y-2.31
X6.1294Y-2.4478
X6.1294Y-2.8612
X6.1294Y-2.999
X6.1294Y-3.4124
X6.1294Y-3.5502
X6.1294Y-3.8258
X6.1294Y-3.9636
X6.1294Y-4.1014
X6.1294Y-4.377
X6.1294Y-4.5148
X6.1294Y-4.9281
X6.1294Y-5.0659
X6.1294Y-5.4793
X6.1294Y-5.6171
X6.1294Y-5.8927
X6.1294Y-6.0305
X6.2436Y-1.9911
X6.2436Y-2.1289
X6.2436Y-2.5423
X6.2436Y-2.6801
X6.2436Y-3.0935
X6.2436Y-3.2313
X6.2436Y-3.6447
X6.2436Y-4.1959
X6.2436Y-4.6093
X6.2436Y-4.747
X6.2436Y-5.1604
X6.2436Y-5.2982
X6.2436Y-5.7116
X6.2436Y-1.8533
X6.2436Y-2.2667
X6.2436Y-2.4045
X6.2436Y-2.8179
X6.2436Y-2.9557
X6.2436Y-3.3691
X6.2436Y-3.5069
X6.2436Y-3.7825
X6.2436Y-3.9203
X6.2436Y-4.0581
X6.2436Y-4.3337
X6.2436Y-4.4715
X6.2436Y-4.8848
X6.2436Y-5.0226
X6.2436Y-5.436
X6.2436Y-5.5738
X6.2436Y-5.8494
X6.2436Y-5.9872
X6.2672Y-1.8967
X6.2672Y-2.0344
X6.2672Y-2.1722
X6.2672Y-2.31
X6.2672Y-2.4478
X6.2672Y-2.5856
X6.2672Y-2.7234
X6.2672Y-2.8612
X6.2672Y-2.999
X6.2672Y-3.1368
X6.2672Y-3.2746
X6.2672Y-3.4124
X6.2672Y-3.5502
X6.2672Y-3.688
X6.2672Y-3.8258
X6.2672Y-4.1014
X6.2672Y-4.2392
X6.2672Y-4.377
X6.2672Y-4.5148
X6.2672Y-4.6526
X6.2672Y-4.7904
X6.2672Y-4.9281
X6.2672Y-5.0659
X6.2672Y-5.2037
X6.2672Y-5.3415
X6.2672Y-5.4793
X6.2672Y-5.6171
X6.2672Y-5.7549
X6.2672Y-5.8927
X6.2672Y-3.9636
X6.2672Y-6.0305
X6.3814Y-1.8533
X6.3814Y-1.9911
X6.3814Y-2.1289
X6.3814Y-2.2667
X6.3814Y-2.4045
X6.3814Y-2.5423
X6.3814Y-2.6801
X6.3814Y-2.8179
X6.3814Y-2.9557
X6.3814Y-3.0935
X6.3814Y-3.2313
X6.3814Y-3.3691
X6.3814Y-3.5069
X6.3814Y-3.6447
X6.3814Y-3.7825
X6.3814Y-4.0581
X6.3814Y-4.1959
X6.3814Y-4.3337
X6.3814Y-4.4715
X6.3814Y-4.6093
X6.3814Y-4.747
X6.3814Y-4.8848
X6.3814Y-5.0226
X6.3814Y-5.1604
X6.3814Y-5.2982
X6.3814Y-5.436
X6.3814Y-5.5738
X6.3814Y-5.7116
X6.3814Y-5.8494
X6.3814Y-3.9203
X6.3814Y-5.9872
X6.405Y-1.7589
X6.405Y-1.8967
X6.405Y-2.31
X6.405Y-2.4478
X6.405Y-2.8612
X6.405Y-2.999
X6.405Y-3.4124
X6.405Y-3.5502
X6.405Y-3.9636
X6.405Y-4.377
X6.405Y-4.5148
X6.405Y-4.9281
X6.405Y-5.0659
X6.405Y-5.4793
X6.405Y-5.6171
X6.405Y-6.0305
X6.405Y-2.0344
X6.405Y-2.1722
X6.405Y-2.5856
X6.405Y-2.7234
X6.405Y-3.1368
X6.405Y-3.2746
X6.405Y-3.688
X6.405Y-3.8258
X6.405Y-4.1014
X6.405Y-4.2392
X6.405Y-4.6526
X6.405Y-4.7904
X6.405Y-5.2037
X6.405Y-5.3415
X6.405Y-5.7549
X6.405Y-5.8927
X6.5192Y-1.7156
X6.5192Y-1.8533
X6.5192Y-2.2667
X6.5192Y-2.4045
X6.5192Y-2.8179
X6.5192Y-2.9557
X6.5192Y-3.3691
X6.5192Y-3.5069
X6.5192Y-3.9203
X6.5192Y-4.3337
X6.5192Y-4.4715
X6.5192Y-4.8848
X6.5192Y-5.0226
X6.5192Y-5.436
X6.5192Y-5.5738
X6.5192Y-5.9872
X6.5192Y-1.9911
X6.5192Y-2.1289
X6.5192Y-2.5423
X6.5192Y-2.6801
X6.5192Y-3.0935
X6.5192Y-3.2313
X6.5192Y-3.6447
X6.5192Y-3.7825
X6.5192Y-4.0581
X6.5192Y-4.1959
X6.5192Y-4.6093
X6.5192Y-4.747
X6.5192Y-5.1604
X6.5192Y-5.2982
X6.5192Y-5.7116
X6.5192Y-5.8494
X6.5428Y-1.7589
X6.5428Y-1.8967
X6.5428Y-2.0344
X6.5428Y-2.1722
X6.5428Y-2.31
X6.5428Y-2.4478
X6.5428Y-2.5856
X6.5428Y-2.7234
X6.5428Y-2.8612
X6.5428Y-2.999
X6.5428Y-3.1368
X6.5428Y-3.2746
X6.5428Y-3.4124
X6.5428Y-3.5502
X6.5428Y-3.688
X6.5428Y-3.8258
X6.5428Y-3.9636
X6.5428Y-4.1014
X6.5428Y-4.2392
X6.5428Y-4.377
X6.5428Y-4.5148
X6.5428Y-4.6526
X6.5428Y-4.7904
X6.5428Y-4.9281
X6.5428Y-5.0659
X6.5428Y-5.2037
X6.5428Y-5.3415
X6.5428Y-5.4793
X6.5428Y-5.6171
X6.5428Y-5.7549
X6.5428Y-5.8927
X6.5428Y-6.0305
X6.657Y-1.7156
X6.657Y-1.8533
X6.657Y-1.9911
X6.657Y-2.1289
X6.657Y-2.2667
X6.657Y-2.4045
X6.657Y-2.5423
X6.657Y-2.6801
X6.657Y-2.8179
X6.657Y-2.9557
X6.657Y-3.0935
X6.657Y-3.2313
X6.657Y-3.3691
X6.657Y-3.5069
X6.657Y-3.6447
X6.657Y-3.7825
X6.657Y-3.9203
X6.657Y-4.0581
X6.657Y-4.1959
X6.657Y-4.3337
X6.657Y-4.4715
X6.657Y-4.6093
X6.657Y-4.747
X6.657Y-4.8848
X6.657Y-5.0226
X6.657Y-5.1604
X6.657Y-5.2982
X6.657Y-5.436
X6.657Y-5.5738
X6.657Y-5.7116
X6.657Y-5.8494
X6.657Y-5.9872
X6.6806Y-1.7589
X6.6806Y-2.0344
X6.6806Y-2.1722
X6.6806Y-2.5856
X6.6806Y-2.7234
X6.6806Y-3.1368
X6.6806Y-3.2746
X6.6806Y-3.688
X6.6806Y-3.8258
X6.6806Y-4.1014
X6.6806Y-4.2392
X6.6806Y-4.6526
X6.6806Y-4.7904
X6.6806Y-5.2037
X6.6806Y-5.3415
X6.6806Y-5.7549
X6.6806Y-5.8927
X6.6806Y-1.8967
X6.6806Y-2.31
X6.6806Y-2.4478
X6.6806Y-2.8612
X6.6806Y-2.999
X6.6806Y-3.4124
X6.6806Y-3.5502
X6.6806Y-3.9636
X6.6806Y-4.377
X6.6806Y-4.5148
X6.6806Y-4.9281
X6.6806Y-5.0659
X6.6806Y-5.4793
X6.6806Y-5.6171
X6.6806Y-6.0305
X6.7948Y-1.7156
X6.7948Y-1.9911
X6.7948Y-2.1289
X6.7948Y-2.5423
X6.7948Y-2.6801
X6.7948Y-3.0935
X6.7948Y-3.2313
X6.7948Y-3.6447
X6.7948Y-3.7825
X6.7948Y-4.0581
X6.7948Y-4.1959
X6.7948Y-4.6093
X6.7948Y-4.747
X6.7948Y-5.1604
X6.7948Y-5.2982
X6.7948Y-5.7116
X6.7948Y-5.8494
X6.7948Y-1.8533
X6.7948Y-2.2667
X6.7948Y-2.4045
X6.7948Y-2.8179
X6.7948Y-2.9557
X6.7948Y-3.3691
X6.7948Y-3.5069
X6.7948Y-3.9203
X6.7948Y-4.3337
X6.7948Y-4.4715
X6.7948Y-4.8848
X6.7948Y-5.0226
X6.7948Y-5.436
X6.7948Y-5.5738
X6.7948Y-5.9872
X6.8184Y-1.6211
X6.8184Y-1.7589
X6.8184Y-1.8967
X6.8184Y-2.0344
X6.8184Y-2.1722
X6.8184Y-2.31
X6.8184Y-2.4478
X6.8184Y-2.5856
X6.8184Y-2.7234
X6.8184Y-2.8612
X6.8184Y-2.999
X6.8184Y-3.1368
X6.8184Y-3.2746
X6.8184Y-3.4124
X6.8184Y-3.5502
X6.8184Y-3.688
X6.8184Y-3.8258
X6.8184Y-3.9636
X6.8184Y-4.1014
X6.8184Y-4.2392
X6.8184Y-4.377
X6.8184Y-4.5148
X6.8184Y-4.6526
X6.8184Y-4.7904
X6.8184Y-4.9281
X6.8184Y-5.0659
X6.8184Y-5.2037
X6.8184Y-5.3415
X6.8184Y-5.4793
X6.8184Y-5.6171
X6.8184Y-5.7549
X6.8184Y-5.8927
X6.8184Y-6.0305
X6.9326Y-1.5778
X6.9326Y-1.7156
X6.9326Y-1.8533
X6.9326Y-1.9911
X6.9326Y-2.1289
X6.9326Y-2.2667
X6.9326Y-2.4045
X6.9326Y-2.5423
X6.9326Y-2.6801
X6.9326Y-2.8179
X6.9326Y-2.9557
X6.9326Y-3.0935
X6.9326Y-3.2313
X6.9326Y-3.3691
X6.9326Y-3.5069
X6.9326Y-3.6447
X6.9326Y-3.7825
X6.9326Y-3.9203
X6.9326Y-4.0581
X6.9326Y-4.1959
X6.9326Y-4.3337
X6.9326Y-4.4715
X6.9326Y-4.6093
X6.9326Y-4.747
X6.9326Y-4.8848
X6.9326Y-5.0226
X6.9326Y-5.1604
X6.9326Y-5.2982
X6.9326Y-5.436
X6.9326Y-5.5738
X6.9326Y-5.7116
X6.9326Y-5.8494
X6.9326Y-5.9872
X6.9562Y-1.7589
X6.9562Y-1.8967
X6.9562Y-2.0344
X6.9562Y-2.31
X6.9562Y-2.4478
X6.9562Y-2.8612
X6.9562Y-2.999
X6.9562Y-3.4124
X6.9562Y-3.5502
X6.9562Y-3.8258
X6.9562Y-3.9636
X6.9562Y-4.1014
X6.9562Y-4.377
X6.9562Y-4.5148
X6.9562Y-4.9281
X6.9562Y-5.0659
X6.9562Y-5.4793
X6.9562Y-5.6171
X6.9562Y-5.8927
X6.9562Y-6.0305
X6.9562Y-1.6211
X6.9562Y-2.1722
X6.9562Y-2.5856
X6.9562Y-2.7234
X6.9562Y-3.1368
X6.9562Y-3.2746
X6.9562Y-3.688
X6.9562Y-4.2392
X6.9562Y-4.6526
X6.9562Y-4.7904
X6.9562Y-5.2037
X6.9562Y-5.3415
X6.9562Y-5.7549
X7.0704Y-1.7156
X7.0704Y-1.8533
X7.0704Y-1.9911
X7.0704Y-2.2667
X7.0704Y-2.4045
X7.0704Y-2.8179
X7.0704Y-2.9557
X7.0704Y-3.3691
X7.0704Y-3.5069
X7.0704Y-3.7825
X7.0704Y-3.9203
X7.0704Y-4.0581
X7.0704Y-4.3337
X7.0704Y-4.4715
X7.0704Y-4.8848
X7.0704Y-5.0226
X7.0704Y-5.436
X7.0704Y-5.5738
X7.0704Y-5.8494
X7.0704Y-5.9872
X7.0704Y-1.5778
X7.0704Y-2.1289
X7.0704Y-2.5423
X7.0704Y-2.6801
X7.0704Y-3.0935
X7.0704Y-3.2313
X7.0704Y-3.6447
X7.0704Y-4.1959
X7.0704Y-4.6093
X7.0704Y-4.747
X7.0704Y-5.1604
X7.0704Y-5.2982
X7.0704Y-5.7116
X7.094Y-1.6211
X7.094Y-2.1722
X7.094Y-3.688
X7.094Y-4.2392
X7.094Y-5.7549
X7.094Y-1.7589
X7.094Y-1.8967
X7.094Y-2.0344
X7.094Y-2.31
X7.094Y-2.4478
X7.094Y-2.5856
X7.094Y-2.7234
X7.094Y-2.8612
X7.094Y-2.999
X7.094Y-3.1368
X7.094Y-3.2746
X7.094Y-3.4124
X7.094Y-3.5502
X7.094Y-3.8258
X7.094Y-3.9636
X7.094Y-4.1014
X7.094Y-4.377
X7.094Y-4.5148
X7.094Y-4.6526
X7.094Y-4.7904
X7.094Y-4.9281
X7.094Y-5.0659
X7.094Y-5.2037
X7.094Y-5.3415
X7.094Y-5.4793
X7.094Y-5.6171
X7.094Y-5.8927
X7.094Y-6.0305
X7.2081Y-1.5778
X7.2081Y-2.1289
X7.2081Y-3.6447
X7.2081Y-4.1959
X7.2081Y-5.7116
X7.2081Y-1.7156
X7.2081Y-1.8533
X7.2081Y-1.9911
X7.2081Y-2.2667
X7.2081Y-2.4045
X7.2081Y-2.5423
X7.2081Y-2.6801
X7.2081Y-2.8179
X7.2081Y-2.9557
X7.2081Y-3.0935
X7.2081Y-3.2313
X7.2081Y-3.3691
X7.2081Y-3.5069
X7.2081Y-3.7825
X7.2081Y-3.9203
X7.2081Y-4.0581
X7.2081Y-4.3337
X7.2081Y-4.4715
X7.2081Y-4.6093
X7.2081Y-4.747
X7.2081Y-4.8848
X7.2081Y-5.0226
X7.2081Y-5.1604
X7.2081Y-5.2982
X7.2081Y-5.436
X7.2081Y-5.5738
X7.2081Y-5.8494
X7.2081Y-5.9872
X7.2318Y-1.4833
X7.2318Y-1.6211
X7.2318Y-1.7589
X7.2318Y-2.0344
X7.2318Y-2.1722
X7.2318Y-2.31
X7.2318Y-2.5856
X7.2318Y-2.7234
X7.2318Y-3.1368
X7.2318Y-3.2746
X7.2318Y-3.5502
X7.2318Y-3.688
X7.2318Y-3.8258
X7.2318Y-4.1014
X7.2318Y-4.2392
X7.2318Y-4.377
X7.2318Y-4.6526
X7.2318Y-4.7904
X7.2318Y-5.2037
X7.2318Y-5.3415
X7.2318Y-5.6171
X7.2318Y-5.7549
X7.2318Y-5.8927
X7.2318Y-1.8967
X7.2318Y-2.4478
X7.2318Y-2.8612
X7.2318Y-2.999
X7.2318Y-3.4124
X7.2318Y-3.9636
X7.2318Y-4.5148
X7.2318Y-4.9281
X7.2318Y-5.0659
X7.2318Y-5.4793
X7.2318Y-6.0305
X7.3459Y-1.44
X7.3459Y-1.5778
X7.3459Y-1.7156
X7.3459Y-1.9911
X7.3459Y-2.1289
X7.3459Y-2.2667
X7.3459Y-2.5423
X7.3459Y-2.6801
X7.3459Y-3.0935
X7.3459Y-3.2313
X7.3459Y-3.5069
X7.3459Y-3.6447
X7.3459Y-3.7825
X7.3459Y-4.0581
X7.3459Y-4.1959
X7.3459Y-4.3337
X7.3459Y-4.6093
X7.3459Y-4.747
X7.3459Y-5.1604
X7.3459Y-5.2982
X7.3459Y-5.5738
X7.3459Y-5.7116
X7.3459Y-5.8494
X7.3459Y-1.8533
X7.3459Y-2.4045
X7.3459Y-2.8179
X7.3459Y-2.9557
X7.3459Y-3.3691
X7.3459Y-3.9203
X7.3459Y-4.4715
X7.3459Y-4.8848
X7.3459Y-5.0226
X7.3459Y-5.436
X7.3459Y-5.9872
X7.3696Y-1.8967
X7.3696Y-2.4478
X7.3696Y-3.4124
X7.3696Y-3.9636
X7.3696Y-4.5148
X7.3696Y-5.4793
X7.3696Y-1.4833
X7.3696Y-1.6211
X7.3696Y-1.7589
X7.3696Y-2.0344
X7.3696Y-2.1722
X7.3696Y-2.31
X7.3696Y-2.5856
X7.3696Y-2.7234
X7.3696Y-2.8612
X7.3696Y-2.999
X7.3696Y-3.1368
X7.3696Y-3.2746
X7.3696Y-3.5502
X7.3696Y-3.688
X7.3696Y-3.8258
X7.3696Y-4.1014
X7.3696Y-4.2392
X7.3696Y-4.377
X7.3696Y-4.6526
X7.3696Y-4.7904
X7.3696Y-4.9281
X7.3696Y-5.0659
X7.3696Y-5.2037
X7.3696Y-5.3415
X7.3696Y-5.6171
X7.3696Y-5.7549
X7.3696Y-5.8927
X7.4837Y-1.8533
X7.4837Y-2.4045
X7.4837Y-3.3691
X7.4837Y-3.9203
X7.4837Y-4.4715
X7.4837Y-5.436
X7.4837Y-1.44
X7.4837Y-1.5778
X7.4837Y-1.7156
X7.4837Y-1.9911
X7.4837Y-2.1289
X7.4837Y-2.2667
X7.4837Y-2.5423
X7.4837Y-2.6801
X7.4837Y-2.8179
X7.4837Y-2.9557
X7.4837Y-3.0935
X7.4837Y-3.2313
X7.4837Y-3.5069
X7.4837Y-3.6447
X7.4837Y-3.7825
X7.4837Y-4.0581
X7.4837Y-4.1959
X7.4837Y-4.3337
X7.4837Y-4.6093
X7.4837Y-4.747
X7.4837Y-4.8848
X7.4837Y-5.0226
X7.4837Y-5.1604
X7.4837Y-5.2982
X7.4837Y-5.5738
X7.4837Y-5.7116
X7.4837Y-5.8494
X7.5074Y-1.7589
X7.5074Y-1.8967
X7.5074Y-2.0344
X7.5074Y-2.31
X7.5074Y-2.4478
X7.5074Y-2.5856
X7.5074Y-2.8612
X7.5074Y-2.999
X7.5074Y-3.2746
X7.5074Y-3.4124
X7.5074Y-3.5502
X7.5074Y-3.8258
X7.5074Y-3.9636
X7.5074Y-4.1014
X7.5074Y-4.377
X7.5074Y-4.5148
X7.5074Y-4.6526
X7.5074Y-4.9281
X7.5074Y-5.0659
X7.5074Y-5.3415
X7.5074Y-5.4793
X7.5074Y-5.6171
X7.5074Y-5.8927
X7.5074Y-1.6211
X7.5074Y-2.1722
X7.5074Y-2.7234
X7.5074Y-3.1368
X7.5074Y-3.688
X7.5074Y-4.2392
X7.5074Y-4.7904
X7.5074Y-5.2037
X7.5074Y-5.7549
X7.6215Y-1.7156
X7.6215Y-1.8533
X7.6215Y-1.9911
X7.6215Y-2.2667
X7.6215Y-2.4045
X7.6215Y-2.5423
X7.6215Y-2.8179
X7.6215Y-2.9557
X7.6215Y-3.2313
X7.6215Y-3.3691
X7.6215Y-3.5069
X7.6215Y-3.7825
X7.6215Y-3.9203
X7.6215Y-4.0581
X7.6215Y-4.3337
X7.6215Y-4.4715
X7.6215Y-4.6093
X7.6215Y-4.8848
X7.6215Y-5.0226
X7.6215Y-5.2982
X7.6215Y-5.436
X7.6215Y-5.5738
X7.6215Y-5.8494
X7.6215Y-1.5778
X7.6215Y-2.1289
X7.6215Y-2.6801
X7.6215Y-3.0935
X7.6215Y-3.6447
X7.6215Y-4.1959
X7.6215Y-4.747
X7.6215Y-5.1604
X7.6215Y-5.7116
X7.6452Y-1.6211
X7.6452Y-2.1722
X7.6452Y-2.7234
X7.6452Y-3.1368
X7.6452Y-3.688
X7.6452Y-4.2392
X7.6452Y-4.7904
X7.6452Y-5.2037
X7.6452Y-1.7589
X7.6452Y-1.8967
X7.6452Y-2.0344
X7.6452Y-2.31
X7.6452Y-2.4478
X7.6452Y-2.5856
X7.6452Y-2.8612
X7.6452Y-2.999
X7.6452Y-3.2746
X7.6452Y-3.4124
X7.6452Y-3.5502
X7.6452Y-3.8258
X7.6452Y-3.9636
X7.6452Y-4.1014
X7.6452Y-4.377
X7.6452Y-4.5148
X7.6452Y-4.6526
X7.6452Y-4.9281
X7.6452Y-5.0659
X7.6452Y-5.3415
X7.6452Y-5.4793
X7.6452Y-5.6171
X7.7593Y-1.5778
X7.7593Y-2.1289
X7.7593Y-2.6801
X7.7593Y-3.0935
X7.7593Y-3.6447
X7.7593Y-4.1959
X7.7593Y-4.747
X7.7593Y-5.1604
X7.7593Y-1.7156
X7.7593Y-1.8533
X7.7593Y-1.9911
X7.7593Y-2.2667
X7.7593Y-2.4045
X7.7593Y-2.5423
X7.7593Y-2.8179
X7.7593Y-2.9557
X7.7593Y-3.2313
X7.7593Y-3.3691
X7.7593Y-3.5069
X7.7593Y-3.7825
X7.7593Y-3.9203
X7.7593Y-4.0581
X7.7593Y-4.3337
X7.7593Y-4.4715
X7.7593Y-4.6093
X7.7593Y-4.8848
X7.7593Y-5.0226
X7.7593Y-5.2982
X7.7593Y-5.436
X7.7593Y-5.5738
X7.783Y-1.6211
X7.783Y-1.7589
X7.783Y-2.0344
X7.783Y-2.1722
X7.783Y-2.31
X7.783Y-2.5856
X7.783Y-2.7234
X7.783Y-2.8612
X7.783Y-2.999
X7.783Y-3.1368
X7.783Y-3.2746
X7.783Y-3.5502
X7.783Y-3.688
X7.783Y-3.8258
X7.783Y-4.1014
X7.783Y-4.2392
X7.783Y-4.377
X7.783Y-4.6526
X7.783Y-4.7904
X7.783Y-4.9281
X7.783Y-5.0659
X7.783Y-5.2037
X7.783Y-5.3415
X7.783Y-1.8967
X7.783Y-2.4478
X7.783Y-3.4124
X7.783Y-3.9636
X7.783Y-4.5148
X7.8971Y-1.5778
X7.8971Y-1.7156
X7.8971Y-1.9911
X7.8971Y-2.1289
X7.8971Y-2.2667
X7.8971Y-2.5423
X7.8971Y-2.6801
X7.8971Y-2.8179
X7.8971Y-2.9557
X7.8971Y-3.0935
X7.8971Y-3.2313
X7.8971Y-3.5069
X7.8971Y-3.6447
X7.8971Y-3.7825
X7.8971Y-4.0581
X7.8971Y-4.1959
X7.8971Y-4.3337
X7.8971Y-4.6093
X7.8971Y-4.747
X7.8971Y-4.8848
X7.8971Y-5.0226
X7.8971Y-5.1604
X7.8971Y-5.2982
X7.8971Y-1.8533
X7.8971Y-2.4045
X7.8971Y-3.3691
X7.8971Y-3.9203
X7.8971Y-4.4715
X7.9207Y-1.8967
X7.9207Y-2.4478
X7.9207Y-2.8612
X7.9207Y-2.999
X7.9207Y-3.4124
X7.9207Y-3.9636
X7.9207Y-4.5148
X7.9207Y-4.9281
X7.9207Y-5.0659
X7.9207Y-1.7589
X7.9207Y-2.0344
X7.9207Y-2.1722
X7.9207Y-2.31
X7.9207Y-2.5856
X7.9207Y-2.7234
X7.9207Y-3.1368
X7.9207Y-3.2746
X7.9207Y-3.5502
X7.9207Y-3.688
X7.9207Y-3.8258
X7.9207Y-4.1014
X7.9207Y-4.2392
X7.9207Y-4.377
X7.9207Y-4.6526
X7.9207Y-4.7904
X8.0349Y-1.8533
X8.0349Y-2.4045
X8.0349Y-2.8179
X8.0349Y-2.9557
X8.0349Y-3.3691
X8.0349Y-3.9203
X8.0349Y-4.4715
X8.0349Y-4.8848
X8.0349Y-5.0226
X8.0349Y-1.7156
X8.0349Y-1.9911
X8.0349Y-2.1289
X8.0349Y-2.2667
X8.0349Y-2.5423
X8.0349Y-2.6801
X8.0349Y-3.0935
X8.0349Y-3.2313
X8.0349Y-3.5069
X8.0349Y-3.6447
X8.0349Y-3.7825
X8.0349Y-4.0581
X8.0349Y-4.1959
X8.0349Y-4.3337
X8.0349Y-4.6093
X8.0349Y-4.747
X8.0585Y-2.0344
X8.0585Y-2.31
X8.0585Y-2.4478
X8.0585Y-2.5856
X8.0585Y-2.7234
X8.0585Y-2.8612
X8.0585Y-2.999
X8.0585Y-3.1368
X8.0585Y-3.2746
X8.0585Y-3.4124
X8.0585Y-3.5502
X8.0585Y-3.8258
X8.0585Y-3.9636
X8.0585Y-4.1014
X8.0585Y-2.1722
X8.0585Y-3.688
X8.0585Y-4.2392
X8.1727Y-1.9911
X8.1727Y-2.2667
X8.1727Y-2.4045
X8.1727Y-2.5423
X8.1727Y-2.6801
X8.1727Y-2.8179
X8.1727Y-2.9557
X8.1727Y-3.0935
X8.1727Y-3.2313
X8.1727Y-3.3691
X8.1727Y-3.5069
X8.1727Y-3.7825
X8.1727Y-3.9203
X8.1727Y-4.0581
X8.1727Y-2.1289
X8.1727Y-3.6447
X8.1727Y-4.1959
X8.1963Y-2.1722
X8.1963Y-2.5856
X8.1963Y-2.7234
X8.1963Y-3.1368
X8.1963Y-3.2746
X8.1963Y-3.688
X8.1963Y-2.31
X8.1963Y-2.4478
X8.1963Y-2.8612
X8.1963Y-2.999
X8.1963Y-3.4124
X8.1963Y-3.5502
X8.1963Y-3.8258
X8.1963Y-3.9636
X8.1963Y-4.1014
X8.3105Y-2.1289
X8.3105Y-2.5423
X8.3105Y-2.6801
X8.3105Y-3.0935
X8.3105Y-3.2313
X8.3105Y-3.6447
X8.3105Y-2.2667
X8.3105Y-2.4045
X8.3105Y-2.8179
X8.3105Y-2.9557
X8.3105Y-3.3691
X8.3105Y-3.5069
X8.3105Y-3.7825
X8.3105Y-3.9203
X8.3105Y-4.0581
X8.3341Y-2.31
X8.3341Y-2.4478
X8.3341Y-2.5856
X8.3341Y-2.7234
X8.3341Y-2.8612
X8.3341Y-2.999
X8.3341Y-3.1368
X8.3341Y-3.2746
X8.3341Y-3.4124
X8.3341Y-3.5502
X8.3341Y-3.688
X8.3341Y-3.8258
X8.3341Y-4.1014
X8.3341Y-3.9636
X8.4483Y-2.2667
X8.4483Y-2.4045
X8.4483Y-2.5423
X8.4483Y-2.6801
X8.4483Y-2.8179
X8.4483Y-2.9557
X8.4483Y-3.0935
X8.4483Y-3.2313
X8.4483Y-3.3691
X8.4483Y-3.5069
X8.4483Y-3.6447
X8.4483Y-3.7825
X8.4483Y-4.0581
X8.4483Y-3.9203
X8.4719Y-2.4478
X8.4719Y-2.8612
X8.4719Y-2.999
X8.4719Y-3.4124
X8.4719Y-3.5502
X8.4719Y-2.5856
X8.4719Y-2.7234
X8.4719Y-3.1368
X8.4719Y-3.2746
X8.4719Y-3.688
X8.4719Y-3.8258
X8.5861Y-2.4045
X8.5861Y-2.8179
X8.5861Y-2.9557
X8.5861Y-3.3691
X8.5861Y-3.5069
X8.5861Y-2.5423
X8.5861Y-2.6801
X8.5861Y-3.0935
X8.5861Y-3.2313
X8.5861Y-3.6447
X8.5861Y-3.7825
X8.6097Y-2.5856
X8.6097Y-2.7234
X8.6097Y-2.8612
X8.6097Y-2.999
X8.6097Y-3.1368
X8.6097Y-3.2746
X8.6097Y-3.4124
X8.7239Y-2.5423
X8.7239Y-2.6801
X8.7239Y-2.8179
X8.7239Y-2.9557
X8.7239Y-3.0935
X8.7239Y-3.2313
X8.7239Y-3.3691
X8.7475Y-2.7234
X8.7475Y-3.1368
X8.7475Y-2.999
X8.8617Y-2.6801
X8.8617Y-3.0935
X8.8617Y-2.9557
T3
X2.1847Y-4.804
X2.2692Y-4.9818
X8.1843Y-4.499
X8.2638Y-4.3189
M30
