%TF.GenerationSoftware,KiCad,Pcbnew,9.0.7*%
%TF.CreationDate,2026-03-09T17:25:30+09:00*%
%TF.ProjectId,proto-panel,70726f74-6f2d-4706-916e-656c2e6b6963,rev?*%
%TF.SameCoordinates,Original*%
%TF.FileFunction,Profile,NP*%
%FSLAX46Y46*%
G04 Gerber Fmt 4.6, Leading zero omitted, Abs format (unit mm)*
G04 Created by KiCad (PCBNEW 9.0.7) date 2026-03-09 17:25:30*
%MOMM*%
%LPD*%
G01*
G04 APERTURE LIST*
%TA.AperFunction,Profile*%
%ADD10C,0.249940*%
%TD*%
G04 APERTURE END LIST*
D10*
X192637069Y-156124985D02*
X229636929Y-72124894D01*
X127903580Y-60625044D02*
X128015339Y-60894544D01*
X127903580Y-60625044D02*
X127894179Y-56031454D01*
X127996040Y-153987824D02*
X127887069Y-154251224D01*
X128015339Y-60894544D02*
X128284840Y-61006304D01*
X68636999Y-156124984D02*
X127887070Y-156124985D01*
X128637130Y-156124984D02*
X192637069Y-156124985D01*
X49637039Y-116125064D02*
X68636999Y-156124984D01*
X49637039Y-116125064D02*
X52637030Y-84124874D01*
X128647550Y-55752315D02*
X194636999Y-31124984D01*
X128259179Y-153878864D02*
X127996040Y-153987824D01*
X127887070Y-154624865D02*
X127887069Y-154251224D01*
X194636999Y-31124984D02*
X229636929Y-72124894D01*
X128637130Y-156124984D02*
X128637130Y-154256564D01*
X128526389Y-153989604D02*
X128259179Y-153878864D01*
X128534009Y-60903175D02*
X128649047Y-60625044D01*
X128284840Y-61006304D02*
X128534009Y-60903175D01*
X128637130Y-154256564D02*
X128526389Y-153989604D01*
X128649047Y-60625044D02*
X128647550Y-55752315D01*
X127887070Y-156124985D02*
X127887070Y-154624865D01*
X52637030Y-84124874D02*
X127894179Y-56031454D01*
M02*
