%TF.GenerationSoftware,KiCad,Pcbnew,9.0.7*%
%TF.CreationDate,2026-03-09T17:25:30+09:00*%
%TF.ProjectId,proto-panel,70726f74-6f2d-4706-916e-656c2e6b6963,rev?*%
%TF.SameCoordinates,Original*%
%TF.FileFunction,Soldermask,Bot*%
%TF.FilePolarity,Negative*%
%FSLAX46Y46*%
G04 Gerber Fmt 4.6, Leading zero omitted, Abs format (unit mm)*
G04 Created by KiCad (PCBNEW 9.0.7) date 2026-03-09 17:25:30*
%MOMM*%
%LPD*%
G01*
G04 APERTURE LIST*
G04 Aperture macros list*
%AMRoundRect*
0 Rectangle with rounded corners*
0 $1 Rounding radius*
0 $2 $3 $4 $5 $6 $7 $8 $9 X,Y pos of 4 corners*
0 Add a 4 corners polygon primitive as box body*
4,1,4,$2,$3,$4,$5,$6,$7,$8,$9,$2,$3,0*
0 Add four circle primitives for the rounded corners*
1,1,$1+$1,$2,$3*
1,1,$1+$1,$4,$5*
1,1,$1+$1,$6,$7*
1,1,$1+$1,$8,$9*
0 Add four rect primitives between the rounded corners*
20,1,$1+$1,$2,$3,$4,$5,0*
20,1,$1+$1,$4,$5,$6,$7,0*
20,1,$1+$1,$6,$7,$8,$9,0*
20,1,$1+$1,$8,$9,$2,$3,0*%
G04 Aperture macros list end*
%ADD10C,2.000000*%
%ADD11C,4.000000*%
%ADD12RoundRect,0.760000X1.518788X-0.540816X0.540816X1.518788X-1.518788X0.540816X-0.540816X-1.518788X0*%
%ADD13C,2.200000*%
%ADD14RoundRect,0.760000X0.583012X-1.503096X1.503096X0.583012X-0.583012X1.503096X-1.503096X-0.583012X0*%
%ADD15C,0.600000*%
G04 APERTURE END LIST*
D10*
%TO.C,TP2*%
X195600000Y-145500000D03*
%TD*%
D11*
%TO.C,J2*%
X55492258Y-122020470D03*
D12*
X57636933Y-126537146D03*
%TD*%
D13*
%TO.C,H9*%
X191140000Y-153630000D03*
%TD*%
%TO.C,H8*%
X131140000Y-153620000D03*
%TD*%
%TO.C,H7*%
X125140000Y-153620000D03*
%TD*%
%TO.C,H6*%
X70140000Y-153630000D03*
%TD*%
D14*
%TO.C,J1*%
X207882274Y-114274798D03*
D11*
X209900000Y-109700000D03*
%TD*%
D13*
%TO.C,H1*%
X192637010Y-36124974D03*
%TD*%
%TO.C,H2*%
X131137009Y-58124975D03*
%TD*%
%TO.C,H3*%
X125137010Y-60124975D03*
%TD*%
%TO.C,H4*%
X226137009Y-72624974D03*
%TD*%
%TO.C,H5*%
X55137009Y-86124974D03*
%TD*%
D10*
%TO.C,TP1*%
X206400000Y-119400000D03*
%TD*%
D15*
%TO.C,D616*%
X120087009Y-103074974D03*
X117187009Y-104174974D03*
%TD*%
%TO.C,D427*%
X113087009Y-89074975D03*
X110187009Y-90174975D03*
%TD*%
%TO.C,D226*%
X204087009Y-71574974D03*
X201187009Y-72674974D03*
%TD*%
%TO.C,D895*%
X186587010Y-124074974D03*
X183687010Y-125174974D03*
%TD*%
%TO.C,D625*%
X151587010Y-103074974D03*
X148687010Y-104174974D03*
%TD*%
%TO.C,D149*%
X193587009Y-64574975D03*
X190687009Y-65674975D03*
%TD*%
%TO.C,D445*%
X176087009Y-89074974D03*
X173187009Y-90174974D03*
%TD*%
%TO.C,D56*%
X144587009Y-54074974D03*
X141687009Y-55174974D03*
%TD*%
%TO.C,D414*%
X67587009Y-89074974D03*
X64687009Y-90174974D03*
%TD*%
%TO.C,D776*%
X57087009Y-117074974D03*
X54187009Y-118174974D03*
%TD*%
%TO.C,D28*%
X176087009Y-47074974D03*
X173187009Y-48174974D03*
%TD*%
%TO.C,D1160*%
X155087009Y-148574974D03*
X152187009Y-149674974D03*
%TD*%
%TO.C,D658*%
X106087009Y-106574974D03*
X103187009Y-107674974D03*
%TD*%
%TO.C,D42*%
X165587010Y-50574974D03*
X162687010Y-51674974D03*
%TD*%
%TO.C,D11*%
X165587009Y-43574974D03*
X162687009Y-44674974D03*
%TD*%
%TO.C,D923*%
X141087009Y-127574974D03*
X138187009Y-128674974D03*
%TD*%
%TO.C,D617*%
X123587009Y-103074974D03*
X120687009Y-104174974D03*
%TD*%
%TO.C,D319*%
X67587009Y-82074974D03*
X64687009Y-83174974D03*
%TD*%
%TO.C,D876*%
X120087010Y-124074974D03*
X117187010Y-125174974D03*
%TD*%
%TO.C,D200*%
X113087009Y-71574974D03*
X110187009Y-72674974D03*
%TD*%
%TO.C,D292*%
X137587010Y-78574974D03*
X134687010Y-79674974D03*
%TD*%
%TO.C,D90*%
X186587009Y-57574975D03*
X183687009Y-58674975D03*
%TD*%
%TO.C,D267*%
X204087009Y-75074974D03*
X201187009Y-76174974D03*
%TD*%
%TO.C,D204*%
X127087009Y-71574974D03*
X124187009Y-72674974D03*
%TD*%
%TO.C,D814*%
X190087010Y-117074974D03*
X187187010Y-118174974D03*
%TD*%
%TO.C,D644*%
X57087009Y-106574974D03*
X54187009Y-107674974D03*
%TD*%
%TO.C,D624*%
X148087009Y-103074974D03*
X145187009Y-104174974D03*
%TD*%
%TO.C,D46*%
X179587009Y-50574975D03*
X176687009Y-51674975D03*
%TD*%
%TO.C,D1140*%
X85087010Y-148574975D03*
X82187010Y-149674975D03*
%TD*%
%TO.C,D498*%
X197087009Y-92574974D03*
X194187009Y-93674974D03*
%TD*%
%TO.C,D69*%
X190087010Y-54074974D03*
X187187010Y-55174974D03*
%TD*%
%TO.C,D808*%
X169087009Y-117074975D03*
X166187009Y-118174975D03*
%TD*%
%TO.C,D417*%
X78087010Y-89074975D03*
X75187010Y-90174975D03*
%TD*%
%TO.C,D983*%
X67587009Y-134574974D03*
X64687009Y-135674974D03*
%TD*%
%TO.C,D918*%
X123587009Y-127574974D03*
X120687009Y-128674974D03*
%TD*%
%TO.C,D680*%
X183087009Y-106574974D03*
X180187009Y-107674974D03*
%TD*%
%TO.C,D153*%
X207587009Y-64574975D03*
X204687009Y-65674975D03*
%TD*%
%TO.C,D526*%
X130587010Y-96074974D03*
X127687010Y-97174974D03*
%TD*%
%TO.C,D623*%
X144587010Y-103074975D03*
X141687010Y-104174975D03*
%TD*%
%TO.C,D37*%
X148087009Y-50574974D03*
X145187009Y-51674974D03*
%TD*%
%TO.C,D668*%
X141087010Y-106574974D03*
X138187010Y-107674974D03*
%TD*%
%TO.C,D142*%
X169087009Y-64574975D03*
X166187009Y-65674975D03*
%TD*%
%TO.C,D935*%
X183087010Y-127574974D03*
X180187010Y-128674974D03*
%TD*%
%TO.C,D607*%
X88587009Y-103074975D03*
X85687009Y-104174975D03*
%TD*%
%TO.C,D573*%
X130587010Y-99574974D03*
X127687010Y-100674974D03*
%TD*%
%TO.C,D970*%
X162087009Y-131074974D03*
X159187009Y-132174974D03*
%TD*%
%TO.C,D400*%
X186587010Y-85574974D03*
X183687010Y-86674974D03*
%TD*%
%TO.C,D801*%
X144587010Y-117074975D03*
X141687010Y-118174975D03*
%TD*%
%TO.C,D980*%
X197087009Y-131074974D03*
X194187009Y-132174974D03*
%TD*%
%TO.C,D831*%
X106087009Y-120574974D03*
X103187009Y-121674974D03*
%TD*%
%TO.C,D890*%
X169087009Y-124074974D03*
X166187009Y-125174974D03*
%TD*%
%TO.C,D1016*%
X183087010Y-134574974D03*
X180187010Y-135674974D03*
%TD*%
%TO.C,D221*%
X186587010Y-71574974D03*
X183687010Y-72674974D03*
%TD*%
%TO.C,D1059*%
X193587009Y-138074974D03*
X190687009Y-139174974D03*
%TD*%
%TO.C,D199*%
X109587009Y-71574975D03*
X106687009Y-72674975D03*
%TD*%
%TO.C,D804*%
X155087009Y-117074975D03*
X152187009Y-118174975D03*
%TD*%
%TO.C,D175*%
X162087009Y-68074974D03*
X159187009Y-69174974D03*
%TD*%
%TO.C,D773*%
X197087010Y-113574974D03*
X194187010Y-114674974D03*
%TD*%
%TO.C,D1035*%
X109587009Y-138074975D03*
X106687009Y-139174975D03*
%TD*%
%TO.C,D1111*%
X109587009Y-145074974D03*
X106687009Y-146174974D03*
%TD*%
%TO.C,D273*%
X225087010Y-75074974D03*
X222187010Y-76174974D03*
%TD*%
%TO.C,D1036*%
X113087009Y-138074974D03*
X110187009Y-139174974D03*
%TD*%
%TO.C,D1039*%
X123587009Y-138074975D03*
X120687009Y-139174975D03*
%TD*%
%TO.C,D40*%
X158587009Y-50574974D03*
X155687009Y-51674974D03*
%TD*%
%TO.C,D406*%
X207587009Y-85574974D03*
X204687009Y-86674974D03*
%TD*%
%TO.C,D203*%
X123587009Y-71574975D03*
X120687009Y-72674975D03*
%TD*%
%TO.C,D524*%
X123587009Y-96074975D03*
X120687009Y-97174975D03*
%TD*%
%TO.C,D1107*%
X95587009Y-145074974D03*
X92687009Y-146174974D03*
%TD*%
%TO.C,D507*%
X64087009Y-96074974D03*
X61187009Y-97174974D03*
%TD*%
%TO.C,D1169*%
X186587009Y-148574975D03*
X183687009Y-149674975D03*
%TD*%
%TO.C,D220*%
X183087010Y-71574974D03*
X180187010Y-72674974D03*
%TD*%
%TO.C,D586*%
X176087009Y-99574974D03*
X173187009Y-100674974D03*
%TD*%
%TO.C,D1051*%
X165587009Y-138074974D03*
X162687009Y-139174974D03*
%TD*%
%TO.C,D976*%
X183087010Y-131074975D03*
X180187010Y-132174975D03*
%TD*%
%TO.C,D516*%
X95587009Y-96074975D03*
X92687009Y-97174975D03*
%TD*%
%TO.C,D579*%
X151587009Y-99574974D03*
X148687009Y-100674974D03*
%TD*%
%TO.C,D1193*%
X165587009Y-152074974D03*
X162687009Y-153174974D03*
%TD*%
%TO.C,D930*%
X165587009Y-127574974D03*
X162687009Y-128674974D03*
%TD*%
%TO.C,D162*%
X116587009Y-68074974D03*
X113687009Y-69174974D03*
%TD*%
%TO.C,D519*%
X106087010Y-96074974D03*
X103187010Y-97174974D03*
%TD*%
%TO.C,D871*%
X102587009Y-124074974D03*
X99687009Y-125174974D03*
%TD*%
%TO.C,D24*%
X162087009Y-47074974D03*
X159187009Y-48174974D03*
%TD*%
%TO.C,D1141*%
X88587009Y-148574974D03*
X85687009Y-149674974D03*
%TD*%
%TO.C,D387*%
X141087009Y-85574974D03*
X138187009Y-86674974D03*
%TD*%
%TO.C,D496*%
X190087010Y-92574974D03*
X187187010Y-93674974D03*
%TD*%
%TO.C,D275*%
X78087009Y-78574974D03*
X75187009Y-79674974D03*
%TD*%
%TO.C,D950*%
X92087009Y-131074974D03*
X89187009Y-132174974D03*
%TD*%
%TO.C,D832*%
X109587009Y-120574974D03*
X106687009Y-121674974D03*
%TD*%
%TO.C,D339*%
X137587010Y-82074974D03*
X134687010Y-83174974D03*
%TD*%
%TO.C,D1047*%
X151587009Y-138074974D03*
X148687009Y-139174974D03*
%TD*%
%TO.C,D1011*%
X165587010Y-134574974D03*
X162687010Y-135674974D03*
%TD*%
%TO.C,D429*%
X120087009Y-89074974D03*
X117187009Y-90174974D03*
%TD*%
%TO.C,D648*%
X71087010Y-106574974D03*
X68187010Y-107674974D03*
%TD*%
%TO.C,D298*%
X158587009Y-78574974D03*
X155687009Y-79674974D03*
%TD*%
%TO.C,D458*%
X57087009Y-92574974D03*
X54187009Y-93674974D03*
%TD*%
%TO.C,D386*%
X137587009Y-85574974D03*
X134687009Y-86674974D03*
%TD*%
%TO.C,D1*%
X186587009Y-36574974D03*
X183687009Y-37674974D03*
%TD*%
%TO.C,D136*%
X148087009Y-64574974D03*
X145187009Y-65674974D03*
%TD*%
%TO.C,D964*%
X141087010Y-131074974D03*
X138187010Y-132174974D03*
%TD*%
%TO.C,D1076*%
X120087010Y-141574975D03*
X117187010Y-142674975D03*
%TD*%
%TO.C,D368*%
X74587009Y-85574974D03*
X71687009Y-86674974D03*
%TD*%
%TO.C,D365*%
X64087009Y-85574974D03*
X61187009Y-86674974D03*
%TD*%
%TO.C,D791*%
X109587009Y-117074974D03*
X106687009Y-118174974D03*
%TD*%
%TO.C,D1173*%
X81587010Y-152074974D03*
X78687010Y-153174974D03*
%TD*%
%TO.C,D690*%
X60587009Y-110074974D03*
X57687009Y-111174974D03*
%TD*%
%TO.C,D560*%
X85087009Y-99574974D03*
X82187009Y-100674974D03*
%TD*%
%TO.C,D750*%
X116587009Y-113574974D03*
X113687009Y-114674974D03*
%TD*%
%TO.C,D647*%
X67587009Y-106574974D03*
X64687009Y-107674974D03*
%TD*%
%TO.C,D1033*%
X102587009Y-138074974D03*
X99687009Y-139174974D03*
%TD*%
%TO.C,D1104*%
X85087010Y-145074974D03*
X82187010Y-146174974D03*
%TD*%
%TO.C,D928*%
X158587010Y-127574974D03*
X155687010Y-128674974D03*
%TD*%
%TO.C,D710*%
X130587010Y-110074974D03*
X127687010Y-111174974D03*
%TD*%
%TO.C,D543*%
X190087010Y-96074975D03*
X187187010Y-97174975D03*
%TD*%
%TO.C,D900*%
X204087009Y-124074974D03*
X201187009Y-125174974D03*
%TD*%
%TO.C,D702*%
X102587009Y-110074974D03*
X99687009Y-111174974D03*
%TD*%
%TO.C,D558*%
X78087010Y-99574974D03*
X75187010Y-100674974D03*
%TD*%
%TO.C,D703*%
X106087010Y-110074974D03*
X103187010Y-111174974D03*
%TD*%
%TO.C,D787*%
X95587009Y-117074974D03*
X92687009Y-118174974D03*
%TD*%
%TO.C,D462*%
X71087010Y-92574974D03*
X68187010Y-93674974D03*
%TD*%
%TO.C,D763*%
X162087009Y-113574974D03*
X159187009Y-114674974D03*
%TD*%
%TO.C,D1046*%
X148087010Y-138074974D03*
X145187010Y-139174974D03*
%TD*%
%TO.C,D174*%
X158587009Y-68074974D03*
X155687009Y-69174974D03*
%TD*%
%TO.C,D437*%
X148087009Y-89074974D03*
X145187009Y-90174974D03*
%TD*%
%TO.C,D545*%
X197087010Y-96074974D03*
X194187010Y-97174974D03*
%TD*%
%TO.C,D1196*%
X176087009Y-152074974D03*
X173187009Y-153174974D03*
%TD*%
%TO.C,D499*%
X200587009Y-92574974D03*
X197687009Y-93674974D03*
%TD*%
%TO.C,D987*%
X81587009Y-134574974D03*
X78687009Y-135674974D03*
%TD*%
%TO.C,D465*%
X81587009Y-92574974D03*
X78687009Y-93674974D03*
%TD*%
%TO.C,D966*%
X148087009Y-131074974D03*
X145187009Y-132174974D03*
%TD*%
%TO.C,D355*%
X193587009Y-82074974D03*
X190687009Y-83174974D03*
%TD*%
%TO.C,D1129*%
X172587009Y-145074974D03*
X169687009Y-146174974D03*
%TD*%
%TO.C,D310*%
X200587009Y-78574974D03*
X197687009Y-79674974D03*
%TD*%
%TO.C,D788*%
X99087010Y-117074974D03*
X96187010Y-118174974D03*
%TD*%
%TO.C,D729*%
X197087010Y-110074974D03*
X194187010Y-111174974D03*
%TD*%
%TO.C,D159*%
X106087009Y-68074974D03*
X103187009Y-69174974D03*
%TD*%
%TO.C,D119*%
X200587010Y-61074974D03*
X197687010Y-62174974D03*
%TD*%
%TO.C,D14*%
X176087009Y-43574975D03*
X173187009Y-44674975D03*
%TD*%
%TO.C,D187*%
X204087010Y-68074974D03*
X201187010Y-69174974D03*
%TD*%
%TO.C,D825*%
X85087010Y-120574974D03*
X82187010Y-121674974D03*
%TD*%
%TO.C,D701*%
X99087009Y-110074974D03*
X96187009Y-111174974D03*
%TD*%
%TO.C,D1058*%
X190087009Y-138074974D03*
X187187009Y-139174974D03*
%TD*%
%TO.C,D851*%
X176087009Y-120574974D03*
X173187009Y-121674974D03*
%TD*%
%TO.C,D529*%
X141087009Y-96074974D03*
X138187009Y-97174974D03*
%TD*%
%TO.C,D331*%
X109587009Y-82074974D03*
X106687009Y-83174974D03*
%TD*%
%TO.C,D1099*%
X67587009Y-145074974D03*
X64687009Y-146174974D03*
%TD*%
%TO.C,D651*%
X81587009Y-106574974D03*
X78687009Y-107674974D03*
%TD*%
%TO.C,D661*%
X116587009Y-106574974D03*
X113687009Y-107674974D03*
%TD*%
%TO.C,D700*%
X95587009Y-110074975D03*
X92687009Y-111174975D03*
%TD*%
%TO.C,D743*%
X92087010Y-113574974D03*
X89187010Y-114674974D03*
%TD*%
%TO.C,D1191*%
X158587010Y-152074974D03*
X155687010Y-153174974D03*
%TD*%
%TO.C,D656*%
X99087010Y-106574974D03*
X96187010Y-107674974D03*
%TD*%
%TO.C,D146*%
X183087010Y-64574975D03*
X180187010Y-65674975D03*
%TD*%
%TO.C,D1019*%
X193587009Y-134574974D03*
X190687009Y-135674974D03*
%TD*%
%TO.C,D325*%
X88587009Y-82074974D03*
X85687009Y-83174974D03*
%TD*%
%TO.C,D227*%
X207587009Y-71574974D03*
X204687009Y-72674974D03*
%TD*%
%TO.C,D724*%
X179587009Y-110074974D03*
X176687009Y-111174974D03*
%TD*%
%TO.C,D552*%
X57087009Y-99574974D03*
X54187009Y-100674974D03*
%TD*%
%TO.C,D492*%
X176087009Y-92574974D03*
X173187009Y-93674974D03*
%TD*%
%TO.C,D487*%
X158587009Y-92574974D03*
X155687009Y-93674974D03*
%TD*%
%TO.C,D252*%
X151587009Y-75074974D03*
X148687009Y-76174974D03*
%TD*%
%TO.C,D734*%
X60587009Y-113574974D03*
X57687009Y-114674974D03*
%TD*%
%TO.C,D335*%
X123587009Y-82074974D03*
X120687009Y-83174974D03*
%TD*%
%TO.C,D1159*%
X151587010Y-148574975D03*
X148687010Y-149674975D03*
%TD*%
%TO.C,D591*%
X193587009Y-99574974D03*
X190687009Y-100674974D03*
%TD*%
%TO.C,D721*%
X169087009Y-110074974D03*
X166187009Y-111174974D03*
%TD*%
%TO.C,D583*%
X165587009Y-99574974D03*
X162687009Y-100674974D03*
%TD*%
%TO.C,D422*%
X95587009Y-89074974D03*
X92687009Y-90174974D03*
%TD*%
%TO.C,D1060*%
X197087010Y-138074974D03*
X194187010Y-139174974D03*
%TD*%
%TO.C,D920*%
X130587010Y-127574974D03*
X127687010Y-128674974D03*
%TD*%
%TO.C,D139*%
X158587009Y-64574974D03*
X155687009Y-65674974D03*
%TD*%
%TO.C,D679*%
X179587010Y-106574974D03*
X176687010Y-107674974D03*
%TD*%
%TO.C,D793*%
X116587009Y-117074975D03*
X113687009Y-118174975D03*
%TD*%
%TO.C,D912*%
X102587009Y-127574974D03*
X99687009Y-128674974D03*
%TD*%
%TO.C,D962*%
X134087009Y-131074974D03*
X131187009Y-132174974D03*
%TD*%
%TO.C,D571*%
X123587009Y-99574974D03*
X120687009Y-100674974D03*
%TD*%
%TO.C,D637*%
X193587009Y-103074975D03*
X190687009Y-104174975D03*
%TD*%
%TO.C,D946*%
X78087009Y-131074974D03*
X75187009Y-132174974D03*
%TD*%
%TO.C,D602*%
X71087010Y-103074974D03*
X68187010Y-104174974D03*
%TD*%
%TO.C,D693*%
X71087010Y-110074975D03*
X68187010Y-111174975D03*
%TD*%
%TO.C,D802*%
X148087009Y-117074974D03*
X145187009Y-118174974D03*
%TD*%
%TO.C,D392*%
X158587010Y-85574974D03*
X155687010Y-86674974D03*
%TD*%
%TO.C,D575*%
X137587009Y-99574974D03*
X134687009Y-100674974D03*
%TD*%
%TO.C,D396*%
X172587010Y-85574974D03*
X169687010Y-86674974D03*
%TD*%
%TO.C,D154*%
X211087009Y-64574974D03*
X208187009Y-65674974D03*
%TD*%
%TO.C,D1070*%
X99087009Y-141574975D03*
X96187009Y-142674975D03*
%TD*%
%TO.C,D327*%
X95587009Y-82074974D03*
X92687009Y-83174974D03*
%TD*%
%TO.C,D559*%
X81587010Y-99574974D03*
X78687010Y-100674974D03*
%TD*%
%TO.C,D1162*%
X162087009Y-148574975D03*
X159187009Y-149674975D03*
%TD*%
%TO.C,D758*%
X144587010Y-113574974D03*
X141687010Y-114674974D03*
%TD*%
%TO.C,D1102*%
X78087009Y-145074974D03*
X75187009Y-146174974D03*
%TD*%
%TO.C,D1045*%
X144587010Y-138074974D03*
X141687010Y-139174974D03*
%TD*%
%TO.C,D640*%
X204087010Y-103074974D03*
X201187010Y-104174974D03*
%TD*%
%TO.C,D818*%
X204087010Y-117074974D03*
X201187010Y-118174974D03*
%TD*%
%TO.C,D464*%
X78087009Y-92574974D03*
X75187009Y-93674974D03*
%TD*%
%TO.C,D10*%
X200587009Y-40074974D03*
X197687009Y-41174974D03*
%TD*%
%TO.C,D824*%
X81587009Y-120574974D03*
X78687009Y-121674974D03*
%TD*%
%TO.C,D915*%
X113087009Y-127574974D03*
X110187009Y-128674974D03*
%TD*%
%TO.C,D246*%
X130587010Y-75074974D03*
X127687010Y-76174974D03*
%TD*%
%TO.C,D510*%
X74587009Y-96074974D03*
X71687009Y-97174974D03*
%TD*%
%TO.C,D20*%
X197087010Y-43574974D03*
X194187010Y-44674974D03*
%TD*%
%TO.C,D549*%
X211087010Y-96074974D03*
X208187010Y-97174974D03*
%TD*%
%TO.C,D1018*%
X190087010Y-134574974D03*
X187187010Y-135674974D03*
%TD*%
%TO.C,D1071*%
X102587009Y-141574975D03*
X99687009Y-142674975D03*
%TD*%
%TO.C,D863*%
X74587009Y-124074974D03*
X71687009Y-125174974D03*
%TD*%
%TO.C,D375*%
X99087009Y-85574974D03*
X96187009Y-86674974D03*
%TD*%
%TO.C,D865*%
X81587009Y-124074975D03*
X78687009Y-125174975D03*
%TD*%
%TO.C,D945*%
X74587010Y-131074974D03*
X71687010Y-132174974D03*
%TD*%
%TO.C,D103*%
X144587010Y-61074974D03*
X141687010Y-62174974D03*
%TD*%
%TO.C,D150*%
X197087010Y-64574975D03*
X194187010Y-65674975D03*
%TD*%
%TO.C,D87*%
X176087009Y-57574975D03*
X173187009Y-58674975D03*
%TD*%
%TO.C,D278*%
X88587010Y-78574974D03*
X85687010Y-79674974D03*
%TD*%
%TO.C,D596*%
X211087010Y-99574974D03*
X208187010Y-100674974D03*
%TD*%
%TO.C,D44*%
X172587009Y-50574974D03*
X169687009Y-51674974D03*
%TD*%
%TO.C,D736*%
X67587010Y-113574974D03*
X64687010Y-114674974D03*
%TD*%
%TO.C,D839*%
X134087009Y-120574974D03*
X131187009Y-121674974D03*
%TD*%
%TO.C,D455*%
X211087010Y-89074975D03*
X208187010Y-90174975D03*
%TD*%
%TO.C,D344*%
X155087009Y-82074974D03*
X152187009Y-83174974D03*
%TD*%
%TO.C,D1148*%
X113087010Y-148574975D03*
X110187010Y-149674975D03*
%TD*%
%TO.C,D1063*%
X74587009Y-141574975D03*
X71687009Y-142674975D03*
%TD*%
%TO.C,D1023*%
X67587010Y-138074974D03*
X64687010Y-139174974D03*
%TD*%
%TO.C,D939*%
X197087010Y-127574974D03*
X194187010Y-128674974D03*
%TD*%
%TO.C,D752*%
X123587009Y-113574974D03*
X120687009Y-114674974D03*
%TD*%
%TO.C,D166*%
X130587010Y-68074974D03*
X127687010Y-69174974D03*
%TD*%
%TO.C,D439*%
X155087009Y-89074975D03*
X152187009Y-90174975D03*
%TD*%
%TO.C,D313*%
X211087009Y-78574974D03*
X208187009Y-79674974D03*
%TD*%
%TO.C,D712*%
X137587010Y-110074975D03*
X134687010Y-111174975D03*
%TD*%
%TO.C,D440*%
X158587010Y-89074975D03*
X155687010Y-90174975D03*
%TD*%
%TO.C,D98*%
X214587009Y-57574975D03*
X211687009Y-58674975D03*
%TD*%
%TO.C,D354*%
X190087010Y-82074974D03*
X187187010Y-83174974D03*
%TD*%
%TO.C,D404*%
X200587010Y-85574974D03*
X197687010Y-86674974D03*
%TD*%
%TO.C,D67*%
X183087009Y-54074974D03*
X180187009Y-55174974D03*
%TD*%
%TO.C,D733*%
X57087009Y-113574974D03*
X54187009Y-114674974D03*
%TD*%
%TO.C,D270*%
X214587009Y-75074974D03*
X211687009Y-76174974D03*
%TD*%
%TO.C,D1065*%
X81587009Y-141574974D03*
X78687009Y-142674974D03*
%TD*%
%TO.C,D1128*%
X169087009Y-145074975D03*
X166187009Y-146174975D03*
%TD*%
%TO.C,D822*%
X74587010Y-120574974D03*
X71687010Y-121674974D03*
%TD*%
%TO.C,D208*%
X141087009Y-71574974D03*
X138187009Y-72674974D03*
%TD*%
%TO.C,D879*%
X130587010Y-124074974D03*
X127687010Y-125174974D03*
%TD*%
%TO.C,D477*%
X123587009Y-92574974D03*
X120687009Y-93674974D03*
%TD*%
%TO.C,D603*%
X74587009Y-103074975D03*
X71687009Y-104174975D03*
%TD*%
%TO.C,D704*%
X109587009Y-110074975D03*
X106687009Y-111174975D03*
%TD*%
%TO.C,D512*%
X81587009Y-96074975D03*
X78687009Y-97174975D03*
%TD*%
%TO.C,D415*%
X71087010Y-89074974D03*
X68187010Y-90174974D03*
%TD*%
%TO.C,D379*%
X113087009Y-85574974D03*
X110187009Y-86674974D03*
%TD*%
%TO.C,D410*%
X221587009Y-85574974D03*
X218687009Y-86674974D03*
%TD*%
%TO.C,D967*%
X151587010Y-131074974D03*
X148687010Y-132174974D03*
%TD*%
%TO.C,D441*%
X162087009Y-89074974D03*
X159187009Y-90174974D03*
%TD*%
%TO.C,D488*%
X162087009Y-92574974D03*
X159187009Y-93674974D03*
%TD*%
%TO.C,D1004*%
X141087009Y-134574974D03*
X138187009Y-135674974D03*
%TD*%
%TO.C,D452*%
X200587009Y-89074974D03*
X197687009Y-90174974D03*
%TD*%
%TO.C,D1138*%
X78087010Y-148574974D03*
X75187010Y-149674974D03*
%TD*%
%TO.C,D727*%
X190087010Y-110074975D03*
X187187010Y-111174975D03*
%TD*%
%TO.C,D1008*%
X155087009Y-134574974D03*
X152187009Y-135674974D03*
%TD*%
%TO.C,D535*%
X162087009Y-96074975D03*
X159187009Y-97174975D03*
%TD*%
%TO.C,D216*%
X169087009Y-71574974D03*
X166187009Y-72674974D03*
%TD*%
%TO.C,D148*%
X190087010Y-64574974D03*
X187187010Y-65674974D03*
%TD*%
%TO.C,D652*%
X85087010Y-106574974D03*
X82187010Y-107674974D03*
%TD*%
%TO.C,D435*%
X141087009Y-89074975D03*
X138187009Y-90174975D03*
%TD*%
%TO.C,D36*%
X204087009Y-47074974D03*
X201187009Y-48174974D03*
%TD*%
%TO.C,D761*%
X155087009Y-113574974D03*
X152187009Y-114674974D03*
%TD*%
%TO.C,D618*%
X127087009Y-103074975D03*
X124187009Y-104174975D03*
%TD*%
%TO.C,D316*%
X221587009Y-78574975D03*
X218687009Y-79674975D03*
%TD*%
%TO.C,D459*%
X60587010Y-92574974D03*
X57687010Y-93674974D03*
%TD*%
%TO.C,D213*%
X158587010Y-71574974D03*
X155687010Y-72674974D03*
%TD*%
%TO.C,D869*%
X95587009Y-124074975D03*
X92687009Y-125174975D03*
%TD*%
%TO.C,D708*%
X123587009Y-110074975D03*
X120687009Y-111174975D03*
%TD*%
%TO.C,D438*%
X151587010Y-89074974D03*
X148687010Y-90174974D03*
%TD*%
%TO.C,D245*%
X127087009Y-75074974D03*
X124187009Y-76174974D03*
%TD*%
%TO.C,D1056*%
X183087010Y-138074974D03*
X180187010Y-139174974D03*
%TD*%
%TO.C,D228*%
X211087010Y-71574974D03*
X208187010Y-72674974D03*
%TD*%
%TO.C,D285*%
X113087010Y-78574974D03*
X110187010Y-79674974D03*
%TD*%
%TO.C,D470*%
X99087010Y-92574974D03*
X96187010Y-93674974D03*
%TD*%
%TO.C,D493*%
X179587010Y-92574974D03*
X176687010Y-93674974D03*
%TD*%
%TO.C,D62*%
X165587010Y-54074974D03*
X162687010Y-55174974D03*
%TD*%
%TO.C,D687*%
X207587010Y-106574974D03*
X204687010Y-107674974D03*
%TD*%
%TO.C,D178*%
X172587009Y-68074974D03*
X169687009Y-69174974D03*
%TD*%
%TO.C,D1021*%
X200587009Y-134574974D03*
X197687009Y-135674974D03*
%TD*%
%TO.C,D21*%
X200587009Y-43574975D03*
X197687009Y-44674975D03*
%TD*%
%TO.C,D38*%
X151587010Y-50574974D03*
X148687010Y-51674974D03*
%TD*%
%TO.C,D934*%
X179587009Y-127574974D03*
X176687009Y-128674974D03*
%TD*%
%TO.C,D137*%
X151587010Y-64574974D03*
X148687010Y-65674974D03*
%TD*%
%TO.C,D1024*%
X71087009Y-138074974D03*
X68187009Y-139174974D03*
%TD*%
%TO.C,D1092*%
X176087009Y-141574974D03*
X173187009Y-142674974D03*
%TD*%
%TO.C,D395*%
X169087009Y-85574974D03*
X166187009Y-86674974D03*
%TD*%
%TO.C,D68*%
X186587009Y-54074974D03*
X183687009Y-55174974D03*
%TD*%
%TO.C,D585*%
X172587010Y-99574974D03*
X169687010Y-100674974D03*
%TD*%
%TO.C,D214*%
X162087009Y-71574975D03*
X159187009Y-72674975D03*
%TD*%
%TO.C,D192*%
X221587009Y-68074974D03*
X218687009Y-69174974D03*
%TD*%
%TO.C,D874*%
X113087009Y-124074974D03*
X110187009Y-125174974D03*
%TD*%
%TO.C,D471*%
X102587010Y-92574974D03*
X99687010Y-93674974D03*
%TD*%
%TO.C,D473*%
X109587009Y-92574974D03*
X106687009Y-93674974D03*
%TD*%
%TO.C,D1002*%
X134087009Y-134574974D03*
X131187009Y-135674974D03*
%TD*%
%TO.C,D1049*%
X158587010Y-138074974D03*
X155687010Y-139174974D03*
%TD*%
%TO.C,D906*%
X81587009Y-127574974D03*
X78687009Y-128674974D03*
%TD*%
%TO.C,D171*%
X148087009Y-68074974D03*
X145187009Y-69174974D03*
%TD*%
%TO.C,D99*%
X120087010Y-61074974D03*
X117187010Y-62174974D03*
%TD*%
%TO.C,D321*%
X74587009Y-82074974D03*
X71687009Y-83174974D03*
%TD*%
%TO.C,D1198*%
X183087010Y-152074974D03*
X180187010Y-153174974D03*
%TD*%
%TO.C,D786*%
X92087009Y-117074974D03*
X89187009Y-118174974D03*
%TD*%
%TO.C,D411*%
X57087009Y-89074974D03*
X54187009Y-90174974D03*
%TD*%
%TO.C,D1197*%
X179587009Y-152074974D03*
X176687009Y-153174974D03*
%TD*%
%TO.C,D96*%
X207587009Y-57574974D03*
X204687009Y-58674974D03*
%TD*%
%TO.C,D963*%
X137587010Y-131074974D03*
X134687010Y-132174974D03*
%TD*%
%TO.C,D765*%
X169087009Y-113574974D03*
X166187009Y-114674974D03*
%TD*%
%TO.C,D91*%
X190087010Y-57574975D03*
X187187010Y-58674975D03*
%TD*%
%TO.C,D542*%
X186587009Y-96074975D03*
X183687009Y-97174975D03*
%TD*%
%TO.C,D120*%
X204087009Y-61074974D03*
X201187009Y-62174974D03*
%TD*%
%TO.C,D195*%
X95587009Y-71574975D03*
X92687009Y-72674975D03*
%TD*%
%TO.C,D3*%
X176087009Y-40074974D03*
X173187009Y-41174974D03*
%TD*%
%TO.C,D1050*%
X162087009Y-138074975D03*
X159187009Y-139174975D03*
%TD*%
%TO.C,D1154*%
X134087009Y-148574975D03*
X131187009Y-149674975D03*
%TD*%
%TO.C,D140*%
X162087009Y-64574974D03*
X159187009Y-65674974D03*
%TD*%
%TO.C,D995*%
X109587009Y-134574974D03*
X106687009Y-135674974D03*
%TD*%
%TO.C,D528*%
X137587010Y-96074975D03*
X134687010Y-97174975D03*
%TD*%
%TO.C,D544*%
X193587009Y-96074974D03*
X190687009Y-97174974D03*
%TD*%
%TO.C,D222*%
X190087010Y-71574975D03*
X187187010Y-72674975D03*
%TD*%
%TO.C,D913*%
X106087010Y-127574974D03*
X103187010Y-128674974D03*
%TD*%
%TO.C,D955*%
X109587009Y-131074974D03*
X106687009Y-132174974D03*
%TD*%
%TO.C,D234*%
X88587009Y-75074974D03*
X85687009Y-76174974D03*
%TD*%
%TO.C,D684*%
X197087009Y-106574974D03*
X194187009Y-107674974D03*
%TD*%
%TO.C,D243*%
X120087010Y-75074974D03*
X117187010Y-76174974D03*
%TD*%
%TO.C,D988*%
X85087010Y-134574974D03*
X82187010Y-135674974D03*
%TD*%
%TO.C,D215*%
X165587009Y-71574974D03*
X162687009Y-72674974D03*
%TD*%
%TO.C,D857*%
X197087009Y-120574974D03*
X194187009Y-121674974D03*
%TD*%
%TO.C,D232*%
X81587009Y-75074974D03*
X78687009Y-76174974D03*
%TD*%
%TO.C,D588*%
X183087010Y-99574974D03*
X180187010Y-100674974D03*
%TD*%
%TO.C,D1192*%
X162087010Y-152074974D03*
X159187010Y-153174974D03*
%TD*%
%TO.C,D692*%
X67587009Y-110074975D03*
X64687009Y-111174975D03*
%TD*%
%TO.C,D364*%
X60587009Y-85574974D03*
X57687009Y-86674974D03*
%TD*%
%TO.C,D784*%
X85087010Y-117074974D03*
X82187010Y-118174974D03*
%TD*%
%TO.C,D649*%
X74587010Y-106574974D03*
X71687010Y-107674974D03*
%TD*%
%TO.C,D289*%
X127087010Y-78574974D03*
X124187010Y-79674974D03*
%TD*%
%TO.C,D631*%
X172587009Y-103074974D03*
X169687009Y-104174974D03*
%TD*%
%TO.C,D248*%
X137587010Y-75074974D03*
X134687010Y-76174974D03*
%TD*%
%TO.C,D889*%
X165587009Y-124074974D03*
X162687009Y-125174974D03*
%TD*%
%TO.C,D1174*%
X85087009Y-152074974D03*
X82187009Y-153174974D03*
%TD*%
%TO.C,D770*%
X186587010Y-113574974D03*
X183687010Y-114674974D03*
%TD*%
%TO.C,D940*%
X200587009Y-127574974D03*
X197687009Y-128674974D03*
%TD*%
%TO.C,D402*%
X193587009Y-85574974D03*
X190687009Y-86674974D03*
%TD*%
%TO.C,D641*%
X207587009Y-103074975D03*
X204687009Y-104174975D03*
%TD*%
%TO.C,D71*%
X197087009Y-54074974D03*
X194187009Y-55174974D03*
%TD*%
%TO.C,D1183*%
X116587009Y-152074974D03*
X113687009Y-153174974D03*
%TD*%
%TO.C,D715*%
X148087009Y-110074975D03*
X145187009Y-111174975D03*
%TD*%
%TO.C,D1020*%
X197087010Y-134574974D03*
X194187010Y-135674974D03*
%TD*%
%TO.C,D613*%
X109587009Y-103074974D03*
X106687009Y-104174974D03*
%TD*%
%TO.C,D317*%
X225087009Y-78574974D03*
X222187009Y-79674974D03*
%TD*%
%TO.C,D239*%
X106087010Y-75074974D03*
X103187010Y-76174974D03*
%TD*%
%TO.C,D977*%
X186587009Y-131074974D03*
X183687009Y-132174974D03*
%TD*%
%TO.C,D382*%
X123587009Y-85574974D03*
X120687009Y-86674974D03*
%TD*%
%TO.C,D844*%
X151587010Y-120574974D03*
X148687010Y-121674974D03*
%TD*%
%TO.C,D1122*%
X148087009Y-145074974D03*
X145187009Y-146174974D03*
%TD*%
%TO.C,D297*%
X155087009Y-78574975D03*
X152187009Y-79674975D03*
%TD*%
%TO.C,D1136*%
X71087010Y-148574975D03*
X68187010Y-149674975D03*
%TD*%
%TO.C,D421*%
X92087010Y-89074975D03*
X89187010Y-90174975D03*
%TD*%
%TO.C,D992*%
X99087010Y-134574974D03*
X96187010Y-135674974D03*
%TD*%
%TO.C,D472*%
X106087009Y-92574974D03*
X103187009Y-93674974D03*
%TD*%
%TO.C,D892*%
X176087009Y-124074975D03*
X173187009Y-125174975D03*
%TD*%
%TO.C,D873*%
X109587009Y-124074975D03*
X106687009Y-125174975D03*
%TD*%
%TO.C,D728*%
X193587009Y-110074974D03*
X190687009Y-111174974D03*
%TD*%
%TO.C,D219*%
X179587009Y-71574974D03*
X176687009Y-72674974D03*
%TD*%
%TO.C,D110*%
X169087009Y-61074974D03*
X166187009Y-62174974D03*
%TD*%
%TO.C,D561*%
X88587009Y-99574974D03*
X85687009Y-100674974D03*
%TD*%
%TO.C,D295*%
X148087009Y-78574974D03*
X145187009Y-79674974D03*
%TD*%
%TO.C,D1194*%
X169087009Y-152074974D03*
X166187009Y-153174974D03*
%TD*%
%TO.C,D185*%
X197087009Y-68074974D03*
X194187009Y-69174974D03*
%TD*%
%TO.C,D872*%
X106087010Y-124074974D03*
X103187010Y-125174974D03*
%TD*%
%TO.C,D345*%
X158587009Y-82074974D03*
X155687009Y-83174974D03*
%TD*%
%TO.C,D1067*%
X88587009Y-141574975D03*
X85687009Y-142674975D03*
%TD*%
%TO.C,D300*%
X165587010Y-78574974D03*
X162687010Y-79674974D03*
%TD*%
%TO.C,D229*%
X214587009Y-71574975D03*
X211687009Y-72674975D03*
%TD*%
%TO.C,D456*%
X214587009Y-89074974D03*
X211687009Y-90174974D03*
%TD*%
%TO.C,D972*%
X169087009Y-131074975D03*
X166187009Y-132174975D03*
%TD*%
%TO.C,D372*%
X88587009Y-85574974D03*
X85687009Y-86674974D03*
%TD*%
%TO.C,D1139*%
X81587009Y-148574975D03*
X78687009Y-149674975D03*
%TD*%
%TO.C,D1177*%
X95587010Y-152074974D03*
X92687010Y-153174974D03*
%TD*%
%TO.C,D86*%
X172587010Y-57574974D03*
X169687010Y-58674974D03*
%TD*%
%TO.C,D553*%
X60587009Y-99574974D03*
X57687009Y-100674974D03*
%TD*%
%TO.C,D461*%
X67587009Y-92574974D03*
X64687009Y-93674974D03*
%TD*%
%TO.C,D905*%
X78087010Y-127574974D03*
X75187010Y-128674974D03*
%TD*%
%TO.C,D778*%
X64087009Y-117074975D03*
X61187009Y-118174975D03*
%TD*%
%TO.C,D812*%
X183087010Y-117074975D03*
X180187010Y-118174975D03*
%TD*%
%TO.C,D925*%
X148087009Y-127574974D03*
X145187009Y-128674974D03*
%TD*%
%TO.C,D158*%
X102587009Y-68074974D03*
X99687009Y-69174974D03*
%TD*%
%TO.C,D771*%
X190087009Y-113574974D03*
X187187009Y-114674974D03*
%TD*%
%TO.C,D131*%
X130587010Y-64574975D03*
X127687010Y-65674975D03*
%TD*%
%TO.C,D800*%
X141087009Y-117074975D03*
X138187009Y-118174975D03*
%TD*%
%TO.C,D984*%
X71087010Y-134574974D03*
X68187010Y-135674974D03*
%TD*%
%TO.C,D466*%
X85087010Y-92574974D03*
X82187010Y-93674974D03*
%TD*%
%TO.C,D682*%
X190087010Y-106574974D03*
X187187010Y-107674974D03*
%TD*%
%TO.C,D1152*%
X127087009Y-148574974D03*
X124187009Y-149674974D03*
%TD*%
%TO.C,D1080*%
X134087009Y-141574974D03*
X131187009Y-142674974D03*
%TD*%
%TO.C,D412*%
X60587009Y-89074975D03*
X57687009Y-90174975D03*
%TD*%
%TO.C,D1055*%
X179587009Y-138074974D03*
X176687009Y-139174974D03*
%TD*%
%TO.C,D347*%
X165587010Y-82074974D03*
X162687010Y-83174974D03*
%TD*%
%TO.C,D536*%
X165587010Y-96074975D03*
X162687010Y-97174975D03*
%TD*%
%TO.C,D1115*%
X123587009Y-145074974D03*
X120687009Y-146174974D03*
%TD*%
%TO.C,D1048*%
X155087009Y-138074974D03*
X152187009Y-139174974D03*
%TD*%
%TO.C,D547*%
X204087010Y-96074975D03*
X201187010Y-97174975D03*
%TD*%
%TO.C,D324*%
X85087010Y-82074974D03*
X82187010Y-83174974D03*
%TD*%
%TO.C,D33*%
X193587009Y-47074974D03*
X190687009Y-48174974D03*
%TD*%
%TO.C,D1184*%
X120087010Y-152074974D03*
X117187010Y-153174974D03*
%TD*%
%TO.C,D1085*%
X151587010Y-141574974D03*
X148687010Y-142674974D03*
%TD*%
%TO.C,D924*%
X144587010Y-127574974D03*
X141687010Y-128674974D03*
%TD*%
%TO.C,D597*%
X214587010Y-99574974D03*
X211687010Y-100674974D03*
%TD*%
%TO.C,D161*%
X113087010Y-68074974D03*
X110187010Y-69174974D03*
%TD*%
%TO.C,D646*%
X64087009Y-106574974D03*
X61187009Y-107674974D03*
%TD*%
%TO.C,D826*%
X88587009Y-120574974D03*
X85687009Y-121674974D03*
%TD*%
%TO.C,D635*%
X186587009Y-103074974D03*
X183687009Y-104174974D03*
%TD*%
%TO.C,D903*%
X71087010Y-127574974D03*
X68187010Y-128674974D03*
%TD*%
%TO.C,D868*%
X92087010Y-124074974D03*
X89187010Y-125174974D03*
%TD*%
%TO.C,D522*%
X116587009Y-96074974D03*
X113687009Y-97174974D03*
%TD*%
%TO.C,D288*%
X123587009Y-78574974D03*
X120687009Y-79674974D03*
%TD*%
%TO.C,D121*%
X207587009Y-61074974D03*
X204687009Y-62174974D03*
%TD*%
%TO.C,D711*%
X134087009Y-110074975D03*
X131187009Y-111174975D03*
%TD*%
%TO.C,D723*%
X176087009Y-110074975D03*
X173187009Y-111174975D03*
%TD*%
%TO.C,D665*%
X130587009Y-106574974D03*
X127687009Y-107674974D03*
%TD*%
%TO.C,D518*%
X102587009Y-96074974D03*
X99687009Y-97174974D03*
%TD*%
%TO.C,D5*%
X183087009Y-40074974D03*
X180187009Y-41174974D03*
%TD*%
%TO.C,D75*%
X211087009Y-54074974D03*
X208187009Y-55174974D03*
%TD*%
%TO.C,D691*%
X64087009Y-110074974D03*
X61187009Y-111174974D03*
%TD*%
%TO.C,D1001*%
X130587010Y-134574974D03*
X127687010Y-135674974D03*
%TD*%
%TO.C,D254*%
X158587010Y-75074974D03*
X155687010Y-76174974D03*
%TD*%
%TO.C,D334*%
X120087009Y-82074974D03*
X117187009Y-83174974D03*
%TD*%
%TO.C,D688*%
X53587010Y-110074974D03*
X50687010Y-111174974D03*
%TD*%
%TO.C,D163*%
X120087009Y-68074974D03*
X117187009Y-69174974D03*
%TD*%
%TO.C,D32*%
X190087009Y-47074974D03*
X187187009Y-48174974D03*
%TD*%
%TO.C,D176*%
X165587010Y-68074974D03*
X162687010Y-69174974D03*
%TD*%
%TO.C,D183*%
X190087010Y-68074974D03*
X187187010Y-69174974D03*
%TD*%
%TO.C,D751*%
X120087010Y-113574974D03*
X117187010Y-114674974D03*
%TD*%
%TO.C,D996*%
X113087010Y-134574974D03*
X110187010Y-135674974D03*
%TD*%
%TO.C,D998*%
X120087009Y-134574974D03*
X117187009Y-135674974D03*
%TD*%
%TO.C,D134*%
X141087009Y-64574975D03*
X138187009Y-65674975D03*
%TD*%
%TO.C,D891*%
X172587010Y-124074974D03*
X169687010Y-125174974D03*
%TD*%
%TO.C,D276*%
X81587009Y-78574974D03*
X78687009Y-79674974D03*
%TD*%
%TO.C,D209*%
X144587010Y-71574974D03*
X141687010Y-72674974D03*
%TD*%
%TO.C,D909*%
X92087010Y-127574974D03*
X89187010Y-128674974D03*
%TD*%
%TO.C,D474*%
X113087010Y-92574974D03*
X110187010Y-93674974D03*
%TD*%
%TO.C,D311*%
X204087010Y-78574974D03*
X201187010Y-79674974D03*
%TD*%
%TO.C,D854*%
X186587009Y-120574974D03*
X183687009Y-121674974D03*
%TD*%
%TO.C,D506*%
X60587009Y-96074974D03*
X57687009Y-97174974D03*
%TD*%
%TO.C,D1150*%
X120087009Y-148574975D03*
X117187009Y-149674975D03*
%TD*%
%TO.C,D241*%
X113087009Y-75074974D03*
X110187009Y-76174974D03*
%TD*%
%TO.C,D266*%
X200587009Y-75074974D03*
X197687009Y-76174974D03*
%TD*%
%TO.C,D380*%
X116587009Y-85574974D03*
X113687009Y-86674974D03*
%TD*%
%TO.C,D135*%
X144587009Y-64574974D03*
X141687009Y-65674974D03*
%TD*%
%TO.C,D600*%
X64087009Y-103074975D03*
X61187009Y-104174975D03*
%TD*%
%TO.C,D1124*%
X155087010Y-145074974D03*
X152187010Y-146174974D03*
%TD*%
%TO.C,D1189*%
X151587009Y-152074974D03*
X148687009Y-153174974D03*
%TD*%
%TO.C,D956*%
X113087010Y-131074974D03*
X110187010Y-132174974D03*
%TD*%
%TO.C,D1079*%
X130587010Y-141574975D03*
X127687010Y-142674975D03*
%TD*%
%TO.C,D968*%
X155087009Y-131074975D03*
X152187009Y-132174975D03*
%TD*%
%TO.C,D698*%
X88587009Y-110074974D03*
X85687009Y-111174974D03*
%TD*%
%TO.C,D299*%
X162087009Y-78574974D03*
X159187009Y-79674974D03*
%TD*%
%TO.C,D128*%
X120087009Y-64574974D03*
X117187009Y-65674974D03*
%TD*%
%TO.C,D845*%
X155087009Y-120574974D03*
X152187009Y-121674974D03*
%TD*%
%TO.C,D1164*%
X169087009Y-148574974D03*
X166187009Y-149674974D03*
%TD*%
%TO.C,D632*%
X176087009Y-103074974D03*
X173187009Y-104174974D03*
%TD*%
%TO.C,D843*%
X148087009Y-120574974D03*
X145187009Y-121674974D03*
%TD*%
%TO.C,D385*%
X134087010Y-85574974D03*
X131187010Y-86674974D03*
%TD*%
%TO.C,D444*%
X172587010Y-89074975D03*
X169687010Y-90174975D03*
%TD*%
%TO.C,D742*%
X88587009Y-113574974D03*
X85687009Y-114674974D03*
%TD*%
%TO.C,D749*%
X113087009Y-113574974D03*
X110187009Y-114674974D03*
%TD*%
%TO.C,D902*%
X67587010Y-127574974D03*
X64687010Y-128674974D03*
%TD*%
%TO.C,D1132*%
X183087009Y-145074974D03*
X180187009Y-146174974D03*
%TD*%
%TO.C,D1062*%
X71087010Y-141574974D03*
X68187010Y-142674974D03*
%TD*%
%TO.C,D425*%
X106087010Y-89074975D03*
X103187010Y-90174975D03*
%TD*%
%TO.C,D1061*%
X67587009Y-141574974D03*
X64687009Y-142674974D03*
%TD*%
%TO.C,D1097*%
X193587009Y-141574975D03*
X190687009Y-142674975D03*
%TD*%
%TO.C,D993*%
X102587009Y-134574974D03*
X99687009Y-135674974D03*
%TD*%
%TO.C,D453*%
X204087010Y-89074974D03*
X201187010Y-90174974D03*
%TD*%
%TO.C,D467*%
X88587010Y-92574974D03*
X85687010Y-93674974D03*
%TD*%
%TO.C,D58*%
X151587010Y-54074974D03*
X148687010Y-55174974D03*
%TD*%
%TO.C,D151*%
X200587009Y-64574974D03*
X197687009Y-65674974D03*
%TD*%
%TO.C,D719*%
X162087009Y-110074975D03*
X159187009Y-111174975D03*
%TD*%
%TO.C,D745*%
X99087009Y-113574974D03*
X96187009Y-114674974D03*
%TD*%
%TO.C,D390*%
X151587009Y-85574974D03*
X148687009Y-86674974D03*
%TD*%
%TO.C,D53*%
X204087010Y-50574974D03*
X201187010Y-51674974D03*
%TD*%
%TO.C,D1166*%
X176087009Y-148574975D03*
X173187009Y-149674975D03*
%TD*%
%TO.C,D677*%
X172587009Y-106574974D03*
X169687009Y-107674974D03*
%TD*%
%TO.C,D659*%
X109587009Y-106574974D03*
X106687009Y-107674974D03*
%TD*%
%TO.C,D619*%
X130587010Y-103074975D03*
X127687010Y-104174975D03*
%TD*%
%TO.C,D1000*%
X127087010Y-134574974D03*
X124187010Y-135674974D03*
%TD*%
%TO.C,D376*%
X102587009Y-85574974D03*
X99687009Y-86674974D03*
%TD*%
%TO.C,D1026*%
X78087010Y-138074974D03*
X75187010Y-139174974D03*
%TD*%
%TO.C,D1052*%
X169087009Y-138074974D03*
X166187009Y-139174974D03*
%TD*%
%TO.C,D448*%
X186587009Y-89074974D03*
X183687009Y-90174974D03*
%TD*%
%TO.C,D621*%
X137587010Y-103074974D03*
X134687010Y-104174974D03*
%TD*%
%TO.C,D722*%
X172587010Y-110074974D03*
X169687010Y-111174974D03*
%TD*%
%TO.C,D433*%
X134087009Y-89074974D03*
X131187009Y-90174974D03*
%TD*%
%TO.C,D707*%
X120087010Y-110074974D03*
X117187010Y-111174974D03*
%TD*%
%TO.C,D77*%
X141087009Y-57574974D03*
X138187009Y-58674974D03*
%TD*%
%TO.C,D533*%
X155087009Y-96074974D03*
X152187009Y-97174974D03*
%TD*%
%TO.C,D599*%
X60587009Y-103074975D03*
X57687009Y-104174975D03*
%TD*%
%TO.C,D539*%
X176087009Y-96074975D03*
X173187009Y-97174975D03*
%TD*%
%TO.C,D397*%
X176087009Y-85574975D03*
X173187009Y-86674975D03*
%TD*%
%TO.C,D1090*%
X169087009Y-141574975D03*
X166187009Y-142674975D03*
%TD*%
%TO.C,D657*%
X102587009Y-106574974D03*
X99687009Y-107674974D03*
%TD*%
%TO.C,D819*%
X64087009Y-120574974D03*
X61187009Y-121674974D03*
%TD*%
%TO.C,D1175*%
X88587009Y-152074974D03*
X85687009Y-153174974D03*
%TD*%
%TO.C,D662*%
X120087009Y-106574974D03*
X117187009Y-107674974D03*
%TD*%
%TO.C,D144*%
X176087009Y-64574974D03*
X173187009Y-65674974D03*
%TD*%
%TO.C,D394*%
X165587009Y-85574974D03*
X162687009Y-86674974D03*
%TD*%
%TO.C,D572*%
X127087009Y-99574974D03*
X124187009Y-100674974D03*
%TD*%
%TO.C,D407*%
X211087010Y-85574974D03*
X208187010Y-86674974D03*
%TD*%
%TO.C,D65*%
X176087009Y-54074974D03*
X173187009Y-55174974D03*
%TD*%
%TO.C,D93*%
X197087010Y-57574974D03*
X194187010Y-58674974D03*
%TD*%
%TO.C,D1167*%
X179587009Y-148574974D03*
X176687009Y-149674974D03*
%TD*%
%TO.C,D25*%
X165587009Y-47074974D03*
X162687009Y-48174974D03*
%TD*%
%TO.C,D130*%
X127087010Y-64574974D03*
X124187010Y-65674974D03*
%TD*%
%TO.C,D211*%
X151587009Y-71574974D03*
X148687009Y-72674974D03*
%TD*%
%TO.C,D859*%
X204087010Y-120574974D03*
X201187010Y-121674974D03*
%TD*%
%TO.C,D47*%
X183087010Y-50574975D03*
X180187010Y-51674975D03*
%TD*%
%TO.C,D627*%
X158587010Y-103074975D03*
X155687010Y-104174975D03*
%TD*%
%TO.C,D694*%
X74587009Y-110074974D03*
X71687009Y-111174974D03*
%TD*%
%TO.C,D504*%
X218087010Y-92574974D03*
X215187010Y-93674974D03*
%TD*%
%TO.C,D562*%
X92087010Y-99574974D03*
X89187010Y-100674974D03*
%TD*%
%TO.C,D622*%
X141087009Y-103074975D03*
X138187009Y-104174975D03*
%TD*%
%TO.C,D792*%
X113087010Y-117074974D03*
X110187010Y-118174974D03*
%TD*%
%TO.C,D803*%
X151587010Y-117074974D03*
X148687010Y-118174974D03*
%TD*%
%TO.C,D961*%
X130587010Y-131074975D03*
X127687010Y-132174975D03*
%TD*%
%TO.C,D938*%
X193587009Y-127574974D03*
X190687009Y-128674974D03*
%TD*%
%TO.C,D107*%
X158587010Y-61074974D03*
X155687010Y-62174974D03*
%TD*%
%TO.C,D1010*%
X162087009Y-134574974D03*
X159187009Y-135674974D03*
%TD*%
%TO.C,D337*%
X130587010Y-82074974D03*
X127687010Y-83174974D03*
%TD*%
%TO.C,D306*%
X186587009Y-78574974D03*
X183687009Y-79674974D03*
%TD*%
%TO.C,D1186*%
X141087009Y-152074974D03*
X138187009Y-153174974D03*
%TD*%
%TO.C,D436*%
X144587010Y-89074975D03*
X141687010Y-90174975D03*
%TD*%
%TO.C,D190*%
X214587009Y-68074974D03*
X211687009Y-69174974D03*
%TD*%
%TO.C,D416*%
X74587009Y-89074975D03*
X71687009Y-90174975D03*
%TD*%
%TO.C,D102*%
X141087009Y-61074974D03*
X138187009Y-62174974D03*
%TD*%
%TO.C,D323*%
X81587009Y-82074974D03*
X78687009Y-83174974D03*
%TD*%
%TO.C,D340*%
X141087009Y-82074974D03*
X138187009Y-83174974D03*
%TD*%
%TO.C,D681*%
X186587009Y-106574974D03*
X183687009Y-107674974D03*
%TD*%
%TO.C,D898*%
X197087010Y-124074974D03*
X194187010Y-125174974D03*
%TD*%
%TO.C,D45*%
X176087009Y-50574974D03*
X173187009Y-51674974D03*
%TD*%
%TO.C,D732*%
X53587010Y-113574974D03*
X50687010Y-114674974D03*
%TD*%
%TO.C,D1179*%
X102587009Y-152074974D03*
X99687009Y-153174974D03*
%TD*%
%TO.C,D942*%
X64087009Y-131074975D03*
X61187009Y-132174975D03*
%TD*%
%TO.C,D683*%
X193587010Y-106574974D03*
X190687010Y-107674974D03*
%TD*%
%TO.C,D460*%
X64087009Y-92574974D03*
X61187009Y-93674974D03*
%TD*%
%TO.C,D747*%
X106087010Y-113574974D03*
X103187010Y-114674974D03*
%TD*%
%TO.C,D650*%
X78087009Y-106574974D03*
X75187009Y-107674974D03*
%TD*%
%TO.C,D994*%
X106087009Y-134574974D03*
X103187009Y-135674974D03*
%TD*%
%TO.C,D952*%
X99087010Y-131074974D03*
X96187010Y-132174974D03*
%TD*%
%TO.C,D89*%
X183087010Y-57574974D03*
X180187010Y-58674974D03*
%TD*%
%TO.C,D1157*%
X144587010Y-148574974D03*
X141687010Y-149674974D03*
%TD*%
%TO.C,D475*%
X116587009Y-92574974D03*
X113687009Y-93674974D03*
%TD*%
%TO.C,D283*%
X106087009Y-78574974D03*
X103187009Y-79674974D03*
%TD*%
%TO.C,D718*%
X158587010Y-110074974D03*
X155687010Y-111174974D03*
%TD*%
%TO.C,D517*%
X99087010Y-96074975D03*
X96187010Y-97174975D03*
%TD*%
%TO.C,D349*%
X172587009Y-82074974D03*
X169687009Y-83174974D03*
%TD*%
%TO.C,D194*%
X92087010Y-71574974D03*
X89187010Y-72674974D03*
%TD*%
%TO.C,D523*%
X120087009Y-96074975D03*
X117187009Y-97174975D03*
%TD*%
%TO.C,D739*%
X78087010Y-113574974D03*
X75187010Y-114674974D03*
%TD*%
%TO.C,D12*%
X169087009Y-43574974D03*
X166187009Y-44674974D03*
%TD*%
%TO.C,D88*%
X179587009Y-57574974D03*
X176687009Y-58674974D03*
%TD*%
%TO.C,D855*%
X190087010Y-120574974D03*
X187187010Y-121674974D03*
%TD*%
%TO.C,D730*%
X200587009Y-110074975D03*
X197687009Y-111174975D03*
%TD*%
%TO.C,D413*%
X64087009Y-89074975D03*
X61187009Y-90174975D03*
%TD*%
%TO.C,D896*%
X190087010Y-124074975D03*
X187187010Y-125174975D03*
%TD*%
%TO.C,D1158*%
X148087009Y-148574975D03*
X145187009Y-149674975D03*
%TD*%
%TO.C,D432*%
X130587010Y-89074975D03*
X127687010Y-90174975D03*
%TD*%
%TO.C,D875*%
X116587009Y-124074974D03*
X113687009Y-125174974D03*
%TD*%
%TO.C,D308*%
X193587010Y-78574974D03*
X190687010Y-79674974D03*
%TD*%
%TO.C,D1089*%
X165587009Y-141574975D03*
X162687009Y-142674975D03*
%TD*%
%TO.C,D307*%
X190087010Y-78574974D03*
X187187010Y-79674974D03*
%TD*%
%TO.C,D587*%
X179587009Y-99574974D03*
X176687009Y-100674974D03*
%TD*%
%TO.C,D1064*%
X78087010Y-141574975D03*
X75187010Y-142674975D03*
%TD*%
%TO.C,D484*%
X148087009Y-92574974D03*
X145187009Y-93674974D03*
%TD*%
%TO.C,D888*%
X162087009Y-124074975D03*
X159187009Y-125174975D03*
%TD*%
%TO.C,D785*%
X88587009Y-117074975D03*
X85687009Y-118174975D03*
%TD*%
%TO.C,D532*%
X151587010Y-96074975D03*
X148687010Y-97174975D03*
%TD*%
%TO.C,D937*%
X190087010Y-127574974D03*
X187187010Y-128674974D03*
%TD*%
%TO.C,D953*%
X102587009Y-131074975D03*
X99687009Y-132174975D03*
%TD*%
%TO.C,D1126*%
X162087009Y-145074974D03*
X159187009Y-146174974D03*
%TD*%
%TO.C,D501*%
X207587010Y-92574974D03*
X204687010Y-93674974D03*
%TD*%
%TO.C,D530*%
X144587010Y-96074974D03*
X141687010Y-97174974D03*
%TD*%
%TO.C,D997*%
X116587009Y-134574974D03*
X113687009Y-135674974D03*
%TD*%
%TO.C,D207*%
X137587009Y-71574974D03*
X134687009Y-72674974D03*
%TD*%
%TO.C,D359*%
X207587009Y-82074974D03*
X204687009Y-83174974D03*
%TD*%
%TO.C,D1146*%
X106087009Y-148574975D03*
X103187009Y-149674975D03*
%TD*%
%TO.C,D482*%
X141087010Y-92574974D03*
X138187010Y-93674974D03*
%TD*%
%TO.C,D1101*%
X74587010Y-145074974D03*
X71687010Y-146174974D03*
%TD*%
%TO.C,D420*%
X88587009Y-89074975D03*
X85687009Y-90174975D03*
%TD*%
%TO.C,D609*%
X95587009Y-103074974D03*
X92687009Y-104174974D03*
%TD*%
%TO.C,D430*%
X123587009Y-89074974D03*
X120687009Y-90174974D03*
%TD*%
%TO.C,D497*%
X193587010Y-92574974D03*
X190687010Y-93674974D03*
%TD*%
%TO.C,D1057*%
X186587010Y-138074974D03*
X183687010Y-139174974D03*
%TD*%
%TO.C,D351*%
X179587010Y-82074974D03*
X176687010Y-83174974D03*
%TD*%
%TO.C,D954*%
X106087009Y-131074974D03*
X103187009Y-132174974D03*
%TD*%
%TO.C,D419*%
X85087010Y-89074974D03*
X82187010Y-90174974D03*
%TD*%
%TO.C,D94*%
X200587009Y-57574975D03*
X197687009Y-58674975D03*
%TD*%
%TO.C,D451*%
X197087010Y-89074975D03*
X194187010Y-90174975D03*
%TD*%
%TO.C,D314*%
X214587009Y-78574974D03*
X211687009Y-79674974D03*
%TD*%
%TO.C,D514*%
X88587009Y-96074974D03*
X85687009Y-97174974D03*
%TD*%
%TO.C,D675*%
X165587010Y-106574974D03*
X162687010Y-107674974D03*
%TD*%
%TO.C,D836*%
X123587009Y-120574974D03*
X120687009Y-121674974D03*
%TD*%
%TO.C,D27*%
X172587010Y-47074974D03*
X169687010Y-48174974D03*
%TD*%
%TO.C,D901*%
X64087009Y-127574974D03*
X61187009Y-128674974D03*
%TD*%
%TO.C,D744*%
X95587009Y-113574974D03*
X92687009Y-114674974D03*
%TD*%
%TO.C,D638*%
X197087010Y-103074975D03*
X194187010Y-104174975D03*
%TD*%
%TO.C,D1127*%
X165587010Y-145074974D03*
X162687010Y-146174974D03*
%TD*%
%TO.C,D315*%
X218087010Y-78574974D03*
X215187010Y-79674974D03*
%TD*%
%TO.C,D217*%
X172587010Y-71574974D03*
X169687010Y-72674974D03*
%TD*%
%TO.C,D1134*%
X190087010Y-145074974D03*
X187187010Y-146174974D03*
%TD*%
%TO.C,D7*%
X190087010Y-40074974D03*
X187187010Y-41174974D03*
%TD*%
%TO.C,D1032*%
X99087009Y-138074974D03*
X96187009Y-139174974D03*
%TD*%
%TO.C,D284*%
X109587009Y-78574974D03*
X106687009Y-79674974D03*
%TD*%
%TO.C,D1168*%
X183087010Y-148574974D03*
X180187010Y-149674974D03*
%TD*%
%TO.C,D557*%
X74587009Y-99574974D03*
X71687009Y-100674974D03*
%TD*%
%TO.C,D570*%
X120087010Y-99574974D03*
X117187010Y-100674974D03*
%TD*%
%TO.C,D81*%
X155087009Y-57574974D03*
X152187009Y-58674974D03*
%TD*%
%TO.C,D122*%
X211087010Y-61074974D03*
X208187010Y-62174974D03*
%TD*%
%TO.C,D816*%
X197087010Y-117074975D03*
X194187010Y-118174975D03*
%TD*%
%TO.C,D469*%
X95587009Y-92574974D03*
X92687009Y-93674974D03*
%TD*%
%TO.C,D841*%
X141087010Y-120574974D03*
X138187010Y-121674974D03*
%TD*%
%TO.C,D247*%
X134087009Y-75074974D03*
X131187009Y-76174974D03*
%TD*%
%TO.C,D1161*%
X158587010Y-148574974D03*
X155687010Y-149674974D03*
%TD*%
%TO.C,D738*%
X74587009Y-113574974D03*
X71687009Y-114674974D03*
%TD*%
%TO.C,D1137*%
X74587009Y-148574974D03*
X71687009Y-149674974D03*
%TD*%
%TO.C,D63*%
X169087009Y-54074974D03*
X166187009Y-55174974D03*
%TD*%
%TO.C,D781*%
X74587009Y-117074975D03*
X71687009Y-118174975D03*
%TD*%
%TO.C,D1041*%
X130587010Y-138074974D03*
X127687010Y-139174974D03*
%TD*%
%TO.C,D885*%
X151587009Y-124074974D03*
X148687009Y-125174974D03*
%TD*%
%TO.C,D198*%
X106087010Y-71574974D03*
X103187010Y-72674974D03*
%TD*%
%TO.C,D418*%
X81587009Y-89074974D03*
X78687009Y-90174974D03*
%TD*%
%TO.C,D73*%
X204087010Y-54074974D03*
X201187010Y-55174974D03*
%TD*%
%TO.C,D286*%
X116587009Y-78574975D03*
X113687009Y-79674975D03*
%TD*%
%TO.C,D82*%
X158587010Y-57574974D03*
X155687010Y-58674974D03*
%TD*%
%TO.C,D384*%
X130587010Y-85574974D03*
X127687010Y-86674974D03*
%TD*%
%TO.C,D1182*%
X113087009Y-152074974D03*
X110187009Y-153174974D03*
%TD*%
%TO.C,D261*%
X183087010Y-75074974D03*
X180187010Y-76174974D03*
%TD*%
%TO.C,D606*%
X85087010Y-103074974D03*
X82187010Y-104174974D03*
%TD*%
%TO.C,D186*%
X200587009Y-68074974D03*
X197687009Y-69174974D03*
%TD*%
%TO.C,D434*%
X137587010Y-89074974D03*
X134687010Y-90174974D03*
%TD*%
%TO.C,D236*%
X95587009Y-75074974D03*
X92687009Y-76174974D03*
%TD*%
%TO.C,D112*%
X176087009Y-61074974D03*
X173187009Y-62174974D03*
%TD*%
%TO.C,D910*%
X95587009Y-127574974D03*
X92687009Y-128674974D03*
%TD*%
%TO.C,D705*%
X113087009Y-110074974D03*
X110187009Y-111174974D03*
%TD*%
%TO.C,D92*%
X193587009Y-57574974D03*
X190687009Y-58674974D03*
%TD*%
%TO.C,D1142*%
X92087010Y-148574974D03*
X89187010Y-149674974D03*
%TD*%
%TO.C,D777*%
X60587010Y-117074974D03*
X57687010Y-118174974D03*
%TD*%
%TO.C,D815*%
X193587009Y-117074975D03*
X190687009Y-118174975D03*
%TD*%
%TO.C,D1034*%
X106087010Y-138074974D03*
X103187010Y-139174974D03*
%TD*%
%TO.C,D911*%
X99087009Y-127574974D03*
X96187009Y-128674974D03*
%TD*%
%TO.C,D508*%
X67587009Y-96074975D03*
X64687009Y-97174975D03*
%TD*%
%TO.C,D1040*%
X127087009Y-138074974D03*
X124187009Y-139174974D03*
%TD*%
%TO.C,D864*%
X78087010Y-124074974D03*
X75187010Y-125174974D03*
%TD*%
%TO.C,D1108*%
X99087010Y-145074974D03*
X96187010Y-146174974D03*
%TD*%
%TO.C,D346*%
X162087009Y-82074974D03*
X159187009Y-83174974D03*
%TD*%
%TO.C,D973*%
X172587009Y-131074974D03*
X169687009Y-132174974D03*
%TD*%
%TO.C,D391*%
X155087009Y-85574974D03*
X152187009Y-86674974D03*
%TD*%
%TO.C,D663*%
X123587009Y-106574974D03*
X120687009Y-107674974D03*
%TD*%
%TO.C,D463*%
X74587010Y-92574974D03*
X71687010Y-93674974D03*
%TD*%
%TO.C,D367*%
X71087009Y-85574974D03*
X68187009Y-86674974D03*
%TD*%
%TO.C,D405*%
X204087009Y-85574974D03*
X201187009Y-86674974D03*
%TD*%
%TO.C,D481*%
X137587010Y-92574974D03*
X134687010Y-93674974D03*
%TD*%
%TO.C,D164*%
X123587009Y-68074974D03*
X120687009Y-69174974D03*
%TD*%
%TO.C,D1073*%
X109587009Y-141574974D03*
X106687009Y-142674974D03*
%TD*%
%TO.C,D19*%
X193587009Y-43574974D03*
X190687009Y-44674974D03*
%TD*%
%TO.C,D610*%
X99087010Y-103074974D03*
X96187010Y-104174974D03*
%TD*%
%TO.C,D180*%
X179587010Y-68074974D03*
X176687010Y-69174974D03*
%TD*%
%TO.C,D389*%
X148087010Y-85574974D03*
X145187010Y-86674974D03*
%TD*%
%TO.C,D531*%
X148087009Y-96074975D03*
X145187009Y-97174975D03*
%TD*%
%TO.C,D502*%
X211087009Y-92574974D03*
X208187009Y-93674974D03*
%TD*%
%TO.C,D563*%
X95587010Y-99574974D03*
X92687010Y-100674974D03*
%TD*%
%TO.C,D377*%
X106087010Y-85574974D03*
X103187010Y-86674974D03*
%TD*%
%TO.C,D1006*%
X148087009Y-134574974D03*
X145187009Y-135674974D03*
%TD*%
%TO.C,D341*%
X144587010Y-82074974D03*
X141687010Y-83174974D03*
%TD*%
%TO.C,D957*%
X116587009Y-131074975D03*
X113687009Y-132174975D03*
%TD*%
%TO.C,D1117*%
X130587009Y-145074974D03*
X127687009Y-146174974D03*
%TD*%
%TO.C,D941*%
X204087009Y-127574974D03*
X201187009Y-128674974D03*
%TD*%
%TO.C,D193*%
X225087009Y-68074974D03*
X222187009Y-69174974D03*
%TD*%
%TO.C,D125*%
X109587009Y-64574974D03*
X106687009Y-65674974D03*
%TD*%
%TO.C,D581*%
X158587010Y-99574974D03*
X155687010Y-100674974D03*
%TD*%
%TO.C,D893*%
X179587009Y-124074974D03*
X176687009Y-125174974D03*
%TD*%
%TO.C,D1105*%
X88587010Y-145074974D03*
X85687010Y-146174974D03*
%TD*%
%TO.C,D265*%
X197087010Y-75074974D03*
X194187010Y-76174974D03*
%TD*%
%TO.C,D1072*%
X106087010Y-141574975D03*
X103187010Y-142674975D03*
%TD*%
%TO.C,D725*%
X183087010Y-110074974D03*
X180187010Y-111174974D03*
%TD*%
%TO.C,D670*%
X148087009Y-106574974D03*
X145187009Y-107674974D03*
%TD*%
%TO.C,D947*%
X81587009Y-131074974D03*
X78687009Y-132174974D03*
%TD*%
%TO.C,D840*%
X137587010Y-120574974D03*
X134687010Y-121674974D03*
%TD*%
%TO.C,D951*%
X95587009Y-131074974D03*
X92687009Y-132174974D03*
%TD*%
%TO.C,D978*%
X190087010Y-131074974D03*
X187187010Y-132174974D03*
%TD*%
%TO.C,D352*%
X183087010Y-82074974D03*
X180187010Y-83174974D03*
%TD*%
%TO.C,D894*%
X183087010Y-124074974D03*
X180187010Y-125174974D03*
%TD*%
%TO.C,D1116*%
X127087010Y-145074974D03*
X124187010Y-146174974D03*
%TD*%
%TO.C,D944*%
X71087010Y-131074974D03*
X68187010Y-132174974D03*
%TD*%
%TO.C,D350*%
X176087009Y-82074974D03*
X173187009Y-83174974D03*
%TD*%
%TO.C,D282*%
X102587009Y-78574975D03*
X99687009Y-79674975D03*
%TD*%
%TO.C,D177*%
X169087009Y-68074974D03*
X166187009Y-69174974D03*
%TD*%
%TO.C,D476*%
X120087009Y-92574974D03*
X117187009Y-93674974D03*
%TD*%
%TO.C,D689*%
X57087009Y-110074975D03*
X54187009Y-111174975D03*
%TD*%
%TO.C,D155*%
X214587009Y-64574974D03*
X211687009Y-65674974D03*
%TD*%
%TO.C,D756*%
X137587009Y-113574974D03*
X134687009Y-114674974D03*
%TD*%
%TO.C,D919*%
X127087009Y-127574974D03*
X124187009Y-128674974D03*
%TD*%
%TO.C,D546*%
X200587009Y-96074975D03*
X197687009Y-97174975D03*
%TD*%
%TO.C,D251*%
X148087009Y-75074974D03*
X145187009Y-76174974D03*
%TD*%
%TO.C,D636*%
X190087010Y-103074974D03*
X187187010Y-104174974D03*
%TD*%
%TO.C,D468*%
X92087009Y-92574974D03*
X89187009Y-93674974D03*
%TD*%
%TO.C,D271*%
X218087009Y-75074974D03*
X215187009Y-76174974D03*
%TD*%
%TO.C,D1074*%
X113087009Y-141574975D03*
X110187009Y-142674975D03*
%TD*%
%TO.C,D1195*%
X172587010Y-152074974D03*
X169687010Y-153174974D03*
%TD*%
%TO.C,D109*%
X165587009Y-61074974D03*
X162687009Y-62174974D03*
%TD*%
%TO.C,D188*%
X207587009Y-68074974D03*
X204687009Y-69174974D03*
%TD*%
%TO.C,D491*%
X172587009Y-92574974D03*
X169687009Y-93674974D03*
%TD*%
%TO.C,D303*%
X176087009Y-78574974D03*
X173187009Y-79674974D03*
%TD*%
%TO.C,D676*%
X169087009Y-106574974D03*
X166187009Y-107674974D03*
%TD*%
%TO.C,D1027*%
X81587010Y-138074974D03*
X78687010Y-139174974D03*
%TD*%
%TO.C,D735*%
X64087009Y-113574974D03*
X61187009Y-114674974D03*
%TD*%
%TO.C,D667*%
X137587010Y-106574974D03*
X134687010Y-107674974D03*
%TD*%
%TO.C,D1113*%
X116587009Y-145074975D03*
X113687009Y-146174975D03*
%TD*%
%TO.C,D958*%
X120087009Y-131074974D03*
X117187009Y-132174974D03*
%TD*%
%TO.C,D257*%
X169087009Y-75074974D03*
X166187009Y-76174974D03*
%TD*%
%TO.C,D989*%
X88587009Y-134574974D03*
X85687009Y-135674974D03*
%TD*%
%TO.C,D927*%
X155087009Y-127574974D03*
X152187009Y-128674974D03*
%TD*%
%TO.C,D974*%
X176087009Y-131074974D03*
X173187009Y-132174974D03*
%TD*%
%TO.C,D312*%
X207587009Y-78574975D03*
X204687009Y-79674975D03*
%TD*%
%TO.C,D237*%
X99087009Y-75074974D03*
X96187009Y-76174974D03*
%TD*%
%TO.C,D643*%
X214587009Y-103074974D03*
X211687009Y-104174974D03*
%TD*%
%TO.C,D332*%
X113087010Y-82074974D03*
X110187010Y-83174974D03*
%TD*%
%TO.C,D505*%
X57087009Y-96074975D03*
X54187009Y-97174975D03*
%TD*%
%TO.C,D541*%
X183087010Y-96074974D03*
X180187010Y-97174974D03*
%TD*%
%TO.C,D138*%
X155087009Y-64574975D03*
X152187009Y-65674975D03*
%TD*%
%TO.C,D881*%
X137587010Y-124074975D03*
X134687010Y-125174975D03*
%TD*%
%TO.C,D697*%
X85087010Y-110074975D03*
X82187010Y-111174975D03*
%TD*%
%TO.C,D423*%
X99087010Y-89074974D03*
X96187010Y-90174974D03*
%TD*%
%TO.C,D615*%
X116587009Y-103074975D03*
X113687009Y-104174975D03*
%TD*%
%TO.C,D235*%
X92087010Y-75074974D03*
X89187010Y-76174974D03*
%TD*%
%TO.C,D287*%
X120087009Y-78574974D03*
X117187009Y-79674974D03*
%TD*%
%TO.C,D842*%
X144587009Y-120574974D03*
X141687009Y-121674974D03*
%TD*%
%TO.C,D206*%
X134087010Y-71574974D03*
X131187010Y-72674974D03*
%TD*%
%TO.C,D115*%
X186587010Y-61074974D03*
X183687010Y-62174974D03*
%TD*%
%TO.C,D856*%
X193587010Y-120574974D03*
X190687010Y-121674974D03*
%TD*%
%TO.C,D51*%
X197087010Y-50574975D03*
X194187010Y-51674975D03*
%TD*%
%TO.C,D922*%
X137587010Y-127574974D03*
X134687010Y-128674974D03*
%TD*%
%TO.C,D184*%
X193587010Y-68074974D03*
X190687010Y-69174974D03*
%TD*%
%TO.C,D290*%
X130587009Y-78574974D03*
X127687009Y-79674974D03*
%TD*%
%TO.C,D699*%
X92087010Y-110074974D03*
X89187010Y-111174974D03*
%TD*%
%TO.C,D1190*%
X155087009Y-152074974D03*
X152187009Y-153174974D03*
%TD*%
%TO.C,D80*%
X151587009Y-57574974D03*
X148687009Y-58674974D03*
%TD*%
%TO.C,D866*%
X85087009Y-124074974D03*
X82187009Y-125174974D03*
%TD*%
%TO.C,D986*%
X78087010Y-134574974D03*
X75187010Y-135674974D03*
%TD*%
%TO.C,D577*%
X144587010Y-99574974D03*
X141687010Y-100674974D03*
%TD*%
%TO.C,D811*%
X179587010Y-117074974D03*
X176687010Y-118174974D03*
%TD*%
%TO.C,D424*%
X102587009Y-89074975D03*
X99687009Y-90174975D03*
%TD*%
%TO.C,D852*%
X179587010Y-120574974D03*
X176687010Y-121674974D03*
%TD*%
%TO.C,D1068*%
X92087010Y-141574975D03*
X89187010Y-142674975D03*
%TD*%
%TO.C,D181*%
X183087010Y-68074974D03*
X180187010Y-69174974D03*
%TD*%
%TO.C,D511*%
X78087010Y-96074974D03*
X75187010Y-97174974D03*
%TD*%
%TO.C,D833*%
X113087010Y-120574974D03*
X110187010Y-121674974D03*
%TD*%
%TO.C,D645*%
X60587010Y-106574974D03*
X57687010Y-107674974D03*
%TD*%
%TO.C,D555*%
X67587010Y-99574974D03*
X64687010Y-100674974D03*
%TD*%
%TO.C,D817*%
X200587009Y-117074974D03*
X197687009Y-118174974D03*
%TD*%
%TO.C,D370*%
X81587010Y-85574974D03*
X78687010Y-86674974D03*
%TD*%
%TO.C,D1007*%
X151587010Y-134574974D03*
X148687010Y-135674974D03*
%TD*%
%TO.C,D381*%
X120087010Y-85574974D03*
X117187010Y-86674974D03*
%TD*%
%TO.C,D590*%
X190087009Y-99574974D03*
X187187009Y-100674974D03*
%TD*%
%TO.C,D43*%
X169087009Y-50574975D03*
X166187009Y-51674975D03*
%TD*%
%TO.C,D965*%
X144587009Y-131074974D03*
X141687009Y-132174974D03*
%TD*%
%TO.C,D789*%
X102587009Y-117074975D03*
X99687009Y-118174975D03*
%TD*%
%TO.C,D834*%
X116587009Y-120574974D03*
X113687009Y-121674974D03*
%TD*%
%TO.C,D593*%
X200587010Y-99574974D03*
X197687010Y-100674974D03*
%TD*%
%TO.C,D713*%
X141087009Y-110074974D03*
X138187009Y-111174974D03*
%TD*%
%TO.C,D52*%
X200587009Y-50574974D03*
X197687009Y-51674974D03*
%TD*%
%TO.C,D197*%
X102587009Y-71574974D03*
X99687009Y-72674974D03*
%TD*%
%TO.C,D1180*%
X106087010Y-152074974D03*
X103187010Y-153174974D03*
%TD*%
%TO.C,D1084*%
X148087009Y-141574974D03*
X145187009Y-142674974D03*
%TD*%
%TO.C,D741*%
X85087009Y-113574974D03*
X82187009Y-114674974D03*
%TD*%
%TO.C,D1149*%
X116587009Y-148574974D03*
X113687009Y-149674974D03*
%TD*%
%TO.C,D1123*%
X151587010Y-145074974D03*
X148687010Y-146174974D03*
%TD*%
%TO.C,D260*%
X179587009Y-75074974D03*
X176687009Y-76174974D03*
%TD*%
%TO.C,D342*%
X148087009Y-82074974D03*
X145187009Y-83174974D03*
%TD*%
%TO.C,D301*%
X169087009Y-78574975D03*
X166187009Y-79674975D03*
%TD*%
%TO.C,D669*%
X144587009Y-106574974D03*
X141687009Y-107674974D03*
%TD*%
%TO.C,D525*%
X127087009Y-96074974D03*
X124187009Y-97174974D03*
%TD*%
%TO.C,D515*%
X92087010Y-96074974D03*
X89187010Y-97174974D03*
%TD*%
%TO.C,D916*%
X116587009Y-127574974D03*
X113687009Y-128674974D03*
%TD*%
%TO.C,D39*%
X155087009Y-50574975D03*
X152187009Y-51674975D03*
%TD*%
%TO.C,D908*%
X88587009Y-127574974D03*
X85687009Y-128674974D03*
%TD*%
%TO.C,D653*%
X88587010Y-106574974D03*
X85687010Y-107674974D03*
%TD*%
%TO.C,D374*%
X95587010Y-85574974D03*
X92687010Y-86674974D03*
%TD*%
%TO.C,D1135*%
X193587010Y-145074974D03*
X190687010Y-146174974D03*
%TD*%
%TO.C,D428*%
X116587009Y-89074975D03*
X113687009Y-90174975D03*
%TD*%
%TO.C,D330*%
X106087009Y-82074974D03*
X103187009Y-83174974D03*
%TD*%
%TO.C,D847*%
X162087009Y-120574974D03*
X159187009Y-121674974D03*
%TD*%
%TO.C,D795*%
X123587009Y-117074974D03*
X120687009Y-118174974D03*
%TD*%
%TO.C,D1066*%
X85087010Y-141574974D03*
X82187010Y-142674974D03*
%TD*%
%TO.C,D356*%
X197087010Y-82074974D03*
X194187010Y-83174974D03*
%TD*%
%TO.C,D60*%
X158587009Y-54074974D03*
X155687009Y-55174974D03*
%TD*%
%TO.C,D673*%
X158587009Y-106574974D03*
X155687009Y-107674974D03*
%TD*%
%TO.C,D293*%
X141087010Y-78574974D03*
X138187010Y-79674974D03*
%TD*%
%TO.C,D124*%
X218087009Y-61074974D03*
X215187009Y-62174974D03*
%TD*%
%TO.C,D353*%
X186587009Y-82074974D03*
X183687009Y-83174974D03*
%TD*%
%TO.C,D383*%
X127087009Y-85574974D03*
X124187009Y-86674974D03*
%TD*%
%TO.C,D538*%
X172587009Y-96074975D03*
X169687009Y-97174975D03*
%TD*%
%TO.C,D127*%
X116587009Y-64574975D03*
X113687009Y-65674975D03*
%TD*%
%TO.C,D225*%
X200587009Y-71574975D03*
X197687009Y-72674975D03*
%TD*%
%TO.C,D1155*%
X137587010Y-148574975D03*
X134687010Y-149674975D03*
%TD*%
%TO.C,D798*%
X134087009Y-117074974D03*
X131187009Y-118174974D03*
%TD*%
%TO.C,D2*%
X190087010Y-36574974D03*
X187187010Y-37674974D03*
%TD*%
%TO.C,D960*%
X127087010Y-131074974D03*
X124187010Y-132174974D03*
%TD*%
%TO.C,D1078*%
X127087009Y-141574975D03*
X124187009Y-142674975D03*
%TD*%
%TO.C,D223*%
X193587009Y-71574974D03*
X190687009Y-72674974D03*
%TD*%
%TO.C,D806*%
X162087009Y-117074974D03*
X159187009Y-118174974D03*
%TD*%
%TO.C,D1028*%
X85087009Y-138074974D03*
X82187009Y-139174974D03*
%TD*%
%TO.C,D706*%
X116587009Y-110074974D03*
X113687009Y-111174974D03*
%TD*%
%TO.C,D828*%
X95587009Y-120574974D03*
X92687009Y-121674974D03*
%TD*%
%TO.C,D695*%
X78087010Y-110074974D03*
X75187010Y-111174974D03*
%TD*%
%TO.C,D1083*%
X144587010Y-141574975D03*
X141687010Y-142674975D03*
%TD*%
%TO.C,D281*%
X99087010Y-78574974D03*
X96187010Y-79674974D03*
%TD*%
%TO.C,D4*%
X179587010Y-40074974D03*
X176687010Y-41174974D03*
%TD*%
%TO.C,D366*%
X67587010Y-85574974D03*
X64687010Y-86674974D03*
%TD*%
%TO.C,D503*%
X214587009Y-92574974D03*
X211687009Y-93674974D03*
%TD*%
%TO.C,D23*%
X158587010Y-47074974D03*
X155687010Y-48174974D03*
%TD*%
%TO.C,D54*%
X207587009Y-50574975D03*
X204687009Y-51674975D03*
%TD*%
%TO.C,D403*%
X197087010Y-85574974D03*
X194187010Y-86674974D03*
%TD*%
%TO.C,D1093*%
X179587009Y-141574975D03*
X176687009Y-142674975D03*
%TD*%
%TO.C,D929*%
X162087009Y-127574974D03*
X159187009Y-128674974D03*
%TD*%
%TO.C,D114*%
X183087010Y-61074974D03*
X180187010Y-62174974D03*
%TD*%
%TO.C,D810*%
X176087009Y-117074974D03*
X173187009Y-118174974D03*
%TD*%
%TO.C,D757*%
X141087009Y-113574974D03*
X138187009Y-114674974D03*
%TD*%
%TO.C,D447*%
X183087010Y-89074975D03*
X180187010Y-90174975D03*
%TD*%
%TO.C,D858*%
X200587009Y-120574974D03*
X197687009Y-121674974D03*
%TD*%
%TO.C,D1005*%
X144587010Y-134574974D03*
X141687010Y-135674974D03*
%TD*%
%TO.C,D145*%
X179587010Y-64574974D03*
X176687010Y-65674974D03*
%TD*%
%TO.C,D249*%
X141087009Y-75074974D03*
X138187009Y-76174974D03*
%TD*%
%TO.C,D357*%
X200587009Y-82074974D03*
X197687009Y-83174974D03*
%TD*%
%TO.C,D554*%
X64087009Y-99574974D03*
X61187009Y-100674974D03*
%TD*%
%TO.C,D338*%
X134087009Y-82074974D03*
X131187009Y-83174974D03*
%TD*%
%TO.C,D258*%
X172587010Y-75074974D03*
X169687010Y-76174974D03*
%TD*%
%TO.C,D971*%
X165587010Y-131074974D03*
X162687010Y-132174974D03*
%TD*%
%TO.C,D104*%
X148087009Y-61074974D03*
X145187009Y-62174974D03*
%TD*%
%TO.C,D1082*%
X141087009Y-141574975D03*
X138187009Y-142674975D03*
%TD*%
%TO.C,D1143*%
X95587009Y-148574975D03*
X92687009Y-149674975D03*
%TD*%
%TO.C,D76*%
X137587010Y-57574975D03*
X134687010Y-58674975D03*
%TD*%
%TO.C,D105*%
X151587009Y-61074974D03*
X148687009Y-62174974D03*
%TD*%
%TO.C,D1086*%
X155087009Y-141574975D03*
X152187009Y-142674975D03*
%TD*%
%TO.C,D775*%
X204087009Y-113574974D03*
X201187009Y-114674974D03*
%TD*%
%TO.C,D202*%
X120087010Y-71574974D03*
X117187010Y-72674974D03*
%TD*%
%TO.C,D671*%
X151587010Y-106574974D03*
X148687010Y-107674974D03*
%TD*%
%TO.C,D1172*%
X78087010Y-152074974D03*
X75187010Y-153174974D03*
%TD*%
%TO.C,D238*%
X102587009Y-75074974D03*
X99687009Y-76174974D03*
%TD*%
%TO.C,D639*%
X200587009Y-103074974D03*
X197687009Y-104174974D03*
%TD*%
%TO.C,D1121*%
X144587009Y-145074974D03*
X141687009Y-146174974D03*
%TD*%
%TO.C,D540*%
X179587009Y-96074974D03*
X176687009Y-97174974D03*
%TD*%
%TO.C,D253*%
X155087009Y-75074974D03*
X152187009Y-76174974D03*
%TD*%
%TO.C,D494*%
X183087009Y-92574974D03*
X180187009Y-93674974D03*
%TD*%
%TO.C,D108*%
X162087009Y-61074974D03*
X159187009Y-62174974D03*
%TD*%
%TO.C,D1013*%
X172587009Y-134574974D03*
X169687009Y-135674974D03*
%TD*%
%TO.C,D111*%
X172587010Y-61074974D03*
X169687010Y-62174974D03*
%TD*%
%TO.C,D1176*%
X92087010Y-152074974D03*
X89187010Y-153174974D03*
%TD*%
%TO.C,D884*%
X148087009Y-124074975D03*
X145187009Y-125174975D03*
%TD*%
%TO.C,D309*%
X197087009Y-78574974D03*
X194187009Y-79674974D03*
%TD*%
%TO.C,D975*%
X179587010Y-131074974D03*
X176687010Y-132174974D03*
%TD*%
%TO.C,D126*%
X113087010Y-64574974D03*
X110187010Y-65674974D03*
%TD*%
%TO.C,D685*%
X200587009Y-106574974D03*
X197687009Y-107674974D03*
%TD*%
%TO.C,D931*%
X169087009Y-127574974D03*
X166187009Y-128674974D03*
%TD*%
%TO.C,D849*%
X169087009Y-120574974D03*
X166187009Y-121674974D03*
%TD*%
%TO.C,D813*%
X186587009Y-117074974D03*
X183687009Y-118174974D03*
%TD*%
%TO.C,D431*%
X127087009Y-89074975D03*
X124187009Y-90174975D03*
%TD*%
%TO.C,D360*%
X211087009Y-82074974D03*
X208187009Y-83174974D03*
%TD*%
%TO.C,D949*%
X88587009Y-131074975D03*
X85687009Y-132174975D03*
%TD*%
%TO.C,D551*%
X218087010Y-96074975D03*
X215187010Y-97174975D03*
%TD*%
%TO.C,D6*%
X186587009Y-40074974D03*
X183687009Y-41174974D03*
%TD*%
%TO.C,D489*%
X165587010Y-92574974D03*
X162687010Y-93674974D03*
%TD*%
%TO.C,D629*%
X165587010Y-103074974D03*
X162687010Y-104174974D03*
%TD*%
%TO.C,D13*%
X172587009Y-43574975D03*
X169687009Y-44674975D03*
%TD*%
%TO.C,D1147*%
X109587009Y-148574975D03*
X106687009Y-149674975D03*
%TD*%
%TO.C,D34*%
X197087010Y-47074974D03*
X194187010Y-48174974D03*
%TD*%
%TO.C,D1030*%
X92087010Y-138074974D03*
X89187010Y-139174974D03*
%TD*%
%TO.C,D717*%
X155087009Y-110074974D03*
X152187009Y-111174974D03*
%TD*%
%TO.C,D886*%
X155087009Y-124074974D03*
X152187009Y-125174974D03*
%TD*%
%TO.C,D1003*%
X137587010Y-134574974D03*
X134687010Y-135674974D03*
%TD*%
%TO.C,D101*%
X137587009Y-61074974D03*
X134687009Y-62174974D03*
%TD*%
%TO.C,D85*%
X169087009Y-57574974D03*
X166187009Y-58674974D03*
%TD*%
%TO.C,D378*%
X109587009Y-85574975D03*
X106687009Y-86674975D03*
%TD*%
%TO.C,D157*%
X221587009Y-64574975D03*
X218687009Y-65674975D03*
%TD*%
%TO.C,D936*%
X186587010Y-127574974D03*
X183687010Y-128674974D03*
%TD*%
%TO.C,D904*%
X74587009Y-127574974D03*
X71687009Y-128674974D03*
%TD*%
%TO.C,D50*%
X193587009Y-50574975D03*
X190687009Y-51674975D03*
%TD*%
%TO.C,D147*%
X186587009Y-64574974D03*
X183687009Y-65674974D03*
%TD*%
%TO.C,D1145*%
X102587009Y-148574974D03*
X99687009Y-149674974D03*
%TD*%
%TO.C,D143*%
X172587009Y-64574974D03*
X169687009Y-65674974D03*
%TD*%
%TO.C,D191*%
X218087010Y-68074974D03*
X215187010Y-69174974D03*
%TD*%
%TO.C,D598*%
X57087009Y-103074974D03*
X54187009Y-104174974D03*
%TD*%
%TO.C,D480*%
X134087009Y-92574974D03*
X131187009Y-93674974D03*
%TD*%
%TO.C,D1106*%
X92087009Y-145074974D03*
X89187009Y-146174974D03*
%TD*%
%TO.C,D72*%
X200587009Y-54074974D03*
X197687009Y-55174974D03*
%TD*%
%TO.C,D224*%
X197087010Y-71574974D03*
X194187010Y-72674974D03*
%TD*%
%TO.C,D737*%
X71087009Y-113574974D03*
X68187009Y-114674974D03*
%TD*%
%TO.C,D880*%
X134087010Y-124074974D03*
X131187010Y-125174974D03*
%TD*%
%TO.C,D123*%
X214587009Y-61074974D03*
X211687009Y-62174974D03*
%TD*%
%TO.C,D867*%
X88587009Y-124074974D03*
X85687009Y-125174974D03*
%TD*%
%TO.C,D556*%
X71087009Y-99574974D03*
X68187009Y-100674974D03*
%TD*%
%TO.C,D233*%
X85087010Y-75074974D03*
X82187010Y-76174974D03*
%TD*%
%TO.C,D568*%
X113087009Y-99574974D03*
X110187009Y-100674974D03*
%TD*%
%TO.C,D1133*%
X186587009Y-145074974D03*
X183687009Y-146174974D03*
%TD*%
%TO.C,D797*%
X130587010Y-117074975D03*
X127687010Y-118174975D03*
%TD*%
%TO.C,D141*%
X165587010Y-64574974D03*
X162687010Y-65674974D03*
%TD*%
%TO.C,D594*%
X204087009Y-99574974D03*
X201187009Y-100674974D03*
%TD*%
%TO.C,D720*%
X165587009Y-110074974D03*
X162687009Y-111174974D03*
%TD*%
%TO.C,D772*%
X193587009Y-113574974D03*
X190687009Y-114674974D03*
%TD*%
%TO.C,D1053*%
X172587010Y-138074974D03*
X169687010Y-139174974D03*
%TD*%
%TO.C,D809*%
X172587009Y-117074974D03*
X169687009Y-118174974D03*
%TD*%
%TO.C,D769*%
X183087010Y-113574974D03*
X180187010Y-114674974D03*
%TD*%
%TO.C,D883*%
X144587010Y-124074974D03*
X141687010Y-125174974D03*
%TD*%
%TO.C,D97*%
X211087010Y-57574974D03*
X208187010Y-58674974D03*
%TD*%
%TO.C,D990*%
X92087009Y-134574974D03*
X89187009Y-135674974D03*
%TD*%
%TO.C,D1098*%
X197087010Y-141574975D03*
X194187010Y-142674975D03*
%TD*%
%TO.C,D328*%
X99087010Y-82074974D03*
X96187010Y-83174974D03*
%TD*%
%TO.C,D932*%
X172587010Y-127574974D03*
X169687010Y-128674974D03*
%TD*%
%TO.C,D520*%
X109587009Y-96074975D03*
X106687009Y-97174975D03*
%TD*%
%TO.C,D1188*%
X148087010Y-152074974D03*
X145187010Y-153174974D03*
%TD*%
%TO.C,D1031*%
X95587009Y-138074975D03*
X92687009Y-139174975D03*
%TD*%
%TO.C,D294*%
X144587009Y-78574974D03*
X141687009Y-79674974D03*
%TD*%
%TO.C,D1069*%
X95587009Y-141574974D03*
X92687009Y-142674974D03*
%TD*%
%TO.C,D78*%
X144587010Y-57574974D03*
X141687010Y-58674974D03*
%TD*%
%TO.C,D1199*%
X186587010Y-152074974D03*
X183687010Y-153174974D03*
%TD*%
%TO.C,D302*%
X172587009Y-78574974D03*
X169687009Y-79674974D03*
%TD*%
%TO.C,D1044*%
X141087009Y-138074974D03*
X138187009Y-139174974D03*
%TD*%
%TO.C,D1130*%
X176087009Y-145074974D03*
X173187009Y-146174974D03*
%TD*%
%TO.C,D336*%
X127087009Y-82074974D03*
X124187009Y-83174974D03*
%TD*%
%TO.C,D320*%
X71087010Y-82074974D03*
X68187010Y-83174974D03*
%TD*%
%TO.C,D318*%
X64087009Y-82074974D03*
X61187009Y-83174974D03*
%TD*%
%TO.C,D369*%
X78087010Y-85574974D03*
X75187010Y-86674974D03*
%TD*%
%TO.C,D100*%
X134087010Y-61074974D03*
X131187010Y-62174974D03*
%TD*%
%TO.C,D500*%
X204087010Y-92574974D03*
X201187010Y-93674974D03*
%TD*%
%TO.C,D242*%
X116587009Y-75074974D03*
X113687009Y-76174974D03*
%TD*%
%TO.C,D16*%
X183087010Y-43574974D03*
X180187010Y-44674974D03*
%TD*%
%TO.C,D256*%
X165587009Y-75074974D03*
X162687009Y-76174974D03*
%TD*%
%TO.C,D790*%
X106087009Y-117074974D03*
X103187009Y-118174974D03*
%TD*%
%TO.C,D262*%
X186587010Y-75074974D03*
X183687010Y-76174974D03*
%TD*%
%TO.C,D548*%
X207587009Y-96074974D03*
X204687009Y-97174974D03*
%TD*%
%TO.C,D218*%
X176087009Y-71574975D03*
X173187009Y-72674975D03*
%TD*%
%TO.C,D783*%
X81587009Y-117074974D03*
X78687009Y-118174974D03*
%TD*%
%TO.C,D821*%
X71087010Y-120574974D03*
X68187010Y-121674974D03*
%TD*%
%TO.C,D513*%
X85087010Y-96074975D03*
X82187010Y-97174975D03*
%TD*%
%TO.C,D1037*%
X116587009Y-138074974D03*
X113687009Y-139174974D03*
%TD*%
%TO.C,D1095*%
X186587009Y-141574974D03*
X183687009Y-142674974D03*
%TD*%
%TO.C,D1119*%
X137587010Y-145074974D03*
X134687010Y-146174974D03*
%TD*%
%TO.C,D240*%
X109587009Y-75074974D03*
X106687009Y-76174974D03*
%TD*%
%TO.C,D66*%
X179587010Y-54074974D03*
X176687010Y-55174974D03*
%TD*%
%TO.C,D205*%
X130587010Y-71574974D03*
X127687010Y-72674974D03*
%TD*%
%TO.C,D443*%
X169087009Y-89074975D03*
X166187009Y-90174975D03*
%TD*%
%TO.C,D655*%
X95587009Y-106574974D03*
X92687009Y-107674974D03*
%TD*%
%TO.C,D926*%
X151587009Y-127574974D03*
X148687009Y-128674974D03*
%TD*%
%TO.C,D731*%
X204087010Y-110074975D03*
X201187010Y-111174975D03*
%TD*%
%TO.C,D8*%
X193587010Y-40074974D03*
X190687010Y-41174974D03*
%TD*%
%TO.C,D882*%
X141087009Y-124074974D03*
X138187009Y-125174974D03*
%TD*%
%TO.C,D182*%
X186587009Y-68074974D03*
X183687009Y-69174974D03*
%TD*%
%TO.C,D565*%
X102587009Y-99574974D03*
X99687009Y-100674974D03*
%TD*%
%TO.C,D823*%
X78087009Y-120574974D03*
X75187009Y-121674974D03*
%TD*%
%TO.C,D485*%
X151587010Y-92574974D03*
X148687010Y-93674974D03*
%TD*%
%TO.C,D534*%
X158587010Y-96074974D03*
X155687010Y-97174974D03*
%TD*%
%TO.C,D231*%
X221587009Y-71574974D03*
X218687009Y-72674974D03*
%TD*%
%TO.C,D605*%
X81587009Y-103074974D03*
X78687009Y-104174974D03*
%TD*%
%TO.C,D165*%
X127087010Y-68074974D03*
X124187010Y-69174974D03*
%TD*%
%TO.C,D660*%
X113087010Y-106574974D03*
X110187010Y-107674974D03*
%TD*%
%TO.C,D15*%
X179587009Y-43574974D03*
X176687009Y-44674974D03*
%TD*%
%TO.C,D654*%
X92087009Y-106574974D03*
X89187009Y-107674974D03*
%TD*%
%TO.C,D1038*%
X120087010Y-138074974D03*
X117187010Y-139174974D03*
%TD*%
%TO.C,D189*%
X211087009Y-68074974D03*
X208187009Y-69174974D03*
%TD*%
%TO.C,D686*%
X204087010Y-106574974D03*
X201187010Y-107674974D03*
%TD*%
%TO.C,D1170*%
X190087010Y-148574975D03*
X187187010Y-149674975D03*
%TD*%
%TO.C,D611*%
X102587009Y-103074975D03*
X99687009Y-104174975D03*
%TD*%
%TO.C,D272*%
X221587009Y-75074974D03*
X218687009Y-76174974D03*
%TD*%
%TO.C,D862*%
X71087010Y-124074975D03*
X68187010Y-125174975D03*
%TD*%
%TO.C,D361*%
X214587009Y-82074974D03*
X211687009Y-83174974D03*
%TD*%
%TO.C,D26*%
X169087009Y-47074974D03*
X166187009Y-48174974D03*
%TD*%
%TO.C,D454*%
X207587009Y-89074975D03*
X204687009Y-90174975D03*
%TD*%
%TO.C,D1163*%
X165587010Y-148574975D03*
X162687010Y-149674975D03*
%TD*%
%TO.C,D1012*%
X169087009Y-134574974D03*
X166187009Y-135674974D03*
%TD*%
%TO.C,D1094*%
X183087010Y-141574975D03*
X180187010Y-142674975D03*
%TD*%
%TO.C,D1109*%
X102587009Y-145074975D03*
X99687009Y-146174975D03*
%TD*%
%TO.C,D41*%
X162087009Y-50574974D03*
X159187009Y-51674974D03*
%TD*%
%TO.C,D1103*%
X81587009Y-145074974D03*
X78687009Y-146174974D03*
%TD*%
%TO.C,D1077*%
X123587009Y-141574974D03*
X120687009Y-142674974D03*
%TD*%
%TO.C,D358*%
X204087010Y-82074974D03*
X201187010Y-83174974D03*
%TD*%
%TO.C,D1087*%
X158587010Y-141574975D03*
X155687010Y-142674975D03*
%TD*%
%TO.C,D264*%
X193587009Y-75074974D03*
X190687009Y-76174974D03*
%TD*%
%TO.C,D564*%
X99087009Y-99574974D03*
X96187009Y-100674974D03*
%TD*%
%TO.C,D1096*%
X190087010Y-141574974D03*
X187187010Y-142674974D03*
%TD*%
%TO.C,D850*%
X172587009Y-120574974D03*
X169687009Y-121674974D03*
%TD*%
%TO.C,D782*%
X78087010Y-117074975D03*
X75187010Y-118174975D03*
%TD*%
%TO.C,D861*%
X67587010Y-124074974D03*
X64687010Y-125174974D03*
%TD*%
%TO.C,D1110*%
X106087009Y-145074974D03*
X103187009Y-146174974D03*
%TD*%
%TO.C,D595*%
X207587009Y-99574974D03*
X204687009Y-100674974D03*
%TD*%
%TO.C,D116*%
X190087009Y-61074974D03*
X187187009Y-62174974D03*
%TD*%
%TO.C,D716*%
X151587010Y-110074975D03*
X148687010Y-111174975D03*
%TD*%
%TO.C,D860*%
X64087009Y-124074974D03*
X61187009Y-125174974D03*
%TD*%
%TO.C,D1153*%
X130587010Y-148574974D03*
X127687010Y-149674974D03*
%TD*%
%TO.C,D537*%
X169087009Y-96074974D03*
X166187009Y-97174974D03*
%TD*%
%TO.C,D398*%
X179587009Y-85574974D03*
X176687009Y-86674974D03*
%TD*%
%TO.C,D985*%
X74587009Y-134574974D03*
X71687009Y-135674974D03*
%TD*%
%TO.C,D1042*%
X134087010Y-138074974D03*
X131187010Y-139174974D03*
%TD*%
%TO.C,D601*%
X67587009Y-103074974D03*
X64687009Y-104174974D03*
%TD*%
%TO.C,D280*%
X95587009Y-78574974D03*
X92687009Y-79674974D03*
%TD*%
%TO.C,D305*%
X183087010Y-78574975D03*
X180187010Y-79674975D03*
%TD*%
%TO.C,D304*%
X179587010Y-78574974D03*
X176687010Y-79674974D03*
%TD*%
%TO.C,D212*%
X155087009Y-71574974D03*
X152187009Y-72674974D03*
%TD*%
%TO.C,D9*%
X197087009Y-40074974D03*
X194187009Y-41174974D03*
%TD*%
%TO.C,D899*%
X200587009Y-124074975D03*
X197687009Y-125174975D03*
%TD*%
%TO.C,D1120*%
X141087010Y-145074974D03*
X138187010Y-146174974D03*
%TD*%
%TO.C,D156*%
X218087010Y-64574974D03*
X215187010Y-65674974D03*
%TD*%
%TO.C,D408*%
X214587009Y-85574975D03*
X211687009Y-86674975D03*
%TD*%
%TO.C,D943*%
X67587009Y-131074974D03*
X64687009Y-132174974D03*
%TD*%
%TO.C,D296*%
X151587010Y-78574974D03*
X148687010Y-79674974D03*
%TD*%
%TO.C,D343*%
X151587010Y-82074974D03*
X148687010Y-83174974D03*
%TD*%
%TO.C,D1043*%
X137587009Y-138074974D03*
X134687009Y-139174974D03*
%TD*%
%TO.C,D388*%
X144587010Y-85574974D03*
X141687010Y-86674974D03*
%TD*%
%TO.C,D780*%
X71087010Y-117074974D03*
X68187010Y-118174974D03*
%TD*%
%TO.C,D172*%
X151587010Y-68074974D03*
X148687010Y-69174974D03*
%TD*%
%TO.C,D848*%
X165587010Y-120574974D03*
X162687010Y-121674974D03*
%TD*%
%TO.C,D760*%
X151587009Y-113574974D03*
X148687009Y-114674974D03*
%TD*%
%TO.C,D714*%
X144587010Y-110074974D03*
X141687010Y-111174974D03*
%TD*%
%TO.C,D255*%
X162087009Y-75074974D03*
X159187009Y-76174974D03*
%TD*%
%TO.C,D959*%
X123587009Y-131074974D03*
X120687009Y-132174974D03*
%TD*%
%TO.C,D827*%
X92087009Y-120574974D03*
X89187009Y-121674974D03*
%TD*%
%TO.C,D779*%
X67587009Y-117074974D03*
X64687009Y-118174974D03*
%TD*%
%TO.C,D612*%
X106087009Y-103074974D03*
X103187009Y-104174974D03*
%TD*%
%TO.C,D576*%
X141087009Y-99574974D03*
X138187009Y-100674974D03*
%TD*%
%TO.C,D762*%
X158587010Y-113574974D03*
X155687010Y-114674974D03*
%TD*%
%TO.C,D870*%
X99087009Y-124074974D03*
X96187009Y-125174974D03*
%TD*%
%TO.C,D630*%
X169087009Y-103074975D03*
X166187009Y-104174975D03*
%TD*%
%TO.C,D1015*%
X179587010Y-134574974D03*
X176687010Y-135674974D03*
%TD*%
%TO.C,D767*%
X176087009Y-113574974D03*
X173187009Y-114674974D03*
%TD*%
%TO.C,D61*%
X162087009Y-54074974D03*
X159187009Y-55174974D03*
%TD*%
%TO.C,D442*%
X165587009Y-89074975D03*
X162687009Y-90174975D03*
%TD*%
%TO.C,D566*%
X106087010Y-99574974D03*
X103187010Y-100674974D03*
%TD*%
%TO.C,D31*%
X186587010Y-47074974D03*
X183687010Y-48174974D03*
%TD*%
%TO.C,D838*%
X130587010Y-120574974D03*
X127687010Y-121674974D03*
%TD*%
%TO.C,D263*%
X190087010Y-75074974D03*
X187187010Y-76174974D03*
%TD*%
%TO.C,D877*%
X123587009Y-124074975D03*
X120687009Y-125174975D03*
%TD*%
%TO.C,D764*%
X165587009Y-113574974D03*
X162687009Y-114674974D03*
%TD*%
%TO.C,D479*%
X130587009Y-92574974D03*
X127687009Y-93674974D03*
%TD*%
%TO.C,D1029*%
X88587009Y-138074974D03*
X85687009Y-139174974D03*
%TD*%
%TO.C,D907*%
X85087009Y-127574974D03*
X82187009Y-128674974D03*
%TD*%
%TO.C,D633*%
X179587009Y-103074975D03*
X176687009Y-104174975D03*
%TD*%
%TO.C,D1151*%
X123587009Y-148574975D03*
X120687009Y-149674975D03*
%TD*%
%TO.C,D592*%
X197087010Y-99574974D03*
X194187010Y-100674974D03*
%TD*%
%TO.C,D79*%
X148087009Y-57574975D03*
X145187009Y-58674975D03*
%TD*%
%TO.C,D168*%
X137587010Y-68074974D03*
X134687010Y-69174974D03*
%TD*%
%TO.C,D446*%
X179587009Y-89074975D03*
X176687009Y-90174975D03*
%TD*%
%TO.C,D1181*%
X109587009Y-152074975D03*
X106687009Y-153174975D03*
%TD*%
%TO.C,D1156*%
X141087009Y-148574974D03*
X138187009Y-149674974D03*
%TD*%
%TO.C,D527*%
X134087009Y-96074975D03*
X131187009Y-97174975D03*
%TD*%
%TO.C,D678*%
X176087009Y-106574974D03*
X173187009Y-107674974D03*
%TD*%
%TO.C,D401*%
X190087009Y-85574974D03*
X187187009Y-86674974D03*
%TD*%
%TO.C,D371*%
X85087009Y-85574974D03*
X82187009Y-86674974D03*
%TD*%
%TO.C,D914*%
X109587009Y-127574974D03*
X106687009Y-128674974D03*
%TD*%
%TO.C,D584*%
X169087009Y-99574974D03*
X166187009Y-100674974D03*
%TD*%
%TO.C,D674*%
X162087009Y-106574974D03*
X159187009Y-107674974D03*
%TD*%
%TO.C,D274*%
X74587010Y-78574974D03*
X71687010Y-79674974D03*
%TD*%
%TO.C,D133*%
X137587010Y-64574974D03*
X134687010Y-65674974D03*
%TD*%
%TO.C,D608*%
X92087010Y-103074975D03*
X89187010Y-104174975D03*
%TD*%
%TO.C,D1014*%
X176087009Y-134574974D03*
X173187009Y-135674974D03*
%TD*%
%TO.C,D634*%
X183087010Y-103074975D03*
X180187010Y-104174975D03*
%TD*%
%TO.C,D672*%
X155087010Y-106574974D03*
X152187010Y-107674974D03*
%TD*%
%TO.C,D642*%
X211087010Y-103074975D03*
X208187010Y-104174975D03*
%TD*%
%TO.C,D18*%
X190087010Y-43574975D03*
X187187010Y-44674975D03*
%TD*%
%TO.C,D1081*%
X137587010Y-141574974D03*
X134687010Y-142674974D03*
%TD*%
%TO.C,D95*%
X204087010Y-57574975D03*
X201187010Y-58674975D03*
%TD*%
%TO.C,D409*%
X218087009Y-85574974D03*
X215187009Y-86674974D03*
%TD*%
%TO.C,D478*%
X127087010Y-92574974D03*
X124187010Y-93674974D03*
%TD*%
%TO.C,D1100*%
X71087010Y-145074974D03*
X68187010Y-146174974D03*
%TD*%
%TO.C,D268*%
X207587009Y-75074974D03*
X204687009Y-76174974D03*
%TD*%
%TO.C,D846*%
X158587009Y-120574974D03*
X155687009Y-121674974D03*
%TD*%
%TO.C,D1178*%
X99087009Y-152074974D03*
X96187009Y-153174974D03*
%TD*%
%TO.C,D201*%
X116587009Y-71574974D03*
X113687009Y-72674974D03*
%TD*%
%TO.C,D1125*%
X158587009Y-145074974D03*
X155687009Y-146174974D03*
%TD*%
%TO.C,D948*%
X85087010Y-131074974D03*
X82187010Y-132174974D03*
%TD*%
%TO.C,D1144*%
X99087010Y-148574975D03*
X96187010Y-149674975D03*
%TD*%
%TO.C,D83*%
X162087009Y-57574975D03*
X159187009Y-58674975D03*
%TD*%
%TO.C,D259*%
X176087009Y-75074974D03*
X173187009Y-76174974D03*
%TD*%
%TO.C,D982*%
X64087009Y-134574974D03*
X61187009Y-135674974D03*
%TD*%
%TO.C,D746*%
X102587009Y-113574974D03*
X99687009Y-114674974D03*
%TD*%
%TO.C,D117*%
X193587009Y-61074974D03*
X190687009Y-62174974D03*
%TD*%
%TO.C,D35*%
X200587010Y-47074974D03*
X197687010Y-48174974D03*
%TD*%
%TO.C,D887*%
X158587010Y-124074974D03*
X155687010Y-125174974D03*
%TD*%
%TO.C,D1054*%
X176087009Y-138074975D03*
X173187009Y-139174975D03*
%TD*%
%TO.C,D277*%
X85087010Y-78574974D03*
X82187010Y-79674974D03*
%TD*%
%TO.C,D754*%
X130587010Y-113574974D03*
X127687010Y-114674974D03*
%TD*%
%TO.C,D244*%
X123587009Y-75074974D03*
X120687009Y-76174974D03*
%TD*%
%TO.C,D450*%
X193587009Y-89074975D03*
X190687009Y-90174975D03*
%TD*%
%TO.C,D326*%
X92087010Y-82074974D03*
X89187010Y-83174974D03*
%TD*%
%TO.C,D796*%
X127087010Y-117074974D03*
X124187010Y-118174974D03*
%TD*%
%TO.C,D74*%
X207587010Y-54074974D03*
X204687010Y-55174974D03*
%TD*%
%TO.C,D578*%
X148087010Y-99574974D03*
X145187010Y-100674974D03*
%TD*%
%TO.C,D279*%
X92087009Y-78574974D03*
X89187009Y-79674974D03*
%TD*%
%TO.C,D709*%
X127087009Y-110074974D03*
X124187009Y-111174974D03*
%TD*%
%TO.C,D580*%
X155087009Y-99574974D03*
X152187009Y-100674974D03*
%TD*%
%TO.C,D897*%
X193587009Y-124074974D03*
X190687009Y-125174974D03*
%TD*%
%TO.C,D1131*%
X179587010Y-145074974D03*
X176687010Y-146174974D03*
%TD*%
%TO.C,D805*%
X158587009Y-117074974D03*
X155687009Y-118174974D03*
%TD*%
%TO.C,D1171*%
X193587009Y-148574974D03*
X190687009Y-149674974D03*
%TD*%
%TO.C,D486*%
X155087010Y-92574974D03*
X152187010Y-93674974D03*
%TD*%
%TO.C,D917*%
X120087010Y-127574974D03*
X117187010Y-128674974D03*
%TD*%
%TO.C,D991*%
X95587009Y-134574974D03*
X92687009Y-135674974D03*
%TD*%
%TO.C,D17*%
X186587009Y-43574975D03*
X183687009Y-44674975D03*
%TD*%
%TO.C,D799*%
X137587010Y-117074974D03*
X134687010Y-118174974D03*
%TD*%
%TO.C,D483*%
X144587009Y-92574974D03*
X141687009Y-93674974D03*
%TD*%
%TO.C,D291*%
X134087009Y-78574974D03*
X131187009Y-79674974D03*
%TD*%
%TO.C,D160*%
X109587009Y-68074974D03*
X106687009Y-69174974D03*
%TD*%
%TO.C,D933*%
X176087009Y-127574974D03*
X173187009Y-128674974D03*
%TD*%
%TO.C,D322*%
X78087010Y-82074974D03*
X75187010Y-83174974D03*
%TD*%
%TO.C,D666*%
X134087009Y-106574974D03*
X131187009Y-107674974D03*
%TD*%
%TO.C,D696*%
X81587009Y-110074975D03*
X78687009Y-111174975D03*
%TD*%
%TO.C,D210*%
X148087009Y-71574975D03*
X145187009Y-72674975D03*
%TD*%
%TO.C,D1017*%
X186587009Y-134574974D03*
X183687009Y-135674974D03*
%TD*%
%TO.C,D1114*%
X120087009Y-145074974D03*
X117187009Y-146174974D03*
%TD*%
%TO.C,D748*%
X109587009Y-113574974D03*
X106687009Y-114674974D03*
%TD*%
%TO.C,D173*%
X155087009Y-68074974D03*
X152187009Y-69174974D03*
%TD*%
%TO.C,D106*%
X155087009Y-61074974D03*
X152187009Y-62174974D03*
%TD*%
%TO.C,D495*%
X186587009Y-92574974D03*
X183687009Y-93674974D03*
%TD*%
%TO.C,D132*%
X134087009Y-64574974D03*
X131187009Y-65674974D03*
%TD*%
%TO.C,D348*%
X169087009Y-82074974D03*
X166187009Y-83174974D03*
%TD*%
%TO.C,D490*%
X169087009Y-92574975D03*
X166187009Y-93674975D03*
%TD*%
%TO.C,D550*%
X214587009Y-96074975D03*
X211687009Y-97174975D03*
%TD*%
%TO.C,D853*%
X183087010Y-120574974D03*
X180187010Y-121674974D03*
%TD*%
%TO.C,D230*%
X218087009Y-71574974D03*
X215187009Y-72674974D03*
%TD*%
%TO.C,D1185*%
X137587009Y-152074974D03*
X134687009Y-153174974D03*
%TD*%
%TO.C,D22*%
X204087010Y-43574975D03*
X201187010Y-44674975D03*
%TD*%
%TO.C,D333*%
X116587009Y-82074974D03*
X113687009Y-83174974D03*
%TD*%
%TO.C,D1009*%
X158587009Y-134574974D03*
X155687009Y-135674974D03*
%TD*%
%TO.C,D620*%
X134087009Y-103074974D03*
X131187009Y-104174974D03*
%TD*%
%TO.C,D269*%
X211087010Y-75074974D03*
X208187010Y-76174974D03*
%TD*%
%TO.C,D84*%
X165587009Y-57574974D03*
X162687009Y-58674974D03*
%TD*%
%TO.C,D48*%
X186587009Y-50574974D03*
X183687009Y-51674974D03*
%TD*%
%TO.C,D794*%
X120087009Y-117074974D03*
X117187009Y-118174974D03*
%TD*%
%TO.C,D1088*%
X162087009Y-141574974D03*
X159187009Y-142674974D03*
%TD*%
%TO.C,D113*%
X179587009Y-61074974D03*
X176687009Y-62174974D03*
%TD*%
%TO.C,D449*%
X190087010Y-89074974D03*
X187187010Y-90174974D03*
%TD*%
%TO.C,D362*%
X218087010Y-82074974D03*
X215187010Y-83174974D03*
%TD*%
%TO.C,D55*%
X141087010Y-54074974D03*
X138187010Y-55174974D03*
%TD*%
%TO.C,D57*%
X148087009Y-54074974D03*
X145187009Y-55174974D03*
%TD*%
%TO.C,D64*%
X172587009Y-54074974D03*
X169687009Y-55174974D03*
%TD*%
%TO.C,D29*%
X179587009Y-47074974D03*
X176687009Y-48174974D03*
%TD*%
%TO.C,D1112*%
X113087010Y-145074974D03*
X110187010Y-146174974D03*
%TD*%
%TO.C,D457*%
X218087009Y-89074975D03*
X215187009Y-90174975D03*
%TD*%
%TO.C,D169*%
X141087009Y-68074974D03*
X138187009Y-69174974D03*
%TD*%
%TO.C,D1022*%
X64087009Y-138074974D03*
X61187009Y-139174974D03*
%TD*%
%TO.C,D740*%
X81587010Y-113574974D03*
X78687010Y-114674974D03*
%TD*%
%TO.C,D820*%
X67587009Y-120574974D03*
X64687009Y-121674974D03*
%TD*%
%TO.C,D196*%
X99087009Y-71574974D03*
X96187009Y-72674974D03*
%TD*%
%TO.C,D59*%
X155087009Y-54074974D03*
X152187009Y-55174974D03*
%TD*%
%TO.C,D999*%
X123587009Y-134574974D03*
X120687009Y-135674974D03*
%TD*%
%TO.C,D582*%
X162087010Y-99574974D03*
X159187010Y-100674974D03*
%TD*%
%TO.C,D768*%
X179587009Y-113574974D03*
X176687009Y-114674974D03*
%TD*%
%TO.C,D1025*%
X74587009Y-138074974D03*
X71687009Y-139174974D03*
%TD*%
%TO.C,D604*%
X78087010Y-103074975D03*
X75187010Y-104174975D03*
%TD*%
%TO.C,D329*%
X102587009Y-82074974D03*
X99687009Y-83174974D03*
%TD*%
%TO.C,D979*%
X193587010Y-131074974D03*
X190687010Y-132174974D03*
%TD*%
%TO.C,D829*%
X99087010Y-120574974D03*
X96187010Y-121674974D03*
%TD*%
%TO.C,D399*%
X183087010Y-85574974D03*
X180187010Y-86674974D03*
%TD*%
%TO.C,D521*%
X113087009Y-96074974D03*
X110187009Y-97174974D03*
%TD*%
%TO.C,D969*%
X158587009Y-131074974D03*
X155687009Y-132174974D03*
%TD*%
%TO.C,D1118*%
X134087009Y-145074974D03*
X131187009Y-146174974D03*
%TD*%
%TO.C,D569*%
X116587009Y-99574974D03*
X113687009Y-100674974D03*
%TD*%
%TO.C,D878*%
X127087009Y-124074974D03*
X124187009Y-125174974D03*
%TD*%
%TO.C,D664*%
X127087010Y-106574974D03*
X124187010Y-107674974D03*
%TD*%
%TO.C,D614*%
X113087010Y-103074974D03*
X110187010Y-104174974D03*
%TD*%
%TO.C,D1091*%
X172587010Y-141574975D03*
X169687010Y-142674975D03*
%TD*%
%TO.C,D626*%
X155087009Y-103074975D03*
X152187009Y-104174975D03*
%TD*%
%TO.C,D426*%
X109587009Y-89074974D03*
X106687009Y-90174974D03*
%TD*%
%TO.C,D753*%
X127087009Y-113574974D03*
X124187009Y-114674974D03*
%TD*%
%TO.C,D1165*%
X172587009Y-148574975D03*
X169687009Y-149674975D03*
%TD*%
%TO.C,D837*%
X127087010Y-120574974D03*
X124187010Y-121674974D03*
%TD*%
%TO.C,D726*%
X186587009Y-110074975D03*
X183687009Y-111174975D03*
%TD*%
%TO.C,D179*%
X176087009Y-68074974D03*
X173187009Y-69174974D03*
%TD*%
%TO.C,D373*%
X92087010Y-85574974D03*
X89187010Y-86674974D03*
%TD*%
%TO.C,D774*%
X200587010Y-113574974D03*
X197687010Y-114674974D03*
%TD*%
%TO.C,D766*%
X172587010Y-113574974D03*
X169687010Y-114674974D03*
%TD*%
%TO.C,D152*%
X204087010Y-64574974D03*
X201187010Y-65674974D03*
%TD*%
%TO.C,D170*%
X144587009Y-68074974D03*
X141687009Y-69174974D03*
%TD*%
%TO.C,D250*%
X144587010Y-75074974D03*
X141687010Y-76174974D03*
%TD*%
%TO.C,D755*%
X134087010Y-113574974D03*
X131187010Y-114674974D03*
%TD*%
%TO.C,D567*%
X109587009Y-99574974D03*
X106687009Y-100674974D03*
%TD*%
%TO.C,D363*%
X221587009Y-82074974D03*
X218687009Y-83174974D03*
%TD*%
%TO.C,D49*%
X190087010Y-50574974D03*
X187187010Y-51674974D03*
%TD*%
%TO.C,D1075*%
X116587009Y-141574975D03*
X113687009Y-142674975D03*
%TD*%
%TO.C,D807*%
X165587010Y-117074974D03*
X162687010Y-118174974D03*
%TD*%
%TO.C,D509*%
X71087010Y-96074975D03*
X68187010Y-97174975D03*
%TD*%
%TO.C,D167*%
X134087009Y-68074974D03*
X131187009Y-69174974D03*
%TD*%
%TO.C,D589*%
X186587010Y-99574974D03*
X183687010Y-100674974D03*
%TD*%
%TO.C,D759*%
X148087010Y-113574974D03*
X145187010Y-114674974D03*
%TD*%
%TO.C,D70*%
X193587010Y-54074974D03*
X190687010Y-55174974D03*
%TD*%
%TO.C,D628*%
X162087009Y-103074974D03*
X159187009Y-104174974D03*
%TD*%
%TO.C,D574*%
X134087010Y-99574974D03*
X131187010Y-100674974D03*
%TD*%
%TO.C,D118*%
X197087010Y-61074974D03*
X194187010Y-62174974D03*
%TD*%
%TO.C,D981*%
X200587009Y-131074974D03*
X197687009Y-132174974D03*
%TD*%
%TO.C,D921*%
X134087010Y-127574974D03*
X131187010Y-128674974D03*
%TD*%
%TO.C,D1187*%
X144587010Y-152074974D03*
X141687010Y-153174974D03*
%TD*%
%TO.C,D129*%
X123587009Y-64574974D03*
X120687009Y-65674974D03*
%TD*%
%TO.C,D393*%
X162087009Y-85574975D03*
X159187009Y-86674975D03*
%TD*%
%TO.C,D830*%
X102587009Y-120574974D03*
X99687009Y-121674974D03*
%TD*%
%TO.C,D30*%
X183087010Y-47074974D03*
X180187010Y-48174974D03*
%TD*%
%TO.C,D835*%
X120087009Y-120574974D03*
X117187009Y-121674974D03*
%TD*%
M02*
