M48
; DRILL file {KiCad 9.0.7} date 2026-03-25T12:06:47+0900
; FORMAT={-:-/ absolute / inch / decimal}
; #@! TF.CreationDate,2026-03-25T12:06:47+09:00
; #@! TF.GenerationSoftware,Kicad,Pcbnew,9.0.7
; #@! TF.FileFunction,Plated,1,4,PTH
FMAT,2
INCH
; #@! TA.AperFunction,Plated,PTH,ViaDrill
T1C0.0118
; #@! TA.AperFunction,Plated,PTH,ComponentDrill
T2C0.0118
; #@! TA.AperFunction,Plated,PTH,ComponentDrill
T3C0.0866
%
G90
G05
T1
X2.677Y-3.9627
X3.1008Y-4.8524
X3.3555Y-2.4898
X3.376Y-3.4752
X3.8094Y-1.389
X4.4579Y-3.0409
X4.6022Y-4.3761
X4.7339Y-5.3846
X6.5244Y-4.4194
X6.6731Y-2.9981
X7.7754Y-3.4115
X8.0471Y-4.7905
X8.4752Y-4.026
X8.6476Y-4.7008
X8.6496Y-4.8748
X8.6748Y-4.5965
X8.676Y-4.6594
X8.689Y-4.8181
X8.7268Y-4.5925
X8.7657Y-4.7157
X8.8579Y-4.7551
T2
X2.1804Y-2.9037
X2.1804Y-3.0415
X2.2946Y-2.8604
X2.2946Y-2.9981
X2.3182Y-2.4903
X2.3182Y-2.6281
X2.3182Y-2.7659
X2.3182Y-2.9037
X2.3182Y-3.0415
X2.3182Y-3.1792
X2.3182Y-3.317
X2.4324Y-2.447
X2.4324Y-2.5848
X2.4324Y-2.7226
X2.4324Y-2.8604
X2.4324Y-2.9981
X2.4324Y-3.1359
X2.4324Y-3.2737
X2.456Y-2.4903
X2.456Y-2.6281
X2.456Y-3.0415
X2.456Y-3.1792
X2.456Y-3.5926
X2.456Y-3.7304
X2.456Y-2.3525
X2.456Y-2.7659
X2.456Y-2.9037
X2.456Y-3.317
X2.456Y-3.4548
X2.5702Y-2.447
X2.5702Y-2.5848
X2.5702Y-2.9981
X2.5702Y-3.1359
X2.5702Y-3.5493
X2.5702Y-3.6871
X2.5702Y-2.3092
X2.5702Y-2.7226
X2.5702Y-2.8604
X2.5702Y-3.2737
X2.5702Y-3.4115
X2.5938Y-3.8682
X2.5938Y-2.2147
X2.5938Y-2.3525
X2.5938Y-2.4903
X2.5938Y-2.6281
X2.5938Y-2.7659
X2.5938Y-2.9037
X2.5938Y-3.0415
X2.5938Y-3.1792
X2.5938Y-3.317
X2.5938Y-3.4548
X2.5938Y-3.5926
X2.5938Y-3.7304
X2.5938Y-4.006
X2.708Y-3.8249
X2.708Y-2.1714
X2.708Y-2.3092
X2.708Y-2.447
X2.708Y-2.5848
X2.708Y-2.7226
X2.708Y-2.8604
X2.708Y-2.9981
X2.708Y-3.1359
X2.708Y-3.2737
X2.708Y-3.4115
X2.708Y-3.5493
X2.708Y-3.6871
X2.708Y-3.9627
X2.7316Y-2.2147
X2.7316Y-2.3525
X2.7316Y-2.7659
X2.7316Y-2.9037
X2.7316Y-3.317
X2.7316Y-3.4548
X2.7316Y-3.7304
X2.7316Y-3.8682
X2.7316Y-4.006
X2.7316Y-2.0769
X2.7316Y-2.4903
X2.7316Y-2.6281
X2.7316Y-3.0415
X2.7316Y-3.1792
X2.7316Y-3.5926
X2.8458Y-2.1714
X2.8458Y-2.3092
X2.8458Y-2.7226
X2.8458Y-2.8604
X2.8458Y-3.2737
X2.8458Y-3.4115
X2.8458Y-3.6871
X2.8458Y-3.8249
X2.8458Y-3.9627
X2.8458Y-2.0336
X2.8458Y-2.447
X2.8458Y-2.5848
X2.8458Y-2.9981
X2.8458Y-3.1359
X2.8458Y-3.5493
X2.8694Y-2.0769
X2.8694Y-3.5926
X2.8694Y-4.1438
X2.8694Y-4.2816
X2.8694Y-1.8013
X2.8694Y-1.9391
X2.8694Y-2.2147
X2.8694Y-2.3525
X2.8694Y-2.4903
X2.8694Y-2.6281
X2.8694Y-2.7659
X2.8694Y-2.9037
X2.8694Y-3.0415
X2.8694Y-3.1792
X2.8694Y-3.317
X2.8694Y-3.4548
X2.8694Y-3.7304
X2.8694Y-3.8682
X2.8694Y-4.006
X2.9836Y-2.0336
X2.9836Y-3.5493
X2.9836Y-4.1005
X2.9836Y-4.2383
X2.9836Y-1.758
X2.9836Y-1.8958
X2.9836Y-2.1714
X2.9836Y-2.3092
X2.9836Y-2.447
X2.9836Y-2.5848
X2.9836Y-2.7226
X2.9836Y-2.8604
X2.9836Y-2.9981
X2.9836Y-3.1359
X2.9836Y-3.2737
X2.9836Y-3.4115
X2.9836Y-3.6871
X2.9836Y-3.8249
X2.9836Y-3.9627
X3.0072Y-1.6635
X3.0072Y-1.9391
X3.0072Y-2.0769
X3.0072Y-2.2147
X3.0072Y-2.4903
X3.0072Y-2.6281
X3.0072Y-3.0415
X3.0072Y-3.1792
X3.0072Y-3.4548
X3.0072Y-3.5926
X3.0072Y-3.7304
X3.0072Y-4.006
X3.0072Y-4.1438
X3.0072Y-4.2816
X3.0072Y-4.5572
X3.0072Y-4.695
X3.0072Y-1.8013
X3.0072Y-2.3525
X3.0072Y-2.7659
X3.0072Y-2.9037
X3.0072Y-3.317
X3.0072Y-3.8682
X3.0072Y-4.4194
X3.0072Y-4.8328
X3.0072Y-4.9706
X3.1214Y-1.6202
X3.1214Y-1.8958
X3.1214Y-2.0336
X3.1214Y-2.1714
X3.1214Y-2.447
X3.1214Y-2.5848
X3.1214Y-2.9981
X3.1214Y-3.1359
X3.1214Y-3.4115
X3.1214Y-3.5493
X3.1214Y-3.6871
X3.1214Y-3.9627
X3.1214Y-4.1005
X3.1214Y-4.2383
X3.1214Y-4.5139
X3.1214Y-4.6517
X3.1214Y-1.758
X3.1214Y-2.3092
X3.1214Y-2.7226
X3.1214Y-2.8604
X3.1214Y-3.2737
X3.1214Y-3.8249
X3.1214Y-4.3761
X3.1214Y-4.7895
X3.1214Y-4.9273
X3.145Y-1.8013
X3.145Y-2.3525
X3.145Y-3.317
X3.145Y-3.8682
X3.145Y-4.4194
X3.145Y-1.5257
X3.145Y-1.6635
X3.145Y-1.9391
X3.145Y-2.0769
X3.145Y-2.2147
X3.145Y-2.4903
X3.145Y-2.6281
X3.145Y-2.7659
X3.145Y-2.9037
X3.145Y-3.0415
X3.145Y-3.1792
X3.145Y-3.4548
X3.145Y-3.5926
X3.145Y-3.7304
X3.145Y-4.006
X3.145Y-4.1438
X3.145Y-4.2816
X3.145Y-4.5572
X3.145Y-4.695
X3.145Y-4.8328
X3.145Y-4.9706
X3.145Y-5.1084
X3.145Y-5.2462
X3.2592Y-1.758
X3.2592Y-2.3092
X3.2592Y-3.2737
X3.2592Y-3.8249
X3.2592Y-4.3761
X3.2592Y-1.4824
X3.2592Y-1.6202
X3.2592Y-1.8958
X3.2592Y-2.0336
X3.2592Y-2.1714
X3.2592Y-2.447
X3.2592Y-2.5848
X3.2592Y-2.7226
X3.2592Y-2.8604
X3.2592Y-2.9981
X3.2592Y-3.1359
X3.2592Y-3.4115
X3.2592Y-3.5493
X3.2592Y-3.6871
X3.2592Y-3.9627
X3.2592Y-4.1005
X3.2592Y-4.2383
X3.2592Y-4.5139
X3.2592Y-4.6517
X3.2592Y-4.7895
X3.2592Y-4.9273
X3.2592Y-5.0651
X3.2592Y-5.2029
X3.2828Y-1.6635
X3.2828Y-1.8013
X3.2828Y-1.9391
X3.2828Y-2.2147
X3.2828Y-2.3525
X3.2828Y-2.4903
X3.2828Y-2.7659
X3.2828Y-2.9037
X3.2828Y-3.1792
X3.2828Y-3.317
X3.2828Y-3.4548
X3.2828Y-3.7304
X3.2828Y-3.8682
X3.2828Y-4.006
X3.2828Y-4.2816
X3.2828Y-4.4194
X3.2828Y-4.5572
X3.2828Y-4.8328
X3.2828Y-4.9706
X3.2828Y-5.2462
X3.2828Y-5.384
X3.2828Y-5.5218
X3.2828Y-1.5257
X3.2828Y-2.0769
X3.2828Y-2.6281
X3.2828Y-3.0415
X3.2828Y-3.5926
X3.2828Y-4.1438
X3.2828Y-4.695
X3.2828Y-5.1084
X3.397Y-1.6202
X3.397Y-1.758
X3.397Y-1.8958
X3.397Y-2.1714
X3.397Y-2.3092
X3.397Y-2.447
X3.397Y-2.7226
X3.397Y-2.8604
X3.397Y-3.1359
X3.397Y-3.2737
X3.397Y-3.4115
X3.397Y-3.6871
X3.397Y-3.8249
X3.397Y-3.9627
X3.397Y-4.2383
X3.397Y-4.3761
X3.397Y-4.5139
X3.397Y-4.7895
X3.397Y-4.9273
X3.397Y-5.2029
X3.397Y-5.3407
X3.397Y-5.4785
X3.397Y-1.4824
X3.397Y-2.0336
X3.397Y-2.5848
X3.397Y-2.9981
X3.397Y-3.5493
X3.397Y-4.1005
X3.397Y-4.6517
X3.397Y-5.0651
X3.4206Y-1.5257
X3.4206Y-2.0769
X3.4206Y-2.6281
X3.4206Y-3.0415
X3.4206Y-3.5926
X3.4206Y-4.1438
X3.4206Y-4.695
X3.4206Y-5.1084
X3.4206Y-5.6596
X3.4206Y-1.6635
X3.4206Y-1.8013
X3.4206Y-1.9391
X3.4206Y-2.2147
X3.4206Y-2.3525
X3.4206Y-2.4903
X3.4206Y-2.7659
X3.4206Y-2.9037
X3.4206Y-3.1792
X3.4206Y-3.317
X3.4206Y-3.4548
X3.4206Y-3.7304
X3.4206Y-3.8682
X3.4206Y-4.006
X3.4206Y-4.2816
X3.4206Y-4.4194
X3.4206Y-4.5572
X3.4206Y-4.8328
X3.4206Y-4.9706
X3.4206Y-5.2462
X3.4206Y-5.384
X3.4206Y-5.5218
X3.4206Y-5.7974
X3.5347Y-1.4824
X3.5347Y-2.0336
X3.5347Y-2.5848
X3.5347Y-2.9981
X3.5347Y-3.5493
X3.5347Y-4.1005
X3.5347Y-4.6517
X3.5347Y-5.0651
X3.5347Y-5.6163
X3.5347Y-1.6202
X3.5347Y-1.758
X3.5347Y-1.8958
X3.5347Y-2.1714
X3.5347Y-2.3092
X3.5347Y-2.447
X3.5347Y-2.7226
X3.5347Y-2.8604
X3.5347Y-3.1359
X3.5347Y-3.2737
X3.5347Y-3.4115
X3.5347Y-3.6871
X3.5347Y-3.8249
X3.5347Y-3.9627
X3.5347Y-4.2383
X3.5347Y-4.3761
X3.5347Y-4.5139
X3.5347Y-4.7895
X3.5347Y-4.9273
X3.5347Y-5.2029
X3.5347Y-5.3407
X3.5347Y-5.4785
X3.5347Y-5.7541
X3.5584Y-1.3879
X3.5584Y-1.5257
X3.5584Y-1.6635
X3.5584Y-1.9391
X3.5584Y-2.0769
X3.5584Y-2.2147
X3.5584Y-2.4903
X3.5584Y-2.6281
X3.5584Y-2.7659
X3.5584Y-2.9037
X3.5584Y-3.0415
X3.5584Y-3.1792
X3.5584Y-3.4548
X3.5584Y-3.5926
X3.5584Y-3.7304
X3.5584Y-4.006
X3.5584Y-4.1438
X3.5584Y-4.2816
X3.5584Y-4.5572
X3.5584Y-4.695
X3.5584Y-4.8328
X3.5584Y-4.9706
X3.5584Y-5.1084
X3.5584Y-5.2462
X3.5584Y-5.5218
X3.5584Y-5.6596
X3.5584Y-5.7974
X3.5584Y-1.8013
X3.5584Y-2.3525
X3.5584Y-3.317
X3.5584Y-3.8682
X3.5584Y-4.4194
X3.5584Y-5.384
X3.6725Y-1.3446
X3.6725Y-1.4824
X3.6725Y-1.6202
X3.6725Y-1.8958
X3.6725Y-2.0336
X3.6725Y-2.1714
X3.6725Y-2.447
X3.6725Y-2.5848
X3.6725Y-2.7226
X3.6725Y-2.8604
X3.6725Y-2.9981
X3.6725Y-3.1359
X3.6725Y-3.4115
X3.6725Y-3.5493
X3.6725Y-3.6871
X3.6725Y-3.9627
X3.6725Y-4.1005
X3.6725Y-4.2383
X3.6725Y-4.5139
X3.6725Y-4.6517
X3.6725Y-4.7895
X3.6725Y-4.9273
X3.6725Y-5.0651
X3.6725Y-5.2029
X3.6725Y-5.4785
X3.6725Y-5.6163
X3.6725Y-5.7541
X3.6725Y-1.758
X3.6725Y-2.3092
X3.6725Y-3.2737
X3.6725Y-3.8249
X3.6725Y-4.3761
X3.6725Y-5.3407
X3.6962Y-1.8013
X3.6962Y-2.3525
X3.6962Y-2.7659
X3.6962Y-2.9037
X3.6962Y-3.317
X3.6962Y-3.8682
X3.6962Y-4.4194
X3.6962Y-4.8328
X3.6962Y-4.9706
X3.6962Y-5.384
X3.6962Y-5.9352
X3.6962Y-1.3879
X3.6962Y-1.5257
X3.6962Y-1.6635
X3.6962Y-1.9391
X3.6962Y-2.0769
X3.6962Y-2.2147
X3.6962Y-2.4903
X3.6962Y-2.6281
X3.6962Y-3.0415
X3.6962Y-3.1792
X3.6962Y-3.4548
X3.6962Y-3.5926
X3.6962Y-3.7304
X3.6962Y-4.006
X3.6962Y-4.1438
X3.6962Y-4.2816
X3.6962Y-4.5572
X3.6962Y-4.695
X3.6962Y-5.1084
X3.6962Y-5.2462
X3.6962Y-5.5218
X3.6962Y-5.6596
X3.6962Y-5.7974
X3.8103Y-1.758
X3.8103Y-2.3092
X3.8103Y-2.7226
X3.8103Y-2.8604
X3.8103Y-3.2737
X3.8103Y-3.8249
X3.8103Y-4.3761
X3.8103Y-4.7895
X3.8103Y-4.9273
X3.8103Y-5.3407
X3.8103Y-5.8918
X3.8103Y-1.3446
X3.8103Y-1.4824
X3.8103Y-1.6202
X3.8103Y-1.8958
X3.8103Y-2.0336
X3.8103Y-2.1714
X3.8103Y-2.447
X3.8103Y-2.5848
X3.8103Y-2.9981
X3.8103Y-3.1359
X3.8103Y-3.4115
X3.8103Y-3.5493
X3.8103Y-3.6871
X3.8103Y-3.9627
X3.8103Y-4.1005
X3.8103Y-4.2383
X3.8103Y-4.5139
X3.8103Y-4.6517
X3.8103Y-5.0651
X3.8103Y-5.2029
X3.8103Y-5.4785
X3.8103Y-5.6163
X3.8103Y-5.7541
X3.834Y-1.6635
X3.834Y-1.8013
X3.834Y-1.9391
X3.834Y-2.2147
X3.834Y-2.3525
X3.834Y-2.4903
X3.834Y-2.6281
X3.834Y-2.7659
X3.834Y-2.9037
X3.834Y-3.0415
X3.834Y-3.1792
X3.834Y-3.317
X3.834Y-3.4548
X3.834Y-3.7304
X3.834Y-3.8682
X3.834Y-4.006
X3.834Y-4.2816
X3.834Y-4.4194
X3.834Y-4.5572
X3.834Y-4.695
X3.834Y-4.8328
X3.834Y-4.9706
X3.834Y-5.1084
X3.834Y-5.2462
X3.834Y-5.384
X3.834Y-5.5218
X3.834Y-5.7974
X3.834Y-5.9352
X3.834Y-1.5257
X3.834Y-2.0769
X3.834Y-3.5926
X3.834Y-4.1438
X3.834Y-5.6596
X3.9481Y-1.6202
X3.9481Y-1.758
X3.9481Y-1.8958
X3.9481Y-2.1714
X3.9481Y-2.3092
X3.9481Y-2.447
X3.9481Y-2.5848
X3.9481Y-2.7226
X3.9481Y-2.8604
X3.9481Y-2.9981
X3.9481Y-3.1359
X3.9481Y-3.2737
X3.9481Y-3.4115
X3.9481Y-3.6871
X3.9481Y-3.8249
X3.9481Y-3.9627
X3.9481Y-4.2383
X3.9481Y-4.3761
X3.9481Y-4.5139
X3.9481Y-4.6517
X3.9481Y-4.7895
X3.9481Y-4.9273
X3.9481Y-5.0651
X3.9481Y-5.2029
X3.9481Y-5.3407
X3.9481Y-5.4785
X3.9481Y-5.7541
X3.9481Y-5.8918
X3.9481Y-1.4824
X3.9481Y-2.0336
X3.9481Y-3.5493
X3.9481Y-4.1005
X3.9481Y-5.6163
X3.9718Y-1.5257
X3.9718Y-2.0769
X3.9718Y-2.4903
X3.9718Y-2.6281
X3.9718Y-3.0415
X3.9718Y-3.1792
X3.9718Y-3.5926
X3.9718Y-4.1438
X3.9718Y-4.5572
X3.9718Y-4.695
X3.9718Y-5.1084
X3.9718Y-5.2462
X3.9718Y-5.6596
X3.9718Y-1.6635
X3.9718Y-1.8013
X3.9718Y-1.9391
X3.9718Y-2.2147
X3.9718Y-2.3525
X3.9718Y-2.7659
X3.9718Y-2.9037
X3.9718Y-3.317
X3.9718Y-3.4548
X3.9718Y-3.7304
X3.9718Y-3.8682
X3.9718Y-4.006
X3.9718Y-4.2816
X3.9718Y-4.4194
X3.9718Y-4.8328
X3.9718Y-4.9706
X3.9718Y-5.384
X3.9718Y-5.5218
X3.9718Y-5.7974
X3.9718Y-5.9352
X4.0859Y-1.4824
X4.0859Y-2.0336
X4.0859Y-2.447
X4.0859Y-2.5848
X4.0859Y-2.9981
X4.0859Y-3.1359
X4.0859Y-3.5493
X4.0859Y-4.1005
X4.0859Y-4.5139
X4.0859Y-4.6517
X4.0859Y-5.0651
X4.0859Y-5.2029
X4.0859Y-5.6163
X4.0859Y-1.6202
X4.0859Y-1.758
X4.0859Y-1.8958
X4.0859Y-2.1714
X4.0859Y-2.3092
X4.0859Y-2.7226
X4.0859Y-2.8604
X4.0859Y-3.2737
X4.0859Y-3.4115
X4.0859Y-3.6871
X4.0859Y-3.8249
X4.0859Y-3.9627
X4.0859Y-4.2383
X4.0859Y-4.3761
X4.0859Y-4.7895
X4.0859Y-4.9273
X4.0859Y-5.3407
X4.0859Y-5.4785
X4.0859Y-5.7541
X4.0859Y-5.8918
X4.1096Y-1.5257
X4.1096Y-1.6635
X4.1096Y-1.8013
X4.1096Y-1.9391
X4.1096Y-2.0769
X4.1096Y-2.2147
X4.1096Y-2.3525
X4.1096Y-2.4903
X4.1096Y-2.6281
X4.1096Y-2.7659
X4.1096Y-2.9037
X4.1096Y-3.0415
X4.1096Y-3.1792
X4.1096Y-3.317
X4.1096Y-3.4548
X4.1096Y-3.5926
X4.1096Y-3.7304
X4.1096Y-3.8682
X4.1096Y-4.006
X4.1096Y-4.1438
X4.1096Y-4.2816
X4.1096Y-4.4194
X4.1096Y-4.5572
X4.1096Y-4.695
X4.1096Y-4.8328
X4.1096Y-4.9706
X4.1096Y-5.1084
X4.1096Y-5.2462
X4.1096Y-5.384
X4.1096Y-5.5218
X4.1096Y-5.6596
X4.1096Y-5.7974
X4.1096Y-5.9352
X4.2237Y-1.4824
X4.2237Y-1.6202
X4.2237Y-1.758
X4.2237Y-1.8958
X4.2237Y-2.0336
X4.2237Y-2.1714
X4.2237Y-2.3092
X4.2237Y-2.447
X4.2237Y-2.5848
X4.2237Y-2.7226
X4.2237Y-2.8604
X4.2237Y-2.9981
X4.2237Y-3.1359
X4.2237Y-3.2737
X4.2237Y-3.4115
X4.2237Y-3.5493
X4.2237Y-3.6871
X4.2237Y-3.8249
X4.2237Y-3.9627
X4.2237Y-4.1005
X4.2237Y-4.2383
X4.2237Y-4.3761
X4.2237Y-4.5139
X4.2237Y-4.6517
X4.2237Y-4.7895
X4.2237Y-4.9273
X4.2237Y-5.0651
X4.2237Y-5.2029
X4.2237Y-5.3407
X4.2237Y-5.4785
X4.2237Y-5.6163
X4.2237Y-5.7541
X4.2237Y-5.8918
X4.2473Y-1.8013
X4.2473Y-2.2147
X4.2473Y-2.3525
X4.2473Y-2.7659
X4.2473Y-2.9037
X4.2473Y-3.317
X4.2473Y-3.4548
X4.2473Y-3.8682
X4.2473Y-4.2816
X4.2473Y-4.4194
X4.2473Y-4.8328
X4.2473Y-4.9706
X4.2473Y-5.384
X4.2473Y-5.5218
X4.2473Y-5.9352
X4.2473Y-1.6635
X4.2473Y-1.9391
X4.2473Y-2.0769
X4.2473Y-2.4903
X4.2473Y-2.6281
X4.2473Y-3.0415
X4.2473Y-3.1792
X4.2473Y-3.5926
X4.2473Y-3.7304
X4.2473Y-4.006
X4.2473Y-4.1438
X4.2473Y-4.5572
X4.2473Y-4.695
X4.2473Y-5.1084
X4.2473Y-5.2462
X4.2473Y-5.6596
X4.2473Y-5.7974
X4.3615Y-1.758
X4.3615Y-2.1714
X4.3615Y-2.3092
X4.3615Y-2.7226
X4.3615Y-2.8604
X4.3615Y-3.2737
X4.3615Y-3.4115
X4.3615Y-3.8249
X4.3615Y-4.2383
X4.3615Y-4.3761
X4.3615Y-4.7895
X4.3615Y-4.9273
X4.3615Y-5.3407
X4.3615Y-5.4785
X4.3615Y-5.8918
X4.3615Y-1.6202
X4.3615Y-1.8958
X4.3615Y-2.0336
X4.3615Y-2.447
X4.3615Y-2.5848
X4.3615Y-2.9981
X4.3615Y-3.1359
X4.3615Y-3.5493
X4.3615Y-3.6871
X4.3615Y-3.9627
X4.3615Y-4.1005
X4.3615Y-4.5139
X4.3615Y-4.6517
X4.3615Y-5.0651
X4.3615Y-5.2029
X4.3615Y-5.6163
X4.3615Y-5.7541
X4.3851Y-1.6635
X4.3851Y-1.8013
X4.3851Y-1.9391
X4.3851Y-2.0769
X4.3851Y-2.2147
X4.3851Y-2.3525
X4.3851Y-2.4903
X4.3851Y-2.6281
X4.3851Y-2.7659
X4.3851Y-2.9037
X4.3851Y-3.0415
X4.3851Y-3.1792
X4.3851Y-3.317
X4.3851Y-3.4548
X4.3851Y-3.5926
X4.3851Y-3.7304
X4.3851Y-3.8682
X4.3851Y-4.006
X4.3851Y-4.1438
X4.3851Y-4.2816
X4.3851Y-4.4194
X4.3851Y-4.5572
X4.3851Y-4.695
X4.3851Y-4.8328
X4.3851Y-4.9706
X4.3851Y-5.1084
X4.3851Y-5.2462
X4.3851Y-5.384
X4.3851Y-5.5218
X4.3851Y-5.6596
X4.3851Y-5.7974
X4.3851Y-5.9352
X4.4993Y-1.6202
X4.4993Y-1.758
X4.4993Y-1.8958
X4.4993Y-2.0336
X4.4993Y-2.1714
X4.4993Y-2.3092
X4.4993Y-2.447
X4.4993Y-2.5848
X4.4993Y-2.7226
X4.4993Y-2.8604
X4.4993Y-2.9981
X4.4993Y-3.1359
X4.4993Y-3.2737
X4.4993Y-3.4115
X4.4993Y-3.5493
X4.4993Y-3.6871
X4.4993Y-3.8249
X4.4993Y-3.9627
X4.4993Y-4.1005
X4.4993Y-4.2383
X4.4993Y-4.3761
X4.4993Y-4.5139
X4.4993Y-4.6517
X4.4993Y-4.7895
X4.4993Y-4.9273
X4.4993Y-5.0651
X4.4993Y-5.2029
X4.4993Y-5.3407
X4.4993Y-5.4785
X4.4993Y-5.6163
X4.4993Y-5.7541
X4.4993Y-5.8918
X4.5229Y-1.9391
X4.5229Y-2.0769
X4.5229Y-2.4903
X4.5229Y-2.6281
X4.5229Y-3.0415
X4.5229Y-3.1792
X4.5229Y-3.5926
X4.5229Y-3.7304
X4.5229Y-4.006
X4.5229Y-4.1438
X4.5229Y-4.5572
X4.5229Y-4.695
X4.5229Y-5.1084
X4.5229Y-5.2462
X4.5229Y-5.6596
X4.5229Y-5.7974
X4.5229Y-1.6635
X4.5229Y-1.8013
X4.5229Y-2.2147
X4.5229Y-2.3525
X4.5229Y-2.7659
X4.5229Y-2.9037
X4.5229Y-3.317
X4.5229Y-3.4548
X4.5229Y-3.8682
X4.5229Y-4.2816
X4.5229Y-4.4194
X4.5229Y-4.8328
X4.5229Y-4.9706
X4.5229Y-5.384
X4.5229Y-5.5218
X4.5229Y-5.9352
X4.6371Y-1.8958
X4.6371Y-2.0336
X4.6371Y-2.447
X4.6371Y-2.5848
X4.6371Y-2.9981
X4.6371Y-3.1359
X4.6371Y-3.5493
X4.6371Y-3.6871
X4.6371Y-3.9627
X4.6371Y-4.1005
X4.6371Y-4.5139
X4.6371Y-4.6517
X4.6371Y-5.0651
X4.6371Y-5.2029
X4.6371Y-5.6163
X4.6371Y-5.7541
X4.6371Y-1.6202
X4.6371Y-1.758
X4.6371Y-2.1714
X4.6371Y-2.3092
X4.6371Y-2.7226
X4.6371Y-2.8604
X4.6371Y-3.2737
X4.6371Y-3.4115
X4.6371Y-3.8249
X4.6371Y-4.2383
X4.6371Y-4.3761
X4.6371Y-4.7895
X4.6371Y-4.9273
X4.6371Y-5.3407
X4.6371Y-5.4785
X4.6371Y-5.8918
X4.6607Y-3.8682
X4.6607Y-5.9352
X4.6607Y-1.8013
X4.6607Y-1.9391
X4.6607Y-2.0769
X4.6607Y-2.2147
X4.6607Y-2.3525
X4.6607Y-2.4903
X4.6607Y-2.6281
X4.6607Y-2.7659
X4.6607Y-2.9037
X4.6607Y-3.0415
X4.6607Y-3.1792
X4.6607Y-3.317
X4.6607Y-3.4548
X4.6607Y-3.5926
X4.6607Y-3.7304
X4.6607Y-4.006
X4.6607Y-4.1438
X4.6607Y-4.2816
X4.6607Y-4.4194
X4.6607Y-4.5572
X4.6607Y-4.695
X4.6607Y-4.8328
X4.6607Y-4.9706
X4.6607Y-5.1084
X4.6607Y-5.2462
X4.6607Y-5.384
X4.6607Y-5.5218
X4.6607Y-5.6596
X4.6607Y-5.7974
X4.7749Y-3.8249
X4.7749Y-5.8918
X4.7749Y-1.758
X4.7749Y-1.8958
X4.7749Y-2.0336
X4.7749Y-2.1714
X4.7749Y-2.3092
X4.7749Y-2.447
X4.7749Y-2.5848
X4.7749Y-2.7226
X4.7749Y-2.8604
X4.7749Y-2.9981
X4.7749Y-3.1359
X4.7749Y-3.2737
X4.7749Y-3.4115
X4.7749Y-3.5493
X4.7749Y-3.6871
X4.7749Y-3.9627
X4.7749Y-4.1005
X4.7749Y-4.2383
X4.7749Y-4.3761
X4.7749Y-4.5139
X4.7749Y-4.6517
X4.7749Y-4.7895
X4.7749Y-4.9273
X4.7749Y-5.0651
X4.7749Y-5.2029
X4.7749Y-5.3407
X4.7749Y-5.4785
X4.7749Y-5.6163
X4.7749Y-5.7541
X4.7985Y-1.8013
X4.7985Y-2.2147
X4.7985Y-2.3525
X4.7985Y-2.7659
X4.7985Y-2.9037
X4.7985Y-3.317
X4.7985Y-3.4548
X4.7985Y-3.7304
X4.7985Y-3.8682
X4.7985Y-4.006
X4.7985Y-4.2816
X4.7985Y-4.4194
X4.7985Y-4.8328
X4.7985Y-4.9706
X4.7985Y-5.384
X4.7985Y-5.5218
X4.7985Y-5.7974
X4.7985Y-5.9352
X4.7985Y-1.9391
X4.7985Y-2.0769
X4.7985Y-2.4903
X4.7985Y-2.6281
X4.7985Y-3.0415
X4.7985Y-3.1792
X4.7985Y-3.5926
X4.7985Y-4.1438
X4.7985Y-4.5572
X4.7985Y-4.695
X4.7985Y-5.1084
X4.7985Y-5.2462
X4.7985Y-5.6596
X4.9127Y-1.758
X4.9127Y-2.1714
X4.9127Y-2.3092
X4.9127Y-2.7226
X4.9127Y-2.8604
X4.9127Y-3.2737
X4.9127Y-3.4115
X4.9127Y-3.6871
X4.9127Y-3.8249
X4.9127Y-3.9627
X4.9127Y-4.2383
X4.9127Y-4.3761
X4.9127Y-4.7895
X4.9127Y-4.9273
X4.9127Y-5.3407
X4.9127Y-5.4785
X4.9127Y-5.7541
X4.9127Y-5.8918
X4.9127Y-1.8958
X4.9127Y-2.0336
X4.9127Y-2.447
X4.9127Y-2.5848
X4.9127Y-2.9981
X4.9127Y-3.1359
X4.9127Y-3.5493
X4.9127Y-4.1005
X4.9127Y-4.5139
X4.9127Y-4.6517
X4.9127Y-5.0651
X4.9127Y-5.2029
X4.9127Y-5.6163
X4.9363Y-3.5926
X4.9363Y-4.1438
X4.9363Y-5.6596
X4.9363Y-1.9391
X4.9363Y-2.0769
X4.9363Y-2.2147
X4.9363Y-2.3525
X4.9363Y-2.4903
X4.9363Y-2.6281
X4.9363Y-2.7659
X4.9363Y-2.9037
X4.9363Y-3.0415
X4.9363Y-3.1792
X4.9363Y-3.317
X4.9363Y-3.4548
X4.9363Y-3.7304
X4.9363Y-3.8682
X4.9363Y-4.006
X4.9363Y-4.2816
X4.9363Y-4.4194
X4.9363Y-4.5572
X4.9363Y-4.695
X4.9363Y-4.8328
X4.9363Y-4.9706
X4.9363Y-5.1084
X4.9363Y-5.2462
X4.9363Y-5.384
X4.9363Y-5.5218
X4.9363Y-5.7974
X4.9363Y-5.9352
X5.0505Y-3.5493
X5.0505Y-4.1005
X5.0505Y-5.6163
X5.0505Y-1.8958
X5.0505Y-2.0336
X5.0505Y-2.1714
X5.0505Y-2.3092
X5.0505Y-2.447
X5.0505Y-2.5848
X5.0505Y-2.7226
X5.0505Y-2.8604
X5.0505Y-2.9981
X5.0505Y-3.1359
X5.0505Y-3.2737
X5.0505Y-3.4115
X5.0505Y-3.6871
X5.0505Y-3.8249
X5.0505Y-3.9627
X5.0505Y-4.2383
X5.0505Y-4.3761
X5.0505Y-4.5139
X5.0505Y-4.6517
X5.0505Y-4.7895
X5.0505Y-4.9273
X5.0505Y-5.0651
X5.0505Y-5.2029
X5.0505Y-5.3407
X5.0505Y-5.4785
X5.0505Y-5.7541
X5.0505Y-5.8918
X5.0741Y-1.9391
X5.0741Y-2.0769
X5.0741Y-2.4903
X5.0741Y-2.6281
X5.0741Y-3.0415
X5.0741Y-3.1792
X5.0741Y-3.4548
X5.0741Y-3.5926
X5.0741Y-3.7304
X5.0741Y-4.006
X5.0741Y-4.1438
X5.0741Y-4.2816
X5.0741Y-4.5572
X5.0741Y-4.695
X5.0741Y-5.1084
X5.0741Y-5.2462
X5.0741Y-5.5218
X5.0741Y-5.6596
X5.0741Y-5.7974
X5.0741Y-2.2147
X5.0741Y-2.3525
X5.0741Y-2.7659
X5.0741Y-2.9037
X5.0741Y-3.317
X5.0741Y-3.8682
X5.0741Y-4.4194
X5.0741Y-4.8328
X5.0741Y-4.9706
X5.0741Y-5.384
X5.0741Y-5.9352
X5.1883Y-1.8958
X5.1883Y-2.0336
X5.1883Y-2.447
X5.1883Y-2.5848
X5.1883Y-2.9981
X5.1883Y-3.1359
X5.1883Y-3.4115
X5.1883Y-3.5493
X5.1883Y-3.6871
X5.1883Y-3.9627
X5.1883Y-4.1005
X5.1883Y-4.2383
X5.1883Y-4.5139
X5.1883Y-4.6517
X5.1883Y-5.0651
X5.1883Y-5.2029
X5.1883Y-5.4785
X5.1883Y-5.6163
X5.1883Y-5.7541
X5.1883Y-2.1714
X5.1883Y-2.3092
X5.1883Y-2.7226
X5.1883Y-2.8604
X5.1883Y-3.2737
X5.1883Y-3.8249
X5.1883Y-4.3761
X5.1883Y-4.7895
X5.1883Y-4.9273
X5.1883Y-5.3407
X5.1883Y-5.8918
X5.2119Y-3.317
X5.2119Y-3.8682
X5.2119Y-4.4194
X5.2119Y-5.384
X5.2119Y-5.9352
X5.2119Y-1.9391
X5.2119Y-2.0769
X5.2119Y-2.2147
X5.2119Y-2.3525
X5.2119Y-2.4903
X5.2119Y-2.6281
X5.2119Y-2.7659
X5.2119Y-2.9037
X5.2119Y-3.0415
X5.2119Y-3.1792
X5.2119Y-3.4548
X5.2119Y-3.5926
X5.2119Y-3.7304
X5.2119Y-4.006
X5.2119Y-4.1438
X5.2119Y-4.2816
X5.2119Y-4.5572
X5.2119Y-4.695
X5.2119Y-4.8328
X5.2119Y-4.9706
X5.2119Y-5.1084
X5.2119Y-5.2462
X5.2119Y-5.5218
X5.2119Y-5.6596
X5.2119Y-5.7974
X5.3261Y-3.2737
X5.3261Y-3.8249
X5.3261Y-4.3761
X5.3261Y-5.3407
X5.3261Y-5.8918
X5.3261Y-1.8958
X5.3261Y-2.0336
X5.3261Y-2.1714
X5.3261Y-2.3092
X5.3261Y-2.447
X5.3261Y-2.5848
X5.3261Y-2.7226
X5.3261Y-2.8604
X5.3261Y-2.9981
X5.3261Y-3.1359
X5.3261Y-3.4115
X5.3261Y-3.5493
X5.3261Y-3.6871
X5.3261Y-3.9627
X5.3261Y-4.1005
X5.3261Y-4.2383
X5.3261Y-4.5139
X5.3261Y-4.6517
X5.3261Y-4.7895
X5.3261Y-4.9273
X5.3261Y-5.0651
X5.3261Y-5.2029
X5.3261Y-5.4785
X5.3261Y-5.6163
X5.3261Y-5.7541
X5.3497Y-2.2147
X5.3497Y-2.3525
X5.3497Y-2.7659
X5.3497Y-2.9037
X5.3497Y-3.1792
X5.3497Y-3.317
X5.3497Y-3.4548
X5.3497Y-3.7304
X5.3497Y-3.8682
X5.3497Y-4.006
X5.3497Y-4.2816
X5.3497Y-4.4194
X5.3497Y-4.5572
X5.3497Y-4.8328
X5.3497Y-4.9706
X5.3497Y-5.2462
X5.3497Y-5.384
X5.3497Y-5.5218
X5.3497Y-5.7974
X5.3497Y-5.9352
X5.3497Y-2.0769
X5.3497Y-2.4903
X5.3497Y-2.6281
X5.3497Y-3.0415
X5.3497Y-3.5926
X5.3497Y-4.1438
X5.3497Y-4.695
X5.3497Y-5.1084
X5.3497Y-5.6596
X5.4639Y-2.1714
X5.4639Y-2.3092
X5.4639Y-2.7226
X5.4639Y-2.8604
X5.4639Y-3.1359
X5.4639Y-3.2737
X5.4639Y-3.4115
X5.4639Y-3.6871
X5.4639Y-3.8249
X5.4639Y-3.9627
X5.4639Y-4.2383
X5.4639Y-4.3761
X5.4639Y-4.5139
X5.4639Y-4.7895
X5.4639Y-4.9273
X5.4639Y-5.2029
X5.4639Y-5.3407
X5.4639Y-5.4785
X5.4639Y-5.7541
X5.4639Y-5.8918
X5.4639Y-2.0336
X5.4639Y-2.447
X5.4639Y-2.5848
X5.4639Y-2.9981
X5.4639Y-3.5493
X5.4639Y-4.1005
X5.4639Y-4.6517
X5.4639Y-5.0651
X5.4639Y-5.6163
X5.4875Y-2.0769
X5.4875Y-3.0415
X5.4875Y-3.5926
X5.4875Y-4.1438
X5.4875Y-4.695
X5.4875Y-5.1084
X5.4875Y-5.6596
X5.4875Y-2.2147
X5.4875Y-2.3525
X5.4875Y-2.4903
X5.4875Y-2.6281
X5.4875Y-2.7659
X5.4875Y-2.9037
X5.4875Y-3.1792
X5.4875Y-3.317
X5.4875Y-3.4548
X5.4875Y-3.7304
X5.4875Y-3.8682
X5.4875Y-4.006
X5.4875Y-4.2816
X5.4875Y-4.4194
X5.4875Y-4.5572
X5.4875Y-4.8328
X5.4875Y-4.9706
X5.4875Y-5.2462
X5.4875Y-5.384
X5.4875Y-5.5218
X5.4875Y-5.7974
X5.4875Y-5.9352
X5.6017Y-2.0336
X5.6017Y-2.9981
X5.6017Y-3.5493
X5.6017Y-4.1005
X5.6017Y-4.6517
X5.6017Y-5.0651
X5.6017Y-5.6163
X5.6017Y-2.1714
X5.6017Y-2.3092
X5.6017Y-2.447
X5.6017Y-2.5848
X5.6017Y-2.7226
X5.6017Y-2.8604
X5.6017Y-3.1359
X5.6017Y-3.2737
X5.6017Y-3.4115
X5.6017Y-3.6871
X5.6017Y-3.8249
X5.6017Y-3.9627
X5.6017Y-4.2383
X5.6017Y-4.3761
X5.6017Y-4.5139
X5.6017Y-4.7895
X5.6017Y-4.9273
X5.6017Y-5.2029
X5.6017Y-5.3407
X5.6017Y-5.4785
X5.6017Y-5.7541
X5.6017Y-5.8918
X5.6253Y-2.2147
X5.6253Y-2.4903
X5.6253Y-2.6281
X5.6253Y-2.9037
X5.6253Y-3.0415
X5.6253Y-3.1792
X5.6253Y-3.4548
X5.6253Y-3.5926
X5.6253Y-3.7304
X5.6253Y-4.006
X5.6253Y-4.1438
X5.6253Y-4.2816
X5.6253Y-4.5572
X5.6253Y-4.695
X5.6253Y-4.8328
X5.6253Y-4.9706
X5.6253Y-5.1084
X5.6253Y-5.2462
X5.6253Y-5.5218
X5.6253Y-5.6596
X5.6253Y-5.7974
X5.6253Y-2.3525
X5.6253Y-2.7659
X5.6253Y-3.317
X5.6253Y-3.8682
X5.6253Y-4.4194
X5.6253Y-5.384
X5.6253Y-5.9352
X5.7395Y-2.1714
X5.7395Y-2.447
X5.7395Y-2.5848
X5.7395Y-2.8604
X5.7395Y-2.9981
X5.7395Y-3.1359
X5.7395Y-3.4115
X5.7395Y-3.5493
X5.7395Y-3.6871
X5.7395Y-3.9627
X5.7395Y-4.1005
X5.7395Y-4.2383
X5.7395Y-4.5139
X5.7395Y-4.6517
X5.7395Y-4.7895
X5.7395Y-4.9273
X5.7395Y-5.0651
X5.7395Y-5.2029
X5.7395Y-5.4785
X5.7395Y-5.6163
X5.7395Y-5.7541
X5.7395Y-2.3092
X5.7395Y-2.7226
X5.7395Y-3.2737
X5.7395Y-3.8249
X5.7395Y-4.3761
X5.7395Y-5.3407
X5.7395Y-5.8918
X5.7631Y-2.3525
X5.7631Y-2.7659
X5.7631Y-3.317
X5.7631Y-3.8682
X5.7631Y-4.4194
X5.7631Y-4.8328
X5.7631Y-4.9706
X5.7631Y-5.384
X5.7631Y-2.4903
X5.7631Y-2.6281
X5.7631Y-2.9037
X5.7631Y-3.0415
X5.7631Y-3.1792
X5.7631Y-3.4548
X5.7631Y-3.5926
X5.7631Y-3.7304
X5.7631Y-4.006
X5.7631Y-4.1438
X5.7631Y-4.2816
X5.7631Y-4.5572
X5.7631Y-4.695
X5.7631Y-5.1084
X5.7631Y-5.2462
X5.7631Y-5.5218
X5.7631Y-5.6596
X5.7631Y-5.7974
X5.8773Y-2.3092
X5.8773Y-2.7226
X5.8773Y-3.2737
X5.8773Y-3.8249
X5.8773Y-4.3761
X5.8773Y-4.7895
X5.8773Y-4.9273
X5.8773Y-5.3407
X5.8773Y-2.447
X5.8773Y-2.5848
X5.8773Y-2.8604
X5.8773Y-2.9981
X5.8773Y-3.1359
X5.8773Y-3.4115
X5.8773Y-3.5493
X5.8773Y-3.6871
X5.8773Y-3.9627
X5.8773Y-4.1005
X5.8773Y-4.2383
X5.8773Y-4.5139
X5.8773Y-4.6517
X5.8773Y-5.0651
X5.8773Y-5.2029
X5.8773Y-5.4785
X5.8773Y-5.6163
X5.8773Y-5.7541
X5.9009Y-2.4903
X5.9009Y-2.6281
X5.9009Y-2.7659
X5.9009Y-2.9037
X5.9009Y-3.1792
X5.9009Y-3.317
X5.9009Y-3.4548
X5.9009Y-3.7304
X5.9009Y-3.8682
X5.9009Y-4.006
X5.9009Y-4.2816
X5.9009Y-4.4194
X5.9009Y-4.5572
X5.9009Y-4.695
X5.9009Y-4.8328
X5.9009Y-4.9706
X5.9009Y-5.1084
X5.9009Y-5.2462
X5.9009Y-5.384
X5.9009Y-5.5218
X5.9009Y-5.7974
X5.9009Y-3.0415
X5.9009Y-3.5926
X5.9009Y-4.1438
X5.9009Y-5.6596
X6.0151Y-2.447
X6.0151Y-2.5848
X6.0151Y-2.7226
X6.0151Y-2.8604
X6.0151Y-3.1359
X6.0151Y-3.2737
X6.0151Y-3.4115
X6.0151Y-3.6871
X6.0151Y-3.8249
X6.0151Y-3.9627
X6.0151Y-4.2383
X6.0151Y-4.3761
X6.0151Y-4.5139
X6.0151Y-4.6517
X6.0151Y-4.7895
X6.0151Y-4.9273
X6.0151Y-5.0651
X6.0151Y-5.2029
X6.0151Y-5.3407
X6.0151Y-5.4785
X6.0151Y-5.7541
X6.0151Y-2.9981
X6.0151Y-3.5493
X6.0151Y-4.1005
X6.0151Y-5.6163
X6.0387Y-2.4903
X6.0387Y-2.6281
X6.0387Y-3.0415
X6.0387Y-3.5926
X6.0387Y-4.1438
X6.0387Y-4.5572
X6.0387Y-4.695
X6.0387Y-5.1084
X6.0387Y-5.2462
X6.0387Y-5.6596
X6.0387Y-2.7659
X6.0387Y-2.9037
X6.0387Y-3.1792
X6.0387Y-3.317
X6.0387Y-3.4548
X6.0387Y-3.7304
X6.0387Y-3.8682
X6.0387Y-4.006
X6.0387Y-4.2816
X6.0387Y-4.4194
X6.0387Y-4.8328
X6.0387Y-4.9706
X6.0387Y-5.384
X6.0387Y-5.5218
X6.0387Y-5.7974
X6.1529Y-2.447
X6.1529Y-2.5848
X6.1529Y-2.9981
X6.1529Y-3.5493
X6.1529Y-4.1005
X6.1529Y-4.5139
X6.1529Y-4.6517
X6.1529Y-5.0651
X6.1529Y-5.2029
X6.1529Y-5.6163
X6.1529Y-2.7226
X6.1529Y-2.8604
X6.1529Y-3.1359
X6.1529Y-3.2737
X6.1529Y-3.4115
X6.1529Y-3.6871
X6.1529Y-3.8249
X6.1529Y-3.9627
X6.1529Y-4.2383
X6.1529Y-4.3761
X6.1529Y-4.7895
X6.1529Y-4.9273
X6.1529Y-5.3407
X6.1529Y-5.4785
X6.1529Y-5.7541
X6.1765Y-2.4903
X6.1765Y-2.6281
X6.1765Y-2.7659
X6.1765Y-2.9037
X6.1765Y-3.0415
X6.1765Y-3.1792
X6.1765Y-3.317
X6.1765Y-3.4548
X6.1765Y-3.5926
X6.1765Y-3.7304
X6.1765Y-3.8682
X6.1765Y-4.006
X6.1765Y-4.1438
X6.1765Y-4.2816
X6.1765Y-4.4194
X6.1765Y-4.5572
X6.1765Y-4.695
X6.1765Y-4.8328
X6.1765Y-4.9706
X6.1765Y-5.1084
X6.1765Y-5.2462
X6.1765Y-5.384
X6.1765Y-5.5218
X6.1765Y-5.6596
X6.1765Y-5.7974
X6.2907Y-2.447
X6.2907Y-2.5848
X6.2907Y-2.7226
X6.2907Y-2.8604
X6.2907Y-2.9981
X6.2907Y-3.1359
X6.2907Y-3.2737
X6.2907Y-3.4115
X6.2907Y-3.5493
X6.2907Y-3.6871
X6.2907Y-3.8249
X6.2907Y-3.9627
X6.2907Y-4.1005
X6.2907Y-4.2383
X6.2907Y-4.3761
X6.2907Y-4.5139
X6.2907Y-4.6517
X6.2907Y-4.7895
X6.2907Y-4.9273
X6.2907Y-5.0651
X6.2907Y-5.2029
X6.2907Y-5.3407
X6.2907Y-5.4785
X6.2907Y-5.6163
X6.2907Y-5.7541
X6.3143Y-2.3525
X6.3143Y-2.7659
X6.3143Y-2.9037
X6.3143Y-3.317
X6.3143Y-3.8682
X6.3143Y-4.2816
X6.3143Y-4.4194
X6.3143Y-4.8328
X6.3143Y-4.9706
X6.3143Y-5.384
X6.3143Y-5.5218
X6.3143Y-5.9352
X6.3143Y-2.4903
X6.3143Y-2.6281
X6.3143Y-3.0415
X6.3143Y-3.1792
X6.3143Y-3.4548
X6.3143Y-3.5926
X6.3143Y-3.7304
X6.3143Y-4.006
X6.3143Y-4.1438
X6.3143Y-4.5572
X6.3143Y-4.695
X6.3143Y-5.1084
X6.3143Y-5.2462
X6.3143Y-5.6596
X6.3143Y-5.7974
X6.4284Y-2.3092
X6.4284Y-2.7226
X6.4284Y-2.8604
X6.4284Y-3.2737
X6.4284Y-3.8249
X6.4284Y-4.2383
X6.4284Y-4.3761
X6.4284Y-4.7895
X6.4284Y-4.9273
X6.4284Y-5.3407
X6.4284Y-5.4785
X6.4284Y-5.8918
X6.4284Y-2.447
X6.4284Y-2.5848
X6.4284Y-2.9981
X6.4284Y-3.1359
X6.4284Y-3.4115
X6.4284Y-3.5493
X6.4284Y-3.6871
X6.4284Y-3.9627
X6.4284Y-4.1005
X6.4284Y-4.5139
X6.4284Y-4.6517
X6.4284Y-5.0651
X6.4284Y-5.2029
X6.4284Y-5.6163
X6.4284Y-5.7541
X6.4521Y-2.4903
X6.4521Y-2.6281
X6.4521Y-2.7659
X6.4521Y-2.9037
X6.4521Y-3.0415
X6.4521Y-3.1792
X6.4521Y-3.317
X6.4521Y-3.4548
X6.4521Y-3.5926
X6.4521Y-3.7304
X6.4521Y-3.8682
X6.4521Y-4.006
X6.4521Y-4.1438
X6.4521Y-4.2816
X6.4521Y-4.4194
X6.4521Y-4.5572
X6.4521Y-4.695
X6.4521Y-4.8328
X6.4521Y-4.9706
X6.4521Y-5.1084
X6.4521Y-5.2462
X6.4521Y-5.384
X6.4521Y-5.5218
X6.4521Y-5.6596
X6.4521Y-5.7974
X6.4521Y-5.9352
X6.5662Y-2.447
X6.5662Y-2.5848
X6.5662Y-2.7226
X6.5662Y-2.8604
X6.5662Y-2.9981
X6.5662Y-3.1359
X6.5662Y-3.2737
X6.5662Y-3.4115
X6.5662Y-3.5493
X6.5662Y-3.6871
X6.5662Y-3.8249
X6.5662Y-3.9627
X6.5662Y-4.1005
X6.5662Y-4.2383
X6.5662Y-4.3761
X6.5662Y-4.5139
X6.5662Y-4.6517
X6.5662Y-4.7895
X6.5662Y-4.9273
X6.5662Y-5.0651
X6.5662Y-5.2029
X6.5662Y-5.3407
X6.5662Y-5.4785
X6.5662Y-5.6163
X6.5662Y-5.7541
X6.5662Y-5.8918
X6.5899Y-2.4903
X6.5899Y-2.6281
X6.5899Y-3.0415
X6.5899Y-3.1792
X6.5899Y-3.5926
X6.5899Y-4.006
X6.5899Y-4.1438
X6.5899Y-4.5572
X6.5899Y-4.695
X6.5899Y-5.1084
X6.5899Y-5.2462
X6.5899Y-5.6596
X6.5899Y-5.7974
X6.5899Y-2.7659
X6.5899Y-2.9037
X6.5899Y-3.317
X6.5899Y-3.4548
X6.5899Y-3.7304
X6.5899Y-3.8682
X6.5899Y-4.2816
X6.5899Y-4.4194
X6.5899Y-4.8328
X6.5899Y-4.9706
X6.5899Y-5.384
X6.5899Y-5.5218
X6.5899Y-5.9352
X6.704Y-2.447
X6.704Y-2.5848
X6.704Y-2.9981
X6.704Y-3.1359
X6.704Y-3.5493
X6.704Y-3.9627
X6.704Y-4.1005
X6.704Y-4.5139
X6.704Y-4.6517
X6.704Y-5.0651
X6.704Y-5.2029
X6.704Y-5.6163
X6.704Y-5.7541
X6.704Y-2.7226
X6.704Y-2.8604
X6.704Y-3.2737
X6.704Y-3.4115
X6.704Y-3.6871
X6.704Y-3.8249
X6.704Y-4.2383
X6.704Y-4.3761
X6.704Y-4.7895
X6.704Y-4.9273
X6.704Y-5.3407
X6.704Y-5.4785
X6.704Y-5.8918
X6.7277Y-2.4903
X6.7277Y-2.6281
X6.7277Y-2.7659
X6.7277Y-2.9037
X6.7277Y-3.0415
X6.7277Y-3.1792
X6.7277Y-3.317
X6.7277Y-3.4548
X6.7277Y-3.5926
X6.7277Y-3.7304
X6.7277Y-3.8682
X6.7277Y-4.006
X6.7277Y-4.1438
X6.7277Y-4.2816
X6.7277Y-4.4194
X6.7277Y-4.5572
X6.7277Y-4.695
X6.7277Y-4.8328
X6.7277Y-4.9706
X6.7277Y-5.1084
X6.7277Y-5.2462
X6.7277Y-5.384
X6.7277Y-5.5218
X6.7277Y-5.6596
X6.7277Y-5.7974
X6.7277Y-5.9352
X6.8418Y-2.447
X6.8418Y-2.5848
X6.8418Y-2.7226
X6.8418Y-2.8604
X6.8418Y-2.9981
X6.8418Y-3.1359
X6.8418Y-3.2737
X6.8418Y-3.4115
X6.8418Y-3.5493
X6.8418Y-3.6871
X6.8418Y-3.8249
X6.8418Y-3.9627
X6.8418Y-4.1005
X6.8418Y-4.2383
X6.8418Y-4.3761
X6.8418Y-4.5139
X6.8418Y-4.6517
X6.8418Y-4.7895
X6.8418Y-4.9273
X6.8418Y-5.0651
X6.8418Y-5.2029
X6.8418Y-5.3407
X6.8418Y-5.4785
X6.8418Y-5.6163
X6.8418Y-5.7541
X6.8418Y-5.8918
X6.8655Y-2.7659
X6.8655Y-2.9037
X6.8655Y-3.317
X6.8655Y-3.4548
X6.8655Y-3.7304
X6.8655Y-3.8682
X6.8655Y-4.2816
X6.8655Y-4.4194
X6.8655Y-4.8328
X6.8655Y-4.9706
X6.8655Y-5.384
X6.8655Y-5.5218
X6.8655Y-5.9352
X6.8655Y-2.6281
X6.8655Y-3.0415
X6.8655Y-3.1792
X6.8655Y-3.5926
X6.8655Y-4.006
X6.8655Y-4.1438
X6.8655Y-4.5572
X6.8655Y-4.695
X6.8655Y-5.1084
X6.8655Y-5.2462
X6.8655Y-5.6596
X6.8655Y-5.7974
X6.9796Y-2.7226
X6.9796Y-2.8604
X6.9796Y-3.2737
X6.9796Y-3.4115
X6.9796Y-3.6871
X6.9796Y-3.8249
X6.9796Y-4.2383
X6.9796Y-4.3761
X6.9796Y-4.7895
X6.9796Y-4.9273
X6.9796Y-5.3407
X6.9796Y-5.4785
X6.9796Y-5.8918
X6.9796Y-2.5848
X6.9796Y-2.9981
X6.9796Y-3.1359
X6.9796Y-3.5493
X6.9796Y-3.9627
X6.9796Y-4.1005
X6.9796Y-4.5139
X6.9796Y-4.6517
X6.9796Y-5.0651
X6.9796Y-5.2029
X6.9796Y-5.6163
X6.9796Y-5.7541
X7.0033Y-3.5926
X7.0033Y-2.6281
X7.0033Y-2.7659
X7.0033Y-2.9037
X7.0033Y-3.0415
X7.0033Y-3.1792
X7.0033Y-3.317
X7.0033Y-3.4548
X7.0033Y-3.7304
X7.0033Y-3.8682
X7.0033Y-4.006
X7.0033Y-4.1438
X7.0033Y-4.2816
X7.0033Y-4.4194
X7.0033Y-4.5572
X7.0033Y-4.695
X7.0033Y-4.8328
X7.0033Y-4.9706
X7.0033Y-5.1084
X7.0033Y-5.2462
X7.0033Y-5.384
X7.0033Y-5.5218
X7.0033Y-5.6596
X7.0033Y-5.7974
X7.0033Y-5.9352
X7.1174Y-3.5493
X7.1174Y-2.5848
X7.1174Y-2.7226
X7.1174Y-2.8604
X7.1174Y-2.9981
X7.1174Y-3.1359
X7.1174Y-3.2737
X7.1174Y-3.4115
X7.1174Y-3.6871
X7.1174Y-3.8249
X7.1174Y-3.9627
X7.1174Y-4.1005
X7.1174Y-4.2383
X7.1174Y-4.3761
X7.1174Y-4.5139
X7.1174Y-4.6517
X7.1174Y-4.7895
X7.1174Y-4.9273
X7.1174Y-5.0651
X7.1174Y-5.2029
X7.1174Y-5.3407
X7.1174Y-5.4785
X7.1174Y-5.6163
X7.1174Y-5.7541
X7.1174Y-5.8918
X7.141Y-3.0415
X7.141Y-3.1792
X7.141Y-3.4548
X7.141Y-3.5926
X7.141Y-3.7304
X7.141Y-4.006
X7.141Y-4.1438
X7.141Y-4.5572
X7.141Y-4.695
X7.141Y-5.1084
X7.141Y-5.2462
X7.141Y-5.6596
X7.141Y-5.7974
X7.141Y-2.7659
X7.141Y-2.9037
X7.141Y-3.317
X7.141Y-3.8682
X7.141Y-4.2816
X7.141Y-4.4194
X7.141Y-4.8328
X7.141Y-4.9706
X7.141Y-5.384
X7.141Y-5.5218
X7.141Y-5.9352
X7.2552Y-2.9981
X7.2552Y-3.1359
X7.2552Y-3.4115
X7.2552Y-3.5493
X7.2552Y-3.6871
X7.2552Y-3.9627
X7.2552Y-4.1005
X7.2552Y-4.5139
X7.2552Y-4.6517
X7.2552Y-5.0651
X7.2552Y-5.2029
X7.2552Y-5.6163
X7.2552Y-5.7541
X7.2552Y-2.7226
X7.2552Y-2.8604
X7.2552Y-3.2737
X7.2552Y-3.8249
X7.2552Y-4.2383
X7.2552Y-4.3761
X7.2552Y-4.7895
X7.2552Y-4.9273
X7.2552Y-5.3407
X7.2552Y-5.4785
X7.2552Y-5.8918
X7.2788Y-3.317
X7.2788Y-3.8682
X7.2788Y-5.9352
X7.2788Y-2.7659
X7.2788Y-2.9037
X7.2788Y-3.0415
X7.2788Y-3.1792
X7.2788Y-3.4548
X7.2788Y-3.5926
X7.2788Y-3.7304
X7.2788Y-4.006
X7.2788Y-4.1438
X7.2788Y-4.2816
X7.2788Y-4.4194
X7.2788Y-4.5572
X7.2788Y-4.695
X7.2788Y-4.8328
X7.2788Y-4.9706
X7.2788Y-5.1084
X7.2788Y-5.2462
X7.2788Y-5.384
X7.2788Y-5.5218
X7.2788Y-5.6596
X7.2788Y-5.7974
X7.393Y-3.2737
X7.393Y-3.8249
X7.393Y-5.8918
X7.393Y-2.7226
X7.393Y-2.8604
X7.393Y-2.9981
X7.393Y-3.1359
X7.393Y-3.4115
X7.393Y-3.5493
X7.393Y-3.6871
X7.393Y-3.9627
X7.393Y-4.1005
X7.393Y-4.2383
X7.393Y-4.3761
X7.393Y-4.5139
X7.393Y-4.6517
X7.393Y-4.7895
X7.393Y-4.9273
X7.393Y-5.0651
X7.393Y-5.2029
X7.393Y-5.3407
X7.393Y-5.4785
X7.393Y-5.6163
X7.393Y-5.7541
X7.4166Y-2.7659
X7.4166Y-2.9037
X7.4166Y-3.1792
X7.4166Y-3.317
X7.4166Y-3.4548
X7.4166Y-3.7304
X7.4166Y-3.8682
X7.4166Y-4.006
X7.4166Y-4.2816
X7.4166Y-4.4194
X7.4166Y-4.8328
X7.4166Y-4.9706
X7.4166Y-5.384
X7.4166Y-5.5218
X7.4166Y-5.7974
X7.4166Y-5.9352
X7.4166Y-3.0415
X7.4166Y-3.5926
X7.4166Y-4.1438
X7.4166Y-4.5572
X7.4166Y-4.695
X7.4166Y-5.1084
X7.4166Y-5.2462
X7.4166Y-5.6596
X7.5308Y-2.7226
X7.5308Y-2.8604
X7.5308Y-3.1359
X7.5308Y-3.2737
X7.5308Y-3.4115
X7.5308Y-3.6871
X7.5308Y-3.8249
X7.5308Y-3.9627
X7.5308Y-4.2383
X7.5308Y-4.3761
X7.5308Y-4.7895
X7.5308Y-4.9273
X7.5308Y-5.3407
X7.5308Y-5.4785
X7.5308Y-5.7541
X7.5308Y-5.8918
X7.5308Y-2.9981
X7.5308Y-3.5493
X7.5308Y-4.1005
X7.5308Y-4.5139
X7.5308Y-4.6517
X7.5308Y-5.0651
X7.5308Y-5.2029
X7.5308Y-5.6163
X7.5544Y-3.0415
X7.5544Y-3.5926
X7.5544Y-4.1438
X7.5544Y-5.6596
X7.5544Y-2.9037
X7.5544Y-3.1792
X7.5544Y-3.317
X7.5544Y-3.4548
X7.5544Y-3.7304
X7.5544Y-3.8682
X7.5544Y-4.006
X7.5544Y-4.2816
X7.5544Y-4.4194
X7.5544Y-4.5572
X7.5544Y-4.695
X7.5544Y-4.8328
X7.5544Y-4.9706
X7.5544Y-5.1084
X7.5544Y-5.2462
X7.5544Y-5.384
X7.5544Y-5.5218
X7.5544Y-5.7974
X7.5544Y-5.9352
X7.6686Y-2.9981
X7.6686Y-3.5493
X7.6686Y-4.1005
X7.6686Y-5.6163
X7.6686Y-2.8604
X7.6686Y-3.1359
X7.6686Y-3.2737
X7.6686Y-3.4115
X7.6686Y-3.6871
X7.6686Y-3.8249
X7.6686Y-3.9627
X7.6686Y-4.2383
X7.6686Y-4.3761
X7.6686Y-4.5139
X7.6686Y-4.6517
X7.6686Y-4.7895
X7.6686Y-4.9273
X7.6686Y-5.0651
X7.6686Y-5.2029
X7.6686Y-5.3407
X7.6686Y-5.4785
X7.6686Y-5.7541
X7.6686Y-5.8918
X7.6922Y-2.9037
X7.6922Y-3.0415
X7.6922Y-3.1792
X7.6922Y-3.4548
X7.6922Y-3.5926
X7.6922Y-3.7304
X7.6922Y-4.006
X7.6922Y-4.1438
X7.6922Y-4.2816
X7.6922Y-4.5572
X7.6922Y-4.695
X7.6922Y-5.1084
X7.6922Y-5.2462
X7.6922Y-5.5218
X7.6922Y-5.6596
X7.6922Y-5.7974
X7.6922Y-3.317
X7.6922Y-3.8682
X7.6922Y-4.4194
X7.6922Y-4.8328
X7.6922Y-4.9706
X7.6922Y-5.384
X7.6922Y-5.9352
X7.8064Y-2.8604
X7.8064Y-2.9981
X7.8064Y-3.1359
X7.8064Y-3.4115
X7.8064Y-3.5493
X7.8064Y-3.6871
X7.8064Y-3.9627
X7.8064Y-4.1005
X7.8064Y-4.2383
X7.8064Y-4.5139
X7.8064Y-4.6517
X7.8064Y-5.0651
X7.8064Y-5.2029
X7.8064Y-5.4785
X7.8064Y-5.6163
X7.8064Y-5.7541
X7.8064Y-3.2737
X7.8064Y-3.8249
X7.8064Y-4.3761
X7.8064Y-4.7895
X7.8064Y-4.9273
X7.8064Y-5.3407
X7.8064Y-5.8918
X7.83Y-3.317
X7.83Y-3.8682
X7.83Y-4.4194
X7.83Y-5.384
X7.83Y-5.9352
X7.83Y-2.9037
X7.83Y-3.0415
X7.83Y-3.1792
X7.83Y-3.4548
X7.83Y-3.5926
X7.83Y-3.7304
X7.83Y-4.006
X7.83Y-4.1438
X7.83Y-4.2816
X7.83Y-4.5572
X7.83Y-4.695
X7.83Y-4.8328
X7.83Y-4.9706
X7.83Y-5.1084
X7.83Y-5.2462
X7.83Y-5.5218
X7.83Y-5.6596
X7.83Y-5.7974
X7.9442Y-3.2737
X7.9442Y-3.8249
X7.9442Y-4.3761
X7.9442Y-5.3407
X7.9442Y-5.8918
X7.9442Y-2.8604
X7.9442Y-2.9981
X7.9442Y-3.1359
X7.9442Y-3.4115
X7.9442Y-3.5493
X7.9442Y-3.6871
X7.9442Y-3.9627
X7.9442Y-4.1005
X7.9442Y-4.2383
X7.9442Y-4.5139
X7.9442Y-4.6517
X7.9442Y-4.7895
X7.9442Y-4.9273
X7.9442Y-5.0651
X7.9442Y-5.2029
X7.9442Y-5.4785
X7.9442Y-5.6163
X7.9442Y-5.7541
X7.9678Y-3.1792
X7.9678Y-3.317
X7.9678Y-3.4548
X7.9678Y-3.7304
X7.9678Y-3.8682
X7.9678Y-4.006
X7.9678Y-4.2816
X7.9678Y-4.4194
X7.9678Y-4.5572
X7.9678Y-4.8328
X7.9678Y-4.9706
X7.9678Y-5.2462
X7.9678Y-5.384
X7.9678Y-5.5218
X7.9678Y-5.7974
X7.9678Y-5.9352
X7.9678Y-3.0415
X7.9678Y-3.5926
X7.9678Y-4.1438
X7.9678Y-4.695
X7.9678Y-5.1084
X7.9678Y-5.6596
X8.082Y-3.1359
X8.082Y-3.2737
X8.082Y-3.4115
X8.082Y-3.6871
X8.082Y-3.8249
X8.082Y-3.9627
X8.082Y-4.2383
X8.082Y-4.3761
X8.082Y-4.5139
X8.082Y-4.7895
X8.082Y-4.9273
X8.082Y-5.2029
X8.082Y-5.3407
X8.082Y-5.4785
X8.082Y-5.7541
X8.082Y-5.8918
X8.082Y-2.9981
X8.082Y-3.5493
X8.082Y-4.1005
X8.082Y-4.6517
X8.082Y-5.0651
X8.082Y-5.6163
X8.1056Y-3.0415
X8.1056Y-3.5926
X8.1056Y-4.1438
X8.1056Y-4.695
X8.1056Y-5.1084
X8.1056Y-5.6596
X8.1056Y-3.1792
X8.1056Y-3.317
X8.1056Y-3.4548
X8.1056Y-3.7304
X8.1056Y-3.8682
X8.1056Y-4.006
X8.1056Y-4.2816
X8.1056Y-4.4194
X8.1056Y-4.5572
X8.1056Y-4.8328
X8.1056Y-4.9706
X8.1056Y-5.2462
X8.1056Y-5.384
X8.1056Y-5.5218
X8.1056Y-5.7974
X8.2198Y-2.9981
X8.2198Y-3.5493
X8.2198Y-4.1005
X8.2198Y-4.6517
X8.2198Y-5.0651
X8.2198Y-5.6163
X8.2198Y-3.1359
X8.2198Y-3.2737
X8.2198Y-3.4115
X8.2198Y-3.6871
X8.2198Y-3.8249
X8.2198Y-3.9627
X8.2198Y-4.2383
X8.2198Y-4.3761
X8.2198Y-4.5139
X8.2198Y-4.7895
X8.2198Y-4.9273
X8.2198Y-5.2029
X8.2198Y-5.3407
X8.2198Y-5.4785
X8.2198Y-5.7541
X8.2434Y-3.1792
X8.2434Y-3.4548
X8.2434Y-3.5926
X8.2434Y-3.7304
X8.2434Y-4.006
X8.2434Y-4.1438
X8.2434Y-4.2816
X8.2434Y-4.5572
X8.2434Y-4.695
X8.2434Y-4.8328
X8.2434Y-4.9706
X8.2434Y-5.1084
X8.2434Y-5.2462
X8.2434Y-5.5218
X8.2434Y-5.6596
X8.2434Y-5.7974
X8.2434Y-3.317
X8.2434Y-3.8682
X8.2434Y-4.4194
X8.2434Y-5.384
X8.3576Y-3.1359
X8.3576Y-3.4115
X8.3576Y-3.5493
X8.3576Y-3.6871
X8.3576Y-3.9627
X8.3576Y-4.1005
X8.3576Y-4.2383
X8.3576Y-4.5139
X8.3576Y-4.6517
X8.3576Y-4.7895
X8.3576Y-4.9273
X8.3576Y-5.0651
X8.3576Y-5.2029
X8.3576Y-5.4785
X8.3576Y-5.6163
X8.3576Y-5.7541
X8.3576Y-3.2737
X8.3576Y-3.8249
X8.3576Y-4.3761
X8.3576Y-5.3407
X8.3812Y-3.317
X8.3812Y-3.8682
X8.3812Y-4.4194
X8.3812Y-4.8328
X8.3812Y-4.9706
X8.3812Y-5.384
X8.3812Y-3.1792
X8.3812Y-3.4548
X8.3812Y-3.5926
X8.3812Y-3.7304
X8.3812Y-4.006
X8.3812Y-4.1438
X8.3812Y-4.2816
X8.3812Y-4.5572
X8.3812Y-4.695
X8.3812Y-5.1084
X8.3812Y-5.2462
X8.3812Y-5.5218
X8.3812Y-5.6596
X8.4954Y-3.2737
X8.4954Y-3.8249
X8.4954Y-4.3761
X8.4954Y-4.7895
X8.4954Y-4.9273
X8.4954Y-5.3407
X8.4954Y-3.1359
X8.4954Y-3.4115
X8.4954Y-3.5493
X8.4954Y-3.6871
X8.4954Y-3.9627
X8.4954Y-4.1005
X8.4954Y-4.2383
X8.4954Y-4.5139
X8.4954Y-4.6517
X8.4954Y-5.0651
X8.4954Y-5.2029
X8.4954Y-5.4785
X8.4954Y-5.6163
X8.519Y-3.1792
X8.519Y-3.317
X8.519Y-3.4548
X8.519Y-3.5926
X8.519Y-3.7304
X8.519Y-3.8682
X8.519Y-4.006
X8.519Y-4.1438
X8.519Y-4.2816
X8.519Y-4.4194
X8.519Y-4.5572
X8.519Y-4.695
X8.519Y-4.8328
X8.519Y-4.9706
X8.519Y-5.1084
X8.519Y-5.2462
X8.519Y-5.384
X8.6332Y-3.1359
X8.6332Y-3.2737
X8.6332Y-3.4115
X8.6332Y-3.5493
X8.6332Y-3.6871
X8.6332Y-3.8249
X8.6332Y-3.9627
X8.6332Y-4.1005
X8.6332Y-4.2383
X8.6332Y-4.3761
X8.6332Y-4.5139
X8.6332Y-4.6517
X8.6332Y-4.7895
X8.6332Y-4.9273
X8.6332Y-5.0651
X8.6332Y-5.2029
X8.6332Y-5.3407
X8.6568Y-3.5926
X8.6568Y-4.1438
X8.6568Y-4.5572
X8.6568Y-3.317
X8.6568Y-3.4548
X8.6568Y-3.7304
X8.6568Y-3.8682
X8.6568Y-4.006
X8.6568Y-4.2816
X8.6568Y-4.4194
X8.771Y-3.5493
X8.771Y-4.1005
X8.771Y-4.5139
X8.771Y-3.2737
X8.771Y-3.4115
X8.771Y-3.6871
X8.771Y-3.8249
X8.771Y-3.9627
X8.771Y-4.2383
X8.771Y-4.3761
X8.7946Y-3.4548
X8.7946Y-3.5926
X8.7946Y-3.7304
X8.7946Y-3.8682
X8.7946Y-4.006
X8.7946Y-4.1438
X8.7946Y-4.2816
X8.7946Y-4.4194
X8.7946Y-4.5572
X8.9088Y-3.4115
X8.9088Y-3.5493
X8.9088Y-3.6871
X8.9088Y-3.8249
X8.9088Y-3.9627
X8.9088Y-4.1005
X8.9088Y-4.2383
X8.9088Y-4.3761
X8.9088Y-4.5139
X8.9324Y-4.2816
X8.9324Y-4.4194
X9.0466Y-4.2383
X9.0466Y-4.3761
T3
X2.7508Y-4.1448
X2.8689Y-4.4361
M30
