%TF.GenerationSoftware,KiCad,Pcbnew,9.0.7*%
%TF.CreationDate,2026-03-10T20:02:27+09:00*%
%TF.ProjectId,proto-panel,70726f74-6f2d-4706-916e-656c2e6b6963,rev?*%
%TF.SameCoordinates,Original*%
%TF.FileFunction,Soldermask,Bot*%
%TF.FilePolarity,Negative*%
%FSLAX46Y46*%
G04 Gerber Fmt 4.6, Leading zero omitted, Abs format (unit mm)*
G04 Created by KiCad (PCBNEW 9.0.7) date 2026-03-10 20:02:27*
%MOMM*%
%LPD*%
G01*
G04 APERTURE LIST*
%ADD10C,2.200000*%
%ADD11C,0.600000*%
%ADD12C,4.400000*%
G04 APERTURE END LIST*
D10*
%TO.C,H9*%
X191140000Y-153630000D03*
%TD*%
%TO.C,H8*%
X131140000Y-153620000D03*
%TD*%
%TO.C,H7*%
X125140000Y-153620000D03*
%TD*%
%TO.C,H6*%
X70140000Y-153630000D03*
%TD*%
%TO.C,H5*%
X55137009Y-86124974D03*
%TD*%
%TO.C,H4*%
X226137009Y-72624974D03*
%TD*%
%TO.C,H3*%
X125137010Y-60124975D03*
%TD*%
%TO.C,H2*%
X131137009Y-58124975D03*
%TD*%
%TO.C,H1*%
X192637010Y-36124974D03*
%TD*%
D11*
%TO.C,D836*%
X117187009Y-121674974D03*
X120087009Y-120574974D03*
%TD*%
%TO.C,D30*%
X180187010Y-48174974D03*
X183087010Y-47074974D03*
%TD*%
%TO.C,D831*%
X99687009Y-121674974D03*
X102587009Y-120574974D03*
%TD*%
%TO.C,D393*%
X159187009Y-86674975D03*
X162087009Y-85574975D03*
%TD*%
%TO.C,D130*%
X120687009Y-65674974D03*
X123587009Y-64574974D03*
%TD*%
%TO.C,D1188*%
X141687010Y-153174974D03*
X144587010Y-152074974D03*
%TD*%
%TO.C,D922*%
X131187010Y-128674974D03*
X134087010Y-127574974D03*
%TD*%
%TO.C,D982*%
X197687009Y-132174974D03*
X200587009Y-131074974D03*
%TD*%
%TO.C,D119*%
X194187010Y-62174974D03*
X197087010Y-61074974D03*
%TD*%
%TO.C,D574*%
X131187010Y-100674974D03*
X134087010Y-99574974D03*
%TD*%
%TO.C,D628*%
X159187009Y-104174974D03*
X162087009Y-103074974D03*
%TD*%
%TO.C,D71*%
X190687010Y-55174974D03*
X193587010Y-54074974D03*
%TD*%
%TO.C,D760*%
X145187010Y-114674974D03*
X148087010Y-113574974D03*
%TD*%
%TO.C,D589*%
X183687010Y-100674974D03*
X186587010Y-99574974D03*
%TD*%
%TO.C,D168*%
X131187009Y-69174974D03*
X134087009Y-68074974D03*
%TD*%
%TO.C,D509*%
X68187010Y-97174975D03*
X71087010Y-96074975D03*
%TD*%
%TO.C,D808*%
X162687010Y-118174974D03*
X165587010Y-117074974D03*
%TD*%
%TO.C,D1076*%
X113687009Y-142674975D03*
X116587009Y-141574975D03*
%TD*%
%TO.C,D50*%
X187187010Y-51674974D03*
X190087010Y-50574974D03*
%TD*%
%TO.C,D363*%
X218687009Y-83174974D03*
X221587009Y-82074974D03*
%TD*%
%TO.C,D567*%
X106687009Y-100674974D03*
X109587009Y-99574974D03*
%TD*%
%TO.C,D756*%
X131187010Y-114674974D03*
X134087010Y-113574974D03*
%TD*%
%TO.C,D250*%
X141687010Y-76174974D03*
X144587010Y-75074974D03*
%TD*%
%TO.C,D171*%
X141687009Y-69174974D03*
X144587009Y-68074974D03*
%TD*%
%TO.C,D153*%
X201187010Y-65674974D03*
X204087010Y-64574974D03*
%TD*%
%TO.C,D767*%
X169687010Y-114674974D03*
X172587010Y-113574974D03*
%TD*%
%TO.C,D775*%
X197687010Y-114674974D03*
X200587010Y-113574974D03*
%TD*%
%TO.C,D373*%
X89187010Y-86674974D03*
X92087010Y-85574974D03*
%TD*%
%TO.C,D180*%
X173187009Y-69174974D03*
X176087009Y-68074974D03*
%TD*%
%TO.C,D726*%
X183687009Y-111174975D03*
X186587009Y-110074975D03*
%TD*%
%TO.C,D838*%
X124187010Y-121674974D03*
X127087010Y-120574974D03*
%TD*%
%TO.C,D1166*%
X169687009Y-149674975D03*
X172587009Y-148574975D03*
%TD*%
%TO.C,D754*%
X124187009Y-114674974D03*
X127087009Y-113574974D03*
%TD*%
%TO.C,D426*%
X106687009Y-90174974D03*
X109587009Y-89074974D03*
%TD*%
%TO.C,D626*%
X152187009Y-104174975D03*
X155087009Y-103074975D03*
%TD*%
%TO.C,D1092*%
X169687010Y-142674975D03*
X172587010Y-141574975D03*
%TD*%
%TO.C,D614*%
X110187010Y-104174974D03*
X113087010Y-103074974D03*
%TD*%
%TO.C,D664*%
X124187010Y-107674974D03*
X127087010Y-106574974D03*
%TD*%
%TO.C,D879*%
X124187009Y-125174974D03*
X127087009Y-124074974D03*
%TD*%
%TO.C,D569*%
X113687009Y-100674974D03*
X116587009Y-99574974D03*
%TD*%
%TO.C,D1119*%
X131187009Y-146174974D03*
X134087009Y-145074974D03*
%TD*%
%TO.C,D970*%
X155687009Y-132174974D03*
X158587009Y-131074974D03*
%TD*%
%TO.C,D521*%
X110187009Y-97174974D03*
X113087009Y-96074974D03*
%TD*%
%TO.C,D399*%
X180187010Y-86674974D03*
X183087010Y-85574974D03*
%TD*%
%TO.C,D830*%
X96187010Y-121674974D03*
X99087010Y-120574974D03*
%TD*%
%TO.C,D980*%
X190687010Y-132174974D03*
X193587010Y-131074974D03*
%TD*%
%TO.C,D329*%
X99687009Y-83174974D03*
X102587009Y-82074974D03*
%TD*%
%TO.C,D604*%
X75187010Y-104174975D03*
X78087010Y-103074975D03*
%TD*%
%TO.C,D1026*%
X71687009Y-139174974D03*
X74587009Y-138074974D03*
%TD*%
%TO.C,D769*%
X176687009Y-114674974D03*
X179587009Y-113574974D03*
%TD*%
%TO.C,D582*%
X159187010Y-100674974D03*
X162087010Y-99574974D03*
%TD*%
%TO.C,D1000*%
X120687009Y-135674974D03*
X123587009Y-134574974D03*
%TD*%
%TO.C,D60*%
X152187009Y-55174974D03*
X155087009Y-54074974D03*
%TD*%
%TO.C,D196*%
X96187009Y-72674974D03*
X99087009Y-71574974D03*
%TD*%
%TO.C,D821*%
X64687009Y-121674974D03*
X67587009Y-120574974D03*
%TD*%
%TO.C,D741*%
X78687010Y-114674974D03*
X81587010Y-113574974D03*
%TD*%
%TO.C,D1023*%
X61187009Y-139174974D03*
X64087009Y-138074974D03*
%TD*%
%TO.C,D170*%
X138187009Y-69174974D03*
X141087009Y-68074974D03*
%TD*%
%TO.C,D457*%
X215187009Y-90174975D03*
X218087009Y-89074975D03*
%TD*%
%TO.C,D1113*%
X110187010Y-146174974D03*
X113087010Y-145074974D03*
%TD*%
%TO.C,D29*%
X176687009Y-48174974D03*
X179587009Y-47074974D03*
%TD*%
%TO.C,D65*%
X169687009Y-55174974D03*
X172587009Y-54074974D03*
%TD*%
%TO.C,D58*%
X145187009Y-55174974D03*
X148087009Y-54074974D03*
%TD*%
%TO.C,D56*%
X138187010Y-55174974D03*
X141087010Y-54074974D03*
%TD*%
%TO.C,D362*%
X215187010Y-83174974D03*
X218087010Y-82074974D03*
%TD*%
%TO.C,D449*%
X187187010Y-90174974D03*
X190087010Y-89074974D03*
%TD*%
%TO.C,D114*%
X176687009Y-62174974D03*
X179587009Y-61074974D03*
%TD*%
%TO.C,D1089*%
X159187009Y-142674974D03*
X162087009Y-141574974D03*
%TD*%
%TO.C,D795*%
X117187009Y-118174974D03*
X120087009Y-117074974D03*
%TD*%
%TO.C,D732*%
X204687010Y-111174975D03*
X207587010Y-110074975D03*
%TD*%
%TO.C,D49*%
X183687009Y-51674974D03*
X186587009Y-50574974D03*
%TD*%
%TO.C,D85*%
X162687009Y-58674974D03*
X165587009Y-57574974D03*
%TD*%
%TO.C,D269*%
X208187010Y-76174974D03*
X211087010Y-75074974D03*
%TD*%
%TO.C,D620*%
X131187009Y-104174974D03*
X134087009Y-103074974D03*
%TD*%
%TO.C,D1010*%
X155687009Y-135674974D03*
X158587009Y-134574974D03*
%TD*%
%TO.C,D333*%
X113687009Y-83174974D03*
X116587009Y-82074974D03*
%TD*%
%TO.C,D22*%
X201187010Y-44674975D03*
X204087010Y-43574975D03*
%TD*%
%TO.C,D1186*%
X134687009Y-153174974D03*
X137587009Y-152074974D03*
%TD*%
%TO.C,D230*%
X215187009Y-72674974D03*
X218087009Y-71574974D03*
%TD*%
%TO.C,D854*%
X180187010Y-121674974D03*
X183087010Y-120574974D03*
%TD*%
%TO.C,D550*%
X211687009Y-97174975D03*
X214587009Y-96074975D03*
%TD*%
%TO.C,D490*%
X166187009Y-93674975D03*
X169087009Y-92574975D03*
%TD*%
%TO.C,D348*%
X166187009Y-83174974D03*
X169087009Y-82074974D03*
%TD*%
%TO.C,D133*%
X131187009Y-65674974D03*
X134087009Y-64574974D03*
%TD*%
%TO.C,D495*%
X183687009Y-93674974D03*
X186587009Y-92574974D03*
%TD*%
%TO.C,D107*%
X152187009Y-62174974D03*
X155087009Y-61074974D03*
%TD*%
%TO.C,D174*%
X152187009Y-69174974D03*
X155087009Y-68074974D03*
%TD*%
%TO.C,D749*%
X106687009Y-114674974D03*
X109587009Y-113574974D03*
%TD*%
%TO.C,D1115*%
X117187009Y-146174974D03*
X120087009Y-145074974D03*
%TD*%
%TO.C,D1018*%
X183687009Y-135674974D03*
X186587009Y-134574974D03*
%TD*%
%TO.C,D210*%
X145187009Y-72674975D03*
X148087009Y-71574975D03*
%TD*%
%TO.C,D696*%
X78687009Y-111174975D03*
X81587009Y-110074975D03*
%TD*%
%TO.C,D666*%
X131187009Y-107674974D03*
X134087009Y-106574974D03*
%TD*%
%TO.C,D322*%
X75187010Y-83174974D03*
X78087010Y-82074974D03*
%TD*%
%TO.C,D934*%
X173187009Y-128674974D03*
X176087009Y-127574974D03*
%TD*%
%TO.C,D161*%
X106687009Y-69174974D03*
X109587009Y-68074974D03*
%TD*%
%TO.C,D291*%
X131187009Y-79674974D03*
X134087009Y-78574974D03*
%TD*%
%TO.C,D483*%
X141687009Y-93674974D03*
X144587009Y-92574974D03*
%TD*%
%TO.C,D800*%
X134687010Y-118174974D03*
X137587010Y-117074974D03*
%TD*%
%TO.C,D17*%
X183687009Y-44674975D03*
X186587009Y-43574975D03*
%TD*%
%TO.C,D992*%
X92687009Y-135674974D03*
X95587009Y-134574974D03*
%TD*%
%TO.C,D918*%
X117187010Y-128674974D03*
X120087010Y-127574974D03*
%TD*%
%TO.C,D486*%
X152187010Y-93674974D03*
X155087010Y-92574974D03*
%TD*%
%TO.C,D1172*%
X190687009Y-149674974D03*
X193587009Y-148574974D03*
%TD*%
%TO.C,D806*%
X155687009Y-118174974D03*
X158587009Y-117074974D03*
%TD*%
%TO.C,D1132*%
X176687010Y-146174974D03*
X179587010Y-145074974D03*
%TD*%
%TO.C,D898*%
X190687009Y-125174974D03*
X193587009Y-124074974D03*
%TD*%
%TO.C,D580*%
X152187009Y-100674974D03*
X155087009Y-99574974D03*
%TD*%
%TO.C,D709*%
X124187009Y-111174974D03*
X127087009Y-110074974D03*
%TD*%
%TO.C,D279*%
X89187009Y-79674974D03*
X92087009Y-78574974D03*
%TD*%
%TO.C,D578*%
X145187010Y-100674974D03*
X148087010Y-99574974D03*
%TD*%
%TO.C,D75*%
X204687010Y-55174974D03*
X207587010Y-54074974D03*
%TD*%
%TO.C,D797*%
X124187010Y-118174974D03*
X127087010Y-117074974D03*
%TD*%
%TO.C,D326*%
X89187010Y-83174974D03*
X92087010Y-82074974D03*
%TD*%
%TO.C,D450*%
X190687009Y-90174975D03*
X193587009Y-89074975D03*
%TD*%
%TO.C,D244*%
X120687009Y-76174974D03*
X123587009Y-75074974D03*
%TD*%
%TO.C,D755*%
X127687010Y-114674974D03*
X130587010Y-113574974D03*
%TD*%
%TO.C,D277*%
X82187010Y-79674974D03*
X85087010Y-78574974D03*
%TD*%
%TO.C,D1055*%
X173187009Y-139174975D03*
X176087009Y-138074975D03*
%TD*%
%TO.C,D888*%
X155687010Y-125174974D03*
X158587010Y-124074974D03*
%TD*%
%TO.C,D35*%
X197687010Y-48174974D03*
X200587010Y-47074974D03*
%TD*%
%TO.C,D118*%
X190687009Y-62174974D03*
X193587009Y-61074974D03*
%TD*%
%TO.C,D747*%
X99687009Y-114674974D03*
X102587009Y-113574974D03*
%TD*%
%TO.C,D983*%
X61187009Y-135674974D03*
X64087009Y-134574974D03*
%TD*%
%TO.C,D259*%
X173187009Y-76174974D03*
X176087009Y-75074974D03*
%TD*%
%TO.C,D84*%
X159187009Y-58674975D03*
X162087009Y-57574975D03*
%TD*%
%TO.C,D1145*%
X96187010Y-149674975D03*
X99087010Y-148574975D03*
%TD*%
%TO.C,D949*%
X82187010Y-132174974D03*
X85087010Y-131074974D03*
%TD*%
%TO.C,D1126*%
X155687009Y-146174974D03*
X158587009Y-145074974D03*
%TD*%
%TO.C,D201*%
X113687009Y-72674974D03*
X116587009Y-71574974D03*
%TD*%
%TO.C,D1179*%
X96187009Y-153174974D03*
X99087009Y-152074974D03*
%TD*%
%TO.C,D847*%
X155687009Y-121674974D03*
X158587009Y-120574974D03*
%TD*%
%TO.C,D268*%
X204687009Y-76174974D03*
X207587009Y-75074974D03*
%TD*%
%TO.C,D1101*%
X68187010Y-146174974D03*
X71087010Y-145074974D03*
%TD*%
%TO.C,D478*%
X124187010Y-93674974D03*
X127087010Y-92574974D03*
%TD*%
%TO.C,D409*%
X215187009Y-86674974D03*
X218087009Y-85574974D03*
%TD*%
%TO.C,D96*%
X201187010Y-58674975D03*
X204087010Y-57574975D03*
%TD*%
%TO.C,D1082*%
X134687010Y-142674974D03*
X137587010Y-141574974D03*
%TD*%
%TO.C,D18*%
X187187010Y-44674975D03*
X190087010Y-43574975D03*
%TD*%
%TO.C,D642*%
X208187010Y-104174975D03*
X211087010Y-103074975D03*
%TD*%
%TO.C,D672*%
X152187010Y-107674974D03*
X155087010Y-106574974D03*
%TD*%
%TO.C,D634*%
X180187010Y-104174975D03*
X183087010Y-103074975D03*
%TD*%
%TO.C,D1015*%
X173187009Y-135674974D03*
X176087009Y-134574974D03*
%TD*%
%TO.C,D608*%
X89187010Y-104174975D03*
X92087010Y-103074975D03*
%TD*%
%TO.C,D134*%
X134687010Y-65674974D03*
X137587010Y-64574974D03*
%TD*%
%TO.C,D274*%
X71687010Y-79674974D03*
X74587010Y-78574974D03*
%TD*%
%TO.C,D674*%
X159187009Y-107674974D03*
X162087009Y-106574974D03*
%TD*%
%TO.C,D584*%
X166187009Y-100674974D03*
X169087009Y-99574974D03*
%TD*%
%TO.C,D915*%
X106687009Y-128674974D03*
X109587009Y-127574974D03*
%TD*%
%TO.C,D371*%
X82187009Y-86674974D03*
X85087009Y-85574974D03*
%TD*%
%TO.C,D401*%
X187187009Y-86674974D03*
X190087009Y-85574974D03*
%TD*%
%TO.C,D678*%
X173187009Y-107674974D03*
X176087009Y-106574974D03*
%TD*%
%TO.C,D527*%
X131187009Y-97174975D03*
X134087009Y-96074975D03*
%TD*%
%TO.C,D1157*%
X138187009Y-149674974D03*
X141087009Y-148574974D03*
%TD*%
%TO.C,D1182*%
X106687009Y-153174975D03*
X109587009Y-152074975D03*
%TD*%
%TO.C,D446*%
X176687009Y-90174975D03*
X179587009Y-89074975D03*
%TD*%
%TO.C,D169*%
X134687010Y-69174974D03*
X137587010Y-68074974D03*
%TD*%
%TO.C,D80*%
X145187009Y-58674975D03*
X148087009Y-57574975D03*
%TD*%
%TO.C,D592*%
X194187010Y-100674974D03*
X197087010Y-99574974D03*
%TD*%
%TO.C,D1152*%
X120687009Y-149674975D03*
X123587009Y-148574975D03*
%TD*%
%TO.C,D633*%
X176687009Y-104174975D03*
X179587009Y-103074975D03*
%TD*%
%TO.C,D908*%
X82187009Y-128674974D03*
X85087009Y-127574974D03*
%TD*%
%TO.C,D1030*%
X85687009Y-139174974D03*
X88587009Y-138074974D03*
%TD*%
%TO.C,D479*%
X127687009Y-93674974D03*
X130587009Y-92574974D03*
%TD*%
%TO.C,D765*%
X162687009Y-114674974D03*
X165587009Y-113574974D03*
%TD*%
%TO.C,D878*%
X120687009Y-125174975D03*
X123587009Y-124074975D03*
%TD*%
%TO.C,D263*%
X187187010Y-76174974D03*
X190087010Y-75074974D03*
%TD*%
%TO.C,D839*%
X127687010Y-121674974D03*
X130587010Y-120574974D03*
%TD*%
%TO.C,D31*%
X183687010Y-48174974D03*
X186587010Y-47074974D03*
%TD*%
%TO.C,D566*%
X103187010Y-100674974D03*
X106087010Y-99574974D03*
%TD*%
%TO.C,D442*%
X162687009Y-90174975D03*
X165587009Y-89074975D03*
%TD*%
%TO.C,D62*%
X159187009Y-55174974D03*
X162087009Y-54074974D03*
%TD*%
%TO.C,D768*%
X173187009Y-114674974D03*
X176087009Y-113574974D03*
%TD*%
%TO.C,D1016*%
X176687010Y-135674974D03*
X179587010Y-134574974D03*
%TD*%
%TO.C,D630*%
X166187009Y-104174975D03*
X169087009Y-103074975D03*
%TD*%
%TO.C,D871*%
X96187009Y-125174974D03*
X99087009Y-124074974D03*
%TD*%
%TO.C,D763*%
X155687010Y-114674974D03*
X158587010Y-113574974D03*
%TD*%
%TO.C,D576*%
X138187009Y-100674974D03*
X141087009Y-99574974D03*
%TD*%
%TO.C,D612*%
X103187009Y-104174974D03*
X106087009Y-103074974D03*
%TD*%
%TO.C,D780*%
X64687009Y-118174974D03*
X67587009Y-117074974D03*
%TD*%
%TO.C,D828*%
X89187009Y-121674974D03*
X92087009Y-120574974D03*
%TD*%
%TO.C,D960*%
X120687009Y-132174974D03*
X123587009Y-131074974D03*
%TD*%
%TO.C,D255*%
X159187009Y-76174974D03*
X162087009Y-75074974D03*
%TD*%
%TO.C,D714*%
X141687010Y-111174974D03*
X144587010Y-110074974D03*
%TD*%
%TO.C,D761*%
X148687009Y-114674974D03*
X151587009Y-113574974D03*
%TD*%
%TO.C,D849*%
X162687010Y-121674974D03*
X165587010Y-120574974D03*
%TD*%
%TO.C,D173*%
X148687010Y-69174974D03*
X151587010Y-68074974D03*
%TD*%
%TO.C,D781*%
X68187010Y-118174974D03*
X71087010Y-117074974D03*
%TD*%
%TO.C,D388*%
X141687010Y-86674974D03*
X144587010Y-85574974D03*
%TD*%
%TO.C,D1044*%
X134687009Y-139174974D03*
X137587009Y-138074974D03*
%TD*%
%TO.C,D343*%
X148687010Y-83174974D03*
X151587010Y-82074974D03*
%TD*%
%TO.C,D296*%
X148687010Y-79674974D03*
X151587010Y-78574974D03*
%TD*%
%TO.C,D944*%
X64687009Y-132174974D03*
X67587009Y-131074974D03*
%TD*%
%TO.C,D408*%
X211687009Y-86674975D03*
X214587009Y-85574975D03*
%TD*%
%TO.C,D157*%
X215187010Y-65674974D03*
X218087010Y-64574974D03*
%TD*%
%TO.C,D1121*%
X138187010Y-146174974D03*
X141087010Y-145074974D03*
%TD*%
%TO.C,D900*%
X197687009Y-125174975D03*
X200587009Y-124074975D03*
%TD*%
%TO.C,D9*%
X194187009Y-41174974D03*
X197087009Y-40074974D03*
%TD*%
%TO.C,D212*%
X152187009Y-72674974D03*
X155087009Y-71574974D03*
%TD*%
%TO.C,D304*%
X176687010Y-79674974D03*
X179587010Y-78574974D03*
%TD*%
%TO.C,D305*%
X180187010Y-79674975D03*
X183087010Y-78574975D03*
%TD*%
%TO.C,D280*%
X92687009Y-79674974D03*
X95587009Y-78574974D03*
%TD*%
%TO.C,D601*%
X64687009Y-104174974D03*
X67587009Y-103074974D03*
%TD*%
%TO.C,D1043*%
X131187010Y-139174974D03*
X134087010Y-138074974D03*
%TD*%
%TO.C,D986*%
X71687009Y-135674974D03*
X74587009Y-134574974D03*
%TD*%
%TO.C,D398*%
X176687009Y-86674974D03*
X179587009Y-85574974D03*
%TD*%
%TO.C,D537*%
X166187009Y-97174974D03*
X169087009Y-96074974D03*
%TD*%
%TO.C,D1154*%
X127687010Y-149674974D03*
X130587010Y-148574974D03*
%TD*%
%TO.C,D861*%
X61187009Y-125174974D03*
X64087009Y-124074974D03*
%TD*%
%TO.C,D716*%
X148687010Y-111174975D03*
X151587010Y-110074975D03*
%TD*%
%TO.C,D117*%
X187187009Y-62174974D03*
X190087009Y-61074974D03*
%TD*%
%TO.C,D595*%
X204687009Y-100674974D03*
X207587009Y-99574974D03*
%TD*%
%TO.C,D1111*%
X103187009Y-146174974D03*
X106087009Y-145074974D03*
%TD*%
%TO.C,D862*%
X64687010Y-125174974D03*
X67587010Y-124074974D03*
%TD*%
%TO.C,D783*%
X75187010Y-118174975D03*
X78087010Y-117074975D03*
%TD*%
%TO.C,D851*%
X169687009Y-121674974D03*
X172587009Y-120574974D03*
%TD*%
%TO.C,D1097*%
X187187010Y-142674974D03*
X190087010Y-141574974D03*
%TD*%
%TO.C,D564*%
X96187009Y-100674974D03*
X99087009Y-99574974D03*
%TD*%
%TO.C,D264*%
X190687009Y-76174974D03*
X193587009Y-75074974D03*
%TD*%
%TO.C,D1088*%
X155687010Y-142674975D03*
X158587010Y-141574975D03*
%TD*%
%TO.C,D358*%
X201187010Y-83174974D03*
X204087010Y-82074974D03*
%TD*%
%TO.C,D1078*%
X120687009Y-142674974D03*
X123587009Y-141574974D03*
%TD*%
%TO.C,D1104*%
X78687009Y-146174974D03*
X81587009Y-145074974D03*
%TD*%
%TO.C,D42*%
X159187009Y-51674974D03*
X162087009Y-50574974D03*
%TD*%
%TO.C,D1110*%
X99687009Y-146174975D03*
X102587009Y-145074975D03*
%TD*%
%TO.C,D1095*%
X180187010Y-142674975D03*
X183087010Y-141574975D03*
%TD*%
%TO.C,D1013*%
X166187009Y-135674974D03*
X169087009Y-134574974D03*
%TD*%
%TO.C,D1164*%
X162687010Y-149674975D03*
X165587010Y-148574975D03*
%TD*%
%TO.C,D454*%
X204687009Y-90174975D03*
X207587009Y-89074975D03*
%TD*%
%TO.C,D26*%
X166187009Y-48174974D03*
X169087009Y-47074974D03*
%TD*%
%TO.C,D361*%
X211687009Y-83174974D03*
X214587009Y-82074974D03*
%TD*%
%TO.C,D863*%
X68187010Y-125174975D03*
X71087010Y-124074975D03*
%TD*%
%TO.C,D272*%
X218687009Y-76174974D03*
X221587009Y-75074974D03*
%TD*%
%TO.C,D611*%
X99687009Y-104174975D03*
X102587009Y-103074975D03*
%TD*%
%TO.C,D1171*%
X187187010Y-149674975D03*
X190087010Y-148574975D03*
%TD*%
%TO.C,D686*%
X201187010Y-107674974D03*
X204087010Y-106574974D03*
%TD*%
%TO.C,D190*%
X208187009Y-69174974D03*
X211087009Y-68074974D03*
%TD*%
%TO.C,D1039*%
X117187010Y-139174974D03*
X120087010Y-138074974D03*
%TD*%
%TO.C,D654*%
X89187009Y-107674974D03*
X92087009Y-106574974D03*
%TD*%
%TO.C,D15*%
X176687009Y-44674974D03*
X179587009Y-43574974D03*
%TD*%
%TO.C,D660*%
X110187010Y-107674974D03*
X113087010Y-106574974D03*
%TD*%
%TO.C,D166*%
X124187010Y-69174974D03*
X127087010Y-68074974D03*
%TD*%
%TO.C,D605*%
X78687009Y-104174974D03*
X81587009Y-103074974D03*
%TD*%
%TO.C,D231*%
X218687009Y-72674974D03*
X221587009Y-71574974D03*
%TD*%
%TO.C,D534*%
X155687010Y-97174974D03*
X158587010Y-96074974D03*
%TD*%
%TO.C,D485*%
X148687010Y-93674974D03*
X151587010Y-92574974D03*
%TD*%
%TO.C,D824*%
X75187009Y-121674974D03*
X78087009Y-120574974D03*
%TD*%
%TO.C,D565*%
X99687009Y-100674974D03*
X102587009Y-99574974D03*
%TD*%
%TO.C,D183*%
X183687009Y-69174974D03*
X186587009Y-68074974D03*
%TD*%
%TO.C,D883*%
X138187009Y-125174974D03*
X141087009Y-124074974D03*
%TD*%
%TO.C,D8*%
X190687010Y-41174974D03*
X193587010Y-40074974D03*
%TD*%
%TO.C,D731*%
X201187010Y-111174975D03*
X204087010Y-110074975D03*
%TD*%
%TO.C,D927*%
X148687009Y-128674974D03*
X151587009Y-127574974D03*
%TD*%
%TO.C,D655*%
X92687009Y-107674974D03*
X95587009Y-106574974D03*
%TD*%
%TO.C,D443*%
X166187009Y-90174975D03*
X169087009Y-89074975D03*
%TD*%
%TO.C,D205*%
X127687010Y-72674974D03*
X130587010Y-71574974D03*
%TD*%
%TO.C,D67*%
X176687010Y-55174974D03*
X179587010Y-54074974D03*
%TD*%
%TO.C,D240*%
X106687009Y-76174974D03*
X109587009Y-75074974D03*
%TD*%
%TO.C,D1120*%
X134687010Y-146174974D03*
X137587010Y-145074974D03*
%TD*%
%TO.C,D1096*%
X183687009Y-142674974D03*
X186587009Y-141574974D03*
%TD*%
%TO.C,D1038*%
X113687009Y-139174974D03*
X116587009Y-138074974D03*
%TD*%
%TO.C,D513*%
X82187010Y-97174975D03*
X85087010Y-96074975D03*
%TD*%
%TO.C,D822*%
X68187010Y-121674974D03*
X71087010Y-120574974D03*
%TD*%
%TO.C,D784*%
X78687009Y-118174974D03*
X81587009Y-117074974D03*
%TD*%
%TO.C,D218*%
X173187009Y-72674975D03*
X176087009Y-71574975D03*
%TD*%
%TO.C,D548*%
X204687009Y-97174974D03*
X207587009Y-96074974D03*
%TD*%
%TO.C,D262*%
X183687010Y-76174974D03*
X186587010Y-75074974D03*
%TD*%
%TO.C,D791*%
X103187009Y-118174974D03*
X106087009Y-117074974D03*
%TD*%
%TO.C,D256*%
X162687009Y-76174974D03*
X165587009Y-75074974D03*
%TD*%
%TO.C,D16*%
X180187010Y-44674974D03*
X183087010Y-43574974D03*
%TD*%
%TO.C,D242*%
X113687009Y-76174974D03*
X116587009Y-75074974D03*
%TD*%
%TO.C,D500*%
X201187010Y-93674974D03*
X204087010Y-92574974D03*
%TD*%
%TO.C,D101*%
X131187010Y-62174974D03*
X134087010Y-61074974D03*
%TD*%
%TO.C,D369*%
X75187010Y-86674974D03*
X78087010Y-85574974D03*
%TD*%
%TO.C,D318*%
X61187009Y-83174974D03*
X64087009Y-82074974D03*
%TD*%
%TO.C,D320*%
X68187010Y-83174974D03*
X71087010Y-82074974D03*
%TD*%
%TO.C,D336*%
X124187009Y-83174974D03*
X127087009Y-82074974D03*
%TD*%
%TO.C,D1131*%
X173187009Y-146174974D03*
X176087009Y-145074974D03*
%TD*%
%TO.C,D1045*%
X138187009Y-139174974D03*
X141087009Y-138074974D03*
%TD*%
%TO.C,D302*%
X169687009Y-79674974D03*
X172587009Y-78574974D03*
%TD*%
%TO.C,D1200*%
X183687010Y-153174974D03*
X186587010Y-152074974D03*
%TD*%
%TO.C,D79*%
X141687010Y-58674974D03*
X144587010Y-57574974D03*
%TD*%
%TO.C,D1070*%
X92687009Y-142674974D03*
X95587009Y-141574974D03*
%TD*%
%TO.C,D294*%
X141687009Y-79674974D03*
X144587009Y-78574974D03*
%TD*%
%TO.C,D1032*%
X92687009Y-139174975D03*
X95587009Y-138074975D03*
%TD*%
%TO.C,D1189*%
X145187010Y-153174974D03*
X148087010Y-152074974D03*
%TD*%
%TO.C,D520*%
X106687009Y-97174975D03*
X109587009Y-96074975D03*
%TD*%
%TO.C,D933*%
X169687010Y-128674974D03*
X172587010Y-127574974D03*
%TD*%
%TO.C,D328*%
X96187010Y-83174974D03*
X99087010Y-82074974D03*
%TD*%
%TO.C,D1099*%
X194187010Y-142674975D03*
X197087010Y-141574975D03*
%TD*%
%TO.C,D991*%
X89187009Y-135674974D03*
X92087009Y-134574974D03*
%TD*%
%TO.C,D98*%
X208187010Y-58674974D03*
X211087010Y-57574974D03*
%TD*%
%TO.C,D884*%
X141687010Y-125174974D03*
X144587010Y-124074974D03*
%TD*%
%TO.C,D770*%
X180187010Y-114674974D03*
X183087010Y-113574974D03*
%TD*%
%TO.C,D810*%
X169687009Y-118174974D03*
X172587009Y-117074974D03*
%TD*%
%TO.C,D1054*%
X169687010Y-139174974D03*
X172587010Y-138074974D03*
%TD*%
%TO.C,D773*%
X190687009Y-114674974D03*
X193587009Y-113574974D03*
%TD*%
%TO.C,D720*%
X162687009Y-111174974D03*
X165587009Y-110074974D03*
%TD*%
%TO.C,D594*%
X201187009Y-100674974D03*
X204087009Y-99574974D03*
%TD*%
%TO.C,D142*%
X162687010Y-65674974D03*
X165587010Y-64574974D03*
%TD*%
%TO.C,D798*%
X127687010Y-118174975D03*
X130587010Y-117074975D03*
%TD*%
%TO.C,D1134*%
X183687009Y-146174974D03*
X186587009Y-145074974D03*
%TD*%
%TO.C,D568*%
X110187009Y-100674974D03*
X113087009Y-99574974D03*
%TD*%
%TO.C,D233*%
X82187010Y-76174974D03*
X85087010Y-75074974D03*
%TD*%
%TO.C,D556*%
X68187009Y-100674974D03*
X71087009Y-99574974D03*
%TD*%
%TO.C,D868*%
X85687009Y-125174974D03*
X88587009Y-124074974D03*
%TD*%
%TO.C,D124*%
X211687009Y-62174974D03*
X214587009Y-61074974D03*
%TD*%
%TO.C,D881*%
X131187010Y-125174974D03*
X134087010Y-124074974D03*
%TD*%
%TO.C,D738*%
X68187009Y-114674974D03*
X71087009Y-113574974D03*
%TD*%
%TO.C,D224*%
X194187010Y-72674974D03*
X197087010Y-71574974D03*
%TD*%
%TO.C,D73*%
X197687009Y-55174974D03*
X200587009Y-54074974D03*
%TD*%
%TO.C,D1107*%
X89187009Y-146174974D03*
X92087009Y-145074974D03*
%TD*%
%TO.C,D480*%
X131187009Y-93674974D03*
X134087009Y-92574974D03*
%TD*%
%TO.C,D598*%
X54187009Y-104174974D03*
X57087009Y-103074974D03*
%TD*%
%TO.C,D192*%
X215187010Y-69174974D03*
X218087010Y-68074974D03*
%TD*%
%TO.C,D144*%
X169687009Y-65674974D03*
X172587009Y-64574974D03*
%TD*%
%TO.C,D1146*%
X99687009Y-149674974D03*
X102587009Y-148574974D03*
%TD*%
%TO.C,D148*%
X183687009Y-65674974D03*
X186587009Y-64574974D03*
%TD*%
%TO.C,D51*%
X190687009Y-51674975D03*
X193587009Y-50574975D03*
%TD*%
%TO.C,D905*%
X71687009Y-128674974D03*
X74587009Y-127574974D03*
%TD*%
%TO.C,D937*%
X183687010Y-128674974D03*
X186587010Y-127574974D03*
%TD*%
%TO.C,D158*%
X218687009Y-65674975D03*
X221587009Y-64574975D03*
%TD*%
%TO.C,D378*%
X106687009Y-86674975D03*
X109587009Y-85574975D03*
%TD*%
%TO.C,D86*%
X166187009Y-58674974D03*
X169087009Y-57574974D03*
%TD*%
%TO.C,D102*%
X134687009Y-62174974D03*
X137587009Y-61074974D03*
%TD*%
%TO.C,D1004*%
X134687010Y-135674974D03*
X137587010Y-134574974D03*
%TD*%
%TO.C,D887*%
X152187009Y-125174974D03*
X155087009Y-124074974D03*
%TD*%
%TO.C,D717*%
X152187009Y-111174974D03*
X155087009Y-110074974D03*
%TD*%
%TO.C,D1031*%
X89187010Y-139174974D03*
X92087010Y-138074974D03*
%TD*%
%TO.C,D34*%
X194187010Y-48174974D03*
X197087010Y-47074974D03*
%TD*%
%TO.C,D1148*%
X106687009Y-149674975D03*
X109587009Y-148574975D03*
%TD*%
%TO.C,D13*%
X169687009Y-44674975D03*
X172587009Y-43574975D03*
%TD*%
%TO.C,D629*%
X162687010Y-104174974D03*
X165587010Y-103074974D03*
%TD*%
%TO.C,D489*%
X162687010Y-93674974D03*
X165587010Y-92574974D03*
%TD*%
%TO.C,D6*%
X183687009Y-41174974D03*
X186587009Y-40074974D03*
%TD*%
%TO.C,D551*%
X215187010Y-97174975D03*
X218087010Y-96074975D03*
%TD*%
%TO.C,D950*%
X85687009Y-132174975D03*
X88587009Y-131074975D03*
%TD*%
%TO.C,D360*%
X208187009Y-83174974D03*
X211087009Y-82074974D03*
%TD*%
%TO.C,D431*%
X124187009Y-90174975D03*
X127087009Y-89074975D03*
%TD*%
%TO.C,D814*%
X183687009Y-118174974D03*
X186587009Y-117074974D03*
%TD*%
%TO.C,D850*%
X166187009Y-121674974D03*
X169087009Y-120574974D03*
%TD*%
%TO.C,D932*%
X166187009Y-128674974D03*
X169087009Y-127574974D03*
%TD*%
%TO.C,D685*%
X197687009Y-107674974D03*
X200587009Y-106574974D03*
%TD*%
%TO.C,D127*%
X110187010Y-65674974D03*
X113087010Y-64574974D03*
%TD*%
%TO.C,D976*%
X176687010Y-132174974D03*
X179587010Y-131074974D03*
%TD*%
%TO.C,D309*%
X194187009Y-79674974D03*
X197087009Y-78574974D03*
%TD*%
%TO.C,D885*%
X145187009Y-125174975D03*
X148087009Y-124074975D03*
%TD*%
%TO.C,D1177*%
X89187010Y-153174974D03*
X92087010Y-152074974D03*
%TD*%
%TO.C,D112*%
X169687010Y-62174974D03*
X172587010Y-61074974D03*
%TD*%
%TO.C,D1014*%
X169687009Y-135674974D03*
X172587009Y-134574974D03*
%TD*%
%TO.C,D109*%
X159187009Y-62174974D03*
X162087009Y-61074974D03*
%TD*%
%TO.C,D494*%
X180187009Y-93674974D03*
X183087009Y-92574974D03*
%TD*%
%TO.C,D253*%
X152187009Y-76174974D03*
X155087009Y-75074974D03*
%TD*%
%TO.C,D540*%
X176687009Y-97174974D03*
X179587009Y-96074974D03*
%TD*%
%TO.C,D1122*%
X141687009Y-146174974D03*
X144587009Y-145074974D03*
%TD*%
%TO.C,D639*%
X197687009Y-104174974D03*
X200587009Y-103074974D03*
%TD*%
%TO.C,D238*%
X99687009Y-76174974D03*
X102587009Y-75074974D03*
%TD*%
%TO.C,D1173*%
X75187010Y-153174974D03*
X78087010Y-152074974D03*
%TD*%
%TO.C,D671*%
X148687010Y-107674974D03*
X151587010Y-106574974D03*
%TD*%
%TO.C,D202*%
X117187010Y-72674974D03*
X120087010Y-71574974D03*
%TD*%
%TO.C,D776*%
X201187009Y-114674974D03*
X204087009Y-113574974D03*
%TD*%
%TO.C,D1087*%
X152187009Y-142674975D03*
X155087009Y-141574975D03*
%TD*%
%TO.C,D106*%
X148687009Y-62174974D03*
X151587009Y-61074974D03*
%TD*%
%TO.C,D77*%
X134687010Y-58674975D03*
X137587010Y-57574975D03*
%TD*%
%TO.C,D1144*%
X92687009Y-149674975D03*
X95587009Y-148574975D03*
%TD*%
%TO.C,D1083*%
X138187009Y-142674975D03*
X141087009Y-141574975D03*
%TD*%
%TO.C,D105*%
X145187009Y-62174974D03*
X148087009Y-61074974D03*
%TD*%
D12*
%TO.C,H11*%
X207600000Y-115100000D03*
%TD*%
D11*
%TO.C,D972*%
X162687010Y-132174974D03*
X165587010Y-131074974D03*
%TD*%
%TO.C,D258*%
X169687010Y-76174974D03*
X172587010Y-75074974D03*
%TD*%
%TO.C,D338*%
X131187009Y-83174974D03*
X134087009Y-82074974D03*
%TD*%
%TO.C,D554*%
X61187009Y-100674974D03*
X64087009Y-99574974D03*
%TD*%
%TO.C,D357*%
X197687009Y-83174974D03*
X200587009Y-82074974D03*
%TD*%
%TO.C,D249*%
X138187009Y-76174974D03*
X141087009Y-75074974D03*
%TD*%
%TO.C,D146*%
X176687010Y-65674974D03*
X179587010Y-64574974D03*
%TD*%
%TO.C,D1006*%
X141687010Y-135674974D03*
X144587010Y-134574974D03*
%TD*%
%TO.C,D859*%
X197687009Y-121674974D03*
X200587009Y-120574974D03*
%TD*%
%TO.C,D447*%
X180187010Y-90174975D03*
X183087010Y-89074975D03*
%TD*%
%TO.C,D758*%
X138187009Y-114674974D03*
X141087009Y-113574974D03*
%TD*%
%TO.C,D811*%
X173187009Y-118174974D03*
X176087009Y-117074974D03*
%TD*%
%TO.C,D115*%
X180187010Y-62174974D03*
X183087010Y-61074974D03*
%TD*%
%TO.C,D930*%
X159187009Y-128674974D03*
X162087009Y-127574974D03*
%TD*%
%TO.C,D1094*%
X176687009Y-142674975D03*
X179587009Y-141574975D03*
%TD*%
%TO.C,D403*%
X194187010Y-86674974D03*
X197087010Y-85574974D03*
%TD*%
%TO.C,D55*%
X204687009Y-51674975D03*
X207587009Y-50574975D03*
%TD*%
%TO.C,D23*%
X155687010Y-48174974D03*
X158587010Y-47074974D03*
%TD*%
%TO.C,D503*%
X211687009Y-93674974D03*
X214587009Y-92574974D03*
%TD*%
%TO.C,D366*%
X64687010Y-86674974D03*
X67587010Y-85574974D03*
%TD*%
%TO.C,D4*%
X176687010Y-41174974D03*
X179587010Y-40074974D03*
%TD*%
%TO.C,D281*%
X96187010Y-79674974D03*
X99087010Y-78574974D03*
%TD*%
%TO.C,D1084*%
X141687010Y-142674975D03*
X144587010Y-141574975D03*
%TD*%
%TO.C,D695*%
X75187010Y-111174974D03*
X78087010Y-110074974D03*
%TD*%
%TO.C,D829*%
X92687009Y-121674974D03*
X95587009Y-120574974D03*
%TD*%
%TO.C,D706*%
X113687009Y-111174974D03*
X116587009Y-110074974D03*
%TD*%
%TO.C,D1029*%
X82187009Y-139174974D03*
X85087009Y-138074974D03*
%TD*%
%TO.C,D807*%
X159187009Y-118174974D03*
X162087009Y-117074974D03*
%TD*%
%TO.C,D223*%
X190687009Y-72674974D03*
X193587009Y-71574974D03*
%TD*%
%TO.C,D1079*%
X124187009Y-142674975D03*
X127087009Y-141574975D03*
%TD*%
%TO.C,D961*%
X124187010Y-132174974D03*
X127087010Y-131074974D03*
%TD*%
%TO.C,D2*%
X187187010Y-37674974D03*
X190087010Y-36574974D03*
%TD*%
%TO.C,D799*%
X131187009Y-118174974D03*
X134087009Y-117074974D03*
%TD*%
%TO.C,D1156*%
X134687010Y-149674975D03*
X137587010Y-148574975D03*
%TD*%
%TO.C,D225*%
X197687009Y-72674975D03*
X200587009Y-71574975D03*
%TD*%
%TO.C,D128*%
X113687009Y-65674975D03*
X116587009Y-64574975D03*
%TD*%
%TO.C,D538*%
X169687009Y-97174975D03*
X172587009Y-96074975D03*
%TD*%
%TO.C,D383*%
X124187009Y-86674974D03*
X127087009Y-85574974D03*
%TD*%
%TO.C,D353*%
X183687009Y-83174974D03*
X186587009Y-82074974D03*
%TD*%
%TO.C,D125*%
X215187009Y-62174974D03*
X218087009Y-61074974D03*
%TD*%
%TO.C,D293*%
X138187010Y-79674974D03*
X141087010Y-78574974D03*
%TD*%
%TO.C,D673*%
X155687009Y-107674974D03*
X158587009Y-106574974D03*
%TD*%
%TO.C,D61*%
X155687009Y-55174974D03*
X158587009Y-54074974D03*
%TD*%
%TO.C,D356*%
X194187010Y-83174974D03*
X197087010Y-82074974D03*
%TD*%
%TO.C,D1067*%
X82187010Y-142674974D03*
X85087010Y-141574974D03*
%TD*%
%TO.C,D796*%
X120687009Y-118174974D03*
X123587009Y-117074974D03*
%TD*%
%TO.C,D848*%
X159187009Y-121674974D03*
X162087009Y-120574974D03*
%TD*%
%TO.C,D330*%
X103187009Y-83174974D03*
X106087009Y-82074974D03*
%TD*%
%TO.C,D428*%
X113687009Y-90174975D03*
X116587009Y-89074975D03*
%TD*%
%TO.C,D1136*%
X190687010Y-146174974D03*
X193587010Y-145074974D03*
%TD*%
%TO.C,D374*%
X92687010Y-86674974D03*
X95587010Y-85574974D03*
%TD*%
%TO.C,D653*%
X85687010Y-107674974D03*
X88587010Y-106574974D03*
%TD*%
%TO.C,D909*%
X85687009Y-128674974D03*
X88587009Y-127574974D03*
%TD*%
%TO.C,D40*%
X152187009Y-51674975D03*
X155087009Y-50574975D03*
%TD*%
%TO.C,D917*%
X113687009Y-128674974D03*
X116587009Y-127574974D03*
%TD*%
%TO.C,D515*%
X89187010Y-97174974D03*
X92087010Y-96074974D03*
%TD*%
%TO.C,D525*%
X124187009Y-97174974D03*
X127087009Y-96074974D03*
%TD*%
%TO.C,D669*%
X141687009Y-107674974D03*
X144587009Y-106574974D03*
%TD*%
%TO.C,D301*%
X166187009Y-79674975D03*
X169087009Y-78574975D03*
%TD*%
%TO.C,D342*%
X145187009Y-83174974D03*
X148087009Y-82074974D03*
%TD*%
%TO.C,D260*%
X176687009Y-76174974D03*
X179587009Y-75074974D03*
%TD*%
%TO.C,D1124*%
X148687010Y-146174974D03*
X151587010Y-145074974D03*
%TD*%
%TO.C,D1150*%
X113687009Y-149674974D03*
X116587009Y-148574974D03*
%TD*%
%TO.C,D742*%
X82187009Y-114674974D03*
X85087009Y-113574974D03*
%TD*%
%TO.C,D1085*%
X145187009Y-142674974D03*
X148087009Y-141574974D03*
%TD*%
%TO.C,D1181*%
X103187010Y-153174974D03*
X106087010Y-152074974D03*
%TD*%
%TO.C,D197*%
X99687009Y-72674974D03*
X102587009Y-71574974D03*
%TD*%
%TO.C,D53*%
X197687009Y-51674974D03*
X200587009Y-50574974D03*
%TD*%
%TO.C,D713*%
X138187009Y-111174974D03*
X141087009Y-110074974D03*
%TD*%
%TO.C,D593*%
X197687010Y-100674974D03*
X200587010Y-99574974D03*
%TD*%
%TO.C,D835*%
X113687009Y-121674974D03*
X116587009Y-120574974D03*
%TD*%
%TO.C,D790*%
X99687009Y-118174975D03*
X102587009Y-117074975D03*
%TD*%
%TO.C,D966*%
X141687009Y-132174974D03*
X144587009Y-131074974D03*
%TD*%
%TO.C,D44*%
X166187009Y-51674975D03*
X169087009Y-50574975D03*
%TD*%
%TO.C,D590*%
X187187009Y-100674974D03*
X190087009Y-99574974D03*
%TD*%
%TO.C,D381*%
X117187010Y-86674974D03*
X120087010Y-85574974D03*
%TD*%
%TO.C,D1008*%
X148687010Y-135674974D03*
X151587010Y-134574974D03*
%TD*%
%TO.C,D370*%
X78687010Y-86674974D03*
X81587010Y-85574974D03*
%TD*%
%TO.C,D818*%
X197687009Y-118174974D03*
X200587009Y-117074974D03*
%TD*%
%TO.C,D555*%
X64687010Y-100674974D03*
X67587010Y-99574974D03*
%TD*%
%TO.C,D645*%
X57687010Y-107674974D03*
X60587010Y-106574974D03*
%TD*%
%TO.C,D834*%
X110187010Y-121674974D03*
X113087010Y-120574974D03*
%TD*%
%TO.C,D511*%
X75187010Y-97174974D03*
X78087010Y-96074974D03*
%TD*%
%TO.C,D182*%
X180187010Y-69174974D03*
X183087010Y-68074974D03*
%TD*%
%TO.C,D1069*%
X89187010Y-142674975D03*
X92087010Y-141574975D03*
%TD*%
%TO.C,D853*%
X176687010Y-121674974D03*
X179587010Y-120574974D03*
%TD*%
%TO.C,D424*%
X99687009Y-90174975D03*
X102587009Y-89074975D03*
%TD*%
%TO.C,D812*%
X176687010Y-118174974D03*
X179587010Y-117074974D03*
%TD*%
%TO.C,D577*%
X141687010Y-100674974D03*
X144587010Y-99574974D03*
%TD*%
%TO.C,D987*%
X75187010Y-135674974D03*
X78087010Y-134574974D03*
%TD*%
%TO.C,D867*%
X82187009Y-125174974D03*
X85087009Y-124074974D03*
%TD*%
%TO.C,D81*%
X148687009Y-58674974D03*
X151587009Y-57574974D03*
%TD*%
%TO.C,D1191*%
X152187009Y-153174974D03*
X155087009Y-152074974D03*
%TD*%
%TO.C,D699*%
X89187010Y-111174974D03*
X92087010Y-110074974D03*
%TD*%
%TO.C,D290*%
X127687009Y-79674974D03*
X130587009Y-78574974D03*
%TD*%
%TO.C,D185*%
X190687010Y-69174974D03*
X193587010Y-68074974D03*
%TD*%
%TO.C,D923*%
X134687010Y-128674974D03*
X137587010Y-127574974D03*
%TD*%
%TO.C,D52*%
X194187010Y-51674975D03*
X197087010Y-50574975D03*
%TD*%
%TO.C,D857*%
X190687010Y-121674974D03*
X193587010Y-120574974D03*
%TD*%
%TO.C,D116*%
X183687010Y-62174974D03*
X186587010Y-61074974D03*
%TD*%
%TO.C,D206*%
X131187010Y-72674974D03*
X134087010Y-71574974D03*
%TD*%
%TO.C,D843*%
X141687009Y-121674974D03*
X144587009Y-120574974D03*
%TD*%
%TO.C,D287*%
X117187009Y-79674974D03*
X120087009Y-78574974D03*
%TD*%
%TO.C,D235*%
X89187010Y-76174974D03*
X92087010Y-75074974D03*
%TD*%
%TO.C,D615*%
X113687009Y-104174975D03*
X116587009Y-103074975D03*
%TD*%
%TO.C,D423*%
X96187010Y-90174974D03*
X99087010Y-89074974D03*
%TD*%
%TO.C,D697*%
X82187010Y-111174975D03*
X85087010Y-110074975D03*
%TD*%
%TO.C,D882*%
X134687010Y-125174975D03*
X137587010Y-124074975D03*
%TD*%
%TO.C,D139*%
X152187009Y-65674975D03*
X155087009Y-64574975D03*
%TD*%
%TO.C,D541*%
X180187010Y-97174974D03*
X183087010Y-96074974D03*
%TD*%
%TO.C,D505*%
X54187009Y-97174975D03*
X57087009Y-96074975D03*
%TD*%
%TO.C,D332*%
X110187010Y-83174974D03*
X113087010Y-82074974D03*
%TD*%
%TO.C,D643*%
X211687009Y-104174974D03*
X214587009Y-103074974D03*
%TD*%
%TO.C,D237*%
X96187009Y-76174974D03*
X99087009Y-75074974D03*
%TD*%
%TO.C,D312*%
X204687009Y-79674975D03*
X207587009Y-78574975D03*
%TD*%
%TO.C,D975*%
X173187009Y-132174974D03*
X176087009Y-131074974D03*
%TD*%
%TO.C,D928*%
X152187009Y-128674974D03*
X155087009Y-127574974D03*
%TD*%
%TO.C,D990*%
X85687009Y-135674974D03*
X88587009Y-134574974D03*
%TD*%
%TO.C,D257*%
X166187009Y-76174974D03*
X169087009Y-75074974D03*
%TD*%
%TO.C,D959*%
X117187009Y-132174974D03*
X120087009Y-131074974D03*
%TD*%
%TO.C,D1114*%
X113687009Y-146174975D03*
X116587009Y-145074975D03*
%TD*%
%TO.C,D667*%
X134687010Y-107674974D03*
X137587010Y-106574974D03*
%TD*%
%TO.C,D736*%
X61187009Y-114674974D03*
X64087009Y-113574974D03*
%TD*%
%TO.C,D1028*%
X78687010Y-139174974D03*
X81587010Y-138074974D03*
%TD*%
%TO.C,D676*%
X166187009Y-107674974D03*
X169087009Y-106574974D03*
%TD*%
%TO.C,D303*%
X173187009Y-79674974D03*
X176087009Y-78574974D03*
%TD*%
%TO.C,D491*%
X169687009Y-93674974D03*
X172587009Y-92574974D03*
%TD*%
%TO.C,D189*%
X204687009Y-69174974D03*
X207587009Y-68074974D03*
%TD*%
%TO.C,D110*%
X162687009Y-62174974D03*
X165587009Y-61074974D03*
%TD*%
%TO.C,D1196*%
X169687010Y-153174974D03*
X172587010Y-152074974D03*
%TD*%
%TO.C,D1075*%
X110187009Y-142674975D03*
X113087009Y-141574975D03*
%TD*%
%TO.C,D271*%
X215187009Y-76174974D03*
X218087009Y-75074974D03*
%TD*%
%TO.C,D468*%
X89187009Y-93674974D03*
X92087009Y-92574974D03*
%TD*%
%TO.C,D636*%
X187187010Y-104174974D03*
X190087010Y-103074974D03*
%TD*%
%TO.C,D251*%
X145187009Y-76174974D03*
X148087009Y-75074974D03*
%TD*%
%TO.C,D546*%
X197687009Y-97174975D03*
X200587009Y-96074975D03*
%TD*%
%TO.C,D920*%
X124187009Y-128674974D03*
X127087009Y-127574974D03*
%TD*%
%TO.C,D757*%
X134687009Y-114674974D03*
X137587009Y-113574974D03*
%TD*%
%TO.C,D156*%
X211687009Y-65674974D03*
X214587009Y-64574974D03*
%TD*%
%TO.C,D689*%
X54187009Y-111174975D03*
X57087009Y-110074975D03*
%TD*%
%TO.C,D476*%
X117187009Y-93674974D03*
X120087009Y-92574974D03*
%TD*%
%TO.C,D178*%
X166187009Y-69174974D03*
X169087009Y-68074974D03*
%TD*%
%TO.C,D282*%
X99687009Y-79674975D03*
X102587009Y-78574975D03*
%TD*%
%TO.C,D350*%
X173187009Y-83174974D03*
X176087009Y-82074974D03*
%TD*%
%TO.C,D945*%
X68187010Y-132174974D03*
X71087010Y-131074974D03*
%TD*%
%TO.C,D1117*%
X124187010Y-146174974D03*
X127087010Y-145074974D03*
%TD*%
%TO.C,D895*%
X180187010Y-125174974D03*
X183087010Y-124074974D03*
%TD*%
%TO.C,D352*%
X180187010Y-83174974D03*
X183087010Y-82074974D03*
%TD*%
%TO.C,D979*%
X187187010Y-132174974D03*
X190087010Y-131074974D03*
%TD*%
%TO.C,D952*%
X92687009Y-132174974D03*
X95587009Y-131074974D03*
%TD*%
%TO.C,D841*%
X134687010Y-121674974D03*
X137587010Y-120574974D03*
%TD*%
%TO.C,D948*%
X78687009Y-132174974D03*
X81587009Y-131074974D03*
%TD*%
%TO.C,D670*%
X145187009Y-107674974D03*
X148087009Y-106574974D03*
%TD*%
%TO.C,D725*%
X180187010Y-111174974D03*
X183087010Y-110074974D03*
%TD*%
%TO.C,D1073*%
X103187010Y-142674975D03*
X106087010Y-141574975D03*
%TD*%
%TO.C,D265*%
X194187010Y-76174974D03*
X197087010Y-75074974D03*
%TD*%
%TO.C,D1106*%
X85687010Y-146174974D03*
X88587010Y-145074974D03*
%TD*%
%TO.C,D894*%
X176687009Y-125174974D03*
X179587009Y-124074974D03*
%TD*%
%TO.C,D581*%
X155687010Y-100674974D03*
X158587010Y-99574974D03*
%TD*%
%TO.C,D126*%
X106687009Y-65674974D03*
X109587009Y-64574974D03*
%TD*%
%TO.C,D942*%
X201187009Y-128674974D03*
X204087009Y-127574974D03*
%TD*%
%TO.C,D1118*%
X127687009Y-146174974D03*
X130587009Y-145074974D03*
%TD*%
%TO.C,D958*%
X113687009Y-132174975D03*
X116587009Y-131074975D03*
%TD*%
%TO.C,D341*%
X141687010Y-83174974D03*
X144587010Y-82074974D03*
%TD*%
%TO.C,D1007*%
X145187009Y-135674974D03*
X148087009Y-134574974D03*
%TD*%
%TO.C,D377*%
X103187010Y-86674974D03*
X106087010Y-85574974D03*
%TD*%
%TO.C,D563*%
X92687010Y-100674974D03*
X95587010Y-99574974D03*
%TD*%
%TO.C,D502*%
X208187009Y-93674974D03*
X211087009Y-92574974D03*
%TD*%
%TO.C,D531*%
X145187009Y-97174975D03*
X148087009Y-96074975D03*
%TD*%
%TO.C,D389*%
X145187010Y-86674974D03*
X148087010Y-85574974D03*
%TD*%
%TO.C,D181*%
X176687010Y-69174974D03*
X179587010Y-68074974D03*
%TD*%
%TO.C,D610*%
X96187010Y-104174974D03*
X99087010Y-103074974D03*
%TD*%
%TO.C,D19*%
X190687009Y-44674974D03*
X193587009Y-43574974D03*
%TD*%
%TO.C,D1074*%
X106687009Y-142674974D03*
X109587009Y-141574974D03*
%TD*%
%TO.C,D165*%
X120687009Y-69174974D03*
X123587009Y-68074974D03*
%TD*%
%TO.C,D481*%
X134687010Y-93674974D03*
X137587010Y-92574974D03*
%TD*%
%TO.C,D405*%
X201187009Y-86674974D03*
X204087009Y-85574974D03*
%TD*%
%TO.C,D367*%
X68187009Y-86674974D03*
X71087009Y-85574974D03*
%TD*%
%TO.C,D463*%
X71687010Y-93674974D03*
X74587010Y-92574974D03*
%TD*%
%TO.C,D663*%
X120687009Y-107674974D03*
X123587009Y-106574974D03*
%TD*%
%TO.C,D391*%
X152187009Y-86674974D03*
X155087009Y-85574974D03*
%TD*%
%TO.C,D974*%
X169687009Y-132174974D03*
X172587009Y-131074974D03*
%TD*%
%TO.C,D346*%
X159187009Y-83174974D03*
X162087009Y-82074974D03*
%TD*%
%TO.C,D1109*%
X96187010Y-146174974D03*
X99087010Y-145074974D03*
%TD*%
%TO.C,D865*%
X75187010Y-125174974D03*
X78087010Y-124074974D03*
%TD*%
%TO.C,D1041*%
X124187009Y-139174974D03*
X127087009Y-138074974D03*
%TD*%
%TO.C,D508*%
X64687009Y-97174975D03*
X67587009Y-96074975D03*
%TD*%
%TO.C,D912*%
X96187009Y-128674974D03*
X99087009Y-127574974D03*
%TD*%
%TO.C,D1035*%
X103187010Y-139174974D03*
X106087010Y-138074974D03*
%TD*%
%TO.C,D816*%
X190687009Y-118174975D03*
X193587009Y-117074975D03*
%TD*%
%TO.C,D778*%
X57687010Y-118174974D03*
X60587010Y-117074974D03*
%TD*%
%TO.C,D1143*%
X89187010Y-149674974D03*
X92087010Y-148574974D03*
%TD*%
%TO.C,D93*%
X190687009Y-58674974D03*
X193587009Y-57574974D03*
%TD*%
%TO.C,D705*%
X110187009Y-111174974D03*
X113087009Y-110074974D03*
%TD*%
%TO.C,D911*%
X92687009Y-128674974D03*
X95587009Y-127574974D03*
%TD*%
%TO.C,D113*%
X173187009Y-62174974D03*
X176087009Y-61074974D03*
%TD*%
%TO.C,D236*%
X92687009Y-76174974D03*
X95587009Y-75074974D03*
%TD*%
%TO.C,D434*%
X134687010Y-90174974D03*
X137587010Y-89074974D03*
%TD*%
%TO.C,D187*%
X197687009Y-69174974D03*
X200587009Y-68074974D03*
%TD*%
%TO.C,D606*%
X82187010Y-104174974D03*
X85087010Y-103074974D03*
%TD*%
%TO.C,D261*%
X180187010Y-76174974D03*
X183087010Y-75074974D03*
%TD*%
%TO.C,D1183*%
X110187009Y-153174974D03*
X113087009Y-152074974D03*
%TD*%
%TO.C,D384*%
X127687010Y-86674974D03*
X130587010Y-85574974D03*
%TD*%
%TO.C,D83*%
X155687010Y-58674974D03*
X158587010Y-57574974D03*
%TD*%
%TO.C,D286*%
X113687009Y-79674975D03*
X116587009Y-78574975D03*
%TD*%
%TO.C,D74*%
X201187010Y-55174974D03*
X204087010Y-54074974D03*
%TD*%
%TO.C,D418*%
X78687009Y-90174974D03*
X81587009Y-89074974D03*
%TD*%
%TO.C,D198*%
X103187010Y-72674974D03*
X106087010Y-71574974D03*
%TD*%
%TO.C,D886*%
X148687009Y-125174974D03*
X151587009Y-124074974D03*
%TD*%
%TO.C,D1042*%
X127687010Y-139174974D03*
X130587010Y-138074974D03*
%TD*%
%TO.C,D782*%
X71687009Y-118174975D03*
X74587009Y-117074975D03*
%TD*%
%TO.C,D64*%
X166187009Y-55174974D03*
X169087009Y-54074974D03*
%TD*%
%TO.C,D1138*%
X71687009Y-149674974D03*
X74587009Y-148574974D03*
%TD*%
%TO.C,D739*%
X71687009Y-114674974D03*
X74587009Y-113574974D03*
%TD*%
%TO.C,D1162*%
X155687010Y-149674974D03*
X158587010Y-148574974D03*
%TD*%
%TO.C,D247*%
X131187009Y-76174974D03*
X134087009Y-75074974D03*
%TD*%
%TO.C,D842*%
X138187010Y-121674974D03*
X141087010Y-120574974D03*
%TD*%
%TO.C,D469*%
X92687009Y-93674974D03*
X95587009Y-92574974D03*
%TD*%
%TO.C,D817*%
X194187010Y-118174975D03*
X197087010Y-117074975D03*
%TD*%
%TO.C,D123*%
X208187010Y-62174974D03*
X211087010Y-61074974D03*
%TD*%
%TO.C,D82*%
X152187009Y-58674974D03*
X155087009Y-57574974D03*
%TD*%
%TO.C,D570*%
X117187010Y-100674974D03*
X120087010Y-99574974D03*
%TD*%
%TO.C,D557*%
X71687009Y-100674974D03*
X74587009Y-99574974D03*
%TD*%
%TO.C,D1169*%
X180187010Y-149674974D03*
X183087010Y-148574974D03*
%TD*%
%TO.C,D284*%
X106687009Y-79674974D03*
X109587009Y-78574974D03*
%TD*%
%TO.C,D1033*%
X96187009Y-139174974D03*
X99087009Y-138074974D03*
%TD*%
%TO.C,D7*%
X187187010Y-41174974D03*
X190087010Y-40074974D03*
%TD*%
%TO.C,D1135*%
X187187010Y-146174974D03*
X190087010Y-145074974D03*
%TD*%
%TO.C,D217*%
X169687010Y-72674974D03*
X172587010Y-71574974D03*
%TD*%
%TO.C,D315*%
X215187010Y-79674974D03*
X218087010Y-78574974D03*
%TD*%
%TO.C,D1128*%
X162687010Y-146174974D03*
X165587010Y-145074974D03*
%TD*%
%TO.C,D638*%
X194187010Y-104174975D03*
X197087010Y-103074975D03*
%TD*%
%TO.C,D745*%
X92687009Y-114674974D03*
X95587009Y-113574974D03*
%TD*%
%TO.C,D902*%
X61187009Y-128674974D03*
X64087009Y-127574974D03*
%TD*%
%TO.C,D27*%
X169687010Y-48174974D03*
X172587010Y-47074974D03*
%TD*%
%TO.C,D837*%
X120687009Y-121674974D03*
X123587009Y-120574974D03*
%TD*%
%TO.C,D675*%
X162687010Y-107674974D03*
X165587010Y-106574974D03*
%TD*%
%TO.C,D514*%
X85687009Y-97174974D03*
X88587009Y-96074974D03*
%TD*%
%TO.C,D314*%
X211687009Y-79674974D03*
X214587009Y-78574974D03*
%TD*%
%TO.C,D451*%
X194187010Y-90174975D03*
X197087010Y-89074975D03*
%TD*%
%TO.C,D95*%
X197687009Y-58674975D03*
X200587009Y-57574975D03*
%TD*%
%TO.C,D419*%
X82187010Y-90174974D03*
X85087010Y-89074974D03*
%TD*%
%TO.C,D955*%
X103187009Y-132174974D03*
X106087009Y-131074974D03*
%TD*%
%TO.C,D351*%
X176687010Y-83174974D03*
X179587010Y-82074974D03*
%TD*%
%TO.C,D1058*%
X183687010Y-139174974D03*
X186587010Y-138074974D03*
%TD*%
%TO.C,D497*%
X190687010Y-93674974D03*
X193587010Y-92574974D03*
%TD*%
%TO.C,D430*%
X120687009Y-90174974D03*
X123587009Y-89074974D03*
%TD*%
%TO.C,D609*%
X92687009Y-104174974D03*
X95587009Y-103074974D03*
%TD*%
%TO.C,D420*%
X85687009Y-90174975D03*
X88587009Y-89074975D03*
%TD*%
%TO.C,D1102*%
X71687010Y-146174974D03*
X74587010Y-145074974D03*
%TD*%
%TO.C,D482*%
X138187010Y-93674974D03*
X141087010Y-92574974D03*
%TD*%
%TO.C,D1147*%
X103187009Y-149674975D03*
X106087009Y-148574975D03*
%TD*%
%TO.C,D359*%
X204687009Y-83174974D03*
X207587009Y-82074974D03*
%TD*%
%TO.C,D207*%
X134687009Y-72674974D03*
X137587009Y-71574974D03*
%TD*%
%TO.C,D998*%
X113687009Y-135674974D03*
X116587009Y-134574974D03*
%TD*%
%TO.C,D530*%
X141687010Y-97174974D03*
X144587010Y-96074974D03*
%TD*%
%TO.C,D501*%
X204687010Y-93674974D03*
X207587010Y-92574974D03*
%TD*%
%TO.C,D1127*%
X159187009Y-146174974D03*
X162087009Y-145074974D03*
%TD*%
%TO.C,D954*%
X99687009Y-132174975D03*
X102587009Y-131074975D03*
%TD*%
%TO.C,D938*%
X187187010Y-128674974D03*
X190087010Y-127574974D03*
%TD*%
%TO.C,D532*%
X148687010Y-97174975D03*
X151587010Y-96074975D03*
%TD*%
%TO.C,D786*%
X85687009Y-118174975D03*
X88587009Y-117074975D03*
%TD*%
%TO.C,D889*%
X159187009Y-125174975D03*
X162087009Y-124074975D03*
%TD*%
%TO.C,D484*%
X145187009Y-93674974D03*
X148087009Y-92574974D03*
%TD*%
%TO.C,D1065*%
X75187010Y-142674975D03*
X78087010Y-141574975D03*
%TD*%
%TO.C,D587*%
X176687009Y-100674974D03*
X179587009Y-99574974D03*
%TD*%
%TO.C,D307*%
X187187010Y-79674974D03*
X190087010Y-78574974D03*
%TD*%
%TO.C,D1090*%
X162687009Y-142674975D03*
X165587009Y-141574975D03*
%TD*%
%TO.C,D308*%
X190687010Y-79674974D03*
X193587010Y-78574974D03*
%TD*%
%TO.C,D876*%
X113687009Y-125174974D03*
X116587009Y-124074974D03*
%TD*%
%TO.C,D432*%
X127687010Y-90174975D03*
X130587010Y-89074975D03*
%TD*%
%TO.C,D1159*%
X145187009Y-149674975D03*
X148087009Y-148574975D03*
%TD*%
%TO.C,D897*%
X187187010Y-125174975D03*
X190087010Y-124074975D03*
%TD*%
%TO.C,D413*%
X61187009Y-90174975D03*
X64087009Y-89074975D03*
%TD*%
%TO.C,D730*%
X197687009Y-111174975D03*
X200587009Y-110074975D03*
%TD*%
%TO.C,D856*%
X187187010Y-121674974D03*
X190087010Y-120574974D03*
%TD*%
%TO.C,D89*%
X176687009Y-58674974D03*
X179587009Y-57574974D03*
%TD*%
%TO.C,D12*%
X166187009Y-44674974D03*
X169087009Y-43574974D03*
%TD*%
%TO.C,D740*%
X75187010Y-114674974D03*
X78087010Y-113574974D03*
%TD*%
%TO.C,D523*%
X117187009Y-97174975D03*
X120087009Y-96074975D03*
%TD*%
%TO.C,D194*%
X89187010Y-72674974D03*
X92087010Y-71574974D03*
%TD*%
%TO.C,D349*%
X169687009Y-83174974D03*
X172587009Y-82074974D03*
%TD*%
%TO.C,D517*%
X96187010Y-97174975D03*
X99087010Y-96074975D03*
%TD*%
%TO.C,D718*%
X155687010Y-111174974D03*
X158587010Y-110074974D03*
%TD*%
%TO.C,D283*%
X103187009Y-79674974D03*
X106087009Y-78574974D03*
%TD*%
%TO.C,D475*%
X113687009Y-93674974D03*
X116587009Y-92574974D03*
%TD*%
%TO.C,D1158*%
X141687010Y-149674974D03*
X144587010Y-148574974D03*
%TD*%
%TO.C,D90*%
X180187010Y-58674974D03*
X183087010Y-57574974D03*
%TD*%
%TO.C,D953*%
X96187010Y-132174974D03*
X99087010Y-131074974D03*
%TD*%
%TO.C,D37*%
X204687009Y-48174974D03*
X207587009Y-47074974D03*
%TD*%
%TO.C,D995*%
X103187009Y-135674974D03*
X106087009Y-134574974D03*
%TD*%
%TO.C,D650*%
X75187009Y-107674974D03*
X78087009Y-106574974D03*
%TD*%
%TO.C,D748*%
X103187010Y-114674974D03*
X106087010Y-113574974D03*
%TD*%
%TO.C,D460*%
X61187009Y-93674974D03*
X64087009Y-92574974D03*
%TD*%
%TO.C,D683*%
X190687010Y-107674974D03*
X193587010Y-106574974D03*
%TD*%
%TO.C,D943*%
X61187009Y-132174975D03*
X64087009Y-131074975D03*
%TD*%
%TO.C,D1180*%
X99687009Y-153174974D03*
X102587009Y-152074974D03*
%TD*%
%TO.C,D733*%
X50687010Y-114674974D03*
X53587010Y-113574974D03*
%TD*%
%TO.C,D46*%
X173187009Y-51674974D03*
X176087009Y-50574974D03*
%TD*%
%TO.C,D899*%
X194187010Y-125174974D03*
X197087010Y-124074974D03*
%TD*%
%TO.C,D681*%
X183687009Y-107674974D03*
X186587009Y-106574974D03*
%TD*%
%TO.C,D340*%
X138187009Y-83174974D03*
X141087009Y-82074974D03*
%TD*%
%TO.C,D323*%
X78687009Y-83174974D03*
X81587009Y-82074974D03*
%TD*%
%TO.C,D103*%
X138187009Y-62174974D03*
X141087009Y-61074974D03*
%TD*%
%TO.C,D416*%
X71687009Y-90174975D03*
X74587009Y-89074975D03*
%TD*%
%TO.C,D191*%
X211687009Y-69174974D03*
X214587009Y-68074974D03*
%TD*%
%TO.C,D436*%
X141687010Y-90174975D03*
X144587010Y-89074975D03*
%TD*%
%TO.C,D1187*%
X138187009Y-153174974D03*
X141087009Y-152074974D03*
%TD*%
%TO.C,D306*%
X183687009Y-79674974D03*
X186587009Y-78574974D03*
%TD*%
%TO.C,D337*%
X127687010Y-83174974D03*
X130587010Y-82074974D03*
%TD*%
%TO.C,D1011*%
X159187009Y-135674974D03*
X162087009Y-134574974D03*
%TD*%
%TO.C,D108*%
X155687010Y-62174974D03*
X158587010Y-61074974D03*
%TD*%
%TO.C,D939*%
X190687009Y-128674974D03*
X193587009Y-127574974D03*
%TD*%
%TO.C,D962*%
X127687010Y-132174975D03*
X130587010Y-131074975D03*
%TD*%
%TO.C,D804*%
X148687010Y-118174974D03*
X151587010Y-117074974D03*
%TD*%
%TO.C,D793*%
X110187010Y-118174974D03*
X113087010Y-117074974D03*
%TD*%
%TO.C,D622*%
X138187009Y-104174975D03*
X141087009Y-103074975D03*
%TD*%
%TO.C,D562*%
X89187010Y-100674974D03*
X92087010Y-99574974D03*
%TD*%
%TO.C,D504*%
X215187010Y-93674974D03*
X218087010Y-92574974D03*
%TD*%
%TO.C,D694*%
X71687009Y-111174974D03*
X74587009Y-110074974D03*
%TD*%
%TO.C,D627*%
X155687010Y-104174975D03*
X158587010Y-103074975D03*
%TD*%
%TO.C,D48*%
X180187010Y-51674975D03*
X183087010Y-50574975D03*
%TD*%
%TO.C,D860*%
X201187010Y-121674974D03*
X204087010Y-120574974D03*
%TD*%
%TO.C,D211*%
X148687009Y-72674974D03*
X151587009Y-71574974D03*
%TD*%
%TO.C,D131*%
X124187010Y-65674974D03*
X127087010Y-64574974D03*
%TD*%
%TO.C,D25*%
X162687009Y-48174974D03*
X165587009Y-47074974D03*
%TD*%
%TO.C,D1168*%
X176687009Y-149674974D03*
X179587009Y-148574974D03*
%TD*%
%TO.C,D94*%
X194187010Y-58674974D03*
X197087010Y-57574974D03*
%TD*%
%TO.C,D66*%
X173187009Y-55174974D03*
X176087009Y-54074974D03*
%TD*%
%TO.C,D407*%
X208187010Y-86674974D03*
X211087010Y-85574974D03*
%TD*%
%TO.C,D572*%
X124187009Y-100674974D03*
X127087009Y-99574974D03*
%TD*%
%TO.C,D394*%
X162687009Y-86674974D03*
X165587009Y-85574974D03*
%TD*%
%TO.C,D145*%
X173187009Y-65674974D03*
X176087009Y-64574974D03*
%TD*%
%TO.C,D662*%
X117187009Y-107674974D03*
X120087009Y-106574974D03*
%TD*%
%TO.C,D1176*%
X85687009Y-153174974D03*
X88587009Y-152074974D03*
%TD*%
%TO.C,D820*%
X61187009Y-121674974D03*
X64087009Y-120574974D03*
%TD*%
%TO.C,D657*%
X99687009Y-107674974D03*
X102587009Y-106574974D03*
%TD*%
%TO.C,D1091*%
X166187009Y-142674975D03*
X169087009Y-141574975D03*
%TD*%
%TO.C,D397*%
X173187009Y-86674975D03*
X176087009Y-85574975D03*
%TD*%
%TO.C,D539*%
X173187009Y-97174975D03*
X176087009Y-96074975D03*
%TD*%
%TO.C,D599*%
X57687009Y-104174975D03*
X60587009Y-103074975D03*
%TD*%
%TO.C,D533*%
X152187009Y-97174974D03*
X155087009Y-96074974D03*
%TD*%
%TO.C,D78*%
X138187009Y-58674974D03*
X141087009Y-57574974D03*
%TD*%
%TO.C,D707*%
X117187010Y-111174974D03*
X120087010Y-110074974D03*
%TD*%
%TO.C,D433*%
X131187009Y-90174974D03*
X134087009Y-89074974D03*
%TD*%
%TO.C,D722*%
X169687010Y-111174974D03*
X172587010Y-110074974D03*
%TD*%
%TO.C,D621*%
X134687010Y-104174974D03*
X137587010Y-103074974D03*
%TD*%
%TO.C,D448*%
X183687009Y-90174974D03*
X186587009Y-89074974D03*
%TD*%
%TO.C,D1053*%
X166187009Y-139174974D03*
X169087009Y-138074974D03*
%TD*%
%TO.C,D1027*%
X75187010Y-139174974D03*
X78087010Y-138074974D03*
%TD*%
%TO.C,D376*%
X99687009Y-86674974D03*
X102587009Y-85574974D03*
%TD*%
%TO.C,D1001*%
X124187010Y-135674974D03*
X127087010Y-134574974D03*
%TD*%
%TO.C,D619*%
X127687010Y-104174975D03*
X130587010Y-103074975D03*
%TD*%
%TO.C,D659*%
X106687009Y-107674974D03*
X109587009Y-106574974D03*
%TD*%
%TO.C,D677*%
X169687009Y-107674974D03*
X172587009Y-106574974D03*
%TD*%
%TO.C,D1167*%
X173187009Y-149674975D03*
X176087009Y-148574975D03*
%TD*%
%TO.C,D54*%
X201187010Y-51674974D03*
X204087010Y-50574974D03*
%TD*%
%TO.C,D390*%
X148687009Y-86674974D03*
X151587009Y-85574974D03*
%TD*%
%TO.C,D746*%
X96187009Y-114674974D03*
X99087009Y-113574974D03*
%TD*%
%TO.C,D719*%
X159187009Y-111174975D03*
X162087009Y-110074975D03*
%TD*%
%TO.C,D152*%
X197687009Y-65674974D03*
X200587009Y-64574974D03*
%TD*%
%TO.C,D59*%
X148687010Y-55174974D03*
X151587010Y-54074974D03*
%TD*%
%TO.C,D467*%
X85687010Y-93674974D03*
X88587010Y-92574974D03*
%TD*%
%TO.C,D453*%
X201187010Y-90174974D03*
X204087010Y-89074974D03*
%TD*%
%TO.C,D994*%
X99687009Y-135674974D03*
X102587009Y-134574974D03*
%TD*%
%TO.C,D1098*%
X190687009Y-142674975D03*
X193587009Y-141574975D03*
%TD*%
%TO.C,D1062*%
X64687009Y-142674974D03*
X67587009Y-141574974D03*
%TD*%
%TO.C,D425*%
X103187010Y-90174975D03*
X106087010Y-89074975D03*
%TD*%
%TO.C,D1063*%
X68187010Y-142674974D03*
X71087010Y-141574974D03*
%TD*%
%TO.C,D1133*%
X180187009Y-146174974D03*
X183087009Y-145074974D03*
%TD*%
%TO.C,D903*%
X64687010Y-128674974D03*
X67587010Y-127574974D03*
%TD*%
%TO.C,D750*%
X110187009Y-114674974D03*
X113087009Y-113574974D03*
%TD*%
%TO.C,D743*%
X85687009Y-114674974D03*
X88587009Y-113574974D03*
%TD*%
%TO.C,D444*%
X169687010Y-90174975D03*
X172587010Y-89074975D03*
%TD*%
%TO.C,D385*%
X131187010Y-86674974D03*
X134087010Y-85574974D03*
%TD*%
%TO.C,D844*%
X145187009Y-121674974D03*
X148087009Y-120574974D03*
%TD*%
%TO.C,D632*%
X173187009Y-104174974D03*
X176087009Y-103074974D03*
%TD*%
%TO.C,D1165*%
X166187009Y-149674974D03*
X169087009Y-148574974D03*
%TD*%
%TO.C,D846*%
X152187009Y-121674974D03*
X155087009Y-120574974D03*
%TD*%
%TO.C,D129*%
X117187009Y-65674974D03*
X120087009Y-64574974D03*
%TD*%
%TO.C,D299*%
X159187009Y-79674974D03*
X162087009Y-78574974D03*
%TD*%
%TO.C,D698*%
X85687009Y-111174974D03*
X88587009Y-110074974D03*
%TD*%
%TO.C,D969*%
X152187009Y-132174975D03*
X155087009Y-131074975D03*
%TD*%
%TO.C,D1080*%
X127687010Y-142674975D03*
X130587010Y-141574975D03*
%TD*%
%TO.C,D957*%
X110187010Y-132174974D03*
X113087010Y-131074974D03*
%TD*%
%TO.C,D1190*%
X148687009Y-153174974D03*
X151587009Y-152074974D03*
%TD*%
%TO.C,D1125*%
X152187010Y-146174974D03*
X155087010Y-145074974D03*
%TD*%
%TO.C,D600*%
X61187009Y-104174975D03*
X64087009Y-103074975D03*
%TD*%
%TO.C,D136*%
X141687009Y-65674974D03*
X144587009Y-64574974D03*
%TD*%
%TO.C,D380*%
X113687009Y-86674974D03*
X116587009Y-85574974D03*
%TD*%
%TO.C,D266*%
X197687009Y-76174974D03*
X200587009Y-75074974D03*
%TD*%
%TO.C,D241*%
X110187009Y-76174974D03*
X113087009Y-75074974D03*
%TD*%
%TO.C,D1151*%
X117187009Y-149674975D03*
X120087009Y-148574975D03*
%TD*%
%TO.C,D506*%
X57687009Y-97174974D03*
X60587009Y-96074974D03*
%TD*%
%TO.C,D855*%
X183687009Y-121674974D03*
X186587009Y-120574974D03*
%TD*%
%TO.C,D311*%
X201187010Y-79674974D03*
X204087010Y-78574974D03*
%TD*%
%TO.C,D474*%
X110187010Y-93674974D03*
X113087010Y-92574974D03*
%TD*%
%TO.C,D910*%
X89187010Y-128674974D03*
X92087010Y-127574974D03*
%TD*%
%TO.C,D209*%
X141687010Y-72674974D03*
X144587010Y-71574974D03*
%TD*%
%TO.C,D276*%
X78687009Y-79674974D03*
X81587009Y-78574974D03*
%TD*%
%TO.C,D892*%
X169687010Y-125174974D03*
X172587010Y-124074974D03*
%TD*%
%TO.C,D135*%
X138187009Y-65674975D03*
X141087009Y-64574975D03*
%TD*%
%TO.C,D999*%
X117187009Y-135674974D03*
X120087009Y-134574974D03*
%TD*%
%TO.C,D997*%
X110187010Y-135674974D03*
X113087010Y-134574974D03*
%TD*%
%TO.C,D752*%
X117187010Y-114674974D03*
X120087010Y-113574974D03*
%TD*%
%TO.C,D184*%
X187187010Y-69174974D03*
X190087010Y-68074974D03*
%TD*%
%TO.C,D177*%
X162687010Y-69174974D03*
X165587010Y-68074974D03*
%TD*%
%TO.C,D32*%
X187187009Y-48174974D03*
X190087009Y-47074974D03*
%TD*%
%TO.C,D164*%
X117187009Y-69174974D03*
X120087009Y-68074974D03*
%TD*%
%TO.C,D688*%
X50687010Y-111174974D03*
X53587010Y-110074974D03*
%TD*%
%TO.C,D334*%
X117187009Y-83174974D03*
X120087009Y-82074974D03*
%TD*%
%TO.C,D254*%
X155687010Y-76174974D03*
X158587010Y-75074974D03*
%TD*%
%TO.C,D1002*%
X127687010Y-135674974D03*
X130587010Y-134574974D03*
%TD*%
%TO.C,D691*%
X61187009Y-111174974D03*
X64087009Y-110074974D03*
%TD*%
%TO.C,D76*%
X208187009Y-55174974D03*
X211087009Y-54074974D03*
%TD*%
%TO.C,D5*%
X180187009Y-41174974D03*
X183087009Y-40074974D03*
%TD*%
%TO.C,D518*%
X99687009Y-97174974D03*
X102587009Y-96074974D03*
%TD*%
%TO.C,D665*%
X127687009Y-107674974D03*
X130587009Y-106574974D03*
%TD*%
%TO.C,D723*%
X173187009Y-111174975D03*
X176087009Y-110074975D03*
%TD*%
%TO.C,D711*%
X131187009Y-111174975D03*
X134087009Y-110074975D03*
%TD*%
%TO.C,D122*%
X204687009Y-62174974D03*
X207587009Y-61074974D03*
%TD*%
%TO.C,D288*%
X120687009Y-79674974D03*
X123587009Y-78574974D03*
%TD*%
%TO.C,D522*%
X113687009Y-97174974D03*
X116587009Y-96074974D03*
%TD*%
%TO.C,D869*%
X89187010Y-125174974D03*
X92087010Y-124074974D03*
%TD*%
%TO.C,D904*%
X68187010Y-128674974D03*
X71087010Y-127574974D03*
%TD*%
%TO.C,D635*%
X183687009Y-104174974D03*
X186587009Y-103074974D03*
%TD*%
%TO.C,D827*%
X85687009Y-121674974D03*
X88587009Y-120574974D03*
%TD*%
%TO.C,D646*%
X61187009Y-107674974D03*
X64087009Y-106574974D03*
%TD*%
%TO.C,D162*%
X110187010Y-69174974D03*
X113087010Y-68074974D03*
%TD*%
%TO.C,D597*%
X211687010Y-100674974D03*
X214587010Y-99574974D03*
%TD*%
%TO.C,D925*%
X141687010Y-128674974D03*
X144587010Y-127574974D03*
%TD*%
%TO.C,D1086*%
X148687010Y-142674974D03*
X151587010Y-141574974D03*
%TD*%
%TO.C,D1185*%
X117187010Y-153174974D03*
X120087010Y-152074974D03*
%TD*%
%TO.C,D33*%
X190687009Y-48174974D03*
X193587009Y-47074974D03*
%TD*%
%TO.C,D324*%
X82187010Y-83174974D03*
X85087010Y-82074974D03*
%TD*%
%TO.C,D547*%
X201187010Y-97174975D03*
X204087010Y-96074975D03*
%TD*%
%TO.C,D1049*%
X152187009Y-139174974D03*
X155087009Y-138074974D03*
%TD*%
%TO.C,D1116*%
X120687009Y-146174974D03*
X123587009Y-145074974D03*
%TD*%
%TO.C,D536*%
X162687010Y-97174975D03*
X165587010Y-96074975D03*
%TD*%
%TO.C,D347*%
X162687010Y-83174974D03*
X165587010Y-82074974D03*
%TD*%
%TO.C,D1056*%
X176687009Y-139174974D03*
X179587009Y-138074974D03*
%TD*%
%TO.C,D412*%
X57687009Y-90174975D03*
X60587009Y-89074975D03*
%TD*%
%TO.C,D1081*%
X131187009Y-142674974D03*
X134087009Y-141574974D03*
%TD*%
%TO.C,D1153*%
X124187009Y-149674974D03*
X127087009Y-148574974D03*
%TD*%
%TO.C,D682*%
X187187010Y-107674974D03*
X190087010Y-106574974D03*
%TD*%
%TO.C,D466*%
X82187010Y-93674974D03*
X85087010Y-92574974D03*
%TD*%
%TO.C,D985*%
X68187010Y-135674974D03*
X71087010Y-134574974D03*
%TD*%
%TO.C,D801*%
X138187009Y-118174975D03*
X141087009Y-117074975D03*
%TD*%
%TO.C,D132*%
X127687010Y-65674975D03*
X130587010Y-64574975D03*
%TD*%
%TO.C,D772*%
X187187009Y-114674974D03*
X190087009Y-113574974D03*
%TD*%
%TO.C,D159*%
X99687009Y-69174974D03*
X102587009Y-68074974D03*
%TD*%
%TO.C,D926*%
X145187009Y-128674974D03*
X148087009Y-127574974D03*
%TD*%
%TO.C,D813*%
X180187010Y-118174975D03*
X183087010Y-117074975D03*
%TD*%
%TO.C,D779*%
X61187009Y-118174975D03*
X64087009Y-117074975D03*
%TD*%
%TO.C,D906*%
X75187010Y-128674974D03*
X78087010Y-127574974D03*
%TD*%
%TO.C,D461*%
X64687009Y-93674974D03*
X67587009Y-92574974D03*
%TD*%
%TO.C,D553*%
X57687009Y-100674974D03*
X60587009Y-99574974D03*
%TD*%
%TO.C,D87*%
X169687010Y-58674974D03*
X172587010Y-57574974D03*
%TD*%
%TO.C,D1178*%
X92687010Y-153174974D03*
X95587010Y-152074974D03*
%TD*%
%TO.C,D1140*%
X78687009Y-149674975D03*
X81587009Y-148574975D03*
%TD*%
%TO.C,D372*%
X85687009Y-86674974D03*
X88587009Y-85574974D03*
%TD*%
%TO.C,D973*%
X166187009Y-132174975D03*
X169087009Y-131074975D03*
%TD*%
%TO.C,D456*%
X211687009Y-90174974D03*
X214587009Y-89074974D03*
%TD*%
%TO.C,D229*%
X211687009Y-72674975D03*
X214587009Y-71574975D03*
%TD*%
%TO.C,D300*%
X162687010Y-79674974D03*
X165587010Y-78574974D03*
%TD*%
%TO.C,D1068*%
X85687009Y-142674975D03*
X88587009Y-141574975D03*
%TD*%
%TO.C,D345*%
X155687009Y-83174974D03*
X158587009Y-82074974D03*
%TD*%
%TO.C,D873*%
X103187010Y-125174974D03*
X106087010Y-124074974D03*
%TD*%
%TO.C,D186*%
X194187009Y-69174974D03*
X197087009Y-68074974D03*
%TD*%
%TO.C,D1195*%
X166187009Y-153174974D03*
X169087009Y-152074974D03*
%TD*%
%TO.C,D295*%
X145187009Y-79674974D03*
X148087009Y-78574974D03*
%TD*%
%TO.C,D561*%
X85687009Y-100674974D03*
X88587009Y-99574974D03*
%TD*%
%TO.C,D111*%
X166187009Y-62174974D03*
X169087009Y-61074974D03*
%TD*%
%TO.C,D219*%
X176687009Y-72674974D03*
X179587009Y-71574974D03*
%TD*%
%TO.C,D728*%
X190687009Y-111174974D03*
X193587009Y-110074974D03*
%TD*%
%TO.C,D874*%
X106687009Y-125174975D03*
X109587009Y-124074975D03*
%TD*%
%TO.C,D893*%
X173187009Y-125174975D03*
X176087009Y-124074975D03*
%TD*%
%TO.C,D472*%
X103187009Y-93674974D03*
X106087009Y-92574974D03*
%TD*%
%TO.C,D993*%
X96187010Y-135674974D03*
X99087010Y-134574974D03*
%TD*%
%TO.C,D421*%
X89187010Y-90174975D03*
X92087010Y-89074975D03*
%TD*%
%TO.C,D1137*%
X68187010Y-149674975D03*
X71087010Y-148574975D03*
%TD*%
%TO.C,D297*%
X152187009Y-79674975D03*
X155087009Y-78574975D03*
%TD*%
%TO.C,D1123*%
X145187009Y-146174974D03*
X148087009Y-145074974D03*
%TD*%
%TO.C,D845*%
X148687010Y-121674974D03*
X151587010Y-120574974D03*
%TD*%
%TO.C,D382*%
X120687009Y-86674974D03*
X123587009Y-85574974D03*
%TD*%
%TO.C,D978*%
X183687009Y-132174974D03*
X186587009Y-131074974D03*
%TD*%
%TO.C,D239*%
X103187010Y-76174974D03*
X106087010Y-75074974D03*
%TD*%
%TO.C,D317*%
X222187009Y-79674974D03*
X225087009Y-78574974D03*
%TD*%
%TO.C,D613*%
X106687009Y-104174974D03*
X109587009Y-103074974D03*
%TD*%
%TO.C,D1021*%
X194187010Y-135674974D03*
X197087010Y-134574974D03*
%TD*%
%TO.C,D715*%
X145187009Y-111174975D03*
X148087009Y-110074975D03*
%TD*%
%TO.C,D1184*%
X113687009Y-153174974D03*
X116587009Y-152074974D03*
%TD*%
%TO.C,D72*%
X194187009Y-55174974D03*
X197087009Y-54074974D03*
%TD*%
%TO.C,D641*%
X204687009Y-104174975D03*
X207587009Y-103074975D03*
%TD*%
%TO.C,D402*%
X190687009Y-86674974D03*
X193587009Y-85574974D03*
%TD*%
%TO.C,D941*%
X197687009Y-128674974D03*
X200587009Y-127574974D03*
%TD*%
%TO.C,D771*%
X183687010Y-114674974D03*
X186587010Y-113574974D03*
%TD*%
%TO.C,D1175*%
X82187009Y-153174974D03*
X85087009Y-152074974D03*
%TD*%
%TO.C,D890*%
X162687009Y-125174974D03*
X165587009Y-124074974D03*
%TD*%
%TO.C,D248*%
X134687010Y-76174974D03*
X137587010Y-75074974D03*
%TD*%
%TO.C,D631*%
X169687009Y-104174974D03*
X172587009Y-103074974D03*
%TD*%
%TO.C,D289*%
X124187010Y-79674974D03*
X127087010Y-78574974D03*
%TD*%
%TO.C,D649*%
X71687010Y-107674974D03*
X74587010Y-106574974D03*
%TD*%
%TO.C,D785*%
X82187010Y-118174974D03*
X85087010Y-117074974D03*
%TD*%
%TO.C,D364*%
X57687009Y-86674974D03*
X60587009Y-85574974D03*
%TD*%
%TO.C,D692*%
X64687009Y-111174975D03*
X67587009Y-110074975D03*
%TD*%
%TO.C,D1193*%
X159187010Y-153174974D03*
X162087010Y-152074974D03*
%TD*%
%TO.C,D588*%
X180187010Y-100674974D03*
X183087010Y-99574974D03*
%TD*%
%TO.C,D232*%
X78687009Y-76174974D03*
X81587009Y-75074974D03*
%TD*%
%TO.C,D858*%
X194187009Y-121674974D03*
X197087009Y-120574974D03*
%TD*%
%TO.C,D215*%
X162687009Y-72674974D03*
X165587009Y-71574974D03*
%TD*%
%TO.C,D989*%
X82187010Y-135674974D03*
X85087010Y-134574974D03*
%TD*%
%TO.C,D243*%
X117187010Y-76174974D03*
X120087010Y-75074974D03*
%TD*%
%TO.C,D684*%
X194187009Y-107674974D03*
X197087009Y-106574974D03*
%TD*%
%TO.C,D234*%
X85687009Y-76174974D03*
X88587009Y-75074974D03*
%TD*%
%TO.C,D956*%
X106687009Y-132174974D03*
X109587009Y-131074974D03*
%TD*%
%TO.C,D914*%
X103187010Y-128674974D03*
X106087010Y-127574974D03*
%TD*%
%TO.C,D222*%
X187187010Y-72674975D03*
X190087010Y-71574975D03*
%TD*%
%TO.C,D544*%
X190687009Y-97174974D03*
X193587009Y-96074974D03*
%TD*%
%TO.C,D528*%
X134687010Y-97174975D03*
X137587010Y-96074975D03*
%TD*%
%TO.C,D996*%
X106687009Y-135674974D03*
X109587009Y-134574974D03*
%TD*%
%TO.C,D141*%
X159187009Y-65674974D03*
X162087009Y-64574974D03*
%TD*%
%TO.C,D1155*%
X131187009Y-149674975D03*
X134087009Y-148574975D03*
%TD*%
%TO.C,D1051*%
X159187009Y-139174975D03*
X162087009Y-138074975D03*
%TD*%
%TO.C,D3*%
X173187009Y-41174974D03*
X176087009Y-40074974D03*
%TD*%
%TO.C,D195*%
X92687009Y-72674975D03*
X95587009Y-71574975D03*
%TD*%
%TO.C,D121*%
X201187009Y-62174974D03*
X204087009Y-61074974D03*
%TD*%
%TO.C,D542*%
X183687009Y-97174975D03*
X186587009Y-96074975D03*
%TD*%
%TO.C,D92*%
X187187010Y-58674975D03*
X190087010Y-57574975D03*
%TD*%
%TO.C,D766*%
X166187009Y-114674974D03*
X169087009Y-113574974D03*
%TD*%
%TO.C,D964*%
X134687010Y-132174974D03*
X137587010Y-131074974D03*
%TD*%
%TO.C,D97*%
X204687009Y-58674974D03*
X207587009Y-57574974D03*
%TD*%
%TO.C,D1198*%
X176687009Y-153174974D03*
X179587009Y-152074974D03*
%TD*%
%TO.C,D411*%
X54187009Y-90174974D03*
X57087009Y-89074974D03*
%TD*%
%TO.C,D787*%
X89187009Y-118174974D03*
X92087009Y-117074974D03*
%TD*%
%TO.C,D1199*%
X180187010Y-153174974D03*
X183087010Y-152074974D03*
%TD*%
%TO.C,D321*%
X71687009Y-83174974D03*
X74587009Y-82074974D03*
%TD*%
%TO.C,D100*%
X117187010Y-62174974D03*
X120087010Y-61074974D03*
%TD*%
%TO.C,D172*%
X145187009Y-69174974D03*
X148087009Y-68074974D03*
%TD*%
%TO.C,D907*%
X78687009Y-128674974D03*
X81587009Y-127574974D03*
%TD*%
%TO.C,D1050*%
X155687010Y-139174974D03*
X158587010Y-138074974D03*
%TD*%
%TO.C,D1003*%
X131187009Y-135674974D03*
X134087009Y-134574974D03*
%TD*%
%TO.C,D473*%
X106687009Y-93674974D03*
X109587009Y-92574974D03*
%TD*%
%TO.C,D471*%
X99687010Y-93674974D03*
X102587010Y-92574974D03*
%TD*%
%TO.C,D875*%
X110187009Y-125174974D03*
X113087009Y-124074974D03*
%TD*%
%TO.C,D193*%
X218687009Y-69174974D03*
X221587009Y-68074974D03*
%TD*%
%TO.C,D214*%
X159187009Y-72674975D03*
X162087009Y-71574975D03*
%TD*%
%TO.C,D585*%
X169687010Y-100674974D03*
X172587010Y-99574974D03*
%TD*%
%TO.C,D69*%
X183687009Y-55174974D03*
X186587009Y-54074974D03*
%TD*%
%TO.C,D395*%
X166187009Y-86674974D03*
X169087009Y-85574974D03*
%TD*%
%TO.C,D1093*%
X173187009Y-142674974D03*
X176087009Y-141574974D03*
%TD*%
%TO.C,D1025*%
X68187009Y-139174974D03*
X71087009Y-138074974D03*
%TD*%
%TO.C,D138*%
X148687010Y-65674974D03*
X151587010Y-64574974D03*
%TD*%
%TO.C,D935*%
X176687009Y-128674974D03*
X179587009Y-127574974D03*
%TD*%
%TO.C,D39*%
X148687010Y-51674974D03*
X151587010Y-50574974D03*
%TD*%
%TO.C,D21*%
X197687009Y-44674975D03*
X200587009Y-43574975D03*
%TD*%
%TO.C,D1022*%
X197687009Y-135674974D03*
X200587009Y-134574974D03*
%TD*%
%TO.C,D179*%
X169687009Y-69174974D03*
X172587009Y-68074974D03*
%TD*%
%TO.C,D687*%
X204687010Y-107674974D03*
X207587010Y-106574974D03*
%TD*%
%TO.C,D63*%
X162687010Y-55174974D03*
X165587010Y-54074974D03*
%TD*%
%TO.C,D493*%
X176687010Y-93674974D03*
X179587010Y-92574974D03*
%TD*%
%TO.C,D470*%
X96187010Y-93674974D03*
X99087010Y-92574974D03*
%TD*%
%TO.C,D285*%
X110187010Y-79674974D03*
X113087010Y-78574974D03*
%TD*%
%TO.C,D228*%
X208187010Y-72674974D03*
X211087010Y-71574974D03*
%TD*%
%TO.C,D1057*%
X180187010Y-139174974D03*
X183087010Y-138074974D03*
%TD*%
%TO.C,D245*%
X124187009Y-76174974D03*
X127087009Y-75074974D03*
%TD*%
%TO.C,D438*%
X148687010Y-90174974D03*
X151587010Y-89074974D03*
%TD*%
%TO.C,D708*%
X120687009Y-111174975D03*
X123587009Y-110074975D03*
%TD*%
%TO.C,D870*%
X92687009Y-125174975D03*
X95587009Y-124074975D03*
%TD*%
%TO.C,D213*%
X155687010Y-72674974D03*
X158587010Y-71574974D03*
%TD*%
%TO.C,D459*%
X57687010Y-93674974D03*
X60587010Y-92574974D03*
%TD*%
%TO.C,D316*%
X218687009Y-79674975D03*
X221587009Y-78574975D03*
%TD*%
%TO.C,D618*%
X124187009Y-104174975D03*
X127087009Y-103074975D03*
%TD*%
%TO.C,D762*%
X152187009Y-114674974D03*
X155087009Y-113574974D03*
%TD*%
%TO.C,D36*%
X201187009Y-48174974D03*
X204087009Y-47074974D03*
%TD*%
%TO.C,D435*%
X138187009Y-90174975D03*
X141087009Y-89074975D03*
%TD*%
%TO.C,D652*%
X82187010Y-107674974D03*
X85087010Y-106574974D03*
%TD*%
%TO.C,D149*%
X187187010Y-65674974D03*
X190087010Y-64574974D03*
%TD*%
%TO.C,D216*%
X166187009Y-72674974D03*
X169087009Y-71574974D03*
%TD*%
%TO.C,D535*%
X159187009Y-97174975D03*
X162087009Y-96074975D03*
%TD*%
%TO.C,D1009*%
X152187009Y-135674974D03*
X155087009Y-134574974D03*
%TD*%
%TO.C,D727*%
X187187010Y-111174975D03*
X190087010Y-110074975D03*
%TD*%
%TO.C,D1139*%
X75187010Y-149674974D03*
X78087010Y-148574974D03*
%TD*%
%TO.C,D452*%
X197687009Y-90174974D03*
X200587009Y-89074974D03*
%TD*%
%TO.C,D1005*%
X138187009Y-135674974D03*
X141087009Y-134574974D03*
%TD*%
%TO.C,D488*%
X159187009Y-93674974D03*
X162087009Y-92574974D03*
%TD*%
%TO.C,D441*%
X159187009Y-90174974D03*
X162087009Y-89074974D03*
%TD*%
%TO.C,D968*%
X148687010Y-132174974D03*
X151587010Y-131074974D03*
%TD*%
%TO.C,D410*%
X218687009Y-86674974D03*
X221587009Y-85574974D03*
%TD*%
%TO.C,D379*%
X110187009Y-86674974D03*
X113087009Y-85574974D03*
%TD*%
%TO.C,D415*%
X68187010Y-90174974D03*
X71087010Y-89074974D03*
%TD*%
%TO.C,D512*%
X78687009Y-97174975D03*
X81587009Y-96074975D03*
%TD*%
%TO.C,D704*%
X106687009Y-111174975D03*
X109587009Y-110074975D03*
%TD*%
%TO.C,D603*%
X71687009Y-104174975D03*
X74587009Y-103074975D03*
%TD*%
%TO.C,D477*%
X120687009Y-93674974D03*
X123587009Y-92574974D03*
%TD*%
%TO.C,D880*%
X127687010Y-125174974D03*
X130587010Y-124074974D03*
%TD*%
%TO.C,D208*%
X138187009Y-72674974D03*
X141087009Y-71574974D03*
%TD*%
%TO.C,D823*%
X71687010Y-121674974D03*
X74587010Y-120574974D03*
%TD*%
%TO.C,D1129*%
X166187009Y-146174975D03*
X169087009Y-145074975D03*
%TD*%
%TO.C,D1066*%
X78687009Y-142674974D03*
X81587009Y-141574974D03*
%TD*%
%TO.C,D270*%
X211687009Y-76174974D03*
X214587009Y-75074974D03*
%TD*%
%TO.C,D734*%
X54187009Y-114674974D03*
X57087009Y-113574974D03*
%TD*%
%TO.C,D68*%
X180187009Y-55174974D03*
X183087009Y-54074974D03*
%TD*%
%TO.C,D404*%
X197687010Y-86674974D03*
X200587010Y-85574974D03*
%TD*%
%TO.C,D354*%
X187187010Y-83174974D03*
X190087010Y-82074974D03*
%TD*%
%TO.C,D99*%
X211687009Y-58674975D03*
X214587009Y-57574975D03*
%TD*%
%TO.C,D440*%
X155687010Y-90174975D03*
X158587010Y-89074975D03*
%TD*%
%TO.C,D712*%
X134687010Y-111174975D03*
X137587010Y-110074975D03*
%TD*%
%TO.C,D313*%
X208187009Y-79674974D03*
X211087009Y-78574974D03*
%TD*%
%TO.C,D439*%
X152187009Y-90174975D03*
X155087009Y-89074975D03*
%TD*%
%TO.C,D167*%
X127687010Y-69174974D03*
X130587010Y-68074974D03*
%TD*%
%TO.C,D753*%
X120687009Y-114674974D03*
X123587009Y-113574974D03*
%TD*%
%TO.C,D940*%
X194187010Y-128674974D03*
X197087010Y-127574974D03*
%TD*%
%TO.C,D1024*%
X64687010Y-139174974D03*
X67587010Y-138074974D03*
%TD*%
%TO.C,D1064*%
X71687009Y-142674975D03*
X74587009Y-141574975D03*
%TD*%
%TO.C,D1149*%
X110187010Y-149674975D03*
X113087010Y-148574975D03*
%TD*%
%TO.C,D344*%
X152187009Y-83174974D03*
X155087009Y-82074974D03*
%TD*%
%TO.C,D455*%
X208187010Y-90174975D03*
X211087010Y-89074975D03*
%TD*%
%TO.C,D840*%
X131187009Y-121674974D03*
X134087009Y-120574974D03*
%TD*%
%TO.C,D737*%
X64687010Y-114674974D03*
X67587010Y-113574974D03*
%TD*%
%TO.C,D45*%
X169687009Y-51674974D03*
X172587009Y-50574974D03*
%TD*%
%TO.C,D596*%
X208187010Y-100674974D03*
X211087010Y-99574974D03*
%TD*%
%TO.C,D278*%
X85687010Y-79674974D03*
X88587010Y-78574974D03*
%TD*%
%TO.C,D88*%
X173187009Y-58674975D03*
X176087009Y-57574975D03*
%TD*%
%TO.C,D151*%
X194187010Y-65674975D03*
X197087010Y-64574975D03*
%TD*%
%TO.C,D104*%
X141687010Y-62174974D03*
X144587010Y-61074974D03*
%TD*%
%TO.C,D946*%
X71687010Y-132174974D03*
X74587010Y-131074974D03*
%TD*%
%TO.C,D866*%
X78687009Y-125174975D03*
X81587009Y-124074975D03*
%TD*%
%TO.C,D375*%
X96187009Y-86674974D03*
X99087009Y-85574974D03*
%TD*%
%TO.C,D864*%
X71687009Y-125174974D03*
X74587009Y-124074974D03*
%TD*%
%TO.C,D1072*%
X99687009Y-142674975D03*
X102587009Y-141574975D03*
%TD*%
%TO.C,D1019*%
X187187010Y-135674974D03*
X190087010Y-134574974D03*
%TD*%
%TO.C,D549*%
X208187010Y-97174974D03*
X211087010Y-96074974D03*
%TD*%
%TO.C,D20*%
X194187010Y-44674974D03*
X197087010Y-43574974D03*
%TD*%
%TO.C,D510*%
X71687009Y-97174974D03*
X74587009Y-96074974D03*
%TD*%
%TO.C,D246*%
X127687010Y-76174974D03*
X130587010Y-75074974D03*
%TD*%
%TO.C,D916*%
X110187009Y-128674974D03*
X113087009Y-127574974D03*
%TD*%
%TO.C,D825*%
X78687009Y-121674974D03*
X81587009Y-120574974D03*
%TD*%
%TO.C,D10*%
X197687009Y-41174974D03*
X200587009Y-40074974D03*
%TD*%
%TO.C,D464*%
X75187009Y-93674974D03*
X78087009Y-92574974D03*
%TD*%
%TO.C,D819*%
X201187010Y-118174974D03*
X204087010Y-117074974D03*
%TD*%
%TO.C,D640*%
X201187010Y-104174974D03*
X204087010Y-103074974D03*
%TD*%
%TO.C,D1046*%
X141687010Y-139174974D03*
X144587010Y-138074974D03*
%TD*%
%TO.C,D1103*%
X75187009Y-146174974D03*
X78087009Y-145074974D03*
%TD*%
%TO.C,D759*%
X141687010Y-114674974D03*
X144587010Y-113574974D03*
%TD*%
%TO.C,D1163*%
X159187009Y-149674975D03*
X162087009Y-148574975D03*
%TD*%
%TO.C,D559*%
X78687010Y-100674974D03*
X81587010Y-99574974D03*
%TD*%
%TO.C,D327*%
X92687009Y-83174974D03*
X95587009Y-82074974D03*
%TD*%
%TO.C,D1071*%
X96187009Y-142674975D03*
X99087009Y-141574975D03*
%TD*%
%TO.C,D155*%
X208187009Y-65674974D03*
X211087009Y-64574974D03*
%TD*%
%TO.C,D396*%
X169687010Y-86674974D03*
X172587010Y-85574974D03*
%TD*%
%TO.C,D575*%
X134687009Y-100674974D03*
X137587009Y-99574974D03*
%TD*%
%TO.C,D392*%
X155687010Y-86674974D03*
X158587010Y-85574974D03*
%TD*%
%TO.C,D803*%
X145187009Y-118174974D03*
X148087009Y-117074974D03*
%TD*%
%TO.C,D693*%
X68187010Y-111174975D03*
X71087010Y-110074975D03*
%TD*%
%TO.C,D602*%
X68187010Y-104174974D03*
X71087010Y-103074974D03*
%TD*%
%TO.C,D947*%
X75187009Y-132174974D03*
X78087009Y-131074974D03*
%TD*%
%TO.C,D637*%
X190687009Y-104174975D03*
X193587009Y-103074975D03*
%TD*%
%TO.C,D571*%
X120687009Y-100674974D03*
X123587009Y-99574974D03*
%TD*%
%TO.C,D963*%
X131187009Y-132174974D03*
X134087009Y-131074974D03*
%TD*%
%TO.C,D913*%
X99687009Y-128674974D03*
X102587009Y-127574974D03*
%TD*%
%TO.C,D794*%
X113687009Y-118174975D03*
X116587009Y-117074975D03*
%TD*%
%TO.C,D679*%
X176687010Y-107674974D03*
X179587010Y-106574974D03*
%TD*%
%TO.C,D140*%
X155687009Y-65674974D03*
X158587009Y-64574974D03*
%TD*%
%TO.C,D921*%
X127687010Y-128674974D03*
X130587010Y-127574974D03*
%TD*%
%TO.C,D1061*%
X194187010Y-139174974D03*
X197087010Y-138074974D03*
%TD*%
%TO.C,D422*%
X92687009Y-90174974D03*
X95587009Y-89074974D03*
%TD*%
%TO.C,D583*%
X162687009Y-100674974D03*
X165587009Y-99574974D03*
%TD*%
%TO.C,D721*%
X166187009Y-111174974D03*
X169087009Y-110074974D03*
%TD*%
%TO.C,D591*%
X190687009Y-100674974D03*
X193587009Y-99574974D03*
%TD*%
%TO.C,D1160*%
X148687010Y-149674975D03*
X151587010Y-148574975D03*
%TD*%
%TO.C,D335*%
X120687009Y-83174974D03*
X123587009Y-82074974D03*
%TD*%
%TO.C,D735*%
X57687009Y-114674974D03*
X60587009Y-113574974D03*
%TD*%
%TO.C,D252*%
X148687009Y-76174974D03*
X151587009Y-75074974D03*
%TD*%
%TO.C,D487*%
X155687009Y-93674974D03*
X158587009Y-92574974D03*
%TD*%
%TO.C,D492*%
X173187009Y-93674974D03*
X176087009Y-92574974D03*
%TD*%
%TO.C,D552*%
X54187009Y-100674974D03*
X57087009Y-99574974D03*
%TD*%
%TO.C,D724*%
X176687009Y-111174974D03*
X179587009Y-110074974D03*
%TD*%
%TO.C,D227*%
X204687009Y-72674974D03*
X207587009Y-71574974D03*
%TD*%
%TO.C,D325*%
X85687009Y-83174974D03*
X88587009Y-82074974D03*
%TD*%
%TO.C,D1020*%
X190687009Y-135674974D03*
X193587009Y-134574974D03*
%TD*%
%TO.C,D147*%
X180187010Y-65674975D03*
X183087010Y-64574975D03*
%TD*%
%TO.C,D656*%
X96187010Y-107674974D03*
X99087010Y-106574974D03*
%TD*%
%TO.C,D1192*%
X155687010Y-153174974D03*
X158587010Y-152074974D03*
%TD*%
%TO.C,D744*%
X89187010Y-114674974D03*
X92087010Y-113574974D03*
%TD*%
%TO.C,D700*%
X92687009Y-111174975D03*
X95587009Y-110074975D03*
%TD*%
%TO.C,D661*%
X113687009Y-107674974D03*
X116587009Y-106574974D03*
%TD*%
%TO.C,D651*%
X78687009Y-107674974D03*
X81587009Y-106574974D03*
%TD*%
%TO.C,D1100*%
X64687009Y-146174974D03*
X67587009Y-145074974D03*
%TD*%
%TO.C,D331*%
X106687009Y-83174974D03*
X109587009Y-82074974D03*
%TD*%
%TO.C,D529*%
X138187009Y-97174974D03*
X141087009Y-96074974D03*
%TD*%
%TO.C,D852*%
X173187009Y-121674974D03*
X176087009Y-120574974D03*
%TD*%
%TO.C,D1059*%
X187187009Y-139174974D03*
X190087009Y-138074974D03*
%TD*%
%TO.C,D701*%
X96187009Y-111174974D03*
X99087009Y-110074974D03*
%TD*%
%TO.C,D826*%
X82187010Y-121674974D03*
X85087010Y-120574974D03*
%TD*%
%TO.C,D188*%
X201187010Y-69174974D03*
X204087010Y-68074974D03*
%TD*%
%TO.C,D14*%
X173187009Y-44674975D03*
X176087009Y-43574975D03*
%TD*%
%TO.C,D120*%
X197687010Y-62174974D03*
X200587010Y-61074974D03*
%TD*%
%TO.C,D160*%
X103187009Y-69174974D03*
X106087009Y-68074974D03*
%TD*%
%TO.C,D729*%
X194187010Y-111174974D03*
X197087010Y-110074974D03*
%TD*%
%TO.C,D789*%
X96187010Y-118174974D03*
X99087010Y-117074974D03*
%TD*%
%TO.C,D310*%
X197687009Y-79674974D03*
X200587009Y-78574974D03*
%TD*%
%TO.C,D1130*%
X169687009Y-146174974D03*
X172587009Y-145074974D03*
%TD*%
%TO.C,D355*%
X190687009Y-83174974D03*
X193587009Y-82074974D03*
%TD*%
%TO.C,D967*%
X145187009Y-132174974D03*
X148087009Y-131074974D03*
%TD*%
%TO.C,D465*%
X78687009Y-93674974D03*
X81587009Y-92574974D03*
%TD*%
%TO.C,D988*%
X78687009Y-135674974D03*
X81587009Y-134574974D03*
%TD*%
%TO.C,D499*%
X197687009Y-93674974D03*
X200587009Y-92574974D03*
%TD*%
%TO.C,D1197*%
X173187009Y-153174974D03*
X176087009Y-152074974D03*
%TD*%
%TO.C,D545*%
X194187010Y-97174974D03*
X197087010Y-96074974D03*
%TD*%
%TO.C,D437*%
X145187009Y-90174974D03*
X148087009Y-89074974D03*
%TD*%
%TO.C,D175*%
X155687009Y-69174974D03*
X158587009Y-68074974D03*
%TD*%
%TO.C,D1047*%
X145187010Y-139174974D03*
X148087010Y-138074974D03*
%TD*%
%TO.C,D764*%
X159187009Y-114674974D03*
X162087009Y-113574974D03*
%TD*%
%TO.C,D462*%
X68187010Y-93674974D03*
X71087010Y-92574974D03*
%TD*%
%TO.C,D788*%
X92687009Y-118174974D03*
X95587009Y-117074974D03*
%TD*%
%TO.C,D703*%
X103187010Y-111174974D03*
X106087010Y-110074974D03*
%TD*%
%TO.C,D558*%
X75187010Y-100674974D03*
X78087010Y-99574974D03*
%TD*%
%TO.C,D702*%
X99687009Y-111174974D03*
X102587009Y-110074974D03*
%TD*%
%TO.C,D901*%
X201187009Y-125174974D03*
X204087009Y-124074974D03*
%TD*%
%TO.C,D543*%
X187187010Y-97174975D03*
X190087010Y-96074975D03*
%TD*%
%TO.C,D710*%
X127687010Y-111174974D03*
X130587010Y-110074974D03*
%TD*%
%TO.C,D929*%
X155687010Y-128674974D03*
X158587010Y-127574974D03*
%TD*%
%TO.C,D1105*%
X82187010Y-146174974D03*
X85087010Y-145074974D03*
%TD*%
%TO.C,D1034*%
X99687009Y-139174974D03*
X102587009Y-138074974D03*
%TD*%
%TO.C,D647*%
X64687009Y-107674974D03*
X67587009Y-106574974D03*
%TD*%
%TO.C,D751*%
X113687009Y-114674974D03*
X116587009Y-113574974D03*
%TD*%
%TO.C,D560*%
X82187009Y-100674974D03*
X85087009Y-99574974D03*
%TD*%
%TO.C,D690*%
X57687009Y-111174974D03*
X60587009Y-110074974D03*
%TD*%
%TO.C,D1174*%
X78687010Y-153174974D03*
X81587010Y-152074974D03*
%TD*%
%TO.C,D792*%
X106687009Y-118174974D03*
X109587009Y-117074974D03*
%TD*%
%TO.C,D365*%
X61187009Y-86674974D03*
X64087009Y-85574974D03*
%TD*%
%TO.C,D368*%
X71687009Y-86674974D03*
X74587009Y-85574974D03*
%TD*%
%TO.C,D1077*%
X117187010Y-142674975D03*
X120087010Y-141574975D03*
%TD*%
%TO.C,D965*%
X138187010Y-132174974D03*
X141087010Y-131074974D03*
%TD*%
%TO.C,D137*%
X145187009Y-65674974D03*
X148087009Y-64574974D03*
%TD*%
%TO.C,D1*%
X183687009Y-37674974D03*
X186587009Y-36574974D03*
%TD*%
%TO.C,D386*%
X134687009Y-86674974D03*
X137587009Y-85574974D03*
%TD*%
%TO.C,D458*%
X54187009Y-93674974D03*
X57087009Y-92574974D03*
%TD*%
%TO.C,D298*%
X155687009Y-79674974D03*
X158587009Y-78574974D03*
%TD*%
%TO.C,D648*%
X68187010Y-107674974D03*
X71087010Y-106574974D03*
%TD*%
%TO.C,D429*%
X117187009Y-90174974D03*
X120087009Y-89074974D03*
%TD*%
%TO.C,D1012*%
X162687010Y-135674974D03*
X165587010Y-134574974D03*
%TD*%
%TO.C,D1048*%
X148687009Y-139174974D03*
X151587009Y-138074974D03*
%TD*%
%TO.C,D339*%
X134687010Y-83174974D03*
X137587010Y-82074974D03*
%TD*%
%TO.C,D833*%
X106687009Y-121674974D03*
X109587009Y-120574974D03*
%TD*%
%TO.C,D951*%
X89187009Y-132174974D03*
X92087009Y-131074974D03*
%TD*%
%TO.C,D275*%
X75187009Y-79674974D03*
X78087009Y-78574974D03*
%TD*%
%TO.C,D496*%
X187187010Y-93674974D03*
X190087010Y-92574974D03*
%TD*%
%TO.C,D387*%
X138187009Y-86674974D03*
X141087009Y-85574974D03*
%TD*%
%TO.C,D1142*%
X85687009Y-149674974D03*
X88587009Y-148574974D03*
%TD*%
%TO.C,D24*%
X159187009Y-48174974D03*
X162087009Y-47074974D03*
%TD*%
%TO.C,D872*%
X99687009Y-125174974D03*
X102587009Y-124074974D03*
%TD*%
%TO.C,D519*%
X103187010Y-97174974D03*
X106087010Y-96074974D03*
%TD*%
%TO.C,D163*%
X113687009Y-69174974D03*
X116587009Y-68074974D03*
%TD*%
%TO.C,D931*%
X162687009Y-128674974D03*
X165587009Y-127574974D03*
%TD*%
%TO.C,D1194*%
X162687009Y-153174974D03*
X165587009Y-152074974D03*
%TD*%
%TO.C,D579*%
X148687009Y-100674974D03*
X151587009Y-99574974D03*
%TD*%
%TO.C,D516*%
X92687009Y-97174975D03*
X95587009Y-96074975D03*
%TD*%
%TO.C,D977*%
X180187010Y-132174975D03*
X183087010Y-131074975D03*
%TD*%
%TO.C,D1052*%
X162687009Y-139174974D03*
X165587009Y-138074974D03*
%TD*%
%TO.C,D586*%
X173187009Y-100674974D03*
X176087009Y-99574974D03*
%TD*%
%TO.C,D220*%
X180187010Y-72674974D03*
X183087010Y-71574974D03*
%TD*%
%TO.C,D1170*%
X183687009Y-149674975D03*
X186587009Y-148574975D03*
%TD*%
%TO.C,D507*%
X61187009Y-97174974D03*
X64087009Y-96074974D03*
%TD*%
%TO.C,D1108*%
X92687009Y-146174974D03*
X95587009Y-145074974D03*
%TD*%
%TO.C,D524*%
X120687009Y-97174975D03*
X123587009Y-96074975D03*
%TD*%
%TO.C,D203*%
X120687009Y-72674975D03*
X123587009Y-71574975D03*
%TD*%
%TO.C,D406*%
X204687009Y-86674974D03*
X207587009Y-85574974D03*
%TD*%
%TO.C,D41*%
X155687009Y-51674974D03*
X158587009Y-50574974D03*
%TD*%
%TO.C,D1040*%
X120687009Y-139174975D03*
X123587009Y-138074975D03*
%TD*%
%TO.C,D1037*%
X110187009Y-139174974D03*
X113087009Y-138074974D03*
%TD*%
%TO.C,D273*%
X222187010Y-76174974D03*
X225087010Y-75074974D03*
%TD*%
%TO.C,D1112*%
X106687009Y-146174974D03*
X109587009Y-145074974D03*
%TD*%
%TO.C,D1036*%
X106687009Y-139174975D03*
X109587009Y-138074975D03*
%TD*%
%TO.C,D774*%
X194187010Y-114674974D03*
X197087010Y-113574974D03*
%TD*%
%TO.C,D176*%
X159187009Y-69174974D03*
X162087009Y-68074974D03*
%TD*%
%TO.C,D805*%
X152187009Y-118174975D03*
X155087009Y-117074975D03*
%TD*%
%TO.C,D199*%
X106687009Y-72674975D03*
X109587009Y-71574975D03*
%TD*%
%TO.C,D1060*%
X190687009Y-139174974D03*
X193587009Y-138074974D03*
%TD*%
%TO.C,D221*%
X183687010Y-72674974D03*
X186587010Y-71574974D03*
%TD*%
%TO.C,D1017*%
X180187010Y-135674974D03*
X183087010Y-134574974D03*
%TD*%
%TO.C,D891*%
X166187009Y-125174974D03*
X169087009Y-124074974D03*
%TD*%
%TO.C,D832*%
X103187009Y-121674974D03*
X106087009Y-120574974D03*
%TD*%
%TO.C,D981*%
X194187009Y-132174974D03*
X197087009Y-131074974D03*
%TD*%
%TO.C,D802*%
X141687010Y-118174975D03*
X144587010Y-117074975D03*
%TD*%
%TO.C,D400*%
X183687010Y-86674974D03*
X186587010Y-85574974D03*
%TD*%
%TO.C,D971*%
X159187009Y-132174974D03*
X162087009Y-131074974D03*
%TD*%
%TO.C,D573*%
X127687010Y-100674974D03*
X130587010Y-99574974D03*
%TD*%
%TO.C,D607*%
X85687009Y-104174975D03*
X88587009Y-103074975D03*
%TD*%
%TO.C,D936*%
X180187010Y-128674974D03*
X183087010Y-127574974D03*
%TD*%
%TO.C,D143*%
X166187009Y-65674975D03*
X169087009Y-64574975D03*
%TD*%
%TO.C,D668*%
X138187010Y-107674974D03*
X141087010Y-106574974D03*
%TD*%
%TO.C,D38*%
X145187009Y-51674974D03*
X148087009Y-50574974D03*
%TD*%
%TO.C,D623*%
X141687010Y-104174975D03*
X144587010Y-103074975D03*
%TD*%
%TO.C,D526*%
X127687010Y-97174974D03*
X130587010Y-96074974D03*
%TD*%
D12*
%TO.C,H10*%
X210600000Y-107700000D03*
%TD*%
D11*
%TO.C,D154*%
X204687009Y-65674975D03*
X207587009Y-64574975D03*
%TD*%
%TO.C,D680*%
X180187009Y-107674974D03*
X183087009Y-106574974D03*
%TD*%
%TO.C,D919*%
X120687009Y-128674974D03*
X123587009Y-127574974D03*
%TD*%
%TO.C,D984*%
X64687009Y-135674974D03*
X67587009Y-134574974D03*
%TD*%
%TO.C,D417*%
X75187010Y-90174975D03*
X78087010Y-89074975D03*
%TD*%
%TO.C,D809*%
X166187009Y-118174975D03*
X169087009Y-117074975D03*
%TD*%
%TO.C,D70*%
X187187010Y-55174974D03*
X190087010Y-54074974D03*
%TD*%
%TO.C,D498*%
X194187009Y-93674974D03*
X197087009Y-92574974D03*
%TD*%
%TO.C,D1141*%
X82187010Y-149674975D03*
X85087010Y-148574975D03*
%TD*%
%TO.C,D47*%
X176687009Y-51674975D03*
X179587009Y-50574975D03*
%TD*%
%TO.C,D624*%
X145187009Y-104174974D03*
X148087009Y-103074974D03*
%TD*%
%TO.C,D644*%
X54187009Y-107674974D03*
X57087009Y-106574974D03*
%TD*%
%TO.C,D815*%
X187187010Y-118174974D03*
X190087010Y-117074974D03*
%TD*%
%TO.C,D204*%
X124187009Y-72674974D03*
X127087009Y-71574974D03*
%TD*%
%TO.C,D267*%
X201187009Y-76174974D03*
X204087009Y-75074974D03*
%TD*%
%TO.C,D91*%
X183687009Y-58674975D03*
X186587009Y-57574975D03*
%TD*%
%TO.C,D292*%
X134687010Y-79674974D03*
X137587010Y-78574974D03*
%TD*%
%TO.C,D200*%
X110187009Y-72674974D03*
X113087009Y-71574974D03*
%TD*%
%TO.C,D877*%
X117187010Y-125174974D03*
X120087010Y-124074974D03*
%TD*%
%TO.C,D319*%
X64687009Y-83174974D03*
X67587009Y-82074974D03*
%TD*%
%TO.C,D617*%
X120687009Y-104174974D03*
X123587009Y-103074974D03*
%TD*%
%TO.C,D924*%
X138187009Y-128674974D03*
X141087009Y-127574974D03*
%TD*%
%TO.C,D11*%
X162687009Y-44674974D03*
X165587009Y-43574974D03*
%TD*%
%TO.C,D43*%
X162687010Y-51674974D03*
X165587010Y-50574974D03*
%TD*%
%TO.C,D658*%
X103187009Y-107674974D03*
X106087009Y-106574974D03*
%TD*%
%TO.C,D1161*%
X152187009Y-149674974D03*
X155087009Y-148574974D03*
%TD*%
%TO.C,D28*%
X173187009Y-48174974D03*
X176087009Y-47074974D03*
%TD*%
%TO.C,D777*%
X54187009Y-118174974D03*
X57087009Y-117074974D03*
%TD*%
%TO.C,D414*%
X64687009Y-90174974D03*
X67587009Y-89074974D03*
%TD*%
%TO.C,D57*%
X141687009Y-55174974D03*
X144587009Y-54074974D03*
%TD*%
%TO.C,D445*%
X173187009Y-90174974D03*
X176087009Y-89074974D03*
%TD*%
%TO.C,D150*%
X190687009Y-65674975D03*
X193587009Y-64574975D03*
%TD*%
%TO.C,D625*%
X148687010Y-104174974D03*
X151587010Y-103074974D03*
%TD*%
%TO.C,D896*%
X183687010Y-125174974D03*
X186587010Y-124074974D03*
%TD*%
%TO.C,D226*%
X201187009Y-72674974D03*
X204087009Y-71574974D03*
%TD*%
%TO.C,D427*%
X110187009Y-90174975D03*
X113087009Y-89074975D03*
%TD*%
%TO.C,D616*%
X117187009Y-104174974D03*
X120087009Y-103074974D03*
%TD*%
M02*
